<?xml version="1.0" encoding="utf-8" standalone="no"?>
<!DOCTYPE svg PUBLIC "-//W3C//DTD SVG 1.1//EN"
  "http://www.w3.org/Graphics/SVG/1.1/DTD/svg11.dtd">
<svg xmlns:xlink="http://www.w3.org/1999/xlink" width="576pt" height="720pt" viewBox="0 0 576 720" xmlns="http://www.w3.org/2000/svg" version="1.1">
 <metadata>
  <rdf:RDF xmlns:dc="http://purl.org/dc/elements/1.1/" xmlns:cc="http://creativecommons.org/ns#" xmlns:rdf="http://www.w3.org/1999/02/22-rdf-syntax-ns#">
   <cc:Work>
    <dc:type rdf:resource="http://purl.org/dc/dcmitype/StillImage"/>
    <dc:date>2026-02-17T14:56:45.303168</dc:date>
    <dc:format>image/svg+xml</dc:format>
    <dc:creator>
     <cc:Agent>
      <dc:title>Matplotlib v3.10.3, https://matplotlib.org/</dc:title>
     </cc:Agent>
    </dc:creator>
   </cc:Work>
  </rdf:RDF>
 </metadata>
 <defs>
  <style type="text/css">*{stroke-linejoin: round; stroke-linecap: butt}</style>
 </defs>
 <g id="figure_1">
  <g id="patch_1">
   <path d="M 0 720 
L 576 720 
L 576 0 
L 0 0 
z
" style="fill: #ffffff"/>
  </g>
  <g id="axes_1">
   <g id="patch_2">
    <path d="M 78.462181 322.907852 
L 565.2 322.907852 
L 565.2 10.8 
L 78.462181 10.8 
z
" style="fill: #ffffff"/>
   </g>
   <g id="matplotlib.axis_1">
    <g id="xtick_1">
     <g id="line2d_1">
      <defs>
       <path id="m24520294e5" d="M 0 0 
L 0 3.5 
" style="stroke: #000000; stroke-width: 0.8"/>
      </defs>
      <g>
       <use xlink:href="#m24520294e5" x="98.960474" y="322.907852" style="stroke: #000000; stroke-width: 0.8"/>
      </g>
     </g>
    </g>
    <g id="xtick_2">
     <g id="line2d_2">
      <g>
       <use xlink:href="#m24520294e5" x="183.559979" y="322.907852" style="stroke: #000000; stroke-width: 0.8"/>
      </g>
     </g>
    </g>
    <g id="xtick_3">
     <g id="line2d_3">
      <g>
       <use xlink:href="#m24520294e5" x="268.159484" y="322.907852" style="stroke: #000000; stroke-width: 0.8"/>
      </g>
     </g>
    </g>
    <g id="xtick_4">
     <g id="line2d_4">
      <g>
       <use xlink:href="#m24520294e5" x="352.758989" y="322.907852" style="stroke: #000000; stroke-width: 0.8"/>
      </g>
     </g>
    </g>
    <g id="xtick_5">
     <g id="line2d_5">
      <g>
       <use xlink:href="#m24520294e5" x="437.358493" y="322.907852" style="stroke: #000000; stroke-width: 0.8"/>
      </g>
     </g>
    </g>
    <g id="xtick_6">
     <g id="line2d_6">
      <g>
       <use xlink:href="#m24520294e5" x="521.957998" y="322.907852" style="stroke: #000000; stroke-width: 0.8"/>
      </g>
     </g>
    </g>
   </g>
   <g id="matplotlib.axis_2">
    <g id="ytick_1">
     <g id="line2d_7">
      <defs>
       <path id="m293afc0b90" d="M 0 0 
L -3.5 0 
" style="stroke: #000000; stroke-width: 0.8"/>
      </defs>
      <g>
       <use xlink:href="#m293afc0b90" x="78.462181" y="308.721132" style="stroke: #000000; stroke-width: 0.8"/>
      </g>
     </g>
     <g id="text_1">
      <!-- $\mathdefault{0.0}$ -->
      <g transform="translate(40.657867 317.715183) scale(0.26 -0.26)">
       <defs>
        <path id="CMR17-30" d="M 2688 2038 
C 2688 2430 2682 3099 2413 3613 
C 2176 4063 1798 4224 1466 4224 
C 1158 4224 768 4082 525 3620 
C 269 3137 243 2539 243 2038 
C 243 1671 250 1112 448 623 
C 723 -39 1216 -128 1466 -128 
C 1760 -128 2208 -7 2470 604 
C 2662 1048 2688 1568 2688 2038 
z
M 1466 -26 
C 1056 -26 813 328 723 816 
C 653 1196 653 1749 653 2109 
C 653 2604 653 3015 736 3407 
C 858 3954 1216 4121 1466 4121 
C 1728 4121 2067 3947 2189 3420 
C 2272 3054 2278 2623 2278 2109 
C 2278 1691 2278 1176 2202 797 
C 2067 96 1690 -26 1466 -26 
z
" transform="scale(0.015625)"/>
        <path id="CMMI12-3a" d="M 1178 307 
C 1178 492 1024 620 870 620 
C 685 620 557 467 557 313 
C 557 128 710 0 864 0 
C 1050 0 1178 153 1178 307 
z
" transform="scale(0.015625)"/>
       </defs>
       <use xlink:href="#CMR17-30" transform="scale(0.996264)"/>
       <use xlink:href="#CMMI12-3a" transform="translate(45.690477 0) scale(0.996264)"/>
       <use xlink:href="#CMR17-30" transform="translate(72.787654 0) scale(0.996264)"/>
      </g>
     </g>
    </g>
    <g id="ytick_2">
     <g id="line2d_8">
      <g>
       <use xlink:href="#m293afc0b90" x="78.462181" y="229.595575" style="stroke: #000000; stroke-width: 0.8"/>
      </g>
     </g>
     <g id="text_2">
      <!-- $\mathdefault{0.5}$ -->
      <g transform="translate(40.657867 238.589626) scale(0.26 -0.26)">
       <defs>
        <path id="CMR17-35" d="M 730 3750 
C 794 3724 1056 3641 1325 3641 
C 1920 3641 2246 3961 2432 4140 
C 2432 4191 2432 4224 2394 4224 
C 2387 4224 2374 4224 2323 4198 
C 2099 4102 1837 4032 1517 4032 
C 1325 4032 1037 4055 723 4191 
C 653 4224 640 4224 634 4224 
C 602 4224 595 4217 595 4090 
L 595 2231 
C 595 2113 595 2080 659 2080 
C 691 2080 704 2093 736 2139 
C 941 2435 1222 2560 1542 2560 
C 1766 2560 2246 2415 2246 1293 
C 2246 1087 2246 716 2054 422 
C 1894 159 1645 25 1370 25 
C 947 25 518 319 403 812 
C 429 806 480 793 506 793 
C 589 793 749 838 749 1036 
C 749 1209 627 1280 506 1280 
C 358 1280 262 1190 262 1011 
C 262 454 704 -128 1382 -128 
C 2042 -128 2669 441 2669 1267 
C 2669 2054 2170 2662 1549 2662 
C 1222 2662 947 2540 730 2304 
L 730 3750 
z
" transform="scale(0.015625)"/>
       </defs>
       <use xlink:href="#CMR17-30" transform="scale(0.996264)"/>
       <use xlink:href="#CMMI12-3a" transform="translate(45.690477 0) scale(0.996264)"/>
       <use xlink:href="#CMR17-35" transform="translate(72.787654 0) scale(0.996264)"/>
      </g>
     </g>
    </g>
    <g id="ytick_3">
     <g id="line2d_9">
      <g>
       <use xlink:href="#m293afc0b90" x="78.462181" y="150.470019" style="stroke: #000000; stroke-width: 0.8"/>
      </g>
     </g>
     <g id="text_3">
      <!-- $\mathdefault{1.0}$ -->
      <g transform="translate(40.657867 159.46407) scale(0.26 -0.26)">
       <defs>
        <path id="CMR17-31" d="M 1702 4083 
C 1702 4217 1696 4224 1606 4224 
C 1357 3927 979 3833 621 3820 
C 602 3820 570 3820 563 3808 
C 557 3795 557 3782 557 3648 
C 755 3648 1088 3686 1344 3839 
L 1344 467 
C 1344 243 1331 166 781 166 
L 589 166 
L 589 0 
C 896 6 1216 12 1523 12 
C 1830 12 2150 6 2458 0 
L 2458 166 
L 2266 166 
C 1715 166 1702 236 1702 467 
L 1702 4083 
z
" transform="scale(0.015625)"/>
       </defs>
       <use xlink:href="#CMR17-31" transform="scale(0.996264)"/>
       <use xlink:href="#CMMI12-3a" transform="translate(45.690477 0) scale(0.996264)"/>
       <use xlink:href="#CMR17-30" transform="translate(72.787654 0) scale(0.996264)"/>
      </g>
     </g>
    </g>
    <g id="ytick_4">
     <g id="line2d_10">
      <g>
       <use xlink:href="#m293afc0b90" x="78.462181" y="71.344463" style="stroke: #000000; stroke-width: 0.8"/>
      </g>
     </g>
     <g id="text_4">
      <!-- $\mathdefault{1.5}$ -->
      <g transform="translate(40.657867 80.338514) scale(0.26 -0.26)">
       <use xlink:href="#CMR17-31" transform="scale(0.996264)"/>
       <use xlink:href="#CMMI12-3a" transform="translate(45.690477 0) scale(0.996264)"/>
       <use xlink:href="#CMR17-35" transform="translate(72.787654 0) scale(0.996264)"/>
      </g>
     </g>
    </g>
    <g id="text_5">
     <!-- dN/dlog(m) -->
     <g transform="translate(30.203829 229.291188) rotate(-90) scale(0.26 -0.26)">
      <defs>
       <path id="CMR17-64" d="M 1869 4345 
L 1869 4179 
C 2246 4179 2304 4141 2304 3843 
L 2304 2371 
C 2278 2403 2016 2816 1498 2816 
C 845 2816 211 2228 211 1376 
C 211 529 806 -64 1434 -64 
C 1978 -64 2259 361 2291 406 
L 2291 -64 
L 3066 -13 
L 3066 154 
C 2688 154 2630 193 2630 503 
L 2630 4416 
L 1869 4345 
z
M 2291 762 
C 2291 568 2176 393 2029 264 
C 1811 70 1594 38 1472 38 
C 1286 38 621 135 621 1369 
C 621 2636 1363 2713 1530 2713 
C 1824 2713 2061 2545 2208 2313 
C 2291 2177 2291 2157 2291 2041 
L 2291 762 
z
" transform="scale(0.015625)"/>
       <path id="CMR17-4e" d="M 1312 4275 
C 1267 4345 1261 4352 1139 4352 
L 326 4352 
L 326 4185 
L 448 4185 
C 704 4185 819 4153 838 4147 
L 838 624 
C 838 465 838 166 326 166 
L 326 0 
C 474 12 742 12 902 12 
C 1062 12 1331 12 1478 0 
L 1478 166 
C 966 166 966 465 966 624 
L 966 4057 
C 1011 4019 1011 4007 1056 3943 
L 3430 76 
C 3475 0 3494 0 3526 0 
C 3590 0 3590 19 3590 140 
L 3590 3726 
C 3590 3885 3590 4185 4102 4185 
L 4102 4352 
C 3955 4339 3686 4339 3526 4339 
C 3366 4339 3098 4339 2950 4352 
L 2950 4185 
C 3462 4185 3462 3885 3462 3726 
L 3462 777 
L 1312 4275 
z
" transform="scale(0.015625)"/>
       <path id="CMR17-2f" d="M 2605 4575 
C 2637 4658 2637 4671 2637 4684 
C 2637 4761 2579 4800 2528 4800 
C 2451 4800 2426 4748 2400 4671 
L 326 -1376 
C 294 -1460 294 -1472 294 -1485 
C 294 -1562 352 -1600 403 -1600 
C 480 -1600 506 -1549 531 -1472 
L 2605 4575 
z
" transform="scale(0.015625)"/>
       <path id="CMR17-6c" d="M 979 4416 
L 218 4345 
L 218 4179 
C 595 4179 653 4141 653 3835 
L 653 439 
C 653 198 627 166 218 166 
L 218 0 
C 371 12 653 12 813 12 
C 979 12 1261 12 1414 0 
L 1414 166 
C 1005 166 979 191 979 439 
L 979 4416 
z
" transform="scale(0.015625)"/>
       <path id="CMR17-6f" d="M 2758 1356 
C 2758 2176 2163 2816 1466 2816 
C 768 2816 173 2176 173 1356 
C 173 550 768 -64 1466 -64 
C 2163 -64 2758 550 2758 1356 
z
M 1466 51 
C 1165 51 909 230 762 480 
C 602 768 582 1126 582 1408 
C 582 1676 595 2009 762 2297 
C 890 2508 1139 2713 1466 2713 
C 1754 2713 1997 2553 2150 2329 
C 2349 2028 2349 1606 2349 1408 
C 2349 1158 2336 774 2163 467 
C 1984 172 1709 51 1466 51 
z
" transform="scale(0.015625)"/>
       <path id="CMR17-67" d="M 710 1165 
C 832 1068 1043 960 1299 960 
C 1805 960 2240 1359 2240 1895 
C 2240 2063 2189 2321 1997 2521 
C 2176 2713 2438 2777 2586 2777 
C 2611 2777 2650 2777 2682 2758 
C 2656 2751 2598 2726 2598 2623 
C 2598 2540 2656 2483 2739 2483 
C 2835 2483 2886 2547 2886 2630 
C 2886 2751 2790 2880 2586 2880 
C 2330 2880 2106 2758 1926 2591 
C 1734 2764 1504 2828 1299 2828 
C 794 2828 358 2431 358 1895 
C 358 1527 570 1294 634 1230 
C 442 1004 442 742 442 710 
C 442 544 506 300 723 166 
C 390 82 128 -184 128 -517 
C 128 -996 736 -1344 1466 -1344 
C 2170 -1344 2803 -1009 2803 -510 
C 2803 384 1856 384 1363 384 
C 1216 384 954 384 922 390 
C 723 422 589 601 589 825 
C 589 883 589 1024 710 1165 
z
M 1299 1068 
C 736 1068 736 1766 736 1895 
C 736 2024 736 2719 1299 2719 
C 1862 2719 1862 2024 1862 1895 
C 1862 1766 1862 1068 1299 1068 
z
M 1466 -1236 
C 826 -1236 384 -883 384 -517 
C 384 -311 493 -118 634 -11 
C 794 102 858 102 1293 102 
C 1818 102 2547 102 2547 -517 
C 2547 -883 2106 -1236 1466 -1236 
z
" transform="scale(0.015625)"/>
       <path id="CMR17-28" d="M 1958 -1562 
C 1958 -1556 1958 -1543 1939 -1524 
C 1645 -1223 858 -403 858 1596 
C 858 3595 1632 4408 1946 4729 
C 1946 4735 1958 4748 1958 4767 
C 1958 4787 1939 4800 1914 4800 
C 1843 4800 1299 4325 986 3620 
C 666 2909 576 2218 576 1603 
C 576 1141 621 360 1005 -467 
C 1312 -1133 1837 -1600 1914 -1600 
C 1946 -1600 1958 -1588 1958 -1562 
z
" transform="scale(0.015625)"/>
       <path id="CMR17-6d" d="M 4326 1954 
C 4326 2276 4269 2816 3507 2816 
C 3072 2816 2771 2520 2656 2173 
L 2650 2173 
C 2573 2700 2195 2816 1837 2816 
C 1331 2816 1069 2424 973 2166 
L 966 2166 
L 966 2816 
L 211 2745 
L 211 2578 
C 589 2578 646 2540 646 2231 
L 646 443 
C 646 198 621 166 211 166 
L 211 0 
C 365 12 646 12 813 12 
C 979 12 1267 12 1421 0 
L 1421 166 
C 1011 166 986 192 986 443 
L 986 1678 
C 986 2269 1344 2713 1792 2713 
C 2266 2713 2317 2289 2317 1980 
L 2317 443 
C 2317 198 2291 166 1882 166 
L 1882 0 
C 2035 12 2317 12 2483 12 
C 2650 12 2938 12 3091 0 
L 3091 166 
C 2682 166 2656 192 2656 443 
L 2656 1678 
C 2656 2269 3014 2713 3462 2713 
C 3936 2713 3987 2289 3987 1980 
L 3987 443 
C 3987 198 3962 166 3552 166 
L 3552 0 
C 3706 12 3987 12 4154 12 
C 4320 12 4608 12 4762 0 
L 4762 166 
C 4352 166 4326 192 4326 443 
L 4326 1954 
z
" transform="scale(0.015625)"/>
       <path id="CMR17-29" d="M 1683 1596 
C 1683 2057 1638 2839 1254 3665 
C 947 4332 422 4800 346 4800 
C 326 4800 301 4793 301 4761 
C 301 4748 307 4742 314 4729 
C 621 4408 1402 3595 1402 1603 
C 1402 -396 627 -1210 314 -1530 
C 307 -1543 301 -1549 301 -1562 
C 301 -1594 326 -1600 346 -1600 
C 416 -1600 960 -1127 1274 -422 
C 1594 289 1683 981 1683 1596 
z
" transform="scale(0.015625)"/>
      </defs>
      <use xlink:href="#CMR17-64" transform="scale(0.996264)"/>
      <use xlink:href="#CMR17-4e" transform="translate(50.89537 0) scale(0.996264)"/>
      <use xlink:href="#CMR17-2f" transform="translate(119.9678 0) scale(0.996264)"/>
      <use xlink:href="#CMR17-64" transform="translate(165.658277 0) scale(0.996264)"/>
      <use xlink:href="#CMR17-6c" transform="translate(216.553646 0) scale(0.996264)"/>
      <use xlink:href="#CMR17-6f" transform="translate(241.424705 0) scale(0.996264)"/>
      <use xlink:href="#CMR17-67" transform="translate(287.115182 0) scale(0.996264)"/>
      <use xlink:href="#CMR17-28" transform="translate(332.805659 0) scale(0.996264)"/>
      <use xlink:href="#CMR17-6d" transform="translate(368.086427 0) scale(0.996264)"/>
      <use xlink:href="#CMR17-29" transform="translate(445.006017 0) scale(0.996264)"/>
     </g>
    </g>
   </g>
   <g id="line2d_11">
    <path d="M 100.586627 308.720953 
L 161.070725 308.612474 
L 170.620846 308.43306 
L 176.987593 308.174994 
L 183.35434 307.696159 
L 186.537714 307.323101 
L 189.721087 306.820489 
L 192.904461 306.146382 
L 196.087835 305.246725 
L 199.271208 304.052553 
L 202.454582 302.476875 
L 205.637955 300.411386 
L 208.821329 297.723278 
L 212.004702 294.252548 
L 215.188076 289.81045 
L 218.37145 284.179943 
L 221.554823 277.119288 
L 224.738197 268.37018 
L 227.92157 257.671978 
L 231.104944 244.783593 
L 234.288317 229.514279 
L 237.471691 211.76377 
L 240.655065 191.57082 
L 243.838438 169.167058 
L 247.021812 145.030249 
L 253.388559 94.938512 
L 256.571932 71.437743 
L 259.755306 51.033561 
L 262.93868 35.443495 
L 266.122053 26.312617 
L 269.305427 24.986721 
L 272.4888 32.27141 
L 275.672174 48.223332 
L 278.855547 72.027885 
L 282.038921 102.012181 
L 291.589042 204.077057 
L 294.772415 233.656837 
L 297.955789 258.03557 
L 301.139162 276.676124 
L 304.322536 289.860503 
L 307.505909 298.451619 
L 310.689283 303.583251 
L 313.872657 306.376664 
L 317.05603 307.753222 
L 320.239404 308.362745 
L 323.422777 308.603249 
L 329.789524 308.712563 
L 383.906875 308.721132 
L 543.075554 308.721132 
L 543.075554 308.721132 
" clip-path="url(#pf65ba6d3dc)" style="fill: none; stroke-dasharray: 2,3.3; stroke-dashoffset: 0; stroke: #000000; stroke-width: 2"/>
   </g>
   <g id="line2d_12">
    <path d="M 100.586627 308.721052 
L 167.437472 308.631019 
L 180.170967 308.402072 
L 186.537714 308.131364 
L 192.904461 307.647113 
L 196.087835 307.281101 
L 199.271208 306.799668 
L 202.454582 306.170771 
L 205.637955 305.355476 
L 208.821329 304.307393 
L 212.004702 302.972554 
L 215.188076 301.29 
L 218.37145 299.193442 
L 221.554823 296.614401 
L 224.738197 293.487264 
L 227.92157 289.756613 
L 231.104944 285.386981 
L 234.288317 280.374815 
L 237.471691 274.761776 
L 240.655065 268.647708 
L 250.205185 249.330869 
L 253.388559 243.562315 
L 256.571932 238.714267 
L 259.755306 235.110192 
L 262.93868 232.984993 
L 266.122053 232.437765 
L 269.305427 233.402238 
L 272.4888 235.646496 
L 275.672174 238.808423 
L 285.222295 249.774238 
L 288.405668 253.005407 
L 291.589042 255.927326 
L 297.955789 261.299683 
L 310.689283 271.781409 
L 317.05603 276.686537 
L 323.422777 281.294158 
L 329.789524 285.595629 
L 336.156272 289.570881 
L 342.523019 293.195088 
L 348.889766 296.444622 
L 355.256513 299.298059 
L 361.62326 301.738995 
L 367.990007 303.76018 
L 374.356754 305.367879 
L 380.723502 306.585257 
L 387.090249 307.453493 
L 393.456996 308.02946 
L 399.823743 308.379659 
L 409.373864 308.627031 
L 425.290732 308.716325 
L 543.075554 308.721132 
L 543.075554 308.721132 
" clip-path="url(#pf65ba6d3dc)" style="fill: none; stroke: #000000; stroke-width: 2; stroke-linecap: square"/>
   </g>
   <g id="line2d_13">
    <path d="M 100.586627 308.721052 
L 167.437472 308.631082 
L 180.170967 308.402155 
L 186.537714 308.131351 
L 192.904461 307.646719 
L 196.087835 307.28028 
L 199.271208 306.798129 
L 202.454582 306.168051 
L 205.637955 305.350842 
L 208.821329 304.299691 
L 212.004702 302.959971 
L 215.188076 301.269701 
L 218.37145 299.161013 
L 221.554823 296.56303 
L 224.738197 293.406557 
L 227.92157 289.630978 
L 231.104944 285.193545 
L 234.288317 280.080996 
L 237.471691 274.322856 
L 240.655065 268.005133 
L 253.388559 241.331989 
L 256.571932 235.933002 
L 259.755306 231.791655 
L 262.93868 229.210377 
L 266.122053 228.358335 
L 269.305427 229.223474 
L 272.4888 231.593669 
L 275.672174 235.081428 
L 285.222295 247.478594 
L 288.405668 251.093044 
L 291.589042 254.306058 
L 297.955789 260.088168 
L 307.505909 268.496064 
L 313.872657 273.821019 
L 320.239404 278.82302 
L 326.606151 283.492408 
L 332.972898 287.802739 
L 339.339645 291.729726 
L 345.706392 295.249591 
L 352.073139 298.341228 
L 358.439887 300.989271 
L 364.806634 303.187972 
L 371.173381 304.945231 
L 377.540128 306.285768 
L 383.906875 307.252196 
L 390.273622 307.902928 
L 396.640369 308.306539 
L 406.19049 308.60081 
L 418.923984 308.707497 
L 476.224709 308.721132 
L 543.075554 308.721132 
L 543.075554 308.721132 
" clip-path="url(#pf65ba6d3dc)" style="fill: none; stroke-dasharray: 2,3.3; stroke-dashoffset: 0; stroke: #ff0000; stroke-width: 2"/>
   </g>
   <g id="patch_3">
    <path d="M 78.462181 322.907852 
L 78.462181 10.8 
" style="fill: none; stroke: #000000; stroke-width: 0.8; stroke-linejoin: miter; stroke-linecap: square"/>
   </g>
   <g id="patch_4">
    <path d="M 565.2 322.907852 
L 565.2 10.8 
" style="fill: none; stroke: #000000; stroke-width: 0.8; stroke-linejoin: miter; stroke-linecap: square"/>
   </g>
   <g id="patch_5">
    <path d="M 78.462181 322.907852 
L 565.2 322.907852 
" style="fill: none; stroke: #000000; stroke-width: 0.8; stroke-linejoin: miter; stroke-linecap: square"/>
   </g>
   <g id="patch_6">
    <path d="M 78.462181 10.8 
L 565.2 10.8 
" style="fill: none; stroke: #000000; stroke-width: 0.8; stroke-linejoin: miter; stroke-linecap: square"/>
   </g>
   <g id="legend_1">
    <g id="patch_7">
     <path d="M 434.045336 60.611535 
L 558.2 60.611535 
Q 560.2 60.611535 560.2 58.611535 
L 560.2 17.8 
Q 560.2 15.8 558.2 15.8 
L 434.045336 15.8 
Q 432.045336 15.8 432.045336 17.8 
L 432.045336 58.611535 
Q 432.045336 60.611535 434.045336 60.611535 
z
" style="fill: #ffffff; opacity: 0.8; stroke: #cccccc; stroke-linejoin: miter"/>
    </g>
    <g id="line2d_14">
     <path d="M 436.045336 23.3 
L 446.045336 23.3 
L 456.045336 23.3 
" style="fill: none; stroke-dasharray: 2,3.3; stroke-dashoffset: 0; stroke: #000000; stroke-width: 2"/>
    </g>
    <g id="text_6">
     <!-- initial -->
     <g transform="translate(464.045336 26.8) scale(0.1 -0.1)">
      <defs>
       <path id="CMR17-69" d="M 992 3961 
C 992 4102 877 4224 730 4224 
C 589 4224 467 4108 467 3961 
C 467 3820 582 3699 730 3699 
C 870 3699 992 3814 992 3961 
z
M 243 2745 
L 243 2579 
C 602 2579 653 2540 653 2231 
L 653 443 
C 653 198 627 166 218 166 
L 218 0 
C 371 12 646 12 806 12 
C 960 12 1222 12 1370 0 
L 1370 166 
C 992 166 979 205 979 436 
L 979 2816 
L 243 2745 
z
" transform="scale(0.015625)"/>
       <path id="CMR17-6e" d="M 2656 1954 
C 2656 2282 2592 2816 1837 2816 
C 1331 2816 1069 2424 973 2166 
L 966 2166 
L 966 2816 
L 211 2745 
L 211 2578 
C 589 2578 646 2540 646 2231 
L 646 443 
C 646 198 621 166 211 166 
L 211 0 
C 365 12 646 12 813 12 
C 979 12 1267 12 1421 0 
L 1421 166 
C 1011 166 986 192 986 443 
L 986 1678 
C 986 2269 1344 2713 1792 2713 
C 2266 2713 2317 2289 2317 1980 
L 2317 443 
C 2317 198 2291 166 1882 166 
L 1882 0 
C 2035 12 2317 12 2483 12 
C 2650 12 2938 12 3091 0 
L 3091 166 
C 2682 166 2656 192 2656 443 
L 2656 1954 
z
" transform="scale(0.015625)"/>
       <path id="CMR17-74" d="M 966 2585 
L 1862 2585 
L 1862 2752 
L 966 2752 
L 966 3968 
L 851 3968 
C 838 3292 614 2700 70 2687 
L 70 2585 
L 627 2585 
L 627 778 
C 627 655 627 -64 1370 -64 
C 1747 -64 1965 308 1965 784 
L 1965 1151 
L 1850 1151 
L 1850 790 
C 1850 347 1677 51 1408 51 
C 1222 51 966 179 966 765 
L 966 2585 
z
" transform="scale(0.015625)"/>
       <path id="CMR17-61" d="M 2304 1656 
C 2304 2048 2304 2275 2035 2534 
C 1798 2751 1523 2816 1306 2816 
C 800 2816 435 2408 435 1977 
C 435 1740 627 1728 666 1728 
C 749 1728 896 1779 896 1958 
C 896 2118 774 2188 666 2188 
C 640 2188 608 2182 589 2176 
C 723 2594 1069 2713 1293 2713 
C 1613 2713 1965 2421 1965 1875 
L 1965 1632 
C 1587 1619 1133 1568 774 1373 
C 371 1147 256 822 256 576 
C 256 77 832 -64 1171 -64 
C 1523 -64 1850 135 1990 505 
C 2003 219 2182 -39 2464 -39 
C 2598 -39 2938 51 2938 563 
L 2938 926 
L 2822 926 
L 2822 557 
C 2822 161 2650 109 2566 109 
C 2304 109 2304 446 2304 732 
L 2304 1656 
z
M 1965 887 
C 1965 323 1568 38 1216 38 
C 896 38 646 278 646 576 
C 646 771 730 1114 1101 1322 
C 1408 1497 1760 1523 1965 1536 
L 1965 887 
z
" transform="scale(0.015625)"/>
      </defs>
      <use xlink:href="#CMR17-69" transform="scale(0.996264)"/>
      <use xlink:href="#CMR17-6e" transform="translate(24.871058 0) scale(0.996264)"/>
      <use xlink:href="#CMR17-69" transform="translate(75.766428 0) scale(0.996264)"/>
      <use xlink:href="#CMR17-74" transform="translate(100.637487 0) scale(0.996264)"/>
      <use xlink:href="#CMR17-69" transform="translate(135.918255 0) scale(0.996264)"/>
      <use xlink:href="#CMR17-61" transform="translate(160.789313 0) scale(0.996264)"/>
      <use xlink:href="#CMR17-6c" transform="translate(206.47979 0) scale(0.996264)"/>
     </g>
    </g>
    <g id="line2d_15">
     <path d="M 436.045336 37.237178 
L 446.045336 37.237178 
L 456.045336 37.237178 
" style="fill: none; stroke: #000000; stroke-width: 2; stroke-linecap: square"/>
    </g>
    <g id="text_7">
     <!-- 13.33 min. -->
     <g transform="translate(464.045336 40.737178) scale(0.1 -0.1)">
      <defs>
       <path id="CMR17-33" d="M 1414 2176 
C 1984 2176 2234 1673 2234 1094 
C 2234 322 1824 25 1453 25 
C 1114 25 563 193 390 691 
C 422 678 454 678 486 678 
C 640 678 755 780 755 947 
C 755 1132 614 1216 486 1216 
C 378 1216 211 1164 211 927 
C 211 335 787 -128 1466 -128 
C 2176 -128 2720 432 2720 1087 
C 2720 1718 2208 2176 1600 2246 
C 2086 2347 2554 2776 2554 3353 
C 2554 3856 2048 4224 1472 4224 
C 890 4224 378 3862 378 3347 
C 378 3123 544 3084 627 3084 
C 762 3084 877 3167 877 3334 
C 877 3500 762 3584 627 3584 
C 602 3584 570 3584 544 3571 
C 730 3999 1235 4076 1459 4076 
C 1683 4076 2106 3966 2106 3347 
C 2106 3167 2080 2851 1862 2574 
C 1670 2329 1453 2316 1242 2297 
C 1210 2297 1062 2284 1037 2284 
C 992 2278 966 2272 966 2227 
C 966 2182 973 2176 1101 2176 
L 1414 2176 
z
" transform="scale(0.015625)"/>
       <path id="CMR17-2e" d="M 1062 262 
C 1062 422 934 524 800 524 
C 672 524 538 422 538 262 
C 538 102 666 0 800 0 
C 928 0 1062 102 1062 262 
z
" transform="scale(0.015625)"/>
      </defs>
      <use xlink:href="#CMR17-31" transform="scale(0.996264)"/>
      <use xlink:href="#CMR17-33" transform="translate(45.690477 0) scale(0.996264)"/>
      <use xlink:href="#CMR17-2e" transform="translate(91.380954 0) scale(0.996264)"/>
      <use xlink:href="#CMR17-33" transform="translate(116.252013 0) scale(0.996264)"/>
      <use xlink:href="#CMR17-33" transform="translate(161.94249 0) scale(0.996264)"/>
      <use xlink:href="#CMR17-6d" transform="translate(237.708933 0) scale(0.996264)"/>
      <use xlink:href="#CMR17-69" transform="translate(314.628523 0) scale(0.996264)"/>
      <use xlink:href="#CMR17-6e" transform="translate(339.499582 0) scale(0.996264)"/>
      <use xlink:href="#CMR17-2e" transform="translate(390.394951 0) scale(0.996264)"/>
     </g>
    </g>
    <g id="line2d_16">
     <path d="M 436.045336 51.174357 
L 446.045336 51.174357 
L 456.045336 51.174357 
" style="fill: none; stroke-dasharray: 2,3.3; stroke-dashoffset: 0; stroke: #ff0000; stroke-width: 2"/>
    </g>
    <g id="text_8">
     <!-- 13.33 min. analytical -->
     <g transform="translate(464.045336 54.674357) scale(0.1 -0.1)">
      <defs>
       <path id="CMR17-79" d="M 2496 2183 
C 2656 2579 2944 2585 3034 2585 
L 3034 2752 
C 2912 2745 2752 2739 2630 2739 
C 2496 2739 2285 2739 2157 2752 
L 2157 2585 
C 2400 2566 2406 2384 2406 2332 
C 2406 2268 2394 2235 2362 2158 
L 1664 409 
L 902 2300 
C 870 2378 870 2423 870 2430 
C 870 2572 1018 2585 1171 2585 
L 1171 2752 
C 1018 2739 742 2739 582 2739 
C 410 2739 205 2739 64 2752 
L 64 2585 
C 410 2585 448 2553 531 2345 
L 1485 -31 
C 1197 -795 1030 -1242 627 -1242 
C 557 -1242 397 -1223 282 -1106 
C 429 -1093 493 -1002 493 -892 
C 493 -782 416 -685 288 -685 
C 147 -685 77 -782 77 -899 
C 77 -1158 339 -1344 627 -1344 
C 998 -1344 1229 -983 1357 -659 
L 2496 2183 
z
" transform="scale(0.015625)"/>
       <path id="CMR17-63" d="M 2234 2240 
C 2112 2240 1933 2240 1933 2015 
C 1933 1836 2080 1785 2163 1785 
C 2208 1785 2394 1804 2394 2028 
C 2394 2476 1958 2816 1466 2816 
C 787 2816 211 2201 211 1379 
C 211 521 813 -64 1466 -64 
C 2259 -64 2458 676 2458 747 
C 2458 773 2451 792 2406 792 
C 2362 792 2355 786 2330 702 
C 2163 180 1798 51 1523 51 
C 1114 51 621 431 621 1385 
C 621 2358 1094 2700 1472 2700 
C 1722 2700 2093 2582 2234 2240 
z
" transform="scale(0.015625)"/>
      </defs>
      <use xlink:href="#CMR17-31" transform="scale(0.996264)"/>
      <use xlink:href="#CMR17-33" transform="translate(45.690477 0) scale(0.996264)"/>
      <use xlink:href="#CMR17-2e" transform="translate(91.380954 0) scale(0.996264)"/>
      <use xlink:href="#CMR17-33" transform="translate(116.252013 0) scale(0.996264)"/>
      <use xlink:href="#CMR17-33" transform="translate(161.94249 0) scale(0.996264)"/>
      <use xlink:href="#CMR17-6d" transform="translate(237.708933 0) scale(0.996264)"/>
      <use xlink:href="#CMR17-69" transform="translate(314.628523 0) scale(0.996264)"/>
      <use xlink:href="#CMR17-6e" transform="translate(339.499582 0) scale(0.996264)"/>
      <use xlink:href="#CMR17-2e" transform="translate(390.394951 0) scale(0.996264)"/>
      <use xlink:href="#CMR17-61" transform="translate(455.75167 0) scale(0.996264)"/>
      <use xlink:href="#CMR17-6e" transform="translate(501.442147 0) scale(0.996264)"/>
      <use xlink:href="#CMR17-61" transform="translate(552.337517 0) scale(0.996264)"/>
      <use xlink:href="#CMR17-6c" transform="translate(598.027994 0) scale(0.996264)"/>
      <use xlink:href="#CMR17-79" transform="translate(622.899053 0) scale(0.996264)"/>
      <use xlink:href="#CMR17-74" transform="translate(671.191969 0) scale(0.996264)"/>
      <use xlink:href="#CMR17-69" transform="translate(706.472737 0) scale(0.996264)"/>
      <use xlink:href="#CMR17-63" transform="translate(731.343795 0) scale(0.996264)"/>
      <use xlink:href="#CMR17-61" transform="translate(771.829455 0) scale(0.996264)"/>
      <use xlink:href="#CMR17-6c" transform="translate(817.519933 0) scale(0.996264)"/>
     </g>
    </g>
   </g>
  </g>
  <g id="axes_2">
   <g id="patch_8">
    <path d="M 78.462181 649.315704 
L 565.2 649.315704 
L 565.2 337.207852 
L 78.462181 337.207852 
z
" style="fill: #ffffff"/>
   </g>
   <g id="matplotlib.axis_3">
    <g id="xtick_7">
     <g id="line2d_17">
      <g>
       <use xlink:href="#m24520294e5" x="98.960474" y="649.315704" style="stroke: #000000; stroke-width: 0.8"/>
      </g>
     </g>
     <g id="text_9">
      <!-- $\mathdefault{−2}$ -->
      <g transform="translate(82.947342 674.303806) scale(0.26 -0.26)">
       <defs>
        <path id="CMSY10-0" d="M 4218 1472 
C 4326 1472 4442 1472 4442 1600 
C 4442 1728 4326 1728 4218 1728 
L 755 1728 
C 646 1728 531 1728 531 1600 
C 531 1472 646 1472 755 1472 
L 4218 1472 
z
" transform="scale(0.015625)"/>
        <path id="CMR17-32" d="M 2669 990 
L 2554 990 
C 2490 537 2438 460 2413 422 
C 2381 371 1920 371 1830 371 
L 602 371 
C 832 620 1280 1073 1824 1596 
C 2214 1966 2669 2400 2669 3033 
C 2669 3788 2067 4224 1395 4224 
C 691 4224 262 3603 262 3027 
C 262 2777 448 2745 525 2745 
C 589 2745 781 2783 781 3007 
C 781 3206 614 3264 525 3264 
C 486 3264 448 3257 422 3244 
C 544 3788 915 4057 1306 4057 
C 1862 4057 2227 3616 2227 3033 
C 2227 2477 1901 1998 1536 1583 
L 262 147 
L 262 0 
L 2515 0 
L 2669 990 
z
" transform="scale(0.015625)"/>
       </defs>
       <use xlink:href="#CMSY10-0" transform="scale(0.996264)"/>
       <use xlink:href="#CMR17-32" transform="translate(77.487468 0) scale(0.996264)"/>
      </g>
     </g>
    </g>
    <g id="xtick_8">
     <g id="line2d_18">
      <g>
       <use xlink:href="#m24520294e5" x="183.559979" y="649.315704" style="stroke: #000000; stroke-width: 0.8"/>
      </g>
     </g>
     <g id="text_10">
      <!-- $\mathdefault{−1}$ -->
      <g transform="translate(167.546847 674.303806) scale(0.26 -0.26)">
       <use xlink:href="#CMSY10-0" transform="scale(0.996264)"/>
       <use xlink:href="#CMR17-31" transform="translate(77.487468 0) scale(0.996264)"/>
      </g>
     </g>
    </g>
    <g id="xtick_9">
     <g id="line2d_19">
      <g>
       <use xlink:href="#m24520294e5" x="268.159484" y="649.315704" style="stroke: #000000; stroke-width: 0.8"/>
      </g>
     </g>
     <g id="text_11">
      <!-- $\mathdefault{0}$ -->
      <g transform="translate(262.219722 674.303806) scale(0.26 -0.26)">
       <use xlink:href="#CMR17-30" transform="scale(0.996264)"/>
      </g>
     </g>
    </g>
    <g id="xtick_10">
     <g id="line2d_20">
      <g>
       <use xlink:href="#m24520294e5" x="352.758989" y="649.315704" style="stroke: #000000; stroke-width: 0.8"/>
      </g>
     </g>
     <g id="text_12">
      <!-- $\mathdefault{1}$ -->
      <g transform="translate(346.819226 674.303806) scale(0.26 -0.26)">
       <use xlink:href="#CMR17-31" transform="scale(0.996264)"/>
      </g>
     </g>
    </g>
    <g id="xtick_11">
     <g id="line2d_21">
      <g>
       <use xlink:href="#m24520294e5" x="437.358493" y="649.315704" style="stroke: #000000; stroke-width: 0.8"/>
      </g>
     </g>
     <g id="text_13">
      <!-- $\mathdefault{2}$ -->
      <g transform="translate(431.418731 674.303806) scale(0.26 -0.26)">
       <use xlink:href="#CMR17-32" transform="scale(0.996264)"/>
      </g>
     </g>
    </g>
    <g id="xtick_12">
     <g id="line2d_22">
      <g>
       <use xlink:href="#m24520294e5" x="521.957998" y="649.315704" style="stroke: #000000; stroke-width: 0.8"/>
      </g>
     </g>
     <g id="text_14">
      <!-- $\mathdefault{3}$ -->
      <g transform="translate(516.018236 674.303806) scale(0.26 -0.26)">
       <use xlink:href="#CMR17-33" transform="scale(0.996264)"/>
      </g>
     </g>
    </g>
    <g id="text_15">
     <!-- log(m) [log(g)] -->
     <g transform="translate(246.943918 702.745962) scale(0.26 -0.26)">
      <defs>
       <path id="CMR17-5b" d="M 1504 -1600 
L 1504 -1376 
L 902 -1376 
L 902 4575 
L 1504 4575 
L 1504 4800 
L 678 4800 
L 678 -1600 
L 1504 -1600 
z
" transform="scale(0.015625)"/>
       <path id="CMR17-5d" d="M 915 4800 
L 90 4800 
L 90 4575 
L 691 4575 
L 691 -1376 
L 90 -1376 
L 90 -1600 
L 915 -1600 
L 915 4800 
z
" transform="scale(0.015625)"/>
      </defs>
      <use xlink:href="#CMR17-6c" transform="scale(0.996264)"/>
      <use xlink:href="#CMR17-6f" transform="translate(24.871058 0) scale(0.996264)"/>
      <use xlink:href="#CMR17-67" transform="translate(70.561536 0) scale(0.996264)"/>
      <use xlink:href="#CMR17-28" transform="translate(116.252013 0) scale(0.996264)"/>
      <use xlink:href="#CMR17-6d" transform="translate(151.532781 0) scale(0.996264)"/>
      <use xlink:href="#CMR17-29" transform="translate(228.45237 0) scale(0.996264)"/>
      <use xlink:href="#CMR17-5b" transform="translate(293.809105 0) scale(0.996264)"/>
      <use xlink:href="#CMR17-6c" transform="translate(318.680163 0) scale(0.996264)"/>
      <use xlink:href="#CMR17-6f" transform="translate(343.551221 0) scale(0.996264)"/>
      <use xlink:href="#CMR17-67" transform="translate(389.241699 0) scale(0.996264)"/>
      <use xlink:href="#CMR17-28" transform="translate(434.932176 0) scale(0.996264)"/>
      <use xlink:href="#CMR17-67" transform="translate(470.212944 0) scale(0.996264)"/>
      <use xlink:href="#CMR17-29" transform="translate(515.903421 0) scale(0.996264)"/>
      <use xlink:href="#CMR17-5d" transform="translate(551.184188 0) scale(0.996264)"/>
     </g>
    </g>
   </g>
   <g id="matplotlib.axis_4">
    <g id="ytick_5">
     <g id="line2d_23">
      <g>
       <use xlink:href="#m293afc0b90" x="78.462181" y="635.128984" style="stroke: #000000; stroke-width: 0.8"/>
      </g>
     </g>
     <g id="text_16">
      <!-- $\mathdefault{0.0}$ -->
      <g transform="translate(40.657867 644.123035) scale(0.26 -0.26)">
       <use xlink:href="#CMR17-30" transform="scale(0.996264)"/>
       <use xlink:href="#CMMI12-3a" transform="translate(45.690477 0) scale(0.996264)"/>
       <use xlink:href="#CMR17-30" transform="translate(72.787654 0) scale(0.996264)"/>
      </g>
     </g>
    </g>
    <g id="ytick_6">
     <g id="line2d_24">
      <g>
       <use xlink:href="#m293afc0b90" x="78.462181" y="564.882964" style="stroke: #000000; stroke-width: 0.8"/>
      </g>
     </g>
     <g id="text_17">
      <!-- $\mathdefault{0.5}$ -->
      <g transform="translate(40.657867 573.877015) scale(0.26 -0.26)">
       <use xlink:href="#CMR17-30" transform="scale(0.996264)"/>
       <use xlink:href="#CMMI12-3a" transform="translate(45.690477 0) scale(0.996264)"/>
       <use xlink:href="#CMR17-35" transform="translate(72.787654 0) scale(0.996264)"/>
      </g>
     </g>
    </g>
    <g id="ytick_7">
     <g id="line2d_25">
      <g>
       <use xlink:href="#m293afc0b90" x="78.462181" y="494.636944" style="stroke: #000000; stroke-width: 0.8"/>
      </g>
     </g>
     <g id="text_18">
      <!-- $\mathdefault{1.0}$ -->
      <g transform="translate(40.657867 503.630995) scale(0.26 -0.26)">
       <use xlink:href="#CMR17-31" transform="scale(0.996264)"/>
       <use xlink:href="#CMMI12-3a" transform="translate(45.690477 0) scale(0.996264)"/>
       <use xlink:href="#CMR17-30" transform="translate(72.787654 0) scale(0.996264)"/>
      </g>
     </g>
    </g>
    <g id="ytick_8">
     <g id="line2d_26">
      <g>
       <use xlink:href="#m293afc0b90" x="78.462181" y="424.390924" style="stroke: #000000; stroke-width: 0.8"/>
      </g>
     </g>
     <g id="text_19">
      <!-- $\mathdefault{1.5}$ -->
      <g transform="translate(40.657867 433.384975) scale(0.26 -0.26)">
       <use xlink:href="#CMR17-31" transform="scale(0.996264)"/>
       <use xlink:href="#CMMI12-3a" transform="translate(45.690477 0) scale(0.996264)"/>
       <use xlink:href="#CMR17-35" transform="translate(72.787654 0) scale(0.996264)"/>
      </g>
     </g>
    </g>
    <g id="ytick_9">
     <g id="line2d_27">
      <g>
       <use xlink:href="#m293afc0b90" x="78.462181" y="354.144904" style="stroke: #000000; stroke-width: 0.8"/>
      </g>
     </g>
     <g id="text_20">
      <!-- $\mathdefault{2.0}$ -->
      <g transform="translate(40.657867 363.138954) scale(0.26 -0.26)">
       <use xlink:href="#CMR17-32" transform="scale(0.996264)"/>
       <use xlink:href="#CMMI12-3a" transform="translate(45.690477 0) scale(0.996264)"/>
       <use xlink:href="#CMR17-30" transform="translate(72.787654 0) scale(0.996264)"/>
      </g>
     </g>
    </g>
    <g id="text_21">
     <!-- dM/dlog(m) -->
     <g transform="translate(30.203829 557.728927) rotate(-90) scale(0.26 -0.26)">
      <defs>
       <path id="CMR17-4d" d="M 1338 4249 
C 1299 4345 1293 4352 1158 4352 
L 339 4352 
L 339 4185 
C 781 4185 851 4185 851 3898 
L 851 624 
C 851 465 851 166 339 166 
L 339 0 
C 486 12 755 12 915 12 
C 1075 12 1344 12 1491 0 
L 1491 166 
C 979 166 979 465 979 624 
L 979 4159 
L 986 4159 
L 2490 102 
C 2515 38 2528 0 2579 0 
C 2630 0 2643 38 2669 102 
L 4186 4191 
L 4192 4191 
L 4192 453 
C 4192 166 4122 166 3680 166 
L 3680 0 
C 3853 12 4198 12 4384 12 
C 4570 12 4922 12 5094 0 
L 5094 166 
C 4653 166 4582 166 4582 453 
L 4582 3898 
C 4582 4185 4653 4185 5094 4185 
L 5094 4352 
L 4282 4352 
C 4147 4352 4141 4345 4102 4249 
L 2720 516 
L 1338 4249 
z
" transform="scale(0.015625)"/>
      </defs>
      <use xlink:href="#CMR17-64" transform="scale(0.996264)"/>
      <use xlink:href="#CMR17-4d" transform="translate(50.89537 0) scale(0.996264)"/>
      <use xlink:href="#CMR17-2f" transform="translate(135.58231 0) scale(0.996264)"/>
      <use xlink:href="#CMR17-64" transform="translate(181.272787 0) scale(0.996264)"/>
      <use xlink:href="#CMR17-6c" transform="translate(232.168157 0) scale(0.996264)"/>
      <use xlink:href="#CMR17-6f" transform="translate(257.039216 0) scale(0.996264)"/>
      <use xlink:href="#CMR17-67" transform="translate(302.729693 0) scale(0.996264)"/>
      <use xlink:href="#CMR17-28" transform="translate(348.42017 0) scale(0.996264)"/>
      <use xlink:href="#CMR17-6d" transform="translate(383.700938 0) scale(0.996264)"/>
      <use xlink:href="#CMR17-29" transform="translate(460.620528 0) scale(0.996264)"/>
     </g>
    </g>
   </g>
   <g id="line2d_28">
    <path d="M 100.586627 635.128982 
L 183.35434 635.038497 
L 192.904461 634.834206 
L 199.271208 634.493356 
L 202.454582 634.201882 
L 205.637955 633.783547 
L 208.821329 633.18715 
L 212.004702 632.343126 
L 215.188076 631.158267 
L 218.37145 629.509634 
L 221.554823 627.237991 
L 224.738197 624.141412 
L 227.92157 619.970169 
L 231.104944 614.424645 
L 234.288317 607.158694 
L 237.471691 597.791612 
L 240.655065 585.932377 
L 243.838438 571.219844 
L 247.021812 553.381631 
L 250.205185 532.312078 
L 253.388559 508.165421 
L 256.571932 481.454137 
L 262.93868 424.655666 
L 266.122053 397.937283 
L 269.305427 375.255205 
L 272.4888 359.010577 
L 275.672174 351.394573 
L 278.855547 353.989031 
L 282.038921 367.38191 
L 285.222295 390.901648 
L 288.405668 422.572314 
L 291.589042 459.350246 
L 294.772415 497.625451 
L 297.955789 533.879351 
L 301.139162 565.322088 
L 304.322536 590.324358 
L 307.505909 608.525086 
L 310.689283 620.614279 
L 313.872657 627.906322 
L 317.05603 631.877238 
L 320.239404 633.815993 
L 323.422777 634.658019 
L 326.606151 634.980466 
L 332.972898 635.119404 
L 380.723502 635.128984 
L 543.075554 635.128984 
L 543.075554 635.128984 
" clip-path="url(#p20b01fb53a)" style="fill: none; stroke-dasharray: 2,3.3; stroke-dashoffset: 0; stroke: #000000; stroke-width: 2"/>
   </g>
   <g id="line2d_29">
    <path d="M 100.586627 635.128983 
L 189.721087 635.045258 
L 199.271208 634.867376 
L 205.637955 634.584048 
L 212.004702 634.022122 
L 215.188076 633.568653 
L 218.37145 632.947369 
L 221.554823 632.105929 
L 224.738197 630.980799 
L 227.92157 629.497556 
L 231.104944 627.572888 
L 234.288317 625.119058 
L 237.471691 622.051554 
L 240.655065 618.300378 
L 243.838438 613.824791 
L 247.021812 608.630275 
L 250.205185 602.785023 
L 253.388559 596.431753 
L 259.755306 583.14057 
L 262.93868 576.798428 
L 266.122053 571.059452 
L 269.305427 566.144029 
L 272.4888 562.141926 
L 275.672174 558.980006 
L 278.855547 556.430248 
L 285.222295 551.865395 
L 288.405668 549.306569 
L 291.589042 546.44715 
L 297.955789 540.399753 
L 301.139162 537.5899 
L 304.322536 535.056873 
L 307.505909 532.793401 
L 310.689283 530.772887 
L 313.872657 528.998833 
L 317.05603 527.507018 
L 320.239404 526.343548 
L 323.422777 525.552568 
L 326.606151 525.176644 
L 329.789524 525.256771 
L 332.972898 525.829979 
L 336.156272 526.928637 
L 339.339645 528.580557 
L 342.523019 530.807807 
L 345.706392 533.624506 
L 348.889766 537.034607 
L 352.073139 541.029953 
L 355.256513 545.588546 
L 358.439887 550.673049 
L 361.62326 556.229796 
L 364.806634 562.18847 
L 371.173381 574.95122 
L 380.723502 594.537741 
L 383.906875 600.698147 
L 387.090249 606.479978 
L 390.273622 611.785808 
L 393.456996 616.539321 
L 396.640369 620.68983 
L 399.823743 624.214939 
L 403.007117 627.120903 
L 406.19049 629.440503 
L 409.373864 631.228599 
L 412.557237 632.555852 
L 415.740611 633.50145 
L 418.923984 634.145789 
L 422.107358 634.564096 
L 428.474105 634.971565 
L 438.024226 635.11503 
L 482.591456 635.128984 
L 543.075554 635.128984 
L 543.075554 635.128984 
" clip-path="url(#p20b01fb53a)" style="fill: none; stroke: #000000; stroke-width: 2; stroke-linecap: square"/>
   </g>
   <g id="line2d_30">
    <path d="M 100.586627 635.128983 
L 189.721087 635.045242 
L 199.271208 634.867167 
L 205.637955 634.583298 
L 212.004702 634.019699 
L 215.188076 633.564391 
L 218.37145 632.939944 
L 221.554823 632.093101 
L 224.738197 630.958822 
L 227.92157 629.460249 
L 231.104944 627.510249 
L 234.288317 625.015302 
L 237.471691 621.88253 
L 240.655065 618.030532 
L 243.838438 613.404201 
L 247.021812 607.992824 
L 250.205185 601.849377 
L 253.388559 595.107182 
L 262.93868 573.89129 
L 266.122053 567.633185 
L 269.305427 562.316678 
L 272.4888 558.093956 
L 275.672174 554.92056 
L 278.855547 552.548684 
L 285.222295 548.622755 
L 288.405668 546.360836 
L 291.589042 543.723781 
L 297.955789 537.979626 
L 301.139162 535.327377 
L 304.322536 532.979456 
L 307.505909 530.923102 
L 310.689283 529.129377 
L 313.872657 527.611333 
L 317.05603 526.416546 
L 320.239404 525.593659 
L 323.422777 525.180671 
L 326.606151 525.212399 
L 329.789524 525.723958 
L 332.972898 526.747833 
L 336.156272 528.311721 
L 339.339645 530.437285 
L 342.523019 533.138482 
L 345.706392 536.419765 
L 348.889766 540.274352 
L 352.073139 544.682592 
L 355.256513 549.610596 
L 358.439887 555.009261 
L 361.62326 560.813867 
L 367.990007 573.306797 
L 377.540128 592.687387 
L 380.723502 598.854773 
L 383.906875 604.685924 
L 387.090249 610.08233 
L 390.273622 614.963698 
L 393.456996 619.272613 
L 396.640369 622.977693 
L 399.823743 626.07477 
L 403.007117 628.585822 
L 406.19049 630.555657 
L 409.373864 632.046686 
L 412.557237 633.132401 
L 415.740611 633.890443 
L 418.923984 634.396083 
L 422.107358 634.717038 
L 428.474105 635.019553 
L 438.024226 635.120046 
L 504.875071 635.128984 
L 543.075554 635.128984 
L 543.075554 635.128984 
" clip-path="url(#p20b01fb53a)" style="fill: none; stroke-dasharray: 2,3.3; stroke-dashoffset: 0; stroke: #ff0000; stroke-width: 2"/>
   </g>
   <g id="patch_9">
    <path d="M 78.462181 649.315704 
L 78.462181 337.207852 
" style="fill: none; stroke: #000000; stroke-width: 0.8; stroke-linejoin: miter; stroke-linecap: square"/>
   </g>
   <g id="patch_10">
    <path d="M 565.2 649.315704 
L 565.2 337.207852 
" style="fill: none; stroke: #000000; stroke-width: 0.8; stroke-linejoin: miter; stroke-linecap: square"/>
   </g>
   <g id="patch_11">
    <path d="M 78.462181 649.315704 
L 565.2 649.315704 
" style="fill: none; stroke: #000000; stroke-width: 0.8; stroke-linejoin: miter; stroke-linecap: square"/>
   </g>
   <g id="patch_12">
    <path d="M 78.462181 337.207852 
L 565.2 337.207852 
" style="fill: none; stroke: #000000; stroke-width: 0.8; stroke-linejoin: miter; stroke-linecap: square"/>
   </g>
  </g>
 </g>
 <defs>
  <clipPath id="pf65ba6d3dc">
   <rect x="78.462181" y="10.8" width="486.737819" height="312.107852"/>
  </clipPath>
  <clipPath id="p20b01fb53a">
   <rect x="78.462181" y="337.207852" width="486.737819" height="312.107852"/>
  </clipPath>
 </defs>
</svg>
