<?xml version="1.0" encoding="UTF-8"?>
<svg id="a" data-name="Layer 1" xmlns="http://www.w3.org/2000/svg" xmlns:xlink="http://www.w3.org/1999/xlink" viewBox="0 0 484 589.971">
  <defs>
    <clipPath id="ch">
      <rect x="51.116" y="4.364" width="200.975" height="242.418" style="fill: none;"/>
    </clipPath>
    <clipPath id="cj">
      <rect x="51.116" y="4.364" width="200.975" height="242.418" style="fill: none;"/>
    </clipPath>
    <clipPath id="cl">
      <rect x="51.116" y="4.364" width="200.975" height="242.418" style="fill: none;"/>
    </clipPath>
    <clipPath id="fe">
      <rect x="273.883" y="4.364" width="200.975" height="242.418" style="fill: none;"/>
    </clipPath>
    <clipPath id="fg">
      <rect x="273.883" y="4.364" width="200.975" height="242.418" style="fill: none;"/>
    </clipPath>
    <clipPath id="fi">
      <rect x="273.883" y="4.364" width="200.975" height="242.418" style="fill: none;"/>
    </clipPath>
    <clipPath id="iz">
      <rect x="51.116" y="303.575" width="200.975" height="242.418" style="fill: none;"/>
    </clipPath>
    <clipPath id="lo">
      <rect x="273.883" y="303.575" width="200.975" height="242.418" style="fill: none;"/>
    </clipPath>
  </defs>
  <g id="b" data-name="axes 1">
    <g id="c" data-name="patch 2">
      <path d="M51.116,246.783H252.091V4.364H51.116V246.783Z" style="fill: #fff;"/>
    </g>
    <g id="d" data-name="matplotlib.axis 1">
      <g id="e" data-name="xtick 1">
        <g id="f" data-name="line2d 1">
          <path id="g" data-name="m3088f0a5fa" d="M59.884,246.783v3.5" style="stroke: #000; stroke-linejoin: round; stroke-width: .8px;"/>
        </g>
        <g id="h" data-name="text 1">
          <path id="i" data-name="CMR17-30" d="M62.328,259.027c0-.854-.013-2.312-.599-3.432-.517-.981-1.34-1.332-2.064-1.332-.671,0-1.521,.309-2.051,1.316-.558,1.053-.615,2.356-.615,3.448,0,.8,.015,2.018,.447,3.084,.599,1.443,1.674,1.637,2.219,1.637,.641,0,1.617-.264,2.188-1.595,.418-.968,.475-2.101,.475-3.125Zm-2.663,4.498c-.894,0-1.423-.771-1.619-1.835-.153-.828-.153-2.033-.153-2.818,0-1.079,0-1.974,.181-2.829,.266-1.192,1.046-1.556,1.591-1.556,.571,0,1.31,.379,1.576,1.528,.181,.798,.194,1.737,.194,2.857,0,.911,0,2.033-.166,2.859-.294,1.528-1.116,1.794-1.604,1.794Z"/>
        </g>
      </g>
      <g id="j" data-name="xtick 2">
        <g id="k" data-name="line2d 2">
          <path id="l" data-name="m3088f0a5fa" d="M158.407,246.783v3.5" style="stroke: #000; stroke-linejoin: round; stroke-width: .8px;"/>
        </g>
        <g id="m" data-name="text 2">
          <g>
            <path id="n" data-name="CMR17-35" d="M153.17,255.296c.139,.057,.71,.238,1.297,.238,1.297,0,2.007-.697,2.413-1.087,0-.111,0-.183-.083-.183-.015,0-.044,0-.155,.057-.488,.209-1.059,.362-1.757,.362-.418,0-1.046-.05-1.73-.347-.153-.072-.181-.072-.194-.072-.07,0-.085,.015-.085,.292v4.051c0,.257,0,.329,.139,.329,.07,0,.098-.028,.168-.129,.447-.645,1.059-.917,1.757-.917,.488,0,1.534,.316,1.534,2.761,0,.449,0,1.257-.418,1.898-.349,.573-.891,.865-1.491,.865-.922,0-1.857-.641-2.107-1.715,.057,.013,.168,.041,.224,.041,.181,0,.53-.098,.53-.53,0-.377-.266-.532-.53-.532-.323,0-.532,.196-.532,.586,0,1.214,.963,2.482,2.441,2.482,1.438,0,2.805-1.24,2.805-3.04,0-1.715-1.087-3.04-2.441-3.04-.713,0-1.312,.266-1.785,.78v-3.151Z"/>
            <path id="o" data-name="CMR17-30" d="M163.833,259.027c0-.854-.013-2.312-.599-3.432-.517-.981-1.34-1.332-2.064-1.332-.671,0-1.521,.309-2.051,1.316-.558,1.053-.615,2.356-.615,3.448,0,.8,.015,2.018,.447,3.084,.599,1.443,1.674,1.637,2.219,1.637,.641,0,1.617-.264,2.188-1.595,.418-.968,.475-2.101,.475-3.125Zm-2.663,4.498c-.894,0-1.423-.771-1.619-1.835-.153-.828-.153-2.033-.153-2.818,0-1.079,0-1.974,.181-2.829,.266-1.192,1.046-1.556,1.591-1.556,.571,0,1.31,.379,1.576,1.528,.181,.798,.194,1.737,.194,2.857,0,.911,0,2.033-.166,2.859-.294,1.528-1.116,1.794-1.604,1.794Z"/>
          </g>
        </g>
      </g>
      <g id="p" data-name="text 3">
        <g>
          <path id="q" data-name="CMR17-4e" d="M123.442,271.636c-.126-.196-.143-.216-.485-.216h-2.278v.468h.342c.717,0,1.04,.09,1.093,.106v9.871c0,.446,0,1.283-1.435,1.283v.465c.415-.034,1.166-.034,1.614-.034s1.202,0,1.614,.034v-.465c-1.435,0-1.435-.838-1.435-1.283v-9.619c.126,.106,.126,.14,.252,.319l6.652,10.835c.126,.213,.179,.213,.269,.213,.179,0,.179-.053,.179-.392v-10.048c0-.446,0-1.286,1.435-1.286v-.468c-.412,.036-1.166,.036-1.614,.036s-1.199,0-1.614-.036v.468c1.435,0,1.435,.841,1.435,1.286v8.263l-6.024-9.801Z"/>
          <path id="r" data-name="CMR17-74" d="M134.906,276.371h2.511v-.468h-2.511v-3.407h-.322c-.036,1.894-.664,3.553-2.188,3.589v.286h1.561v5.063c0,.345,0,2.359,2.082,2.359,1.056,0,1.667-1.042,1.667-2.376v-1.028h-.322v1.012c0,1.241-.485,2.071-1.238,2.071-.521,0-1.238-.359-1.238-2.001v-5.1Z"/>
          <path id="s" data-name="CMR17-28" d="M149.449,287.991c0-.017,0-.053-.053-.106-.824-.843-3.029-3.141-3.029-8.742s2.169-7.879,3.049-8.779c0-.017,.034-.053,.034-.106,0-.056-.053-.092-.123-.092-.199,0-1.723,1.331-2.6,3.306-.897,1.992-1.149,3.928-1.149,5.652,0,1.295,.126,3.483,1.202,5.8,.86,1.866,2.331,3.175,2.547,3.175,.09,0,.123-.034,.123-.106Z"/>
          <path id="t" data-name="CMR17-31" d="M155.083,272.174c0-.375-.017-.395-.269-.395-.698,.832-1.757,1.096-2.76,1.132-.053,0-.143,0-.163,.034-.017,.036-.017,.073-.017,.448,.555,0,1.488-.106,2.205-.535v9.448c0,.628-.036,.843-1.578,.843h-.538v.465c.86-.017,1.757-.034,2.617-.034s1.757,.017,2.62,.034v-.465h-.538c-1.544,0-1.58-.196-1.58-.843v-10.132Z"/>
          <path id="u" data-name="CMR17-2f" d="M165.837,270.795c.09-.233,.09-.269,.09-.305,0-.216-.163-.325-.305-.325-.216,0-.286,.146-.359,.361l-5.811,16.944c-.09,.235-.09,.269-.09,.305,0,.216,.163,.322,.305,.322,.216,0,.289-.143,.359-.359l5.811-16.944Z"/>
          <path id="v" data-name="CMR17-4c" d="M176.482,279.097h-.322c-.146,1.768-.378,4.052-3.444,4.052h-1.667c-.717,0-.754-.09-.754-.695v-9.745c0-.642,.036-.821,1.398-.821h.395v-.468c-.737,.036-1.597,.036-2.331,.036-.558,0-1.561,0-2.082-.036v.468c1.238,0,1.435,0,1.435,.804v9.653c0,.804-.196,.804-1.435,.804v.465h8.375l.432-4.517Z"/>
          <path id="w" data-name="CMR17-29" d="M181.807,279.142c0-1.292-.126-3.483-1.202-5.797-.86-1.869-2.331-3.18-2.544-3.18-.056,0-.126,.02-.126,.109,0,.036,.017,.053,.036,.09,.86,.899,3.049,3.177,3.049,8.759s-2.172,7.882-3.049,8.779c-.02,.036-.036,.053-.036,.09,0,.09,.07,.106,.126,.106,.196,0,1.72-1.325,2.6-3.301,.897-1.992,1.146-3.931,1.146-5.654Z"/>
        </g>
      </g>
    </g>
    <g id="x" data-name="matplotlib.axis 2">
      <g id="y" data-name="ytick 1">
        <g id="z" data-name="line2d 3">
          <path id="aa" data-name="mec806c7efb" d="M51.116,235.764h-3.5" style="stroke: #000; stroke-linejoin: round; stroke-width: .8px;"/>
        </g>
        <g id="ab" data-name="text 4">
          <g>
            <path id="ac" data-name="CMR17-30" d="M32.523,236.165c0-.854-.013-2.312-.599-3.432-.517-.981-1.34-1.332-2.064-1.332-.671,0-1.521,.309-2.051,1.316-.558,1.053-.615,2.356-.615,3.448,0,.8,.015,2.018,.447,3.084,.599,1.443,1.674,1.637,2.219,1.637,.641,0,1.617-.264,2.188-1.595,.418-.968,.475-2.101,.475-3.125Zm-2.663,4.498c-.894,0-1.423-.771-1.619-1.835-.153-.828-.153-2.033-.153-2.818,0-1.079,0-1.974,.181-2.829,.266-1.192,1.046-1.556,1.591-1.556,.571,0,1.31,.379,1.576,1.528,.181,.798,.194,1.737,.194,2.857,0,.911,0,2.033-.166,2.859-.294,1.528-1.116,1.794-1.604,1.794Z"/>
            <path id="ad" data-name="CMMI12-3a" d="M35.629,239.938c0-.403-.336-.682-.671-.682-.403,0-.682,.333-.682,.669,0,.403,.333,.682,.669,.682,.405,0,.684-.333,.684-.669Z"/>
            <path id="ae" data-name="CMR17-30" d="M42.714,236.165c0-.854-.013-2.312-.599-3.432-.517-.981-1.34-1.332-2.064-1.332-.671,0-1.521,.309-2.051,1.316-.558,1.053-.615,2.356-.615,3.448,0,.8,.015,2.018,.447,3.084,.599,1.443,1.674,1.637,2.219,1.637,.641,0,1.617-.264,2.188-1.595,.418-.968,.475-2.101,.475-3.125Zm-2.663,4.498c-.894,0-1.423-.771-1.619-1.835-.153-.828-.153-2.033-.153-2.818,0-1.079,0-1.974,.181-2.829,.266-1.192,1.046-1.556,1.591-1.556,.571,0,1.31,.379,1.576,1.528,.181,.798,.194,1.737,.194,2.857,0,.911,0,2.033-.166,2.859-.294,1.528-1.116,1.794-1.604,1.794Z"/>
          </g>
        </g>
      </g>
      <g id="af" data-name="ytick 2">
        <g id="ag" data-name="line2d 4">
          <path id="ah" data-name="mec806c7efb" d="M51.116,199.034h-3.5" style="stroke: #000; stroke-linejoin: round; stroke-width: .8px;"/>
        </g>
        <g id="ai" data-name="text 5">
          <g>
            <path id="aj" data-name="CMR17-30" d="M32.523,199.435c0-.854-.013-2.312-.599-3.432-.517-.981-1.34-1.332-2.064-1.332-.671,0-1.521,.309-2.051,1.316-.558,1.053-.615,2.356-.615,3.448,0,.8,.015,2.018,.447,3.084,.599,1.443,1.674,1.637,2.219,1.637,.641,0,1.617-.264,2.188-1.595,.418-.968,.475-2.101,.475-3.125Zm-2.663,4.498c-.894,0-1.423-.771-1.619-1.835-.153-.828-.153-2.033-.153-2.818,0-1.079,0-1.974,.181-2.829,.266-1.192,1.046-1.556,1.591-1.556,.571,0,1.31,.379,1.576,1.528,.181,.798,.194,1.737,.194,2.857,0,.911,0,2.033-.166,2.859-.294,1.528-1.116,1.794-1.604,1.794Z"/>
            <path id="ak" data-name="CMMI12-3a" d="M35.629,203.208c0-.403-.336-.682-.671-.682-.403,0-.682,.333-.682,.669,0,.403,.333,.682,.669,.682,.405,0,.684-.333,.684-.669Z"/>
            <path id="al" data-name="CMR17-35" d="M38.447,195.704c.139,.057,.71,.238,1.297,.238,1.297,0,2.007-.697,2.413-1.087,0-.111,0-.183-.083-.183-.015,0-.044,0-.155,.057-.488,.209-1.059,.362-1.757,.362-.418,0-1.046-.05-1.73-.347-.153-.072-.181-.072-.194-.072-.07,0-.085,.015-.085,.292v4.051c0,.257,0,.329,.139,.329,.07,0,.098-.028,.168-.129,.447-.645,1.059-.917,1.757-.917,.488,0,1.534,.316,1.534,2.761,0,.449,0,1.257-.418,1.898-.349,.573-.891,.865-1.491,.865-.922,0-1.857-.641-2.107-1.715,.057,.013,.168,.041,.224,.041,.181,0,.53-.098,.53-.53,0-.377-.266-.532-.53-.532-.323,0-.532,.196-.532,.586,0,1.214,.963,2.482,2.441,2.482,1.438,0,2.805-1.24,2.805-3.04,0-1.715-1.087-3.04-2.441-3.04-.713,0-1.312,.266-1.785,.78v-3.151Z"/>
          </g>
        </g>
      </g>
      <g id="am" data-name="ytick 3">
        <g id="an" data-name="line2d 5">
          <path id="ao" data-name="mec806c7efb" d="M51.116,162.304h-3.5" style="stroke: #000; stroke-linejoin: round; stroke-width: .8px;"/>
        </g>
        <g id="ap" data-name="text 6">
          <g>
            <path id="aq" data-name="CMR17-31" d="M30.375,158.249c0-.292-.013-.307-.209-.307-.543,.647-1.366,.852-2.147,.88-.041,0-.111,0-.126,.026-.013,.028-.013,.057-.013,.349,.432,0,1.157-.083,1.715-.416v7.349c0,.488-.028,.656-1.227,.656h-.418v.362c.669-.013,1.366-.026,2.035-.026s1.366,.013,2.038,.026v-.362h-.418c-1.201,0-1.229-.153-1.229-.656v-7.88Z"/>
            <path id="ar" data-name="CMMI12-3a" d="M35.629,166.478c0-.403-.336-.682-.671-.682-.403,0-.682,.333-.682,.669,0,.403,.333,.682,.669,.682,.405,0,.684-.333,.684-.669Z"/>
            <path id="as" data-name="CMR17-30" d="M42.714,162.705c0-.854-.013-2.312-.599-3.432-.517-.981-1.34-1.332-2.064-1.332-.671,0-1.521,.309-2.051,1.316-.558,1.053-.615,2.356-.615,3.448,0,.8,.015,2.018,.447,3.084,.599,1.443,1.674,1.637,2.219,1.637,.641,0,1.617-.264,2.188-1.595,.418-.968,.475-2.101,.475-3.125Zm-2.663,4.498c-.894,0-1.423-.771-1.619-1.835-.153-.828-.153-2.033-.153-2.818,0-1.079,0-1.974,.181-2.829,.266-1.192,1.046-1.556,1.591-1.556,.571,0,1.31,.379,1.576,1.528,.181,.798,.194,1.737,.194,2.857,0,.911,0,2.033-.166,2.859-.294,1.528-1.116,1.794-1.604,1.794Z"/>
          </g>
        </g>
      </g>
      <g id="at" data-name="ytick 4">
        <g id="au" data-name="line2d 6">
          <path id="av" data-name="mec806c7efb" d="M51.116,125.574h-3.5" style="stroke: #000; stroke-linejoin: round; stroke-width: .8px;"/>
        </g>
        <g id="aw" data-name="text 7">
          <g>
            <path id="ax" data-name="CMR17-31" d="M30.375,121.518c0-.292-.013-.307-.209-.307-.543,.647-1.366,.852-2.147,.88-.041,0-.111,0-.126,.026-.013,.028-.013,.057-.013,.349,.432,0,1.157-.083,1.715-.416v7.349c0,.488-.028,.656-1.227,.656h-.418v.362c.669-.013,1.366-.026,2.035-.026s1.366,.013,2.038,.026v-.362h-.418c-1.201,0-1.229-.153-1.229-.656v-7.88Z"/>
            <path id="ay" data-name="CMMI12-3a" d="M35.629,129.748c0-.403-.336-.682-.671-.682-.403,0-.682,.333-.682,.669,0,.403,.333,.682,.669,.682,.405,0,.684-.333,.684-.669Z"/>
            <path id="az" data-name="CMR17-35" d="M38.447,122.244c.139,.057,.71,.238,1.297,.238,1.297,0,2.007-.697,2.413-1.087,0-.111,0-.183-.083-.183-.015,0-.044,0-.155,.057-.488,.209-1.059,.362-1.757,.362-.418,0-1.046-.05-1.73-.347-.153-.072-.181-.072-.194-.072-.07,0-.085,.015-.085,.292v4.051c0,.257,0,.329,.139,.329,.07,0,.098-.028,.168-.129,.447-.645,1.059-.917,1.757-.917,.488,0,1.534,.316,1.534,2.761,0,.449,0,1.257-.418,1.898-.349,.573-.891,.865-1.491,.865-.922,0-1.857-.641-2.107-1.715,.057,.013,.168,.041,.224,.041,.181,0,.53-.098,.53-.53,0-.377-.266-.532-.53-.532-.323,0-.532,.196-.532,.586,0,1.214,.963,2.482,2.441,2.482,1.438,0,2.805-1.24,2.805-3.04,0-1.715-1.087-3.04-2.441-3.04-.713,0-1.312,.266-1.785,.78v-3.151Z"/>
          </g>
        </g>
      </g>
      <g id="ba" data-name="ytick 5">
        <g id="bb" data-name="line2d 7">
          <path id="bc" data-name="mec806c7efb" d="M51.116,88.844h-3.5" style="stroke: #000; stroke-linejoin: round; stroke-width: .8px;"/>
        </g>
        <g id="bd" data-name="text 8">
          <g>
            <path id="be" data-name="CMR17-32" d="M32.482,91.529h-.251c-.139,.987-.253,1.155-.307,1.238-.07,.111-1.074,.111-1.271,.111h-2.676c.501-.543,1.478-1.53,2.663-2.67,.85-.806,1.842-1.752,1.842-3.132,0-1.645-1.312-2.596-2.776-2.596-1.534,0-2.469,1.353-2.469,2.609,0,.545,.405,.615,.573,.615,.139,0,.558-.083,.558-.571,0-.434-.364-.56-.558-.56-.085,0-.168,.015-.224,.044,.266-1.186,1.074-1.772,1.927-1.772,1.212,0,2.007,.961,2.007,2.232,0,1.212-.71,2.256-1.506,3.16l-2.776,3.13v.32h4.91l.336-2.158Z"/>
            <path id="bf" data-name="CMMI12-3a" d="M35.629,93.018c0-.403-.336-.682-.671-.682-.403,0-.682,.333-.682,.669,0,.403,.333,.682,.669,.682,.405,0,.684-.333,.684-.669Z"/>
            <path id="bg" data-name="CMR17-30" d="M42.714,89.245c0-.854-.013-2.312-.599-3.432-.517-.981-1.34-1.332-2.064-1.332-.671,0-1.521,.309-2.051,1.316-.558,1.053-.615,2.356-.615,3.448,0,.8,.015,2.018,.447,3.084,.599,1.443,1.674,1.637,2.219,1.637,.641,0,1.617-.264,2.188-1.595,.418-.968,.475-2.101,.475-3.125Zm-2.663,4.498c-.894,0-1.423-.771-1.619-1.835-.153-.828-.153-2.033-.153-2.818,0-1.079,0-1.974,.181-2.829,.266-1.192,1.046-1.556,1.591-1.556,.571,0,1.31,.379,1.576,1.528,.181,.798,.194,1.737,.194,2.857,0,.911,0,2.033-.166,2.859-.294,1.528-1.116,1.794-1.604,1.794Z"/>
          </g>
        </g>
      </g>
      <g id="bh" data-name="ytick 6">
        <g id="bi" data-name="line2d 8">
          <path id="bj" data-name="mec806c7efb" d="M51.116,52.114h-3.5" style="stroke: #000; stroke-linejoin: round; stroke-width: .8px;"/>
        </g>
        <g id="bk" data-name="text 9">
          <g>
            <path id="bl" data-name="CMR17-32" d="M32.482,54.799h-.251c-.139,.987-.253,1.155-.307,1.238-.07,.111-1.074,.111-1.271,.111h-2.676c.501-.543,1.478-1.53,2.663-2.67,.85-.806,1.842-1.752,1.842-3.132,0-1.645-1.312-2.596-2.776-2.596-1.534,0-2.469,1.353-2.469,2.609,0,.545,.405,.615,.573,.615,.139,0,.558-.083,.558-.571,0-.434-.364-.56-.558-.56-.085,0-.168,.015-.224,.044,.266-1.186,1.074-1.772,1.927-1.772,1.212,0,2.007,.961,2.007,2.232,0,1.212-.71,2.256-1.506,3.16l-2.776,3.13v.32h4.91l.336-2.158Z"/>
            <path id="bm" data-name="CMMI12-3a" d="M35.629,56.287c0-.403-.336-.682-.671-.682-.403,0-.682,.333-.682,.669,0,.403,.333,.682,.669,.682,.405,0,.684-.333,.684-.669Z"/>
            <path id="bn" data-name="CMR17-35" d="M38.447,48.784c.139,.057,.71,.238,1.297,.238,1.297,0,2.007-.697,2.413-1.087,0-.111,0-.183-.083-.183-.015,0-.044,0-.155,.057-.488,.209-1.059,.362-1.757,.362-.418,0-1.046-.05-1.73-.347-.153-.072-.181-.072-.194-.072-.07,0-.085,.015-.085,.292v4.051c0,.257,0,.329,.139,.329,.07,0,.098-.028,.168-.129,.447-.645,1.059-.917,1.757-.917,.488,0,1.534,.316,1.534,2.761,0,.449,0,1.257-.418,1.898-.349,.573-.891,.865-1.491,.865-.922,0-1.857-.641-2.107-1.715,.057,.013,.168,.041,.224,.041,.181,0,.53-.098,.53-.53,0-.377-.266-.532-.53-.532-.323,0-.532,.196-.532,.586,0,1.214,.963,2.482,2.441,2.482,1.438,0,2.805-1.24,2.805-3.04,0-1.715-1.087-3.04-2.441-3.04-.713,0-1.312,.266-1.785,.78v-3.151Z"/>
          </g>
        </g>
      </g>
      <g id="bo" data-name="ytick 7">
        <g id="bp" data-name="line2d 9">
          <path id="bq" data-name="mec806c7efb" d="M51.116,15.383h-3.5" style="stroke: #000; stroke-linejoin: round; stroke-width: .8px;"/>
        </g>
        <g id="br" data-name="text 10">
          <g>
            <path id="bs" data-name="CMR17-33" d="M29.747,15.484c1.242,0,1.787,1.096,1.787,2.358,0,1.682-.894,2.33-1.702,2.33-.739,0-1.94-.366-2.317-1.451,.07,.028,.139,.028,.209,.028,.336,0,.586-.222,.586-.586,0-.403-.307-.586-.586-.586-.235,0-.599,.113-.599,.63,0,1.29,1.255,2.299,2.735,2.299,1.547,0,2.733-1.22,2.733-2.648,0-1.375-1.116-2.373-2.441-2.526,1.059-.22,2.079-1.155,2.079-2.413,0-1.096-1.103-1.898-2.358-1.898-1.268,0-2.384,.789-2.384,1.911,0,.488,.362,.573,.543,.573,.294,0,.545-.181,.545-.545,0-.362-.251-.545-.545-.545-.054,0-.124,0-.181,.028,.405-.933,1.506-1.101,1.994-1.101s1.41,.24,1.41,1.589c0,.392-.057,1.081-.532,1.685-.418,.534-.891,.562-1.351,.604-.07,0-.392,.028-.447,.028-.098,.013-.155,.026-.155,.124s.015,.111,.294,.111h.682Z"/>
            <path id="bt" data-name="CMMI12-3a" d="M35.629,19.557c0-.403-.336-.682-.671-.682-.403,0-.682,.333-.682,.669,0,.403,.333,.682,.669,.682,.405,0,.684-.333,.684-.669Z"/>
            <path id="bu" data-name="CMR17-30" d="M42.714,15.785c0-.854-.013-2.312-.599-3.432-.517-.981-1.34-1.332-2.064-1.332-.671,0-1.521,.309-2.051,1.316-.558,1.053-.615,2.356-.615,3.448,0,.8,.015,2.018,.447,3.084,.599,1.443,1.674,1.637,2.219,1.637,.641,0,1.617-.264,2.188-1.595,.418-.968,.475-2.101,.475-3.125Zm-2.663,4.498c-.894,0-1.423-.771-1.619-1.835-.153-.828-.153-2.033-.153-2.818,0-1.079,0-1.974,.181-2.829,.266-1.192,1.046-1.556,1.591-1.556,.571,0,1.31,.379,1.576,1.528,.181,.798,.194,1.737,.194,2.857,0,.911,0,2.033-.166,2.859-.294,1.528-1.116,1.794-1.604,1.794Z"/>
          </g>
        </g>
      </g>
      <g id="bv" data-name="text 11">
        <g>
          <path id="bw" data-name="CMR17-48" d="M8.972,158.468c-.715,0-.715-.177-.715-1.275h-.416c.032,.461,.032,1.305,.032,1.801,0,.493,0,1.337-.032,1.801h.416c0-1.101,0-1.275,.715-1.275h3.875v4.75h-3.875c-.715,0-.715-.174-.715-1.275h-.416c.032,.463,.032,1.308,.032,1.801,0,.496,0,1.34-.032,1.803h.416c0-1.101,0-1.275,.715-1.275h8.583c.712,0,.712,.174,.712,1.275h.413c-.03-.463-.03-1.308-.03-1.803,0-.493,0-1.337,.03-1.801h-.413c0,1.101,0,1.275-.712,1.275h-4.294v-4.75h4.294c.712,0,.712,.174,.712,1.275h.413c-.03-.463-.03-1.308-.03-1.801,0-.496,0-1.34,.03-1.801h-.413c0,1.098,0,1.275-.712,1.275H8.972Z"/>
          <path id="bx" data-name="CMR17-65" d="M14.937,150.285c-.065-.065-.097-.065-.257-.065-1.606,0-3.014,.862-3.014,2.677,0,1.691,1.597,3.029,3.542,3.029,2.092,0,3.631-1.514,3.631-3.203,0-1.786-1.701-2.488-2.04-2.488-.112,0-.112,.097-.112,.13,0,.11,.032,.127,.227,.189,1.093,.351,1.639,1.228,1.639,2.057,0,.685-.386,1.37-1.093,1.801-.819,.496-1.768,.496-2.523,.496v-4.623Zm-.242,4.605c-2.269-.112-2.772-1.337-2.772-1.975,0-1.086,1.009-1.818,2.772-1.833v3.808Z"/>
          <path id="by" data-name="CMR17-69" d="M8.815,147.409c-.351,0-.655,.286-.655,.653,0,.351,.289,.655,.655,.655,.351,0,.653-.286,.653-.655,0-.349-.286-.653-.653-.653Zm3.029,1.866h.413c0-.894,.097-1.021,.867-1.021h4.453c.61,0,.69,.065,.69,1.083h.413c-.03-.381-.03-1.066-.03-1.465,0-.384,0-1.036,.03-1.405h-.413c0,.941-.097,.974-.672,.974h-5.928l.177,1.833Z"/>
          <path id="bz" data-name="CMR17-67" d="M15.779,144.132c.242-.304,.511-.829,.511-1.467,0-1.26-.994-2.344-2.329-2.344-.418,0-1.061,.127-1.559,.605-.478-.446-.638-1.098-.638-1.467,0-.062,0-.159,.047-.239,.017,.065,.08,.209,.336,.209,.207,0,.349-.144,.349-.351,0-.239-.159-.366-.366-.366-.301,0-.623,.239-.623,.747,0,.638,.304,1.196,.72,1.644-.431,.478-.59,1.051-.59,1.562,0,1.258,.989,2.344,2.324,2.344,.917,0,1.497-.528,1.656-.687,.563,.478,1.215,.478,1.295,.478,.413,0,1.021-.159,1.355-.7,.209,.829,.872,1.482,1.701,1.482,1.193,0,2.06-1.514,2.06-3.333,0-1.753-.834-3.33-2.077-3.33-2.227,0-2.227,2.359-2.227,3.587,0,.366,0,1.019-.015,1.098-.08,.496-.526,.829-1.083,.829-.144,0-.496,0-.847-.301Zm.242-1.467c0,1.402-1.738,1.402-2.06,1.402s-2.052,0-2.052-1.402,1.731-1.402,2.052-1.402,2.06,0,2.06,1.402Zm5.738-.416c0,1.594-.879,2.695-1.791,2.695-.513,0-.994-.271-1.26-.623-.281-.399-.281-.558-.281-1.641,0-1.308,0-3.123,1.542-3.123,.912,0,1.791,1.098,1.791,2.692Z"/>
          <path id="ca" data-name="CMR17-68" d="M13.814,131.975c-.817,0-2.147,.159-2.147,2.04,0,1.308,1.056,1.945,1.587,2.137v.015H7.682l.177,1.898h.413c0-.941,.095-1.083,.837-1.083h8.468c.61,0,.69,.062,.69,1.083h.413c-.03-.384-.03-1.083-.03-1.499,0-.413,0-1.131,.03-1.514h-.413c0,1.021-.065,1.083-.69,1.083h-3.076c-1.472,0-2.578-.892-2.578-2.007,0-1.181,1.056-1.308,1.826-1.308h3.828c.61,0,.69,.065,.69,1.083h.413c-.03-.381-.03-1.083-.03-1.497,0-.416,0-1.133,.03-1.514h-.413c0,1.019-.065,1.083-.69,1.083h-3.763Z"/>
          <path id="cb" data-name="CMR17-74" d="M12.242,128.457v-2.232h-.416v2.232h-3.029v.286c1.684,.032,3.158,.59,3.191,1.945h.254v-1.387h4.501c.306,0,2.097,0,2.097-1.851,0-.939-.927-1.482-2.112-1.482h-.914v.286h.899c1.103,0,1.841,.431,1.841,1.101,0,.463-.319,1.101-1.778,1.101h-4.533Z"/>
          <path id="cc" data-name="CMR17-28" d="M22.571,115.529c-.015,0-.047,0-.095,.047-.75,.732-2.792,2.692-7.771,2.692s-7.004-1.928-7.803-2.71c-.015,0-.047-.03-.095-.03-.05,0-.082,.047-.082,.11,0,.177,1.183,1.532,2.939,2.311,1.771,.797,3.492,1.021,5.024,1.021,1.151,0,3.096-.112,5.156-1.068,1.659-.765,2.822-2.072,2.822-2.264,0-.08-.03-.11-.095-.11Z"/>
          <path id="cd" data-name="CMR17-6b" d="M14.498,110.602c-.032,.015-.127,.095-.174,.095-.032,0-1.061-1.131-1.188-1.275-.762-.909-.839-1.482-.857-1.898h-.411c0,.097,0,.13,.015,.144l.017,.782c0,.446,0,1.131-.032,1.562h.411c.017-.224,.142-.384,.366-.384,.316,0,.618,.319,.618,.336l2.184,2.406H7.682l.177,1.898h.413c0-.941,.095-1.086,.857-1.086h8.458c.6,0,.68,.065,.68,1.086h.413c-.03-.384-.03-1.086-.03-1.484s0-1.098,.03-1.482h-.413c0,1.021-.062,1.083-.68,1.083h-1.743l-.999-1.098,2.376-1.611c.286-.189,.508-.349,.715-.349,.284,0,.331,.286,.331,.478h.413c-.03-.384-.03-1.068-.03-1.467,0-.286,.015-.877,.03-1.148h-.413c0,.75-.142,.924-.839,1.402l-2.929,2.01Z"/>
          <path id="ce" data-name="CMR17-6d" d="M13.814,96.26c-.802,0-2.147,.142-2.147,2.04,0,1.083,.737,1.833,1.601,2.12v.015c-1.313,.192-1.601,1.133-1.601,2.025,0,1.26,.976,1.913,1.619,2.152v.017h-1.619l.177,1.88h.416c0-.941,.095-1.083,.864-1.083h4.453c.61,0,.69,.062,.69,1.083h.413c-.03-.384-.03-1.083-.03-1.499,0-.413,0-1.131,.03-1.514h-.413c0,1.021-.065,1.083-.69,1.083h-3.076c-1.472,0-2.578-.892-2.578-2.007,0-1.181,1.056-1.308,1.826-1.308h3.828c.61,0,.69,.065,.69,1.083h.413c-.03-.381-.03-1.083-.03-1.497,0-.416,0-1.133,.03-1.514h-.413c0,1.019-.065,1.083-.69,1.083h-3.076c-1.472,0-2.578-.892-2.578-2.007,0-1.181,1.056-1.308,1.826-1.308h3.828c.61,0,.69,.062,.69,1.083h.413c-.03-.384-.03-1.083-.03-1.499,0-.413,0-1.131,.03-1.514h-.413c0,1.021-.065,1.086-.69,1.086h-3.763Z"/>
          <path id="cf" data-name="CMR17-29" d="M14.705,90.535c-1.148,0-3.096,.112-5.153,1.068-1.661,.765-2.827,2.072-2.827,2.262,0,.05,.017,.112,.097,.112,.032,0,.047-.015,.08-.032,.8-.765,2.824-2.71,7.786-2.71s7.006,1.93,7.803,2.71c.032,.017,.047,.032,.08,.032,.08,0,.095-.062,.095-.112,0-.174-1.178-1.529-2.934-2.311-1.771-.797-3.494-1.019-5.026-1.019Z"/>
        </g>
      </g>
    </g>
    <g id="cg" data-name="line2d 10">
      <g style="clip-path: url(#ch);">
        <path d="M158.901,15.383l-4.545,3.673-3.766,3.306-3.444,3.306-3.105,3.306-2.462,2.938-2.166,2.938-1.639,2.571-1.386,2.571-1.119,2.571-.734,2.204-.516,2.204-.284,2.204-.039,2.204,.219,2.204,.392,1.837,.592,1.837,.802,1.837,1.021,1.837,1.249,1.837,1.485,1.837,2.103,2.204,2.462,2.204,2.824,2.204,3.184,2.204,4.155,2.571,4.597,2.571,5.732,2.938,7.73,3.673,12.247,5.51,13.768,6.244,7.567,3.673,6.278,3.306,5.082,2.938,4.032,2.571,3.634,2.571,3.237,2.571,2.849,2.571,2.476,2.571,2.124,2.571,1.795,2.571,1.492,2.571,1.216,2.571,.965,2.571,.741,2.571,.605,2.938,.381,2.938,.201,3.306-.01,3.673-.233,4.04-.497,4.775-.883,6.244-2.057,12.488-1.641,10.652-1.072,8.448-.798,8.081-.578,8.081-.407,8.815-.233,9.917-.054,6.244h0" style="fill: none; stroke: #000; stroke-linecap: square; stroke-linejoin: round; stroke-width: 1.5px;"/>
      </g>
    </g>
    <g id="ci" data-name="line2d 11">
      <g style="clip-path: url(#cj);">
        <path d="M158.901,15.383l-7.304,3.306-6.789,3.306-6.309,3.306-5.863,3.306-5.446,3.306-5.057,3.306-4.691,3.306-4.81,3.673-4.411,3.673-4.037,3.673-3.683,3.673-3.346,3.673-3.022,3.673-2.71,3.673-2.178,3.306-1.934,3.306-1.691,3.306-1.449,3.306-1.205,3.306-.961,3.306-.719,3.306-.483,3.306-.256,3.306-.045,3.306,.172,3.673,.418,4.04,.736,4.775,1.143,5.877,4.657,22.773,1.066,6.979,.828,6.979,.604,6.979,.441,7.713,.271,8.815,.092,10.652-.116,15.059-.449,34.159h0" style="fill: none; stroke: #1f77b4; stroke-linecap: square; stroke-linejoin: round; stroke-width: 1.5px;"/>
      </g>
    </g>
    <g id="ck" data-name="line2d 12">
      <g style="clip-path: url(#cl);">
        <path d="M60.251,15.751l3.846,4.04,3.872,4.408,4.833,5.877,9.862,12.121,3.926,4.408,3.559,3.673,3.499,3.306,3.846,3.306,3.762,2.938,4.13,2.938,4.537,2.938,4.974,2.938,5.425,2.938,5.87,2.938,7.094,3.306,9.243,4.04,17.56,7.346,11.123,4.775,7.981,3.673,5.873,2.938,4.704,2.571,4.265,2.571,3.812,2.571,2.905,2.204,2.577,2.204,2.259,2.204,1.955,2.204,1.669,2.204,1.402,2.204,1.155,2.204,.929,2.204,.826,2.571,.58,2.571,.364,2.571,.189,2.938-.029,3.306-.271,3.673-.574,4.408-.97,5.51-1.825,8.815-2.476,12.121-1.342,7.713-1.046,7.346-.81,7.346-.589,7.346-.424,8.081-.252,9.183-.072,11.019,.012,3.306h0" style="fill: none; stroke: #ff7f0e; stroke-linecap: square; stroke-linejoin: round; stroke-width: 1.5px;"/>
      </g>
    </g>
    <g id="cm" data-name="patch 3">
      <path d="M51.116,246.783V4.364" style="fill: none; stroke: #000; stroke-linecap: square; stroke-width: .8px;"/>
    </g>
    <g id="cn" data-name="patch 4">
      <path d="M252.091,246.783V4.364" style="fill: none; stroke: #000; stroke-linecap: square; stroke-width: .8px;"/>
    </g>
    <g id="co" data-name="patch 5">
      <path d="M51.116,246.783H252.091" style="fill: none; stroke: #000; stroke-linecap: square; stroke-width: .8px;"/>
    </g>
    <g id="cp" data-name="patch 6">
      <path d="M51.116,4.364H252.091" style="fill: none; stroke: #000; stroke-linecap: square; stroke-width: .8px;"/>
    </g>
    <g id="cq" data-name="legend 1">
      <g id="cr" data-name="patch 7">
        <path d="M121.245,226.562h56.409c1.333,0,2-.667,2-2v-40.812c0-1.333-.667-2-2-2h-56.409c-1.333,0-2,.667-2,2v40.812c0,1.333,.667,2,2,2Z" style="fill: #fff; isolation: isolate; opacity: .8; stroke: #ccc;"/>
      </g>
      <g id="cs" data-name="line2d 13">
        <path d="M123.245,189.25h20" style="fill: none; stroke: #000; stroke-linecap: square; stroke-linejoin: round; stroke-width: 1.5px;"/>
      </g>
      <g id="ct" data-name="text 12">
        <g>
          <path id="cu" data-name="CMR17-74" d="M152.749,188.726h1.395v-.26h-1.395v-1.893h-.179c-.02,1.052-.369,1.974-1.216,1.994v.159h.867v2.813c0,.191,0,1.311,1.157,1.311,.587,0,.926-.579,.926-1.32v-.571h-.179v.562c0,.69-.269,1.15-.688,1.15-.29,0-.688-.199-.688-1.111v-2.833Z"/>
          <path id="cv" data-name="CMR17-6f" d="M159.066,190.639c0-1.276-.926-2.273-2.011-2.273s-2.013,.996-2.013,2.273c0,1.255,.926,2.21,2.013,2.21s2.011-.956,2.011-2.21Zm-2.011,2.031c-.469,0-.867-.279-1.096-.668-.249-.448-.28-1.006-.28-1.445,0-.417,.02-.936,.28-1.384,.199-.328,.587-.648,1.096-.648,.448,0,.827,.249,1.065,.598,.31,.469,.31,1.125,.31,1.434,0,.389-.02,.987-.29,1.465-.279,.459-.707,.648-1.085,.648Z"/>
          <path id="cw" data-name="CMR17-74" d="M160.846,188.726h1.395v-.26h-1.395v-1.893h-.179c-.02,1.052-.369,1.974-1.216,1.994v.159h.867v2.813c0,.191,0,1.311,1.157,1.311,.587,0,.926-.579,.926-1.32v-.571h-.179v.562c0,.69-.269,1.15-.688,1.15-.29,0-.688-.199-.688-1.111v-2.833Z"/>
          <path id="cx" data-name="CMR17-61" d="M166.457,190.172c0-.61,0-.964-.419-1.367-.369-.338-.797-.439-1.135-.439-.788,0-1.356,.635-1.356,1.306,0,.369,.299,.388,.36,.388,.129,0,.358-.079,.358-.358,0-.249-.19-.358-.358-.358-.04,0-.09,.009-.12,.019,.209-.651,.747-.836,1.096-.836,.498,0,1.046,.455,1.046,1.304v.378c-.588,.02-1.295,.1-1.854,.403-.627,.352-.806,.858-.806,1.241,0,.777,.897,.996,1.424,.996,.548,0,1.057-.31,1.275-.886,.02,.445,.299,.847,.738,.847,.209,0,.738-.14,.738-.937v-.565h-.181v.574c0,.616-.268,.697-.399,.697-.408,0-.408-.525-.408-.97v-1.438Zm-.528,1.197c0,.878-.618,1.322-1.166,1.322-.498,0-.887-.374-.887-.837,0-.304,.131-.837,.708-1.161,.478-.272,1.026-.313,1.345-.333v1.01Z"/>
          <path id="cy" data-name="CMR17-6c" d="M168.963,185.876l-1.185,.111v.258c.587,0,.677,.059,.677,.535v5.286c0,.375-.04,.425-.677,.425v.258c.238-.019,.677-.019,.926-.019,.258,0,.697,0,.936,.019v-.258c-.637,0-.677-.039-.677-.425v-6.191Z"/>
        </g>
      </g>
      <g id="cz" data-name="line2d 14">
        <path d="M123.245,203.187h20" style="fill: none; stroke: #1f77b4; stroke-linecap: square; stroke-linejoin: round; stroke-width: 1.5px;"/>
      </g>
      <g id="da" data-name="text 13">
        <g>
          <path id="db" data-name="CMR17-64" d="M154.154,199.923v.258c.587,0,.677,.059,.677,.523v2.291c-.04-.05-.448-.693-1.255-.693-1.017,0-2.003,.915-2.003,2.242,0,1.318,.926,2.242,1.904,2.242,.847,0,1.284-.662,1.334-.732v.732l1.206-.079v-.26c-.588,0-.679-.061-.679-.543v-6.091l-1.185,.111Zm.657,5.578c0,.302-.179,.574-.408,.775-.339,.302-.677,.352-.867,.352-.29,0-1.325-.151-1.325-2.072,0-1.972,1.155-2.092,1.415-2.092,.458,0,.827,.262,1.055,.623,.129,.212,.129,.243,.129,.423v1.991Z"/>
          <path id="dc" data-name="CMR17-69" d="M157.879,200.521c0-.219-.179-.409-.408-.409-.219,0-.409,.181-.409,.409,0,.219,.179,.408,.409,.408,.218,0,.408-.179,.408-.408Zm-1.166,1.893v.258c.559,0,.638,.061,.638,.542v2.783c0,.381-.04,.431-.677,.431v.258c.238-.019,.666-.019,.915-.019,.24,0,.648,0,.878,.019v-.258c-.588,0-.609-.061-.609-.42v-3.705l-1.146,.111Z"/>
          <path id="dd" data-name="CMR17-73" d="M161.901,202.503c0-.179-.011-.188-.07-.188-.04,0-.05,.009-.17,.159-.03,.04-.12,.14-.149,.179-.319-.338-.767-.349-.937-.349-1.105,0-1.504,.579-1.504,1.157,0,.897,1.017,1.105,1.304,1.166,.629,.129,.847,.168,1.057,.349,.129,.118,.349,.338,.349,.697,0,.417-.24,.956-1.157,.956-.866,0-1.175-.657-1.354-1.535-.03-.139-.03-.149-.109-.149-.081,0-.09,.011-.09,.21v1.434c0,.181,.009,.19,.07,.19,.05,0,.059-.009,.109-.09,.061-.089,.21-.328,.269-.428,.199,.269,.548,.528,1.105,.528,.987,0,1.515-.537,1.515-1.314,0-.509-.269-.778-.399-.897-.299-.31-.648-.38-1.066-.459-.548-.12-1.245-.258-1.245-.867,0-.258,.14-.806,1.146-.806,1.066,0,1.127,.996,1.146,1.315,.011,.05,.061,.059,.09,.059,.09,0,.09-.03,.09-.199v-1.116Z"/>
          <path id="de" data-name="CMR17-74" d="M163.906,202.663h1.395v-.26h-1.395v-1.893h-.179c-.02,1.052-.369,1.974-1.216,1.994v.159h.867v2.813c0,.191,0,1.311,1.157,1.311,.587,0,.926-.579,.926-1.32v-.571h-.179v.562c0,.69-.269,1.15-.688,1.15-.29,0-.688-.199-.688-1.111v-2.833Z"/>
          <path id="df" data-name="CMR17-31" d="M171.587,200.331c0-.209-.009-.219-.149-.219-.388,.462-.976,.609-1.533,.629-.03,0-.079,0-.09,.019-.009,.02-.009,.04-.009,.249,.308,0,.827-.059,1.225-.297v5.249c0,.349-.02,.469-.876,.469h-.299v.258c.478-.009,.976-.019,1.454-.019s.976,.009,1.455,.019v-.258h-.299c-.858,0-.878-.109-.878-.469v-5.629Z"/>
        </g>
      </g>
      <g id="dg" data-name="line2d 15">
        <path d="M123.245,217.124h20" style="fill: none; stroke: #ff7f0e; stroke-linecap: square; stroke-linejoin: round; stroke-width: 1.5px;"/>
      </g>
      <g id="dh" data-name="text 14">
        <g>
          <path id="di" data-name="CMR17-64" d="M154.154,213.861v.258c.587,0,.677,.059,.677,.523v2.291c-.04-.05-.448-.693-1.255-.693-1.017,0-2.003,.915-2.003,2.242,0,1.318,.926,2.242,1.904,2.242,.847,0,1.284-.662,1.334-.732v.732l1.206-.079v-.26c-.588,0-.679-.061-.679-.543v-6.091l-1.185,.111Zm.657,5.578c0,.302-.179,.574-.408,.775-.339,.302-.677,.352-.867,.352-.29,0-1.325-.151-1.325-2.072,0-1.972,1.155-2.092,1.415-2.092,.458,0,.827,.262,1.055,.623,.129,.212,.129,.243,.129,.423v1.991Z"/>
          <path id="dj" data-name="CMR17-69" d="M157.879,214.458c0-.219-.179-.409-.408-.409-.219,0-.409,.181-.409,.409,0,.219,.179,.408,.409,.408,.218,0,.408-.179,.408-.408Zm-1.166,1.893v.258c.559,0,.638,.061,.638,.542v2.783c0,.381-.04,.431-.677,.431v.258c.238-.019,.666-.019,.915-.019,.24,0,.648,0,.878,.019v-.258c-.588,0-.609-.061-.609-.42v-3.705l-1.146,.111Z"/>
          <path id="dk" data-name="CMR17-73" d="M161.901,216.44c0-.179-.011-.188-.07-.188-.04,0-.05,.009-.17,.159-.03,.04-.12,.14-.149,.179-.319-.338-.767-.349-.937-.349-1.105,0-1.504,.579-1.504,1.157,0,.897,1.017,1.105,1.304,1.166,.629,.129,.847,.168,1.057,.349,.129,.118,.349,.338,.349,.697,0,.417-.24,.956-1.157,.956-.866,0-1.175-.657-1.354-1.535-.03-.139-.03-.149-.109-.149-.081,0-.09,.011-.09,.21v1.434c0,.181,.009,.19,.07,.19,.05,0,.059-.009,.109-.09,.061-.089,.21-.328,.269-.428,.199,.269,.548,.528,1.105,.528,.987,0,1.515-.537,1.515-1.314,0-.509-.269-.778-.399-.897-.299-.31-.648-.38-1.066-.459-.548-.12-1.245-.258-1.245-.867,0-.258,.14-.806,1.146-.806,1.066,0,1.127,.996,1.146,1.315,.011,.05,.061,.059,.09,.059,.09,0,.09-.03,.09-.199v-1.116Z"/>
          <path id="dl" data-name="CMR17-74" d="M163.906,216.6h1.395v-.26h-1.395v-1.893h-.179c-.02,1.052-.369,1.974-1.216,1.994v.159h.867v2.813c0,.191,0,1.311,1.157,1.311,.587,0,.926-.579,.926-1.32v-.571h-.179v.562c0,.69-.269,1.15-.688,1.15-.29,0-.688-.199-.688-1.111v-2.833Z"/>
          <path id="dm" data-name="CMR17-32" d="M173.092,219.083h-.179c-.1,.705-.181,.825-.219,.884-.05,.079-.767,.079-.908,.079h-1.912c.358-.388,1.055-1.093,1.902-1.907,.607-.576,1.315-1.252,1.315-2.237,0-1.175-.937-1.854-1.983-1.854-1.096,0-1.764,.967-1.764,1.863,0,.389,.29,.439,.409,.439,.1,0,.399-.059,.399-.408,0-.31-.26-.4-.399-.4-.061,0-.12,.011-.16,.031,.19-.847,.767-1.266,1.376-1.266,.866,0,1.434,.686,1.434,1.594,0,.866-.507,1.611-1.076,2.257l-1.983,2.235v.229h3.507l.24-1.541Z"/>
        </g>
      </g>
    </g>
  </g>
  <g id="dn" data-name="axes 2">
    <g id="do" data-name="patch 8">
      <path d="M273.883,246.783h200.975V4.364h-200.975V246.783Z" style="fill: #fff;"/>
    </g>
    <g id="dp" data-name="matplotlib.axis 3">
      <g id="dq" data-name="xtick 3">
        <g id="dr" data-name="line2d 16">
          <path id="ds" data-name="m3088f0a5fa" d="M331.182,246.783v3.5" style="stroke: #000; stroke-linejoin: round; stroke-width: .8px;"/>
        </g>
        <g id="dt" data-name="text 15">
          <path id="du" data-name="CMR17-31" d="M331.477,254.571c0-.292-.013-.307-.209-.307-.543,.647-1.366,.852-2.147,.88-.041,0-.111,0-.126,.026-.013,.028-.013,.057-.013,.349,.432,0,1.157-.083,1.715-.416v7.349c0,.488-.028,.656-1.227,.656h-.418v.362c.669-.013,1.366-.026,2.035-.026s1.366,.013,2.038,.026v-.362h-.418c-1.201,0-1.229-.153-1.229-.656v-7.88Z"/>
        </g>
      </g>
      <g id="dv" data-name="xtick 4">
        <g id="dw" data-name="line2d 17">
          <path id="dx" data-name="m3088f0a5fa" d="M416.25,246.783v3.5" style="stroke: #000; stroke-linejoin: round; stroke-width: .8px;"/>
        </g>
        <g id="dy" data-name="text 16">
          <path id="dz" data-name="CMR17-32" d="M418.653,261.311h-.251c-.139,.987-.253,1.155-.307,1.238-.07,.111-1.074,.111-1.271,.111h-2.676c.501-.543,1.478-1.53,2.663-2.67,.85-.806,1.842-1.752,1.842-3.132,0-1.645-1.312-2.596-2.776-2.596-1.534,0-2.469,1.353-2.469,2.609,0,.545,.405,.615,.573,.615,.139,0,.558-.083,.558-.571,0-.434-.364-.56-.558-.56-.085,0-.168,.015-.224,.044,.266-1.186,1.074-1.772,1.927-1.772,1.212,0,2.007,.961,2.007,2.232,0,1.212-.71,2.256-1.506,3.16l-2.776,3.13v.32h4.91l.336-2.158Z"/>
        </g>
      </g>
      <g id="ea" data-name="text 17">
        <g>
          <path id="eb" data-name="CMR17-44" d="M339.142,271.42v.468c1.236,0,1.435,0,1.435,.804v9.653c0,.804-.199,.804-1.435,.804v.465h5.702c2.886,0,5.2-2.642,5.2-5.996,0-3.374-2.278-6.198-5.2-6.198h-5.702Zm3.334,11.729c-.717,0-.754-.09-.754-.695v-9.869c0-.608,.036-.698,.754-.698h2.009c1.488,0,4.231,.874,4.231,5.73,0,2.516-.734,3.533-1.076,4.015-.429,.552-1.451,1.516-3.155,1.516h-2.009Z"/>
          <path id="ec" data-name="CMR17-6d" d="M363.001,278.139c0-.902-.16-2.415-2.295-2.415-1.219,0-2.062,.829-2.384,1.802h-.017c-.216-1.477-1.275-1.802-2.278-1.802-1.418,0-2.152,1.098-2.421,1.821h-.02v-1.821l-2.116,.199v.468c1.059,0,1.219,.106,1.219,.972v5.01c0,.686-.07,.776-1.219,.776v.465c.432-.034,1.219-.034,1.687-.034,.465,0,1.272,0,1.704,.034v-.465c-1.149,0-1.219-.073-1.219-.776v-3.46c0-1.656,1.003-2.9,2.258-2.9,1.328,0,1.471,1.188,1.471,2.054v4.307c0,.686-.073,.776-1.219,.776v.465c.429-.034,1.219-.034,1.684-.034,.468,0,1.275,0,1.704,.034v-.465c-1.146,0-1.219-.073-1.219-.776v-3.46c0-1.656,1.003-2.9,2.258-2.9,1.328,0,1.471,1.188,1.471,2.054v4.307c0,.686-.07,.776-1.219,.776v.465c.432-.034,1.219-.034,1.687-.034,.465,0,1.272,0,1.704,.034v-.465c-1.149,0-1.222-.073-1.222-.776v-4.234Z"/>
          <path id="ed" data-name="CMR17-28" d="M375.625,287.991c0-.017,0-.053-.053-.106-.824-.843-3.029-3.141-3.029-8.742s2.169-7.879,3.049-8.779c0-.017,.034-.053,.034-.106,0-.056-.053-.092-.123-.092-.199,0-1.723,1.331-2.6,3.306-.897,1.992-1.149,3.928-1.149,5.652,0,1.295,.126,3.483,1.202,5.8,.86,1.866,2.331,3.175,2.547,3.175,.09,0,.123-.034,.123-.106Z"/>
          <path id="ee" data-name="CMR17-6d" d="M388.611,278.139c0-.902-.16-2.415-2.295-2.415-1.219,0-2.062,.829-2.384,1.802h-.017c-.216-1.477-1.275-1.802-2.278-1.802-1.418,0-2.152,1.098-2.421,1.821h-.02v-1.821l-2.116,.199v.468c1.059,0,1.219,.106,1.219,.972v5.01c0,.686-.07,.776-1.219,.776v.465c.432-.034,1.219-.034,1.687-.034,.465,0,1.272,0,1.704,.034v-.465c-1.149,0-1.219-.073-1.219-.776v-3.46c0-1.656,1.003-2.9,2.258-2.9,1.328,0,1.471,1.188,1.471,2.054v4.307c0,.686-.073,.776-1.219,.776v.465c.429-.034,1.219-.034,1.684-.034,.468,0,1.275,0,1.704,.034v-.465c-1.146,0-1.219-.073-1.219-.776v-3.46c0-1.656,1.003-2.9,2.258-2.9,1.328,0,1.471,1.188,1.471,2.054v4.307c0,.686-.07,.776-1.219,.776v.465c.432-.034,1.219-.034,1.687-.034,.465,0,1.272,0,1.704,.034v-.465c-1.149,0-1.222-.073-1.222-.776v-4.234Z"/>
          <path id="ef" data-name="CMR17-6d" d="M402.457,278.139c0-.902-.16-2.415-2.295-2.415-1.219,0-2.062,.829-2.384,1.802h-.017c-.216-1.477-1.275-1.802-2.278-1.802-1.418,0-2.152,1.098-2.421,1.821h-.02v-1.821l-2.116,.199v.468c1.059,0,1.219,.106,1.219,.972v5.01c0,.686-.07,.776-1.219,.776v.465c.432-.034,1.219-.034,1.687-.034,.465,0,1.272,0,1.704,.034v-.465c-1.149,0-1.219-.073-1.219-.776v-3.46c0-1.656,1.003-2.9,2.258-2.9,1.328,0,1.471,1.188,1.471,2.054v4.307c0,.686-.073,.776-1.219,.776v.465c.429-.034,1.219-.034,1.684-.034,.468,0,1.275,0,1.704,.034v-.465c-1.146,0-1.219-.073-1.219-.776v-3.46c0-1.656,1.003-2.9,2.258-2.9,1.328,0,1.471,1.188,1.471,2.054v4.307c0,.686-.07,.776-1.219,.776v.465c.432-.034,1.219-.034,1.687-.034,.465,0,1.272,0,1.704,.034v-.465c-1.149,0-1.222-.073-1.222-.776v-4.234Z"/>
          <path id="eg" data-name="CMR17-29" d="M408.896,279.142c0-1.292-.126-3.483-1.202-5.797-.86-1.869-2.331-3.18-2.544-3.18-.056,0-.126,.02-.126,.109,0,.036,.017,.053,.036,.09,.86,.899,3.049,3.177,3.049,8.759s-2.172,7.882-3.049,8.779c-.02,.036-.036,.053-.036,.09,0,.09,.07,.106,.126,.106,.196,0,1.72-1.325,2.6-3.301,.897-1.992,1.146-3.931,1.146-5.654Z"/>
        </g>
      </g>
    </g>
    <g id="eh" data-name="matplotlib.axis 4">
      <g id="ei" data-name="ytick 8">
        <g id="ej" data-name="line2d 18">
          <path id="ek" data-name="mec806c7efb" d="M273.883,235.764h-3.5" style="stroke: #000; stroke-linejoin: round; stroke-width: .8px;"/>
        </g>
      </g>
      <g id="el" data-name="ytick 9">
        <g id="em" data-name="line2d 19">
          <path id="en" data-name="mec806c7efb" d="M273.883,199.034h-3.5" style="stroke: #000; stroke-linejoin: round; stroke-width: .8px;"/>
        </g>
      </g>
      <g id="eo" data-name="ytick 10">
        <g id="ep" data-name="line2d 20">
          <path id="eq" data-name="mec806c7efb" d="M273.883,162.304h-3.5" style="stroke: #000; stroke-linejoin: round; stroke-width: .8px;"/>
        </g>
      </g>
      <g id="er" data-name="ytick 11">
        <g id="es" data-name="line2d 21">
          <path id="et" data-name="mec806c7efb" d="M273.883,125.574h-3.5" style="stroke: #000; stroke-linejoin: round; stroke-width: .8px;"/>
        </g>
      </g>
      <g id="eu" data-name="ytick 12">
        <g id="ev" data-name="line2d 22">
          <path id="ew" data-name="mec806c7efb" d="M273.883,88.844h-3.5" style="stroke: #000; stroke-linejoin: round; stroke-width: .8px;"/>
        </g>
      </g>
      <g id="ex" data-name="ytick 13">
        <g id="ey" data-name="line2d 23">
          <path id="ez" data-name="mec806c7efb" d="M273.883,52.114h-3.5" style="stroke: #000; stroke-linejoin: round; stroke-width: .8px;"/>
        </g>
      </g>
      <g id="fa" data-name="ytick 14">
        <g id="fb" data-name="line2d 24">
          <path id="fc" data-name="mec806c7efb" d="M273.883,15.383h-3.5" style="stroke: #000; stroke-linejoin: round; stroke-width: .8px;"/>
        </g>
      </g>
    </g>
    <g id="fd" data-name="line2d 25">
      <g style="clip-path: url(#fe);">
        <path d="M331.873,15.383l4.719,3.306,5.097,3.306,5.489,3.306,6.564,3.673,7.048,3.673,7.512,3.673,8.757,4.04,10.904,4.775,17.448,7.346,15.508,6.611,8.07,3.673,5.959,2.938,4.736,2.571,3.634,2.204,3.188,2.204,2.286,1.837,1.927,1.837,1.556,1.837,.972,1.469,.73,1.469,.49,1.469,.257,1.469,.032,1.469-.182,1.469-.383,1.469-.739,1.837-.996,1.837-1.487,2.204-2.061,2.571-2.668,2.938-4.359,4.408-8.783,8.815-3.673,4.04-3.039,3.673-2.466,3.306-2.206,3.306-1.95,3.306-1.704,3.306-1.472,3.306-1.384,3.673-1.143,3.673-1.008,4.04-.779,4.04-.625,4.408-.453,4.775-.289,5.51-.093,6.244,.126,7.713,.41,10.284,1.588,35.628,.217,8.448h0" style="fill: none; stroke: #000; stroke-linecap: square; stroke-linejoin: round; stroke-width: 1.5px;"/>
      </g>
    </g>
    <g id="ff" data-name="line2d 26">
      <g style="clip-path: url(#fg);">
        <path d="M331.873,15.383l4.872,3.306,5.264,3.306,5.671,3.306,6.085,3.306,7.245,3.673,7.74,3.673,9.051,4.04,10.432,4.408,14.556,5.877,25.627,10.284,8.521,3.673,6.309,2.938,5.037,2.571,3.891,2.204,3.449,2.204,2.508,1.837,2.157,1.837,1.795,1.837,1.173,1.469,.939,1.469,.709,1.469,.484,1.469,.269,1.469,.063,1.469-.13,1.469-.413,1.837-.664,1.837-.884,1.837-1.308,2.204-1.8,2.571-2.626,3.306-4.132,4.775-7.35,8.448-3.521,4.408-2.933,4.04-2.393,3.673-2.126,3.673-1.861,3.673-1.607,3.673-1.369,3.673-1.251,4.04-1.01,4.04-.858,4.408-.636,4.408-.505,5.142-.309,5.51-.124,6.244,.084,7.713,.355,10.284,1.588,39.668,.018,.735h0" style="fill: none; stroke: #1f77b4; stroke-linecap: square; stroke-linejoin: round; stroke-width: 1.5px;"/>
      </g>
    </g>
    <g id="fh" data-name="line2d 27">
      <g style="clip-path: url(#fi);">
        <path d="M284.208,15.751l.452,4.408,1.993,20.569,.723,9.917,.39,8.448,.127,7.713-.108,7.346-.33,7.346-.608,8.448-1.487,16.529-.96,12.121-.617,10.652-.427,11.386-.251,12.856-.09,16.896,.109,30.853,.115,34.526h0" style="fill: none; stroke: #ff7f0e; stroke-linecap: square; stroke-linejoin: round; stroke-width: 1.5px;"/>
      </g>
    </g>
    <g id="fj" data-name="patch 9">
      <path d="M273.883,246.783V4.364" style="fill: none; stroke: #000; stroke-linecap: square; stroke-width: .8px;"/>
    </g>
    <g id="fk" data-name="patch 10">
      <path d="M474.858,246.783V4.364" style="fill: none; stroke: #000; stroke-linecap: square; stroke-width: .8px;"/>
    </g>
    <g id="fl" data-name="patch 11">
      <path d="M273.883,246.783h200.975" style="fill: none; stroke: #000; stroke-linecap: square; stroke-width: .8px;"/>
    </g>
    <g id="fm" data-name="patch 12">
      <path d="M273.883,4.364h200.975" style="fill: none; stroke: #000; stroke-linecap: square; stroke-width: .8px;"/>
    </g>
  </g>
  <g id="fn" data-name="axes 5">
    <g id="fo" data-name="patch 23">
      <path d="M51.116,545.993H252.091v-242.418H51.116v242.418Z" style="fill: #fff;"/>
    </g>
    <g id="fp" data-name="matplotlib.axis 9">
      <g id="fq" data-name="xtick 12">
        <g id="fr" data-name="line2d 55">
          <path id="fs" data-name="m3088f0a5fa" d="M111.138,545.993v3.5" style="stroke: #000; stroke-linejoin: round; stroke-width: .8px;"/>
        </g>
        <g id="ft" data-name="text 27">
          <g>
            <path id="fu" data-name="CMR17-32" d="M110.126,560.522h-.251c-.139,.987-.253,1.155-.307,1.238-.07,.111-1.074,.111-1.271,.111h-2.676c.501-.543,1.478-1.53,2.663-2.67,.85-.806,1.842-1.752,1.842-3.132,0-1.645-1.312-2.596-2.776-2.596-1.534,0-2.469,1.353-2.469,2.609,0,.545,.405,.615,.573,.615,.139,0,.558-.083,.558-.571,0-.434-.364-.56-.558-.56-.085,0-.168,.015-.224,.044,.266-1.186,1.074-1.772,1.927-1.772,1.212,0,2.007,.961,2.007,2.232,0,1.212-.71,2.256-1.506,3.16l-2.776,3.13v.32h4.91l.336-2.158Z"/>
            <path id="fv" data-name="CMR17-34" d="M115.392,553.642c0-.292-.013-.307-.264-.307l-4.143,6.612v.362h3.598v1.369c0,.501-.028,.641-1.005,.641h-.264v.362c.447-.026,1.199-.026,1.674-.026s1.227,0,1.674,.026v-.362h-.266c-.976,0-1.005-.139-1.005-.641v-1.369h1.423v-.362h-1.423v-6.305Zm-.767,.924v5.381h-3.361l3.361-5.381Z"/>
          </g>
        </g>
      </g>
      <g id="fw" data-name="xtick 13">
        <g id="fx" data-name="line2d 56">
          <path id="fy" data-name="m3088f0a5fa" d="M171.539,545.993v3.5" style="stroke: #000; stroke-linejoin: round; stroke-width: .8px;"/>
        </g>
        <g id="fz" data-name="text 28">
          <g>
            <path id="ga" data-name="CMR17-32" d="M170.527,560.522h-.251c-.139,.987-.253,1.155-.307,1.238-.07,.111-1.074,.111-1.271,.111h-2.676c.501-.543,1.478-1.53,2.663-2.67,.85-.806,1.842-1.752,1.842-3.132,0-1.645-1.312-2.596-2.776-2.596-1.534,0-2.469,1.353-2.469,2.609,0,.545,.405,.615,.573,.615,.139,0,.558-.083,.558-.571,0-.434-.364-.56-.558-.56-.085,0-.168,.015-.224,.044,.266-1.186,1.074-1.772,1.927-1.772,1.212,0,2.007,.961,2.007,2.232,0,1.212-.71,2.256-1.506,3.16l-2.776,3.13v.32h4.91l.336-2.158Z"/>
            <path id="gb" data-name="CMR17-36" d="M172.585,557.889c0-3.3,1.563-4.093,2.469-4.093,.294,0,1.005,.059,1.284,.641-.222,0-.641,0-.641,.488,0,.377,.305,.501,.501,.501,.126,0,.501-.054,.501-.53,0-.907-.697-1.423-1.658-1.423-1.661,0-3.404,1.772-3.404,4.823,0,3.823,1.576,4.662,2.691,4.662,1.353,0,2.637-1.218,2.637-3.101,0-1.757-1.129-3.036-2.552-3.036-.852,0-1.48,.562-1.828,1.545v-.477Zm1.743,4.736c-1.715,0-1.715-2.587-1.715-3.106,0-1.011,.475-2.474,1.772-2.474,.238,0,.92,0,1.382,.97,.251,.547,.251,1.125,.251,1.826,0,.758,0,1.321-.294,1.883-.305,.578-.752,.9-1.395,.9Z"/>
          </g>
        </g>
      </g>
      <g id="gc" data-name="xtick 14">
        <g id="gd" data-name="line2d 57">
          <path id="ge" data-name="m3088f0a5fa" d="M231.94,545.993v3.5" style="stroke: #000; stroke-linejoin: round; stroke-width: .8px;"/>
        </g>
        <g id="gf" data-name="text 29">
          <g>
            <path id="gg" data-name="CMR17-32" d="M230.928,560.522h-.251c-.139,.987-.253,1.155-.307,1.238-.07,.111-1.074,.111-1.271,.111h-2.676c.501-.543,1.478-1.53,2.663-2.67,.85-.806,1.842-1.752,1.842-3.132,0-1.645-1.312-2.596-2.776-2.596-1.534,0-2.469,1.353-2.469,2.609,0,.545,.405,.615,.573,.615,.139,0,.558-.083,.558-.571,0-.434-.364-.56-.558-.56-.085,0-.168,.015-.224,.044,.266-1.186,1.074-1.772,1.927-1.772,1.212,0,2.007,.961,2.007,2.232,0,1.212-.71,2.256-1.506,3.16l-2.776,3.13v.32h4.91l.336-2.158Z"/>
            <path id="gh" data-name="CMR17-38" d="M235.302,557.691c.878-.447,1.772-1.12,1.772-2.199,0-1.277-1.229-2.018-2.358-2.018-1.268,0-2.384,.924-2.384,2.199,0,.351,.083,.955,.628,1.486,.139,.139,.724,.56,1.101,.826-.628,.323-2.092,1.094-2.092,2.635,0,1.445,1.366,2.338,2.72,2.338,1.493,0,2.748-1.077,2.748-2.506,0-1.275-.85-1.863-1.408-2.243l-.726-.519Zm-1.828-1.233c-.111-.07-.669-.503-.669-1.162,0-.856,.878-1.499,1.883-1.499,1.103,0,1.911,.785,1.911,1.696,0,1.303-1.451,2.046-1.521,2.046-.013,0-.026,0-.139-.085l-1.465-.996Zm2.567,2.875c.209,.153,.878,.617,.878,1.471,0,1.037-1.031,1.822-2.203,1.822-1.268,0-2.232-.911-2.232-2.018s.85-2.033,1.813-2.467l1.743,1.192Z"/>
          </g>
        </g>
      </g>
      <g id="gi" data-name="text 30">
        <g>
          <path id="gj" data-name="CMR17-5a" d="M131.253,570.992c0-.342-.017-.361-.392-.361h-7.621l-.179,3.948h.322c.106-2.034,.644-3.48,3.55-3.48h2.959l-6.941,11.155c-.126,.196-.126,.213-.126,.339,0,.233,.036,.233,.395,.233h7.874l.249-4.66h-.322c-.16,2.34-.286,4.158-3.713,4.158h-3.119l7.064-11.331Z"/>
          <path id="gk" data-name="CMR17-28" d="M142.999,587.202c0-.017,0-.053-.053-.106-.824-.843-3.029-3.141-3.029-8.742s2.169-7.879,3.049-8.779c0-.017,.034-.053,.034-.106,0-.056-.053-.092-.123-.092-.199,0-1.723,1.331-2.6,3.306-.897,1.992-1.149,3.928-1.149,5.652,0,1.295,.126,3.483,1.202,5.8,.86,1.866,2.331,3.175,2.547,3.175,.09,0,.123-.034,.123-.106Z"/>
          <path id="gl" data-name="CMR17-64" d="M149.1,570.65v.465c1.056,0,1.219,.106,1.219,.941v4.125c-.073-.09-.807-1.247-2.258-1.247-1.83,0-3.606,1.648-3.606,4.035,0,2.373,1.667,4.035,3.427,4.035,1.524,0,2.312-1.191,2.401-1.317v1.317l2.172-.143v-.468c-1.059,0-1.222-.109-1.222-.978v-10.964l-2.132,.199Zm1.182,10.04c0,.544-.322,1.034-.734,1.395-.611,.544-1.219,.633-1.561,.633-.521,0-2.384-.272-2.384-3.729,0-3.55,2.079-3.766,2.547-3.766,.824,0,1.488,.471,1.9,1.121,.233,.381,.233,.437,.233,.762v3.584Z"/>
          <path id="gm" data-name="CMR17-42" d="M153.957,570.631v.468c1.236,0,1.435,0,1.435,.807v9.656c0,.799-.199,.799-1.435,.799v.465h6.167c2.298,0,3.785-1.62,3.785-3.236,0-1.6-1.471-2.967-3.39-3.093,1.723-.339,2.922-1.488,2.922-2.85,0-1.491-1.468-3.015-3.783-3.015h-5.702Zm2.564,5.738v-4.573c0-.608,.036-.698,.754-.698h2.295c1.776,0,2.564,1.435,2.564,2.547,0,1.362-1.093,2.724-3.029,2.724h-2.583Zm.754,5.991c-.717,0-.754-.09-.754-.692v-5.01h3.318c1.847,0,2.743,1.617,2.743,2.914s-1.023,2.788-2.976,2.788h-2.331Z"/>
          <path id="gn" data-name="CMR17-5a" d="M174.01,570.992c0-.342-.017-.361-.392-.361h-7.621l-.179,3.948h.322c.106-2.034,.644-3.48,3.55-3.48h2.959l-6.941,11.155c-.126,.196-.126,.213-.126,.339,0,.233,.036,.233,.395,.233h7.874l.249-4.66h-.322c-.16,2.34-.286,4.158-3.713,4.158h-3.119l7.064-11.331Z"/>
          <path id="go" data-name="CMR17-29" d="M179.572,578.353c0-1.292-.126-3.483-1.202-5.797-.86-1.869-2.331-3.18-2.544-3.18-.056,0-.126,.02-.126,.109,0,.036,.017,.053,.036,.09,.86,.899,3.049,3.177,3.049,8.759s-2.172,7.882-3.049,8.779c-.02,.036-.036,.053-.036,.09,0,.09,.07,.106,.126,.106,.196,0,1.72-1.325,2.6-3.301,.897-1.992,1.146-3.931,1.146-5.654Z"/>
        </g>
      </g>
    </g>
    <g id="gp" data-name="matplotlib.axis 10">
      <g id="gq" data-name="ytick 29">
        <g id="gr" data-name="line2d 58">
          <path id="gs" data-name="mec806c7efb" d="M51.116,534.975h-3.5" style="stroke: #000; stroke-linejoin: round; stroke-width: .8px;"/>
        </g>
        <g id="gt" data-name="text 31">
          <g>
            <path id="gu" data-name="CMR17-30" d="M32.523,535.376c0-.854-.013-2.312-.599-3.432-.517-.981-1.34-1.332-2.064-1.332-.671,0-1.521,.309-2.051,1.316-.558,1.053-.615,2.356-.615,3.448,0,.8,.015,2.018,.447,3.084,.599,1.443,1.674,1.637,2.219,1.637,.641,0,1.617-.264,2.188-1.595,.418-.968,.475-2.101,.475-3.125Zm-2.663,4.498c-.894,0-1.423-.771-1.619-1.835-.153-.828-.153-2.033-.153-2.818,0-1.079,0-1.974,.181-2.829,.266-1.192,1.046-1.556,1.591-1.556,.571,0,1.31,.379,1.576,1.528,.181,.798,.194,1.737,.194,2.857,0,.911,0,2.033-.166,2.859-.294,1.528-1.116,1.794-1.604,1.794Z"/>
            <path id="gv" data-name="CMMI12-3a" d="M35.629,539.148c0-.403-.336-.682-.671-.682-.403,0-.682,.333-.682,.669,0,.403,.333,.682,.669,.682,.405,0,.684-.333,.684-.669Z"/>
            <path id="gw" data-name="CMR17-30" d="M42.714,535.376c0-.854-.013-2.312-.599-3.432-.517-.981-1.34-1.332-2.064-1.332-.671,0-1.521,.309-2.051,1.316-.558,1.053-.615,2.356-.615,3.448,0,.8,.015,2.018,.447,3.084,.599,1.443,1.674,1.637,2.219,1.637,.641,0,1.617-.264,2.188-1.595,.418-.968,.475-2.101,.475-3.125Zm-2.663,4.498c-.894,0-1.423-.771-1.619-1.835-.153-.828-.153-2.033-.153-2.818,0-1.079,0-1.974,.181-2.829,.266-1.192,1.046-1.556,1.591-1.556,.571,0,1.31,.379,1.576,1.528,.181,.798,.194,1.737,.194,2.857,0,.911,0,2.033-.166,2.859-.294,1.528-1.116,1.794-1.604,1.794Z"/>
          </g>
        </g>
      </g>
      <g id="gx" data-name="ytick 30">
        <g id="gy" data-name="line2d 59">
          <path id="gz" data-name="mec806c7efb" d="M51.116,498.244h-3.5" style="stroke: #000; stroke-linejoin: round; stroke-width: .8px;"/>
        </g>
        <g id="ha" data-name="text 32">
          <g>
            <path id="hb" data-name="CMR17-30" d="M32.523,498.646c0-.854-.013-2.312-.599-3.432-.517-.981-1.34-1.332-2.064-1.332-.671,0-1.521,.309-2.051,1.316-.558,1.053-.615,2.356-.615,3.448,0,.8,.015,2.018,.447,3.084,.599,1.443,1.674,1.637,2.219,1.637,.641,0,1.617-.264,2.188-1.595,.418-.968,.475-2.101,.475-3.125Zm-2.663,4.498c-.894,0-1.423-.771-1.619-1.835-.153-.828-.153-2.033-.153-2.818,0-1.079,0-1.974,.181-2.829,.266-1.192,1.046-1.556,1.591-1.556,.571,0,1.31,.379,1.576,1.528,.181,.798,.194,1.737,.194,2.857,0,.911,0,2.033-.166,2.859-.294,1.528-1.116,1.794-1.604,1.794Z"/>
            <path id="hc" data-name="CMMI12-3a" d="M35.629,502.418c0-.403-.336-.682-.671-.682-.403,0-.682,.333-.682,.669,0,.403,.333,.682,.669,.682,.405,0,.684-.333,.684-.669Z"/>
            <path id="hd" data-name="CMR17-35" d="M38.447,494.915c.139,.057,.71,.238,1.297,.238,1.297,0,2.007-.697,2.413-1.087,0-.111,0-.183-.083-.183-.015,0-.044,0-.155,.057-.488,.209-1.059,.362-1.757,.362-.418,0-1.046-.05-1.73-.347-.153-.072-.181-.072-.194-.072-.07,0-.085,.015-.085,.292v4.051c0,.257,0,.329,.139,.329,.07,0,.098-.028,.168-.129,.447-.645,1.059-.917,1.757-.917,.488,0,1.534,.316,1.534,2.761,0,.449,0,1.257-.418,1.898-.349,.573-.891,.865-1.491,.865-.922,0-1.857-.641-2.107-1.715,.057,.013,.168,.041,.224,.041,.181,0,.53-.098,.53-.53,0-.377-.266-.532-.53-.532-.323,0-.532,.196-.532,.586,0,1.214,.963,2.482,2.441,2.482,1.438,0,2.805-1.24,2.805-3.04,0-1.715-1.087-3.04-2.441-3.04-.713,0-1.312,.266-1.785,.78v-3.151Z"/>
          </g>
        </g>
      </g>
      <g id="he" data-name="ytick 31">
        <g id="hf" data-name="line2d 60">
          <path id="hg" data-name="mec806c7efb" d="M51.116,461.514h-3.5" style="stroke: #000; stroke-linejoin: round; stroke-width: .8px;"/>
        </g>
        <g id="hh" data-name="text 33">
          <g>
            <path id="hi" data-name="CMR17-31" d="M30.375,457.459c0-.292-.013-.307-.209-.307-.543,.647-1.366,.852-2.147,.88-.041,0-.111,0-.126,.026-.013,.028-.013,.057-.013,.349,.432,0,1.157-.083,1.715-.416v7.349c0,.488-.028,.656-1.227,.656h-.418v.362c.669-.013,1.366-.026,2.035-.026s1.366,.013,2.038,.026v-.362h-.418c-1.201,0-1.229-.153-1.229-.656v-7.88Z"/>
            <path id="hj" data-name="CMMI12-3a" d="M35.629,465.688c0-.403-.336-.682-.671-.682-.403,0-.682,.333-.682,.669,0,.403,.333,.682,.669,.682,.405,0,.684-.333,.684-.669Z"/>
            <path id="hk" data-name="CMR17-30" d="M42.714,461.916c0-.854-.013-2.312-.599-3.432-.517-.981-1.34-1.332-2.064-1.332-.671,0-1.521,.309-2.051,1.316-.558,1.053-.615,2.356-.615,3.448,0,.8,.015,2.018,.447,3.084,.599,1.443,1.674,1.637,2.219,1.637,.641,0,1.617-.264,2.188-1.595,.418-.968,.475-2.101,.475-3.125Zm-2.663,4.498c-.894,0-1.423-.771-1.619-1.835-.153-.828-.153-2.033-.153-2.818,0-1.079,0-1.974,.181-2.829,.266-1.192,1.046-1.556,1.591-1.556,.571,0,1.31,.379,1.576,1.528,.181,.798,.194,1.737,.194,2.857,0,.911,0,2.033-.166,2.859-.294,1.528-1.116,1.794-1.604,1.794Z"/>
          </g>
        </g>
      </g>
      <g id="hl" data-name="ytick 32">
        <g id="hm" data-name="line2d 61">
          <path id="hn" data-name="mec806c7efb" d="M51.116,424.784h-3.5" style="stroke: #000; stroke-linejoin: round; stroke-width: .8px;"/>
        </g>
        <g id="ho" data-name="text 34">
          <g>
            <path id="hp" data-name="CMR17-31" d="M30.375,420.729c0-.292-.013-.307-.209-.307-.543,.647-1.366,.852-2.147,.88-.041,0-.111,0-.126,.026-.013,.028-.013,.057-.013,.349,.432,0,1.157-.083,1.715-.416v7.349c0,.488-.028,.656-1.227,.656h-.418v.362c.669-.013,1.366-.026,2.035-.026s1.366,.013,2.038,.026v-.362h-.418c-1.201,0-1.229-.153-1.229-.656v-7.88Z"/>
            <path id="hq" data-name="CMMI12-3a" d="M35.629,428.958c0-.403-.336-.682-.671-.682-.403,0-.682,.333-.682,.669,0,.403,.333,.682,.669,.682,.405,0,.684-.333,.684-.669Z"/>
            <path id="hr" data-name="CMR17-35" d="M38.447,421.455c.139,.057,.71,.238,1.297,.238,1.297,0,2.007-.697,2.413-1.087,0-.111,0-.183-.083-.183-.015,0-.044,0-.155,.057-.488,.209-1.059,.362-1.757,.362-.418,0-1.046-.05-1.73-.347-.153-.072-.181-.072-.194-.072-.07,0-.085,.015-.085,.292v4.051c0,.257,0,.329,.139,.329,.07,0,.098-.028,.168-.129,.447-.645,1.059-.917,1.757-.917,.488,0,1.534,.316,1.534,2.761,0,.449,0,1.257-.418,1.898-.349,.573-.891,.865-1.491,.865-.922,0-1.857-.641-2.107-1.715,.057,.013,.168,.041,.224,.041,.181,0,.53-.098,.53-.53,0-.377-.266-.532-.53-.532-.323,0-.532,.196-.532,.586,0,1.214,.963,2.482,2.441,2.482,1.438,0,2.805-1.24,2.805-3.04,0-1.715-1.087-3.04-2.441-3.04-.713,0-1.312,.266-1.785,.78v-3.151Z"/>
          </g>
        </g>
      </g>
      <g id="hs" data-name="ytick 33">
        <g id="ht" data-name="line2d 62">
          <path id="hu" data-name="mec806c7efb" d="M51.116,388.054h-3.5" style="stroke: #000; stroke-linejoin: round; stroke-width: .8px;"/>
        </g>
        <g id="hv" data-name="text 35">
          <g>
            <path id="hw" data-name="CMR17-32" d="M32.482,390.74h-.251c-.139,.987-.253,1.155-.307,1.238-.07,.111-1.074,.111-1.271,.111h-2.676c.501-.543,1.478-1.53,2.663-2.67,.85-.806,1.842-1.752,1.842-3.132,0-1.645-1.312-2.596-2.776-2.596-1.534,0-2.469,1.353-2.469,2.609,0,.545,.405,.615,.573,.615,.139,0,.558-.083,.558-.571,0-.434-.364-.56-.558-.56-.085,0-.168,.015-.224,.044,.266-1.186,1.074-1.772,1.927-1.772,1.212,0,2.007,.961,2.007,2.232,0,1.212-.71,2.256-1.506,3.16l-2.776,3.13v.32h4.91l.336-2.158Z"/>
            <path id="hx" data-name="CMMI12-3a" d="M35.629,392.228c0-.403-.336-.682-.671-.682-.403,0-.682,.333-.682,.669,0,.403,.333,.682,.669,.682,.405,0,.684-.333,.684-.669Z"/>
            <path id="hy" data-name="CMR17-30" d="M42.714,388.456c0-.854-.013-2.312-.599-3.432-.517-.981-1.34-1.332-2.064-1.332-.671,0-1.521,.309-2.051,1.316-.558,1.053-.615,2.356-.615,3.448,0,.8,.015,2.018,.447,3.084,.599,1.443,1.674,1.637,2.219,1.637,.641,0,1.617-.264,2.188-1.595,.418-.968,.475-2.101,.475-3.125Zm-2.663,4.498c-.894,0-1.423-.771-1.619-1.835-.153-.828-.153-2.033-.153-2.818,0-1.079,0-1.974,.181-2.829,.266-1.192,1.046-1.556,1.591-1.556,.571,0,1.31,.379,1.576,1.528,.181,.798,.194,1.737,.194,2.857,0,.911,0,2.033-.166,2.859-.294,1.528-1.116,1.794-1.604,1.794Z"/>
          </g>
        </g>
      </g>
      <g id="hz" data-name="ytick 34">
        <g id="ia" data-name="line2d 63">
          <path id="ib" data-name="mec806c7efb" d="M51.116,351.324h-3.5" style="stroke: #000; stroke-linejoin: round; stroke-width: .8px;"/>
        </g>
        <g id="ic" data-name="text 36">
          <g>
            <path id="id" data-name="CMR17-32" d="M32.482,354.01h-.251c-.139,.987-.253,1.155-.307,1.238-.07,.111-1.074,.111-1.271,.111h-2.676c.501-.543,1.478-1.53,2.663-2.67,.85-.806,1.842-1.752,1.842-3.132,0-1.645-1.312-2.596-2.776-2.596-1.534,0-2.469,1.353-2.469,2.609,0,.545,.405,.615,.573,.615,.139,0,.558-.083,.558-.571,0-.434-.364-.56-.558-.56-.085,0-.168,.015-.224,.044,.266-1.186,1.074-1.772,1.927-1.772,1.212,0,2.007,.961,2.007,2.232,0,1.212-.71,2.256-1.506,3.16l-2.776,3.13v.32h4.91l.336-2.158Z"/>
            <path id="ie" data-name="CMMI12-3a" d="M35.629,355.498c0-.403-.336-.682-.671-.682-.403,0-.682,.333-.682,.669,0,.403,.333,.682,.669,.682,.405,0,.684-.333,.684-.669Z"/>
            <path id="if" data-name="CMR17-35" d="M38.447,347.995c.139,.057,.71,.238,1.297,.238,1.297,0,2.007-.697,2.413-1.087,0-.111,0-.183-.083-.183-.015,0-.044,0-.155,.057-.488,.209-1.059,.362-1.757,.362-.418,0-1.046-.05-1.73-.347-.153-.072-.181-.072-.194-.072-.07,0-.085,.015-.085,.292v4.051c0,.257,0,.329,.139,.329,.07,0,.098-.028,.168-.129,.447-.645,1.059-.917,1.757-.917,.488,0,1.534,.316,1.534,2.761,0,.449,0,1.257-.418,1.898-.349,.573-.891,.865-1.491,.865-.922,0-1.857-.641-2.107-1.715,.057,.013,.168,.041,.224,.041,.181,0,.53-.098,.53-.53,0-.377-.266-.532-.53-.532-.323,0-.532,.196-.532,.586,0,1.214,.963,2.482,2.441,2.482,1.438,0,2.805-1.24,2.805-3.04,0-1.715-1.087-3.04-2.441-3.04-.713,0-1.312,.266-1.785,.78v-3.151Z"/>
          </g>
        </g>
      </g>
      <g id="ig" data-name="ytick 35">
        <g id="ih" data-name="line2d 64">
          <path id="ii" data-name="mec806c7efb" d="M51.116,314.594h-3.5" style="stroke: #000; stroke-linejoin: round; stroke-width: .8px;"/>
        </g>
        <g id="ij" data-name="text 37">
          <g>
            <path id="ik" data-name="CMR17-33" d="M29.747,314.695c1.242,0,1.787,1.096,1.787,2.358,0,1.682-.894,2.33-1.702,2.33-.739,0-1.94-.366-2.317-1.451,.07,.028,.139,.028,.209,.028,.336,0,.586-.222,.586-.586,0-.403-.307-.586-.586-.586-.235,0-.599,.113-.599,.63,0,1.29,1.255,2.299,2.735,2.299,1.547,0,2.733-1.22,2.733-2.648,0-1.375-1.116-2.373-2.441-2.526,1.059-.22,2.079-1.155,2.079-2.413,0-1.096-1.103-1.898-2.358-1.898-1.268,0-2.384,.789-2.384,1.911,0,.488,.362,.573,.543,.573,.294,0,.545-.181,.545-.545,0-.362-.251-.545-.545-.545-.054,0-.124,0-.181,.028,.405-.933,1.506-1.101,1.994-1.101s1.41,.24,1.41,1.589c0,.392-.057,1.081-.532,1.685-.418,.534-.891,.562-1.351,.604-.07,0-.392,.028-.447,.028-.098,.013-.155,.026-.155,.124s.015,.111,.294,.111h.682Z"/>
            <path id="il" data-name="CMMI12-3a" d="M35.629,318.768c0-.403-.336-.682-.671-.682-.403,0-.682,.333-.682,.669,0,.403,.333,.682,.669,.682,.405,0,.684-.333,.684-.669Z"/>
            <path id="im" data-name="CMR17-30" d="M42.714,314.995c0-.854-.013-2.312-.599-3.432-.517-.981-1.34-1.332-2.064-1.332-.671,0-1.521,.309-2.051,1.316-.558,1.053-.615,2.356-.615,3.448,0,.8,.015,2.018,.447,3.084,.599,1.443,1.674,1.637,2.219,1.637,.641,0,1.617-.264,2.188-1.595,.418-.968,.475-2.101,.475-3.125Zm-2.663,4.498c-.894,0-1.423-.771-1.619-1.835-.153-.828-.153-2.033-.153-2.818,0-1.079,0-1.974,.181-2.829,.266-1.192,1.046-1.556,1.591-1.556,.571,0,1.31,.379,1.576,1.528,.181,.798,.194,1.737,.194,2.857,0,.911,0,2.033-.166,2.859-.294,1.528-1.116,1.794-1.604,1.794Z"/>
          </g>
        </g>
      </g>
      <g id="in" data-name="text 38">
        <g>
          <path id="io" data-name="CMR17-48" d="M8.972,457.678c-.715,0-.715-.177-.715-1.275h-.416c.032,.461,.032,1.305,.032,1.801,0,.493,0,1.337-.032,1.801h.416c0-1.101,0-1.275,.715-1.275h3.875v4.75h-3.875c-.715,0-.715-.174-.715-1.275h-.416c.032,.463,.032,1.308,.032,1.801,0,.496,0,1.34-.032,1.803h.416c0-1.101,0-1.275,.715-1.275h8.583c.712,0,.712,.174,.712,1.275h.413c-.03-.463-.03-1.308-.03-1.803,0-.493,0-1.337,.03-1.801h-.413c0,1.101,0,1.275-.712,1.275h-4.294v-4.75h4.294c.712,0,.712,.174,.712,1.275h.413c-.03-.463-.03-1.308-.03-1.801,0-.496,0-1.34,.03-1.801h-.413c0,1.098,0,1.275-.712,1.275H8.972Z"/>
          <path id="ip" data-name="CMR17-65" d="M14.937,449.496c-.065-.065-.097-.065-.257-.065-1.606,0-3.014,.862-3.014,2.677,0,1.691,1.597,3.029,3.542,3.029,2.092,0,3.631-1.514,3.631-3.203,0-1.786-1.701-2.488-2.04-2.488-.112,0-.112,.097-.112,.13,0,.11,.032,.127,.227,.189,1.093,.351,1.639,1.228,1.639,2.057,0,.685-.386,1.37-1.093,1.801-.819,.496-1.768,.496-2.523,.496v-4.623Zm-.242,4.605c-2.269-.112-2.772-1.337-2.772-1.975,0-1.086,1.009-1.818,2.772-1.833v3.808Z"/>
          <path id="iq" data-name="CMR17-69" d="M8.815,446.62c-.351,0-.655,.286-.655,.653,0,.351,.289,.655,.655,.655,.351,0,.653-.286,.653-.655,0-.349-.286-.653-.653-.653Zm3.029,1.866h.413c0-.894,.097-1.021,.867-1.021h4.453c.61,0,.69,.065,.69,1.083h.413c-.03-.381-.03-1.066-.03-1.465,0-.384,0-1.036,.03-1.405h-.413c0,.941-.097,.974-.672,.974h-5.928l.177,1.833Z"/>
          <path id="ir" data-name="CMR17-67" d="M15.779,443.343c.242-.304,.511-.829,.511-1.467,0-1.26-.994-2.344-2.329-2.344-.418,0-1.061,.127-1.559,.605-.478-.446-.638-1.098-.638-1.467,0-.062,0-.159,.047-.239,.017,.065,.08,.209,.336,.209,.207,0,.349-.144,.349-.351,0-.239-.159-.366-.366-.366-.301,0-.623,.239-.623,.747,0,.638,.304,1.196,.72,1.644-.431,.478-.59,1.051-.59,1.562,0,1.258,.989,2.344,2.324,2.344,.917,0,1.497-.528,1.656-.687,.563,.478,1.215,.478,1.295,.478,.413,0,1.021-.159,1.355-.7,.209,.829,.872,1.482,1.701,1.482,1.193,0,2.06-1.514,2.06-3.333,0-1.753-.834-3.33-2.077-3.33-2.227,0-2.227,2.359-2.227,3.587,0,.366,0,1.019-.015,1.098-.08,.496-.526,.829-1.083,.829-.144,0-.496,0-.847-.301Zm.242-1.467c0,1.402-1.738,1.402-2.06,1.402s-2.052,0-2.052-1.402,1.731-1.402,2.052-1.402,2.06,0,2.06,1.402Zm5.738-.416c0,1.594-.879,2.695-1.791,2.695-.513,0-.994-.271-1.26-.623-.281-.399-.281-.558-.281-1.641,0-1.308,0-3.123,1.542-3.123,.912,0,1.791,1.098,1.791,2.692Z"/>
          <path id="is" data-name="CMR17-68" d="M13.814,431.185c-.817,0-2.147,.159-2.147,2.04,0,1.308,1.056,1.945,1.587,2.137v.015H7.682l.177,1.898h.413c0-.941,.095-1.083,.837-1.083h8.468c.61,0,.69,.062,.69,1.083h.413c-.03-.384-.03-1.083-.03-1.499,0-.413,0-1.131,.03-1.514h-.413c0,1.021-.065,1.083-.69,1.083h-3.076c-1.472,0-2.578-.892-2.578-2.007,0-1.181,1.056-1.308,1.826-1.308h3.828c.61,0,.69,.065,.69,1.083h.413c-.03-.381-.03-1.083-.03-1.497,0-.416,0-1.133,.03-1.514h-.413c0,1.019-.065,1.083-.69,1.083h-3.763Z"/>
          <path id="it" data-name="CMR17-74" d="M12.242,427.668v-2.232h-.416v2.232h-3.029v.286c1.684,.032,3.158,.59,3.191,1.945h.254v-1.387h4.501c.306,0,2.097,0,2.097-1.851,0-.939-.927-1.482-2.112-1.482h-.914v.286h.899c1.103,0,1.841,.431,1.841,1.101,0,.463-.319,1.101-1.778,1.101h-4.533Z"/>
          <path id="iu" data-name="CMR17-28" d="M22.571,414.74c-.015,0-.047,0-.095,.047-.75,.732-2.792,2.692-7.771,2.692s-7.004-1.928-7.803-2.71c-.015,0-.047-.03-.095-.03-.05,0-.082,.047-.082,.11,0,.177,1.183,1.532,2.939,2.311,1.771,.797,3.492,1.021,5.024,1.021,1.151,0,3.096-.112,5.156-1.068,1.659-.765,2.822-2.072,2.822-2.264,0-.08-.03-.11-.095-.11Z"/>
          <path id="iv" data-name="CMR17-6b" d="M14.498,409.812c-.032,.015-.127,.095-.174,.095-.032,0-1.061-1.131-1.188-1.275-.762-.909-.839-1.482-.857-1.898h-.411c0,.097,0,.13,.015,.144l.017,.782c0,.446,0,1.131-.032,1.562h.411c.017-.224,.142-.384,.366-.384,.316,0,.618,.319,.618,.336l2.184,2.406H7.682l.177,1.898h.413c0-.941,.095-1.086,.857-1.086h8.458c.6,0,.68,.065,.68,1.086h.413c-.03-.384-.03-1.086-.03-1.484s0-1.098,.03-1.482h-.413c0,1.021-.062,1.083-.68,1.083h-1.743l-.999-1.098,2.376-1.611c.286-.189,.508-.349,.715-.349,.284,0,.331,.286,.331,.478h.413c-.03-.384-.03-1.068-.03-1.467,0-.286,.015-.877,.03-1.148h-.413c0,.75-.142,.924-.839,1.402l-2.929,2.01Z"/>
          <path id="iw" data-name="CMR17-6d" d="M13.814,395.47c-.802,0-2.147,.142-2.147,2.04,0,1.083,.737,1.833,1.601,2.12v.015c-1.313,.192-1.601,1.133-1.601,2.025,0,1.26,.976,1.913,1.619,2.152v.017h-1.619l.177,1.88h.416c0-.941,.095-1.083,.864-1.083h4.453c.61,0,.69,.062,.69,1.083h.413c-.03-.384-.03-1.083-.03-1.499,0-.413,0-1.131,.03-1.514h-.413c0,1.021-.065,1.083-.69,1.083h-3.076c-1.472,0-2.578-.892-2.578-2.007,0-1.181,1.056-1.308,1.826-1.308h3.828c.61,0,.69,.065,.69,1.083h.413c-.03-.381-.03-1.083-.03-1.497,0-.416,0-1.133,.03-1.514h-.413c0,1.019-.065,1.083-.69,1.083h-3.076c-1.472,0-2.578-.892-2.578-2.007,0-1.181,1.056-1.308,1.826-1.308h3.828c.61,0,.69,.062,.69,1.083h.413c-.03-.384-.03-1.083-.03-1.499,0-.413,0-1.131,.03-1.514h-.413c0,1.021-.065,1.086-.69,1.086h-3.763Z"/>
          <path id="ix" data-name="CMR17-29" d="M14.705,389.746c-1.148,0-3.096,.112-5.153,1.068-1.661,.765-2.827,2.072-2.827,2.262,0,.05,.017,.112,.097,.112,.032,0,.047-.015,.08-.032,.8-.765,2.824-2.71,7.786-2.71s7.006,1.93,7.803,2.71c.032,.017,.047,.032,.08,.032,.08,0,.095-.062,.095-.112,0-.174-1.178-1.529-2.934-2.311-1.771-.797-3.494-1.019-5.026-1.019Z"/>
        </g>
      </g>
    </g>
    <g id="iy" data-name="line2d 65">
      <g style="clip-path: url(#iz);">
        <path d="M60.251,314.594l20.596,5.877,26.588,7.346,54.767,15.059,16.44,4.775,13.138,4.04,10.048,3.306,8.279,2.938,6.655,2.571,6.032,2.571,4.622,2.204,4.074,2.204,2.949,1.837,2.526,1.836,1.706,1.469,1.422,1.469,1.134,1.469,.847,1.469,.562,1.469,.282,1.469,.009,1.469-.253,1.469-.503,1.469-.738,1.469-.957,1.469-1.475,1.836-1.75,1.837-2.407,2.204-3.143,2.571-4.407,3.306-9.811,6.979-6.51,4.775-4.665,3.673-3.867,3.306-3.519,3.306-2.824,2.938-2.538,2.938-2.257,2.938-1.988,2.938-1.733,2.938-1.494,2.938-1.417,3.306-1.162,3.306-.933,3.306-.799,3.673-.581,3.673-.424,4.04-.248,4.408-.065,5.142,.162,6.244,.438,7.713,1.066,13.957,1.107,15.427,.614,11.754,.352,10.284h0" style="fill: none; stroke: #000; stroke-linecap: square; stroke-linejoin: round; stroke-width: 1.5px;"/>
      </g>
    </g>
    <g id="ja" data-name="patch 24">
      <path d="M51.116,545.993v-242.418" style="fill: none; stroke: #000; stroke-linecap: square; stroke-width: .8px;"/>
    </g>
    <g id="jb" data-name="patch 25">
      <path d="M252.091,545.993v-242.418" style="fill: none; stroke: #000; stroke-linecap: square; stroke-width: .8px;"/>
    </g>
    <g id="jc" data-name="patch 26">
      <path d="M51.116,545.993H252.091" style="fill: none; stroke: #000; stroke-linecap: square; stroke-width: .8px;"/>
    </g>
    <g id="jd" data-name="patch 27">
      <path d="M51.116,303.575H252.091" style="fill: none; stroke: #000; stroke-linecap: square; stroke-width: .8px;"/>
    </g>
  </g>
  <g id="je" data-name="axes 6">
    <g id="jf" data-name="patch 28">
      <path d="M273.883,545.993h200.975v-242.418h-200.975v242.418Z" style="fill: #fff;"/>
    </g>
    <g id="jg" data-name="matplotlib.axis 11">
      <g id="jh" data-name="xtick 15">
        <g id="ji" data-name="line2d 66">
          <path id="jj" data-name="m3088f0a5fa" d="M279.07,545.993v3.5" style="stroke: #000; stroke-linejoin: round; stroke-width: .8px;"/>
        </g>
        <g id="jk" data-name="text 39">
          <g>
            <path id="jl" data-name="CMR17-30" d="M276.203,558.238c0-.854-.013-2.312-.599-3.432-.517-.981-1.34-1.332-2.064-1.332-.671,0-1.521,.309-2.051,1.316-.558,1.053-.615,2.356-.615,3.448,0,.8,.015,2.018,.447,3.084,.599,1.443,1.674,1.637,2.219,1.637,.641,0,1.617-.264,2.188-1.595,.418-.968,.475-2.101,.475-3.125Zm-2.663,4.498c-.894,0-1.423-.771-1.619-1.835-.153-.828-.153-2.033-.153-2.818,0-1.079,0-1.974,.181-2.829,.266-1.192,1.046-1.556,1.591-1.556,.571,0,1.31,.379,1.576,1.528,.181,.798,.194,1.737,.194,2.857,0,.911,0,2.033-.166,2.859-.294,1.528-1.116,1.794-1.604,1.794Z"/>
            <path id="jm" data-name="CMMI12-3a" d="M279.309,562.01c0-.403-.336-.682-.671-.682-.403,0-.682,.333-.682,.669,0,.403,.333,.682,.669,.682,.405,0,.684-.333,.684-.669Z"/>
            <path id="jn" data-name="CMR17-32" d="M286.352,560.522h-.251c-.139,.987-.253,1.155-.307,1.238-.07,.111-1.074,.111-1.271,.111h-2.676c.501-.543,1.478-1.53,2.663-2.67,.85-.806,1.842-1.752,1.842-3.132,0-1.645-1.312-2.596-2.776-2.596-1.534,0-2.469,1.353-2.469,2.609,0,.545,.405,.615,.573,.615,.139,0,.558-.083,.558-.571,0-.434-.364-.56-.558-.56-.085,0-.168,.015-.224,.044,.266-1.186,1.074-1.772,1.927-1.772,1.212,0,2.007,.961,2.007,2.232,0,1.212-.71,2.256-1.506,3.16l-2.776,3.13v.32h4.91l.336-2.158Z"/>
          </g>
        </g>
      </g>
      <g id="jo" data-name="xtick 16">
        <g id="jp" data-name="line2d 67">
          <path id="jq" data-name="m3088f0a5fa" d="M341.442,545.993v3.5" style="stroke: #000; stroke-linejoin: round; stroke-width: .8px;"/>
        </g>
        <g id="jr" data-name="text 40">
          <g>
            <path id="js" data-name="CMR17-30" d="M338.575,558.238c0-.854-.013-2.312-.599-3.432-.517-.981-1.34-1.332-2.064-1.332-.671,0-1.521,.309-2.051,1.316-.558,1.053-.615,2.356-.615,3.448,0,.8,.015,2.018,.447,3.084,.599,1.443,1.674,1.637,2.219,1.637,.641,0,1.617-.264,2.188-1.595,.418-.968,.475-2.101,.475-3.125Zm-2.663,4.498c-.894,0-1.423-.771-1.619-1.835-.153-.828-.153-2.033-.153-2.818,0-1.079,0-1.974,.181-2.829,.266-1.192,1.046-1.556,1.591-1.556,.571,0,1.31,.379,1.576,1.528,.181,.798,.194,1.737,.194,2.857,0,.911,0,2.033-.166,2.859-.294,1.528-1.116,1.794-1.604,1.794Z"/>
            <path id="jt" data-name="CMMI12-3a" d="M341.681,562.01c0-.403-.336-.682-.671-.682-.403,0-.682,.333-.682,.669,0,.403,.333,.682,.669,.682,.405,0,.684-.333,.684-.669Z"/>
            <path id="ju" data-name="CMR17-33" d="M345.988,557.937c1.242,0,1.787,1.096,1.787,2.358,0,1.682-.894,2.33-1.702,2.33-.739,0-1.94-.366-2.317-1.451,.07,.028,.139,.028,.209,.028,.336,0,.586-.222,.586-.586,0-.403-.307-.586-.586-.586-.235,0-.599,.113-.599,.63,0,1.29,1.255,2.299,2.735,2.299,1.547,0,2.733-1.22,2.733-2.648,0-1.375-1.116-2.373-2.441-2.526,1.059-.22,2.079-1.155,2.079-2.413,0-1.096-1.103-1.898-2.358-1.898-1.268,0-2.384,.789-2.384,1.911,0,.488,.362,.573,.543,.573,.294,0,.545-.181,.545-.545,0-.362-.251-.545-.545-.545-.054,0-.124,0-.181,.028,.405-.933,1.506-1.101,1.994-1.101s1.41,.24,1.41,1.589c0,.392-.057,1.081-.532,1.685-.418,.534-.891,.562-1.351,.604-.07,0-.392,.028-.447,.028-.098,.013-.155,.026-.155,.124s.015,.111,.294,.111h.682Z"/>
          </g>
        </g>
      </g>
      <g id="jv" data-name="xtick 17">
        <g id="jw" data-name="line2d 68">
          <path id="jx" data-name="m3088f0a5fa" d="M403.814,545.993v3.5" style="stroke: #000; stroke-linejoin: round; stroke-width: .8px;"/>
        </g>
        <g id="jy" data-name="text 41">
          <g>
            <path id="jz" data-name="CMR17-30" d="M400.946,558.238c0-.854-.013-2.312-.599-3.432-.517-.981-1.34-1.332-2.064-1.332-.671,0-1.521,.309-2.051,1.316-.558,1.053-.615,2.356-.615,3.448,0,.8,.015,2.018,.447,3.084,.599,1.443,1.674,1.637,2.219,1.637,.641,0,1.617-.264,2.188-1.595,.418-.968,.475-2.101,.475-3.125Zm-2.663,4.498c-.894,0-1.423-.771-1.619-1.835-.153-.828-.153-2.033-.153-2.818,0-1.079,0-1.974,.181-2.829,.266-1.192,1.046-1.556,1.591-1.556,.571,0,1.31,.379,1.576,1.528,.181,.798,.194,1.737,.194,2.857,0,.911,0,2.033-.166,2.859-.294,1.528-1.116,1.794-1.604,1.794Z"/>
            <path id="ka" data-name="CMMI12-3a" d="M404.052,562.01c0-.403-.336-.682-.671-.682-.403,0-.682,.333-.682,.669,0,.403,.333,.682,.669,.682,.405,0,.684-.333,.684-.669Z"/>
            <path id="kb" data-name="CMR17-34" d="M409.964,553.642c0-.292-.013-.307-.264-.307l-4.143,6.612v.362h3.598v1.369c0,.501-.028,.641-1.005,.641h-.264v.362c.447-.026,1.199-.026,1.674-.026s1.227,0,1.674,.026v-.362h-.266c-.976,0-1.005-.139-1.005-.641v-1.369h1.423v-.362h-1.423v-6.305Zm-.767,.924v5.381h-3.361l3.361-5.381Z"/>
          </g>
        </g>
      </g>
      <g id="kc" data-name="xtick 18">
        <g id="kd" data-name="line2d 69">
          <path id="ke" data-name="m3088f0a5fa" d="M466.185,545.993v3.5" style="stroke: #000; stroke-linejoin: round; stroke-width: .8px;"/>
        </g>
        <g id="kf" data-name="text 42">
          <g>
            <path id="kg" data-name="CMR17-30" d="M463.318,558.238c0-.854-.013-2.312-.599-3.432-.517-.981-1.34-1.332-2.064-1.332-.671,0-1.521,.309-2.051,1.316-.558,1.053-.615,2.356-.615,3.448,0,.8,.015,2.018,.447,3.084,.599,1.443,1.674,1.637,2.219,1.637,.641,0,1.617-.264,2.188-1.595,.418-.968,.475-2.101,.475-3.125Zm-2.663,4.498c-.894,0-1.423-.771-1.619-1.835-.153-.828-.153-2.033-.153-2.818,0-1.079,0-1.974,.181-2.829,.266-1.192,1.046-1.556,1.591-1.556,.571,0,1.31,.379,1.576,1.528,.181,.798,.194,1.737,.194,2.857,0,.911,0,2.033-.166,2.859-.294,1.528-1.116,1.794-1.604,1.794Z"/>
            <path id="kh" data-name="CMMI12-3a" d="M466.424,562.01c0-.403-.336-.682-.671-.682-.403,0-.682,.333-.682,.669,0,.403,.333,.682,.669,.682,.405,0,.684-.333,.684-.669Z"/>
            <path id="ki" data-name="CMR17-35" d="M469.241,554.507c.139,.057,.71,.238,1.297,.238,1.297,0,2.007-.697,2.413-1.087,0-.111,0-.183-.083-.183-.015,0-.044,0-.155,.057-.488,.209-1.059,.362-1.757,.362-.418,0-1.046-.05-1.73-.347-.153-.072-.181-.072-.194-.072-.07,0-.085,.015-.085,.292v4.051c0,.257,0,.329,.139,.329,.07,0,.098-.028,.168-.129,.447-.645,1.059-.917,1.757-.917,.488,0,1.534,.316,1.534,2.761,0,.449,0,1.257-.418,1.898-.349,.573-.891,.865-1.491,.865-.922,0-1.857-.641-2.107-1.715,.057,.013,.168,.041,.224,.041,.181,0,.53-.098,.53-.53,0-.377-.266-.532-.53-.532-.323,0-.532,.196-.532,.586,0,1.214,.963,2.482,2.441,2.482,1.438,0,2.805-1.24,2.805-3.04,0-1.715-1.087-3.04-2.441-3.04-.713,0-1.312,.266-1.785,.78v-3.151Z"/>
          </g>
        </g>
      </g>
      <g id="kj" data-name="text 43">
        <g>
          <path id="kk" data-name="CMR17-5a" d="M346.632,570.992c0-.342-.017-.361-.392-.361h-7.621l-.179,3.948h.322c.106-2.034,.644-3.48,3.55-3.48h2.959l-6.941,11.155c-.126,.196-.126,.213-.126,.339,0,.233,.036,.233,.395,.233h7.874l.249-4.66h-.322c-.16,2.34-.286,4.158-3.713,4.158h-3.119l7.064-11.331Z"/>
          <path id="kl" data-name="CMR17-44" d="M348.411,570.631v.468c1.236,0,1.435,0,1.435,.804v9.653c0,.804-.199,.804-1.435,.804v.465h5.702c2.886,0,5.2-2.642,5.2-5.996,0-3.374-2.278-6.198-5.2-6.198h-5.702Zm3.334,11.729c-.717,0-.754-.09-.754-.695v-9.869c0-.608,.036-.698,.754-.698h2.009c1.488,0,4.231,.874,4.231,5.73,0,2.516-.734,3.533-1.076,4.015-.429,.552-1.451,1.516-3.155,1.516h-2.009Z"/>
          <path id="km" data-name="CMR17-52" d="M367.179,576.784c1.704-.342,3.138-1.493,3.138-2.934,0-1.69-1.903-3.219-4.413-3.219h-4.822v.468c1.236,0,1.435,0,1.435,.81v9.717c0,.807-.199,.807-1.435,.807v.465c.518-.036,1.451-.036,2.009-.036,.555,0,1.488,0,2.006,.036v-.465c-1.236,0-1.435,0-1.435-.807v-4.719h2.099c1.023,0,1.597,.415,1.847,.647,.717,.698,.717,1.182,.717,2.401,0,1.202,0,1.813,.538,2.421,.684,.737,1.597,.807,1.992,.807,1.325,0,1.524-1.488,1.524-1.793,0-.106,0-.233-.163-.233-.143,0-.16,.109-.16,.179-.09,1.166-.611,1.561-1.166,1.561-.986,0-1.096-1.129-1.202-2.225-.053-.375-.09-.644-.126-1.04-.106-.897-.252-2.205-2.384-2.85Zm-1.471-.163h-2.045v-4.822c0-.611,.036-.7,.754-.7h1.309c1.491,0,3.228,.521,3.228,2.752,0,2.323-1.9,2.771-3.245,2.771Z"/>
          <path id="kn" data-name="CMR17-28" d="M383.251,587.202c0-.017,0-.053-.053-.106-.824-.843-3.029-3.141-3.029-8.742s2.169-7.879,3.049-8.779c0-.017,.034-.053,.034-.106,0-.056-.053-.092-.123-.092-.199,0-1.723,1.331-2.6,3.306-.897,1.992-1.149,3.928-1.149,5.652,0,1.295,.126,3.483,1.202,5.8,.86,1.866,2.331,3.175,2.547,3.175,.09,0,.123-.034,.123-.106Z"/>
          <path id="ko" data-name="CMR17-64" d="M389.352,570.65v.465c1.056,0,1.219,.106,1.219,.941v4.125c-.073-.09-.807-1.247-2.258-1.247-1.83,0-3.606,1.648-3.606,4.035,0,2.373,1.667,4.035,3.427,4.035,1.524,0,2.312-1.191,2.401-1.317v1.317l2.172-.143v-.468c-1.059,0-1.222-.109-1.222-.978v-10.964l-2.132,.199Zm1.182,10.04c0,.544-.322,1.034-.734,1.395-.611,.544-1.219,.633-1.561,.633-.521,0-2.384-.272-2.384-3.729,0-3.55,2.079-3.766,2.547-3.766,.824,0,1.488,.471,1.9,1.121,.233,.381,.233,.437,.233,.762v3.584Z"/>
          <path id="kp" data-name="CMR17-42" d="M394.209,570.631v.468c1.236,0,1.435,0,1.435,.807v9.656c0,.799-.199,.799-1.435,.799v.465h6.167c2.298,0,3.785-1.62,3.785-3.236,0-1.6-1.471-2.967-3.39-3.093,1.723-.339,2.922-1.488,2.922-2.85,0-1.491-1.468-3.015-3.783-3.015h-5.702Zm2.564,5.738v-4.573c0-.608,.036-.698,.754-.698h2.295c1.776,0,2.564,1.435,2.564,2.547,0,1.362-1.093,2.724-3.029,2.724h-2.583Zm.754,5.991c-.717,0-.754-.09-.754-.692v-5.01h3.318c1.847,0,2.743,1.617,2.743,2.914s-1.023,2.788-2.976,2.788h-2.331Z"/>
          <path id="kq" data-name="CMR17-29" d="M409.726,578.353c0-1.292-.126-3.483-1.202-5.797-.86-1.869-2.331-3.18-2.544-3.18-.056,0-.126,.02-.126,.109,0,.036,.017,.053,.036,.09,.86,.899,3.049,3.177,3.049,8.759s-2.172,7.882-3.049,8.779c-.02,.036-.036,.053-.036,.09,0,.09,.07,.106,.126,.106,.196,0,1.72-1.325,2.6-3.301,.897-1.992,1.146-3.931,1.146-5.654Z"/>
        </g>
      </g>
    </g>
    <g id="kr" data-name="matplotlib.axis 12">
      <g id="ks" data-name="ytick 36">
        <g id="kt" data-name="line2d 70">
          <path id="ku" data-name="mec806c7efb" d="M273.883,534.975h-3.5" style="stroke: #000; stroke-linejoin: round; stroke-width: .8px;"/>
        </g>
      </g>
      <g id="kv" data-name="ytick 37">
        <g id="kw" data-name="line2d 71">
          <path id="kx" data-name="mec806c7efb" d="M273.883,498.244h-3.5" style="stroke: #000; stroke-linejoin: round; stroke-width: .8px;"/>
        </g>
      </g>
      <g id="ky" data-name="ytick 38">
        <g id="kz" data-name="line2d 72">
          <path id="la" data-name="mec806c7efb" d="M273.883,461.514h-3.5" style="stroke: #000; stroke-linejoin: round; stroke-width: .8px;"/>
        </g>
      </g>
      <g id="lb" data-name="ytick 39">
        <g id="lc" data-name="line2d 73">
          <path id="ld" data-name="mec806c7efb" d="M273.883,424.784h-3.5" style="stroke: #000; stroke-linejoin: round; stroke-width: .8px;"/>
        </g>
      </g>
      <g id="le" data-name="ytick 40">
        <g id="lf" data-name="line2d 74">
          <path id="lg" data-name="mec806c7efb" d="M273.883,388.054h-3.5" style="stroke: #000; stroke-linejoin: round; stroke-width: .8px;"/>
        </g>
      </g>
      <g id="lh" data-name="ytick 41">
        <g id="li" data-name="line2d 75">
          <path id="lj" data-name="mec806c7efb" d="M273.883,351.324h-3.5" style="stroke: #000; stroke-linejoin: round; stroke-width: .8px;"/>
        </g>
      </g>
      <g id="lk" data-name="ytick 42">
        <g id="ll" data-name="line2d 76">
          <path id="lm" data-name="mec806c7efb" d="M273.883,314.594h-3.5" style="stroke: #000; stroke-linejoin: round; stroke-width: .8px;"/>
        </g>
      </g>
    </g>
    <g id="ln" data-name="line2d 77">
      <g style="clip-path: url(#lo);">
        <path d="M465.723,314.594l-22.067,4.408-19.192,4.04-18.125,4.04-15.491,3.673-14.507,3.673-12.19,3.306-11.352,3.306-10.501,3.306-8.609,2.938-7.926,2.938-7.241,2.938-5.775,2.571-5.251,2.571-4.727,2.571-3.635,2.204-3.251,2.204-2.869,2.204-2.489,2.204-2.115,2.204-1.481,1.836-1.23,1.837-.986,1.836-.751,1.837-.525,1.837-.311,1.836-.109,1.837,.115,2.204,.357,2.204,.572,2.204,.9,2.571,1.279,2.938,1.68,3.306,2.71,4.775,8.343,14.325,2.441,4.775,2.008,4.408,1.755,4.408,1.5,4.408,1.252,4.408,1.02,4.408,.865,4.775,.644,4.775,.506,5.51,.31,5.877,.13,6.979-.084,8.448-.363,11.754-1.168,34.159-.136,6.611h0" style="fill: none; stroke: #000; stroke-linecap: square; stroke-linejoin: round; stroke-width: 1.5px;"/>
      </g>
    </g>
    <g id="lp" data-name="patch 29">
      <path d="M273.883,545.993v-242.418" style="fill: none; stroke: #000; stroke-linecap: square; stroke-width: .8px;"/>
    </g>
    <g id="lq" data-name="patch 30">
      <path d="M474.858,545.993v-242.418" style="fill: none; stroke: #000; stroke-linecap: square; stroke-width: .8px;"/>
    </g>
    <g id="lr" data-name="patch 31">
      <path d="M273.883,545.993h200.975" style="fill: none; stroke: #000; stroke-linecap: square; stroke-width: .8px;"/>
    </g>
    <g id="ls" data-name="patch 32">
      <path d="M273.883,303.575h200.975" style="fill: none; stroke: #000; stroke-linecap: square; stroke-width: .8px;"/>
    </g>
  </g>
</svg>