<?xml version="1.0" encoding="utf-8" standalone="no"?>
<!DOCTYPE svg PUBLIC "-//W3C//DTD SVG 1.1//EN"
  "http://www.w3.org/Graphics/SVG/1.1/DTD/svg11.dtd">
<svg xmlns:xlink="http://www.w3.org/1999/xlink" width="951.84pt" height="614.16pt" viewBox="0 0 951.84 614.16" xmlns="http://www.w3.org/2000/svg" version="1.1">
 <metadata>
  <rdf:RDF xmlns:dc="http://purl.org/dc/elements/1.1/" xmlns:cc="http://creativecommons.org/ns#" xmlns:rdf="http://www.w3.org/1999/02/22-rdf-syntax-ns#">
   <cc:Work>
    <dc:type rdf:resource="http://purl.org/dc/dcmitype/StillImage"/>
    <dc:date>2026-02-17T15:23:59.240860</dc:date>
    <dc:format>image/svg+xml</dc:format>
    <dc:creator>
     <cc:Agent>
      <dc:title>Matplotlib v3.10.3, https://matplotlib.org/</dc:title>
     </cc:Agent>
    </dc:creator>
   </cc:Work>
  </rdf:RDF>
 </metadata>
 <defs>
  <style type="text/css">*{stroke-linejoin: round; stroke-linecap: butt}</style>
 </defs>
 <g id="figure_1">
  <g id="patch_1">
   <path d="M 0 614.16 
L 951.84 614.16 
L 951.84 0 
L 0 0 
z
" style="fill: #ffffff"/>
  </g>
  <g id="axes_1">
   <g id="patch_2">
    <path d="M 52.11589 253.933992 
L 253.091134 253.933992 
L 253.091134 11.5155 
L 52.11589 11.5155 
z
" style="fill: #ffffff"/>
   </g>
   <g id="matplotlib.axis_1">
    <g id="xtick_1">
     <g id="line2d_1">
      <defs>
       <path id="m3088f0a5fa" d="M 0 0 
L 0 3.5 
" style="stroke: #000000; stroke-width: 0.8"/>
      </defs>
      <g>
       <use xlink:href="#m3088f0a5fa" x="60.883838" y="253.933992" style="stroke: #000000; stroke-width: 0.8"/>
      </g>
     </g>
     <g id="text_1">
      <!-- $\mathdefault{0}$ -->
      <g transform="translate(57.469594 270.619868) scale(0.14 -0.14)">
       <defs>
        <path id="CMR17-30" d="M 2688 2038 
C 2688 2430 2682 3099 2413 3613 
C 2176 4063 1798 4224 1466 4224 
C 1158 4224 768 4082 525 3620 
C 269 3137 243 2539 243 2038 
C 243 1671 250 1112 448 623 
C 723 -39 1216 -128 1466 -128 
C 1760 -128 2208 -7 2470 604 
C 2662 1048 2688 1568 2688 2038 
z
M 1466 -26 
C 1056 -26 813 328 723 816 
C 653 1196 653 1749 653 2109 
C 653 2604 653 3015 736 3407 
C 858 3954 1216 4121 1466 4121 
C 1728 4121 2067 3947 2189 3420 
C 2272 3054 2278 2623 2278 2109 
C 2278 1691 2278 1176 2202 797 
C 2067 96 1690 -26 1466 -26 
z
" transform="scale(0.015625)"/>
       </defs>
       <use xlink:href="#CMR17-30" transform="scale(0.996264)"/>
      </g>
     </g>
    </g>
    <g id="xtick_2">
     <g id="line2d_2">
      <g>
       <use xlink:href="#m3088f0a5fa" x="159.407176" y="253.933992" style="stroke: #000000; stroke-width: 0.8"/>
      </g>
     </g>
     <g id="text_2">
      <!-- $\mathdefault{50}$ -->
      <g transform="translate(152.578688 270.619868) scale(0.14 -0.14)">
       <defs>
        <path id="CMR17-35" d="M 730 3750 
C 794 3724 1056 3641 1325 3641 
C 1920 3641 2246 3961 2432 4140 
C 2432 4191 2432 4224 2394 4224 
C 2387 4224 2374 4224 2323 4198 
C 2099 4102 1837 4032 1517 4032 
C 1325 4032 1037 4055 723 4191 
C 653 4224 640 4224 634 4224 
C 602 4224 595 4217 595 4090 
L 595 2231 
C 595 2113 595 2080 659 2080 
C 691 2080 704 2093 736 2139 
C 941 2435 1222 2560 1542 2560 
C 1766 2560 2246 2415 2246 1293 
C 2246 1087 2246 716 2054 422 
C 1894 159 1645 25 1370 25 
C 947 25 518 319 403 812 
C 429 806 480 793 506 793 
C 589 793 749 838 749 1036 
C 749 1209 627 1280 506 1280 
C 358 1280 262 1190 262 1011 
C 262 454 704 -128 1382 -128 
C 2042 -128 2669 441 2669 1267 
C 2669 2054 2170 2662 1549 2662 
C 1222 2662 947 2540 730 2304 
L 730 3750 
z
" transform="scale(0.015625)"/>
       </defs>
       <use xlink:href="#CMR17-35" transform="scale(0.996264)"/>
       <use xlink:href="#CMR17-30" transform="translate(45.690477 0) scale(0.996264)"/>
      </g>
     </g>
    </g>
    <g id="text_3">
     <!-- Nt (1/L) -->
     <g transform="translate(120.76575 290.765317) scale(0.18 -0.18)">
      <defs>
       <path id="CMR17-4e" d="M 1312 4275 
C 1267 4345 1261 4352 1139 4352 
L 326 4352 
L 326 4185 
L 448 4185 
C 704 4185 819 4153 838 4147 
L 838 624 
C 838 465 838 166 326 166 
L 326 0 
C 474 12 742 12 902 12 
C 1062 12 1331 12 1478 0 
L 1478 166 
C 966 166 966 465 966 624 
L 966 4057 
C 1011 4019 1011 4007 1056 3943 
L 3430 76 
C 3475 0 3494 0 3526 0 
C 3590 0 3590 19 3590 140 
L 3590 3726 
C 3590 3885 3590 4185 4102 4185 
L 4102 4352 
C 3955 4339 3686 4339 3526 4339 
C 3366 4339 3098 4339 2950 4352 
L 2950 4185 
C 3462 4185 3462 3885 3462 3726 
L 3462 777 
L 1312 4275 
z
" transform="scale(0.015625)"/>
       <path id="CMR17-74" d="M 966 2585 
L 1862 2585 
L 1862 2752 
L 966 2752 
L 966 3968 
L 851 3968 
C 838 3292 614 2700 70 2687 
L 70 2585 
L 627 2585 
L 627 778 
C 627 655 627 -64 1370 -64 
C 1747 -64 1965 308 1965 784 
L 1965 1151 
L 1850 1151 
L 1850 790 
C 1850 347 1677 51 1408 51 
C 1222 51 966 179 966 765 
L 966 2585 
z
" transform="scale(0.015625)"/>
       <path id="CMR17-28" d="M 1958 -1562 
C 1958 -1556 1958 -1543 1939 -1524 
C 1645 -1223 858 -403 858 1596 
C 858 3595 1632 4408 1946 4729 
C 1946 4735 1958 4748 1958 4767 
C 1958 4787 1939 4800 1914 4800 
C 1843 4800 1299 4325 986 3620 
C 666 2909 576 2218 576 1603 
C 576 1141 621 360 1005 -467 
C 1312 -1133 1837 -1600 1914 -1600 
C 1946 -1600 1958 -1588 1958 -1562 
z
" transform="scale(0.015625)"/>
       <path id="CMR17-31" d="M 1702 4083 
C 1702 4217 1696 4224 1606 4224 
C 1357 3927 979 3833 621 3820 
C 602 3820 570 3820 563 3808 
C 557 3795 557 3782 557 3648 
C 755 3648 1088 3686 1344 3839 
L 1344 467 
C 1344 243 1331 166 781 166 
L 589 166 
L 589 0 
C 896 6 1216 12 1523 12 
C 1830 12 2150 6 2458 0 
L 2458 166 
L 2266 166 
C 1715 166 1702 236 1702 467 
L 1702 4083 
z
" transform="scale(0.015625)"/>
       <path id="CMR17-2f" d="M 2605 4575 
C 2637 4658 2637 4671 2637 4684 
C 2637 4761 2579 4800 2528 4800 
C 2451 4800 2426 4748 2400 4671 
L 326 -1376 
C 294 -1460 294 -1472 294 -1485 
C 294 -1562 352 -1600 403 -1600 
C 480 -1600 506 -1549 531 -1472 
L 2605 4575 
z
" transform="scale(0.015625)"/>
       <path id="CMR17-4c" d="M 3469 1612 
L 3354 1612 
C 3302 981 3219 166 2125 166 
L 1530 166 
C 1274 166 1261 198 1261 414 
L 1261 3892 
C 1261 4121 1274 4185 1760 4185 
L 1901 4185 
L 1901 4352 
C 1638 4339 1331 4339 1069 4339 
C 870 4339 512 4339 326 4352 
L 326 4185 
C 768 4185 838 4185 838 3898 
L 838 453 
C 838 166 768 166 326 166 
L 326 0 
L 3315 0 
L 3469 1612 
z
" transform="scale(0.015625)"/>
       <path id="CMR17-29" d="M 1683 1596 
C 1683 2057 1638 2839 1254 3665 
C 947 4332 422 4800 346 4800 
C 326 4800 301 4793 301 4761 
C 301 4748 307 4742 314 4729 
C 621 4408 1402 3595 1402 1603 
C 1402 -396 627 -1210 314 -1530 
C 307 -1543 301 -1549 301 -1562 
C 301 -1594 326 -1600 346 -1600 
C 416 -1600 960 -1127 1274 -422 
C 1594 289 1683 981 1683 1596 
z
" transform="scale(0.015625)"/>
      </defs>
      <use xlink:href="#CMR17-4e" transform="scale(0.996264)"/>
      <use xlink:href="#CMR17-74" transform="translate(69.07243 0) scale(0.996264)"/>
      <use xlink:href="#CMR17-28" transform="translate(134.429164 0) scale(0.996264)"/>
      <use xlink:href="#CMR17-31" transform="translate(169.709932 0) scale(0.996264)"/>
      <use xlink:href="#CMR17-2f" transform="translate(215.400409 0) scale(0.996264)"/>
      <use xlink:href="#CMR17-4c" transform="translate(261.090886 0) scale(0.996264)"/>
      <use xlink:href="#CMR17-29" transform="translate(318.472294 0) scale(0.996264)"/>
     </g>
    </g>
   </g>
   <g id="matplotlib.axis_2">
    <g id="ytick_1">
     <g id="line2d_3">
      <defs>
       <path id="mec806c7efb" d="M 0 0 
L -3.5 0 
" style="stroke: #000000; stroke-width: 0.8"/>
      </defs>
      <g>
       <use xlink:href="#mec806c7efb" x="52.11589" y="242.91497" style="stroke: #000000; stroke-width: 0.8"/>
      </g>
     </g>
     <g id="text_4">
      <!-- $\mathdefault{0.0}$ -->
      <g transform="translate(27.665308 247.757908) scale(0.14 -0.14)">
       <defs>
        <path id="CMMI12-3a" d="M 1178 307 
C 1178 492 1024 620 870 620 
C 685 620 557 467 557 313 
C 557 128 710 0 864 0 
C 1050 0 1178 153 1178 307 
z
" transform="scale(0.015625)"/>
       </defs>
       <use xlink:href="#CMR17-30" transform="scale(0.996264)"/>
       <use xlink:href="#CMMI12-3a" transform="translate(45.690477 0) scale(0.996264)"/>
       <use xlink:href="#CMR17-30" transform="translate(72.787654 0) scale(0.996264)"/>
      </g>
     </g>
    </g>
    <g id="ytick_2">
     <g id="line2d_4">
      <g>
       <use xlink:href="#mec806c7efb" x="52.11589" y="206.184895" style="stroke: #000000; stroke-width: 0.8"/>
      </g>
     </g>
     <g id="text_5">
      <!-- $\mathdefault{0.5}$ -->
      <g transform="translate(27.665308 211.027833) scale(0.14 -0.14)">
       <use xlink:href="#CMR17-30" transform="scale(0.996264)"/>
       <use xlink:href="#CMMI12-3a" transform="translate(45.690477 0) scale(0.996264)"/>
       <use xlink:href="#CMR17-35" transform="translate(72.787654 0) scale(0.996264)"/>
      </g>
     </g>
    </g>
    <g id="ytick_3">
     <g id="line2d_5">
      <g>
       <use xlink:href="#mec806c7efb" x="52.11589" y="169.45482" style="stroke: #000000; stroke-width: 0.8"/>
      </g>
     </g>
     <g id="text_6">
      <!-- $\mathdefault{1.0}$ -->
      <g transform="translate(27.665308 174.297759) scale(0.14 -0.14)">
       <use xlink:href="#CMR17-31" transform="scale(0.996264)"/>
       <use xlink:href="#CMMI12-3a" transform="translate(45.690477 0) scale(0.996264)"/>
       <use xlink:href="#CMR17-30" transform="translate(72.787654 0) scale(0.996264)"/>
      </g>
     </g>
    </g>
    <g id="ytick_4">
     <g id="line2d_6">
      <g>
       <use xlink:href="#mec806c7efb" x="52.11589" y="132.724746" style="stroke: #000000; stroke-width: 0.8"/>
      </g>
     </g>
     <g id="text_7">
      <!-- $\mathdefault{1.5}$ -->
      <g transform="translate(27.665308 137.567684) scale(0.14 -0.14)">
       <use xlink:href="#CMR17-31" transform="scale(0.996264)"/>
       <use xlink:href="#CMMI12-3a" transform="translate(45.690477 0) scale(0.996264)"/>
       <use xlink:href="#CMR17-35" transform="translate(72.787654 0) scale(0.996264)"/>
      </g>
     </g>
    </g>
    <g id="ytick_5">
     <g id="line2d_7">
      <g>
       <use xlink:href="#mec806c7efb" x="52.11589" y="95.994671" style="stroke: #000000; stroke-width: 0.8"/>
      </g>
     </g>
     <g id="text_8">
      <!-- $\mathdefault{2.0}$ -->
      <g transform="translate(27.665308 100.83761) scale(0.14 -0.14)">
       <defs>
        <path id="CMR17-32" d="M 2669 990 
L 2554 990 
C 2490 537 2438 460 2413 422 
C 2381 371 1920 371 1830 371 
L 602 371 
C 832 620 1280 1073 1824 1596 
C 2214 1966 2669 2400 2669 3033 
C 2669 3788 2067 4224 1395 4224 
C 691 4224 262 3603 262 3027 
C 262 2777 448 2745 525 2745 
C 589 2745 781 2783 781 3007 
C 781 3206 614 3264 525 3264 
C 486 3264 448 3257 422 3244 
C 544 3788 915 4057 1306 4057 
C 1862 4057 2227 3616 2227 3033 
C 2227 2477 1901 1998 1536 1583 
L 262 147 
L 262 0 
L 2515 0 
L 2669 990 
z
" transform="scale(0.015625)"/>
       </defs>
       <use xlink:href="#CMR17-32" transform="scale(0.996264)"/>
       <use xlink:href="#CMMI12-3a" transform="translate(45.690477 0) scale(0.996264)"/>
       <use xlink:href="#CMR17-30" transform="translate(72.787654 0) scale(0.996264)"/>
      </g>
     </g>
    </g>
    <g id="ytick_6">
     <g id="line2d_8">
      <g>
       <use xlink:href="#mec806c7efb" x="52.11589" y="59.264597" style="stroke: #000000; stroke-width: 0.8"/>
      </g>
     </g>
     <g id="text_9">
      <!-- $\mathdefault{2.5}$ -->
      <g transform="translate(27.665308 64.107535) scale(0.14 -0.14)">
       <use xlink:href="#CMR17-32" transform="scale(0.996264)"/>
       <use xlink:href="#CMMI12-3a" transform="translate(45.690477 0) scale(0.996264)"/>
       <use xlink:href="#CMR17-35" transform="translate(72.787654 0) scale(0.996264)"/>
      </g>
     </g>
    </g>
    <g id="ytick_7">
     <g id="line2d_9">
      <g>
       <use xlink:href="#mec806c7efb" x="52.11589" y="22.534522" style="stroke: #000000; stroke-width: 0.8"/>
      </g>
     </g>
     <g id="text_10">
      <!-- $\mathdefault{3.0}$ -->
      <g transform="translate(27.665308 27.377461) scale(0.14 -0.14)">
       <defs>
        <path id="CMR17-33" d="M 1414 2176 
C 1984 2176 2234 1673 2234 1094 
C 2234 322 1824 25 1453 25 
C 1114 25 563 193 390 691 
C 422 678 454 678 486 678 
C 640 678 755 780 755 947 
C 755 1132 614 1216 486 1216 
C 378 1216 211 1164 211 927 
C 211 335 787 -128 1466 -128 
C 2176 -128 2720 432 2720 1087 
C 2720 1718 2208 2176 1600 2246 
C 2086 2347 2554 2776 2554 3353 
C 2554 3856 2048 4224 1472 4224 
C 890 4224 378 3862 378 3347 
C 378 3123 544 3084 627 3084 
C 762 3084 877 3167 877 3334 
C 877 3500 762 3584 627 3584 
C 602 3584 570 3584 544 3571 
C 730 3999 1235 4076 1459 4076 
C 1683 4076 2106 3966 2106 3347 
C 2106 3167 2080 2851 1862 2574 
C 1670 2329 1453 2316 1242 2297 
C 1210 2297 1062 2284 1037 2284 
C 992 2278 966 2272 966 2227 
C 966 2182 973 2176 1101 2176 
L 1414 2176 
z
" transform="scale(0.015625)"/>
       </defs>
       <use xlink:href="#CMR17-33" transform="scale(0.996264)"/>
       <use xlink:href="#CMMI12-3a" transform="translate(45.690477 0) scale(0.996264)"/>
       <use xlink:href="#CMR17-30" transform="translate(72.787654 0) scale(0.996264)"/>
      </g>
     </g>
    </g>
    <g id="text_11">
     <!-- Height (km) -->
     <g transform="translate(19.680252 174.560028) rotate(-90) scale(0.16 -0.16)">
      <defs>
       <path id="CMR17-48" d="M 3590 3898 
C 3590 4185 3661 4185 4102 4185 
L 4102 4352 
C 3917 4339 3578 4339 3379 4339 
C 3181 4339 2842 4339 2656 4352 
L 2656 4185 
C 3098 4185 3168 4185 3168 3898 
L 3168 2342 
L 1261 2342 
L 1261 3898 
C 1261 4185 1331 4185 1773 4185 
L 1773 4352 
C 1587 4339 1248 4339 1050 4339 
C 851 4339 512 4339 326 4352 
L 326 4185 
C 768 4185 838 4185 838 3898 
L 838 452 
C 838 166 768 166 326 166 
L 326 0 
C 512 12 851 12 1050 12 
C 1248 12 1587 12 1773 0 
L 1773 166 
C 1331 166 1261 166 1261 452 
L 1261 2176 
L 3168 2176 
L 3168 452 
C 3168 166 3098 166 2656 166 
L 2656 0 
C 2842 12 3181 12 3379 12 
C 3578 12 3917 12 4102 0 
L 4102 166 
C 3661 166 3590 166 3590 452 
L 3590 3898 
z
" transform="scale(0.015625)"/>
       <path id="CMR17-65" d="M 2438 1503 
C 2464 1529 2464 1542 2464 1606 
C 2464 2251 2118 2816 1389 2816 
C 710 2816 173 2175 173 1394 
C 173 554 781 -64 1459 -64 
C 2176 -64 2458 619 2458 755 
C 2458 800 2419 800 2406 800 
C 2362 800 2355 787 2330 709 
C 2189 270 1837 51 1504 51 
C 1229 51 954 206 781 490 
C 582 819 582 1200 582 1503 
L 2438 1503 
z
M 589 1600 
C 634 2511 1126 2713 1382 2713 
C 1818 2713 2112 2308 2118 1600 
L 589 1600 
z
" transform="scale(0.015625)"/>
       <path id="CMR17-69" d="M 992 3961 
C 992 4102 877 4224 730 4224 
C 589 4224 467 4108 467 3961 
C 467 3820 582 3699 730 3699 
C 870 3699 992 3814 992 3961 
z
M 243 2745 
L 243 2579 
C 602 2579 653 2540 653 2231 
L 653 443 
C 653 198 627 166 218 166 
L 218 0 
C 371 12 646 12 806 12 
C 960 12 1222 12 1370 0 
L 1370 166 
C 992 166 979 205 979 436 
L 979 2816 
L 243 2745 
z
" transform="scale(0.015625)"/>
       <path id="CMR17-67" d="M 710 1165 
C 832 1068 1043 960 1299 960 
C 1805 960 2240 1359 2240 1895 
C 2240 2063 2189 2321 1997 2521 
C 2176 2713 2438 2777 2586 2777 
C 2611 2777 2650 2777 2682 2758 
C 2656 2751 2598 2726 2598 2623 
C 2598 2540 2656 2483 2739 2483 
C 2835 2483 2886 2547 2886 2630 
C 2886 2751 2790 2880 2586 2880 
C 2330 2880 2106 2758 1926 2591 
C 1734 2764 1504 2828 1299 2828 
C 794 2828 358 2431 358 1895 
C 358 1527 570 1294 634 1230 
C 442 1004 442 742 442 710 
C 442 544 506 300 723 166 
C 390 82 128 -184 128 -517 
C 128 -996 736 -1344 1466 -1344 
C 2170 -1344 2803 -1009 2803 -510 
C 2803 384 1856 384 1363 384 
C 1216 384 954 384 922 390 
C 723 422 589 601 589 825 
C 589 883 589 1024 710 1165 
z
M 1299 1068 
C 736 1068 736 1766 736 1895 
C 736 2024 736 2719 1299 2719 
C 1862 2719 1862 2024 1862 1895 
C 1862 1766 1862 1068 1299 1068 
z
M 1466 -1236 
C 826 -1236 384 -883 384 -517 
C 384 -311 493 -118 634 -11 
C 794 102 858 102 1293 102 
C 1818 102 2547 102 2547 -517 
C 2547 -883 2106 -1236 1466 -1236 
z
" transform="scale(0.015625)"/>
       <path id="CMR17-68" d="M 2656 1954 
C 2656 2282 2592 2816 1837 2816 
C 1312 2816 1056 2392 979 2179 
L 973 2179 
L 973 4416 
L 211 4345 
L 211 4179 
C 589 4179 646 4141 646 3843 
L 646 443 
C 646 198 621 166 211 166 
L 211 0 
C 365 12 646 12 813 12 
C 979 12 1267 12 1421 0 
L 1421 166 
C 1011 166 986 192 986 443 
L 986 1678 
C 986 2269 1344 2713 1792 2713 
C 2266 2713 2317 2289 2317 1980 
L 2317 443 
C 2317 198 2291 166 1882 166 
L 1882 0 
C 2035 12 2317 12 2483 12 
C 2650 12 2938 12 3091 0 
L 3091 166 
C 2682 166 2656 192 2656 443 
L 2656 1954 
z
" transform="scale(0.015625)"/>
       <path id="CMR17-6b" d="M 1670 1679 
C 1664 1692 1632 1730 1632 1749 
C 1632 1762 2086 2175 2144 2226 
C 2509 2532 2739 2563 2906 2570 
L 2906 2735 
C 2867 2735 2854 2735 2848 2729 
L 2534 2722 
C 2355 2722 2080 2722 1907 2735 
L 1907 2570 
C 1997 2563 2061 2513 2061 2423 
C 2061 2296 1933 2175 1926 2175 
L 960 1298 
L 960 4416 
L 198 4345 
L 198 4179 
C 576 4179 634 4141 634 3835 
L 634 439 
C 634 198 608 166 198 166 
L 198 0 
C 352 12 634 12 794 12 
C 954 12 1235 12 1389 0 
L 1389 166 
C 979 166 954 191 954 439 
L 954 1139 
L 1395 1540 
L 2042 586 
C 2118 471 2182 382 2182 299 
C 2182 185 2067 166 1990 166 
L 1990 0 
C 2144 12 2419 12 2579 12 
C 2694 12 2931 6 3040 0 
L 3040 166 
C 2739 166 2669 223 2477 503 
L 1670 1679 
z
" transform="scale(0.015625)"/>
       <path id="CMR17-6d" d="M 4326 1954 
C 4326 2276 4269 2816 3507 2816 
C 3072 2816 2771 2520 2656 2173 
L 2650 2173 
C 2573 2700 2195 2816 1837 2816 
C 1331 2816 1069 2424 973 2166 
L 966 2166 
L 966 2816 
L 211 2745 
L 211 2578 
C 589 2578 646 2540 646 2231 
L 646 443 
C 646 198 621 166 211 166 
L 211 0 
C 365 12 646 12 813 12 
C 979 12 1267 12 1421 0 
L 1421 166 
C 1011 166 986 192 986 443 
L 986 1678 
C 986 2269 1344 2713 1792 2713 
C 2266 2713 2317 2289 2317 1980 
L 2317 443 
C 2317 198 2291 166 1882 166 
L 1882 0 
C 2035 12 2317 12 2483 12 
C 2650 12 2938 12 3091 0 
L 3091 166 
C 2682 166 2656 192 2656 443 
L 2656 1678 
C 2656 2269 3014 2713 3462 2713 
C 3936 2713 3987 2289 3987 1980 
L 3987 443 
C 3987 198 3962 166 3552 166 
L 3552 0 
C 3706 12 3987 12 4154 12 
C 4320 12 4608 12 4762 0 
L 4762 166 
C 4352 166 4326 192 4326 443 
L 4326 1954 
z
" transform="scale(0.015625)"/>
      </defs>
      <use xlink:href="#CMR17-48" transform="scale(0.996264)"/>
      <use xlink:href="#CMR17-65" transform="translate(69.07243 0) scale(0.996264)"/>
      <use xlink:href="#CMR17-69" transform="translate(109.55809 0) scale(0.996264)"/>
      <use xlink:href="#CMR17-67" transform="translate(134.429149 0) scale(0.996264)"/>
      <use xlink:href="#CMR17-68" transform="translate(180.119626 0) scale(0.996264)"/>
      <use xlink:href="#CMR17-74" transform="translate(228.412542 0) scale(0.996264)"/>
      <use xlink:href="#CMR17-28" transform="translate(293.769276 0) scale(0.996264)"/>
      <use xlink:href="#CMR17-6b" transform="translate(329.050044 0) scale(0.996264)"/>
      <use xlink:href="#CMR17-6d" transform="translate(377.34296 0) scale(0.996264)"/>
      <use xlink:href="#CMR17-29" transform="translate(454.262549 0) scale(0.996264)"/>
     </g>
    </g>
   </g>
   <g id="line2d_10">
    <path d="M 159.900905 22.534522 
L 155.355867 26.20753 
L 151.589792 29.513237 
L 148.146291 32.818943 
L 145.040976 36.12465 
L 142.579132 39.063056 
L 140.413297 42.001462 
L 138.774091 44.572567 
L 137.388353 47.143672 
L 136.269097 49.714778 
L 135.535109 51.918582 
L 135.019348 54.122386 
L 134.734968 56.326191 
L 134.695645 58.529995 
L 134.914934 60.7338 
L 135.307159 62.570304 
L 135.899548 64.406807 
L 136.701599 66.243311 
L 137.722634 68.079815 
L 138.971583 69.916319 
L 140.45662 71.752822 
L 142.560001 73.956627 
L 145.021977 76.160431 
L 147.846262 78.364236 
L 151.030145 80.56804 
L 155.184675 83.139145 
L 159.781982 85.710251 
L 165.513847 88.648657 
L 173.24382 92.321664 
L 185.491003 97.831175 
L 199.259304 104.075288 
L 206.825965 107.748295 
L 213.103795 111.054002 
L 218.185867 113.992408 
L 222.217998 116.563513 
L 225.852171 119.134618 
L 229.088981 121.705724 
L 231.937548 124.276829 
L 234.413526 126.847934 
L 236.53732 129.419039 
L 238.332535 131.990144 
L 239.824705 134.56125 
L 241.040257 137.132355 
L 242.005717 139.70346 
L 242.747107 142.274565 
L 243.352155 145.212971 
L 243.732672 148.151377 
L 243.933258 151.457084 
L 243.923525 155.130091 
L 243.690039 159.1704 
L 243.192586 163.945309 
L 242.309164 170.189422 
L 240.251886 182.677647 
L 238.610775 193.329369 
L 237.538753 201.777286 
L 236.741203 209.857902 
L 236.163522 217.938519 
L 235.756683 226.753737 
L 235.523809 236.670857 
L 235.46945 242.91497 
L 235.46945 242.91497 
" clip-path="url(#p91e091e2ae)" style="fill: none; stroke: #000000; stroke-width: 1.5; stroke-linecap: square"/>
   </g>
   <g id="line2d_11">
    <path d="M 159.900905 22.534522 
L 152.597095 25.840229 
L 145.808328 29.145936 
L 139.499469 32.451642 
L 133.636865 35.757349 
L 128.190479 39.063056 
L 123.133445 42.368763 
L 118.442111 45.674469 
L 113.632324 49.347477 
L 109.221399 53.020484 
L 105.183923 56.693492 
L 101.500896 60.366499 
L 98.155155 64.039507 
L 95.13293 67.712514 
L 92.423325 71.385521 
L 90.245607 74.691228 
L 88.311638 77.996935 
L 86.62014 81.302642 
L 85.171342 84.608348 
L 83.966124 87.914055 
L 83.004784 91.219762 
L 82.285524 94.525468 
L 81.80294 97.831175 
L 81.546816 101.136882 
L 81.501559 104.442589 
L 81.673173 108.115596 
L 82.09154 112.155904 
L 82.827507 116.930814 
L 83.970565 122.807626 
L 88.628055 145.580272 
L 89.693921 152.558986 
L 90.522372 159.5377 
L 91.126644 166.516415 
L 91.567763 174.22973 
L 91.838753 183.044948 
L 91.93067 193.69667 
L 91.814604 208.756 
L 91.365939 242.91497 
L 91.365939 242.91497 
" clip-path="url(#p91e091e2ae)" style="fill: none; stroke: #1f77b4; stroke-width: 1.5; stroke-linecap: square"/>
   </g>
   <g id="line2d_12">
    <path d="M 61.251128 22.901823 
L 65.097039 26.942131 
L 68.968546 31.34974 
L 73.801372 37.226552 
L 83.663299 49.347477 
L 87.589005 53.755086 
L 91.148084 57.428093 
L 94.647391 60.7338 
L 98.493281 64.039507 
L 102.254998 66.977913 
L 106.385206 69.916319 
L 110.922569 72.854724 
L 115.896386 75.79313 
L 121.32115 78.731536 
L 127.190666 81.669942 
L 134.284297 84.975649 
L 143.526888 89.015957 
L 161.086513 96.361972 
L 172.209663 101.136882 
L 180.190242 104.809889 
L 186.063404 107.748295 
L 190.76703 110.3194 
L 195.03224 112.890506 
L 198.844213 115.461611 
L 201.749481 117.665415 
L 204.326242 119.86922 
L 206.585109 122.073024 
L 208.540506 124.276829 
L 210.209665 126.480633 
L 211.611734 128.684438 
L 212.767013 130.888242 
L 213.696326 133.092047 
L 214.522703 135.663152 
L 215.102227 138.234257 
L 215.465929 140.805362 
L 215.654751 143.743768 
L 215.625948 147.049475 
L 215.35474 150.722482 
L 214.780865 155.130091 
L 213.810599 160.639603 
L 211.985733 169.45482 
L 209.509829 181.575745 
L 208.168218 189.289061 
L 207.122716 196.635076 
L 206.312369 203.981091 
L 205.723571 211.327105 
L 205.299719 219.407722 
L 205.047618 228.59024 
L 204.975285 239.609263 
L 204.987348 242.91497 
L 204.987348 242.91497 
" clip-path="url(#p91e091e2ae)" style="fill: none; stroke: #ff7f0e; stroke-width: 1.5; stroke-linecap: square"/>
   </g>
   <g id="patch_3">
    <path d="M 52.11589 253.933992 
L 52.11589 11.5155 
" style="fill: none; stroke: #000000; stroke-width: 0.8; stroke-linejoin: miter; stroke-linecap: square"/>
   </g>
   <g id="patch_4">
    <path d="M 253.091134 253.933992 
L 253.091134 11.5155 
" style="fill: none; stroke: #000000; stroke-width: 0.8; stroke-linejoin: miter; stroke-linecap: square"/>
   </g>
   <g id="patch_5">
    <path d="M 52.11589 253.933992 
L 253.091134 253.933992 
" style="fill: none; stroke: #000000; stroke-width: 0.8; stroke-linejoin: miter; stroke-linecap: square"/>
   </g>
   <g id="patch_6">
    <path d="M 52.11589 11.5155 
L 253.091134 11.5155 
" style="fill: none; stroke: #000000; stroke-width: 0.8; stroke-linejoin: miter; stroke-linecap: square"/>
   </g>
   <g id="legend_1">
    <g id="patch_7">
     <path d="M 124.399255 61.327035 
L 180.807769 61.327035 
Q 182.807769 61.327035 182.807769 59.327035 
L 182.807769 18.5155 
Q 182.807769 16.5155 180.807769 16.5155 
L 124.399255 16.5155 
Q 122.399255 16.5155 122.399255 18.5155 
L 122.399255 59.327035 
Q 122.399255 61.327035 124.399255 61.327035 
z
" style="fill: #ffffff; opacity: 0.8; stroke: #cccccc; stroke-linejoin: miter"/>
    </g>
    <g id="line2d_13">
     <path d="M 126.399255 24.0155 
L 136.399255 24.0155 
L 146.399255 24.0155 
" style="fill: none; stroke: #000000; stroke-width: 1.5; stroke-linecap: square"/>
    </g>
    <g id="text_12">
     <!-- total -->
     <g transform="translate(154.399255 27.5155) scale(0.1 -0.1)">
      <defs>
       <path id="CMR17-6f" d="M 2758 1356 
C 2758 2176 2163 2816 1466 2816 
C 768 2816 173 2176 173 1356 
C 173 550 768 -64 1466 -64 
C 2163 -64 2758 550 2758 1356 
z
M 1466 51 
C 1165 51 909 230 762 480 
C 602 768 582 1126 582 1408 
C 582 1676 595 2009 762 2297 
C 890 2508 1139 2713 1466 2713 
C 1754 2713 1997 2553 2150 2329 
C 2349 2028 2349 1606 2349 1408 
C 2349 1158 2336 774 2163 467 
C 1984 172 1709 51 1466 51 
z
" transform="scale(0.015625)"/>
       <path id="CMR17-61" d="M 2304 1656 
C 2304 2048 2304 2275 2035 2534 
C 1798 2751 1523 2816 1306 2816 
C 800 2816 435 2408 435 1977 
C 435 1740 627 1728 666 1728 
C 749 1728 896 1779 896 1958 
C 896 2118 774 2188 666 2188 
C 640 2188 608 2182 589 2176 
C 723 2594 1069 2713 1293 2713 
C 1613 2713 1965 2421 1965 1875 
L 1965 1632 
C 1587 1619 1133 1568 774 1373 
C 371 1147 256 822 256 576 
C 256 77 832 -64 1171 -64 
C 1523 -64 1850 135 1990 505 
C 2003 219 2182 -39 2464 -39 
C 2598 -39 2938 51 2938 563 
L 2938 926 
L 2822 926 
L 2822 557 
C 2822 161 2650 109 2566 109 
C 2304 109 2304 446 2304 732 
L 2304 1656 
z
M 1965 887 
C 1965 323 1568 38 1216 38 
C 896 38 646 278 646 576 
C 646 771 730 1114 1101 1322 
C 1408 1497 1760 1523 1965 1536 
L 1965 887 
z
" transform="scale(0.015625)"/>
       <path id="CMR17-6c" d="M 979 4416 
L 218 4345 
L 218 4179 
C 595 4179 653 4141 653 3835 
L 653 439 
C 653 198 627 166 218 166 
L 218 0 
C 371 12 653 12 813 12 
C 979 12 1261 12 1414 0 
L 1414 166 
C 1005 166 979 191 979 439 
L 979 4416 
z
" transform="scale(0.015625)"/>
      </defs>
      <use xlink:href="#CMR17-74" transform="scale(0.996264)"/>
      <use xlink:href="#CMR17-6f" transform="translate(35.280768 0) scale(0.996264)"/>
      <use xlink:href="#CMR17-74" transform="translate(80.971245 0) scale(0.996264)"/>
      <use xlink:href="#CMR17-61" transform="translate(116.252013 0) scale(0.996264)"/>
      <use xlink:href="#CMR17-6c" transform="translate(161.94249 0) scale(0.996264)"/>
     </g>
    </g>
    <g id="line2d_14">
     <path d="M 126.399255 37.952678 
L 136.399255 37.952678 
L 146.399255 37.952678 
" style="fill: none; stroke: #1f77b4; stroke-width: 1.5; stroke-linecap: square"/>
    </g>
    <g id="text_13">
     <!-- dist 1 -->
     <g transform="translate(154.399255 41.452678) scale(0.1 -0.1)">
      <defs>
       <path id="CMR17-64" d="M 1869 4345 
L 1869 4179 
C 2246 4179 2304 4141 2304 3843 
L 2304 2371 
C 2278 2403 2016 2816 1498 2816 
C 845 2816 211 2228 211 1376 
C 211 529 806 -64 1434 -64 
C 1978 -64 2259 361 2291 406 
L 2291 -64 
L 3066 -13 
L 3066 154 
C 2688 154 2630 193 2630 503 
L 2630 4416 
L 1869 4345 
z
M 2291 762 
C 2291 568 2176 393 2029 264 
C 1811 70 1594 38 1472 38 
C 1286 38 621 135 621 1369 
C 621 2636 1363 2713 1530 2713 
C 1824 2713 2061 2545 2208 2313 
C 2291 2177 2291 2157 2291 2041 
L 2291 762 
z
" transform="scale(0.015625)"/>
       <path id="CMR17-73" d="M 1978 2688 
C 1978 2803 1971 2809 1933 2809 
C 1907 2809 1901 2803 1824 2707 
C 1805 2681 1747 2617 1728 2592 
C 1523 2809 1235 2816 1126 2816 
C 416 2816 160 2444 160 2073 
C 160 1497 813 1363 998 1324 
C 1402 1241 1542 1216 1677 1100 
C 1760 1024 1901 883 1901 652 
C 1901 384 1747 38 1158 38 
C 602 38 403 460 288 1024 
C 269 1113 269 1120 218 1120 
C 166 1120 160 1113 160 985 
L 160 64 
C 160 -52 166 -58 205 -58 
C 237 -58 243 -52 275 0 
C 314 57 410 211 448 275 
C 576 102 800 -64 1158 -64 
C 1792 -64 2131 281 2131 780 
C 2131 1107 1958 1280 1875 1356 
C 1683 1555 1459 1600 1190 1651 
C 838 1728 390 1817 390 2208 
C 390 2374 480 2726 1126 2726 
C 1811 2726 1850 2086 1862 1881 
C 1869 1849 1901 1843 1920 1843 
C 1978 1843 1978 1862 1978 1971 
L 1978 2688 
z
" transform="scale(0.015625)"/>
      </defs>
      <use xlink:href="#CMR17-64" transform="scale(0.996264)"/>
      <use xlink:href="#CMR17-69" transform="translate(50.89537 0) scale(0.996264)"/>
      <use xlink:href="#CMR17-73" transform="translate(75.766428 0) scale(0.996264)"/>
      <use xlink:href="#CMR17-74" transform="translate(111.567766 0) scale(0.996264)"/>
      <use xlink:href="#CMR17-31" transform="translate(176.9245 0) scale(0.996264)"/>
     </g>
    </g>
    <g id="line2d_15">
     <path d="M 126.399255 51.889857 
L 136.399255 51.889857 
L 146.399255 51.889857 
" style="fill: none; stroke: #ff7f0e; stroke-width: 1.5; stroke-linecap: square"/>
    </g>
    <g id="text_14">
     <!-- dist 2 -->
     <g transform="translate(154.399255 55.389857) scale(0.1 -0.1)">
      <use xlink:href="#CMR17-64" transform="scale(0.996264)"/>
      <use xlink:href="#CMR17-69" transform="translate(50.89537 0) scale(0.996264)"/>
      <use xlink:href="#CMR17-73" transform="translate(75.766428 0) scale(0.996264)"/>
      <use xlink:href="#CMR17-74" transform="translate(111.567766 0) scale(0.996264)"/>
      <use xlink:href="#CMR17-32" transform="translate(176.9245 0) scale(0.996264)"/>
     </g>
    </g>
   </g>
  </g>
  <g id="axes_2">
   <g id="patch_8">
    <path d="M 274.882466 253.933992 
L 475.857711 253.933992 
L 475.857711 11.5155 
L 274.882466 11.5155 
z
" style="fill: #ffffff"/>
   </g>
   <g id="matplotlib.axis_3">
    <g id="xtick_3">
     <g id="line2d_16">
      <g>
       <use xlink:href="#m3088f0a5fa" x="332.182159" y="253.933992" style="stroke: #000000; stroke-width: 0.8"/>
      </g>
     </g>
     <g id="text_15">
      <!-- $\mathdefault{1}$ -->
      <g transform="translate(328.767915 270.619868) scale(0.14 -0.14)">
       <use xlink:href="#CMR17-31" transform="scale(0.996264)"/>
      </g>
     </g>
    </g>
    <g id="xtick_4">
     <g id="line2d_17">
      <g>
       <use xlink:href="#m3088f0a5fa" x="417.250085" y="253.933992" style="stroke: #000000; stroke-width: 0.8"/>
      </g>
     </g>
     <g id="text_16">
      <!-- $\mathdefault{2}$ -->
      <g transform="translate(413.835841 270.619868) scale(0.14 -0.14)">
       <use xlink:href="#CMR17-32" transform="scale(0.996264)"/>
      </g>
     </g>
    </g>
    <g id="text_17">
     <!-- Dm (mm) -->
     <g transform="translate(339.209016 290.765317) scale(0.18 -0.18)">
      <defs>
       <path id="CMR17-44" d="M 333 4352 
L 333 4185 
C 774 4185 845 4185 845 3898 
L 845 453 
C 845 166 774 166 333 166 
L 333 0 
L 2368 0 
C 3398 0 4224 943 4224 2140 
C 4224 3344 3411 4352 2368 4352 
L 333 4352 
z
M 1523 166 
C 1267 166 1254 198 1254 414 
L 1254 3936 
C 1254 4153 1267 4185 1523 4185 
L 2240 4185 
C 2771 4185 3750 3873 3750 2140 
C 3750 1242 3488 879 3366 707 
C 3213 510 2848 166 2240 166 
L 1523 166 
z
" transform="scale(0.015625)"/>
      </defs>
      <use xlink:href="#CMR17-44" transform="scale(0.996264)"/>
      <use xlink:href="#CMR17-6d" transform="translate(70.393556 0) scale(0.996264)"/>
      <use xlink:href="#CMR17-28" transform="translate(177.389112 0) scale(0.996264)"/>
      <use xlink:href="#CMR17-6d" transform="translate(212.66988 0) scale(0.996264)"/>
      <use xlink:href="#CMR17-6d" transform="translate(289.58947 0) scale(0.996264)"/>
      <use xlink:href="#CMR17-29" transform="translate(366.50906 0) scale(0.996264)"/>
     </g>
    </g>
   </g>
   <g id="matplotlib.axis_4">
    <g id="ytick_8">
     <g id="line2d_18">
      <g>
       <use xlink:href="#mec806c7efb" x="274.882466" y="242.91497" style="stroke: #000000; stroke-width: 0.8"/>
      </g>
     </g>
    </g>
    <g id="ytick_9">
     <g id="line2d_19">
      <g>
       <use xlink:href="#mec806c7efb" x="274.882466" y="206.184895" style="stroke: #000000; stroke-width: 0.8"/>
      </g>
     </g>
    </g>
    <g id="ytick_10">
     <g id="line2d_20">
      <g>
       <use xlink:href="#mec806c7efb" x="274.882466" y="169.45482" style="stroke: #000000; stroke-width: 0.8"/>
      </g>
     </g>
    </g>
    <g id="ytick_11">
     <g id="line2d_21">
      <g>
       <use xlink:href="#mec806c7efb" x="274.882466" y="132.724746" style="stroke: #000000; stroke-width: 0.8"/>
      </g>
     </g>
    </g>
    <g id="ytick_12">
     <g id="line2d_22">
      <g>
       <use xlink:href="#mec806c7efb" x="274.882466" y="95.994671" style="stroke: #000000; stroke-width: 0.8"/>
      </g>
     </g>
    </g>
    <g id="ytick_13">
     <g id="line2d_23">
      <g>
       <use xlink:href="#mec806c7efb" x="274.882466" y="59.264597" style="stroke: #000000; stroke-width: 0.8"/>
      </g>
     </g>
    </g>
    <g id="ytick_14">
     <g id="line2d_24">
      <g>
       <use xlink:href="#mec806c7efb" x="274.882466" y="22.534522" style="stroke: #000000; stroke-width: 0.8"/>
      </g>
     </g>
    </g>
   </g>
   <g id="line2d_25">
    <path d="M 332.872873 22.534522 
L 337.591592 25.840229 
L 342.689045 29.145936 
L 348.178321 32.451642 
L 354.742011 36.12465 
L 361.789555 39.797657 
L 369.301583 43.470665 
L 378.058883 47.510973 
L 388.962535 52.285883 
L 406.410511 59.631898 
L 421.918802 66.243311 
L 429.988527 69.916319 
L 435.947084 72.854724 
L 440.682578 75.42583 
L 444.316379 77.629634 
L 447.504592 79.833439 
L 449.790114 81.669942 
L 451.717291 83.506446 
L 453.27284 85.34295 
L 454.245033 86.812153 
L 454.974917 88.281356 
L 455.465355 89.750559 
L 455.722121 91.219762 
L 455.753747 92.688965 
L 455.571277 94.158168 
L 455.187945 95.627371 
L 454.449389 97.463874 
L 453.452965 99.300378 
L 451.965482 101.504183 
L 449.904869 104.075288 
L 447.236647 107.013694 
L 442.877864 111.421303 
L 434.094453 120.236521 
L 430.42151 124.276829 
L 427.382913 127.949836 
L 424.916525 131.255543 
L 422.710295 134.56125 
L 420.760339 137.866956 
L 419.056462 141.172663 
L 417.584415 144.47837 
L 416.200421 148.151377 
L 415.057594 151.824385 
L 414.049319 155.864693 
L 413.270301 159.905001 
L 412.645737 164.31261 
L 412.192563 169.08752 
L 411.904065 174.597031 
L 411.811019 180.841144 
L 411.937277 188.554459 
L 412.346857 198.83888 
L 413.934577 234.467052 
L 414.151671 242.91497 
L 414.151671 242.91497 
" clip-path="url(#pcba8108191)" style="fill: none; stroke: #000000; stroke-width: 1.5; stroke-linecap: square"/>
   </g>
   <g id="line2d_26">
    <path d="M 332.872873 22.534522 
L 337.744524 25.840229 
L 343.008523 29.145936 
L 348.679744 32.451642 
L 354.764512 35.757349 
L 362.009193 39.430357 
L 369.749269 43.103364 
L 378.800504 47.143672 
L 389.232804 51.551281 
L 403.789245 57.428093 
L 429.416465 67.712514 
L 437.937695 71.385521 
L 444.246363 74.323927 
L 449.28297 76.895033 
L 453.174192 79.098837 
L 456.622872 81.302642 
L 459.130738 83.139145 
L 461.287757 84.975649 
L 463.083099 86.812153 
L 464.255751 88.281356 
L 465.194713 89.750559 
L 465.903421 91.219762 
L 466.387879 92.688965 
L 466.656463 94.158168 
L 466.719661 95.627371 
L 466.589757 97.096574 
L 466.176858 98.933077 
L 465.512888 100.769581 
L 464.628515 102.606085 
L 463.320254 104.809889 
L 461.520287 107.380995 
L 458.894718 110.686701 
L 454.762972 115.461611 
L 447.412954 123.909528 
L 443.891648 128.317137 
L 440.959053 132.357445 
L 438.565751 136.030453 
L 436.44007 139.70346 
L 434.578786 143.376468 
L 432.971454 147.049475 
L 431.602927 150.722482 
L 430.351869 154.762791 
L 429.342091 158.803099 
L 428.484528 163.210708 
L 427.848674 167.618317 
L 427.344054 172.760527 
L 427.035558 178.270038 
L 426.911606 184.514151 
L 426.995252 192.227467 
L 427.350193 202.511888 
L 428.937954 242.180368 
L 428.956001 242.91497 
L 428.956001 242.91497 
" clip-path="url(#pcba8108191)" style="fill: none; stroke: #1f77b4; stroke-width: 1.5; stroke-linecap: square"/>
   </g>
   <g id="line2d_27">
    <path d="M 285.208327 22.901823 
L 285.660331 27.309432 
L 287.653748 47.878274 
L 288.376994 57.795394 
L 288.7674 66.243311 
L 288.894477 73.956627 
L 288.786917 81.302642 
L 288.456906 88.648657 
L 287.848877 97.096574 
L 286.362083 113.625107 
L 285.402598 125.746032 
L 284.785412 136.397753 
L 284.358803 147.784077 
L 284.107607 160.639603 
L 284.017715 177.535437 
L 284.127186 208.3887 
L 284.242211 242.91497 
L 284.242211 242.91497 
" clip-path="url(#pcba8108191)" style="fill: none; stroke: #ff7f0e; stroke-width: 1.5; stroke-linecap: square"/>
   </g>
   <g id="patch_9">
    <path d="M 274.882466 253.933992 
L 274.882466 11.5155 
" style="fill: none; stroke: #000000; stroke-width: 0.8; stroke-linejoin: miter; stroke-linecap: square"/>
   </g>
   <g id="patch_10">
    <path d="M 475.857711 253.933992 
L 475.857711 11.5155 
" style="fill: none; stroke: #000000; stroke-width: 0.8; stroke-linejoin: miter; stroke-linecap: square"/>
   </g>
   <g id="patch_11">
    <path d="M 274.882466 253.933992 
L 475.857711 253.933992 
" style="fill: none; stroke: #000000; stroke-width: 0.8; stroke-linejoin: miter; stroke-linecap: square"/>
   </g>
   <g id="patch_12">
    <path d="M 274.882466 11.5155 
L 475.857711 11.5155 
" style="fill: none; stroke: #000000; stroke-width: 0.8; stroke-linejoin: miter; stroke-linecap: square"/>
   </g>
  </g>
  <g id="axes_3">
   <g id="patch_13">
    <path d="M 497.649043 253.933992 
L 698.624288 253.933992 
L 698.624288 11.5155 
L 497.649043 11.5155 
z
" style="fill: #ffffff"/>
   </g>
   <g id="matplotlib.axis_5">
    <g id="xtick_5">
     <g id="line2d_28">
      <g>
       <use xlink:href="#m3088f0a5fa" x="506.622787" y="253.933992" style="stroke: #000000; stroke-width: 0.8"/>
      </g>
     </g>
     <g id="text_18">
      <!-- $\mathdefault{0}$ -->
      <g transform="translate(503.208543 270.619868) scale(0.14 -0.14)">
       <use xlink:href="#CMR17-30" transform="scale(0.996264)"/>
      </g>
     </g>
    </g>
    <g id="xtick_6">
     <g id="line2d_29">
      <g>
       <use xlink:href="#m3088f0a5fa" x="590.916171" y="253.933992" style="stroke: #000000; stroke-width: 0.8"/>
      </g>
     </g>
     <g id="text_19">
      <!-- $\mathdefault{1}$ -->
      <g transform="translate(587.501926 270.619868) scale(0.14 -0.14)">
       <use xlink:href="#CMR17-31" transform="scale(0.996264)"/>
      </g>
     </g>
    </g>
    <g id="xtick_7">
     <g id="line2d_30">
      <g>
       <use xlink:href="#m3088f0a5fa" x="675.209554" y="253.933992" style="stroke: #000000; stroke-width: 0.8"/>
      </g>
     </g>
     <g id="text_20">
      <!-- $\mathdefault{2}$ -->
      <g transform="translate(671.79531 270.619868) scale(0.14 -0.14)">
       <use xlink:href="#CMR17-32" transform="scale(0.996264)"/>
      </g>
     </g>
    </g>
    <g id="text_21">
     <!-- WC (g/m$^{3}$) -->
     <g transform="translate(556.300022 291.92918) scale(0.18 -0.18)">
      <defs>
       <path id="CMR17-57" d="M 5523 3775 
C 5581 3948 5677 4173 6048 4185 
L 6048 4352 
C 5939 4345 5715 4339 5600 4339 
C 5440 4339 5158 4339 5005 4352 
L 5005 4185 
C 5293 4179 5414 4019 5414 3865 
C 5414 3820 5408 3794 5382 3724 
L 4390 557 
L 3347 3890 
C 3328 3955 3322 3980 3322 4006 
C 3322 4185 3603 4185 3725 4185 
L 3725 4352 
C 3539 4339 3219 4339 3021 4339 
C 2861 4339 2573 4339 2426 4352 
L 2426 4185 
C 2720 4185 2797 4166 2861 4051 
C 2886 3993 2989 3660 2989 3640 
C 2989 3615 2976 3576 2970 3557 
L 2029 564 
L 986 3890 
C 954 3980 954 3993 954 4006 
C 954 4185 1235 4185 1363 4185 
L 1363 4352 
C 1178 4339 858 4339 659 4339 
C 493 4339 211 4339 58 4352 
L 58 4185 
C 442 4185 467 4147 531 3942 
L 1779 -20 
C 1811 -116 1811 -128 1869 -128 
C 1920 -128 1939 -116 1965 -26 
L 3053 3448 
L 4141 -26 
C 4166 -116 4186 -128 4237 -128 
C 4294 -128 4294 -116 4326 -20 
L 5523 3775 
z
" transform="scale(0.015625)"/>
       <path id="CMR17-43" d="M 3974 4351 
C 3974 4467 3968 4473 3930 4473 
C 3904 4473 3898 4467 3853 4390 
L 3571 3849 
C 3258 4249 2874 4480 2381 4480 
C 1286 4480 294 3507 294 2179 
C 294 837 1286 -128 2387 -128 
C 3366 -128 3974 741 3974 1482 
C 3974 1547 3974 1573 3917 1573 
C 3866 1573 3866 1553 3859 1495 
C 3808 592 3168 38 2477 38 
C 1824 38 781 502 781 2179 
C 781 3862 1843 4313 2464 4313 
C 3187 4313 3712 3681 3834 2785 
C 3846 2707 3846 2695 3904 2695 
C 3974 2695 3974 2707 3974 2824 
L 3974 4351 
z
" transform="scale(0.015625)"/>
      </defs>
      <use xlink:href="#CMR17-57" transform="scale(0.996264)"/>
      <use xlink:href="#CMR17-43" transform="translate(92.494196 0) scale(0.996264)"/>
      <use xlink:href="#CMR17-28" transform="translate(189.080043 0) scale(0.996264)"/>
      <use xlink:href="#CMR17-67" transform="translate(224.360811 0) scale(0.996264)"/>
      <use xlink:href="#CMR17-2f" transform="translate(270.051288 0) scale(0.996264)"/>
      <use xlink:href="#CMR17-6d" transform="translate(315.741765 0) scale(0.996264)"/>
      <use xlink:href="#CMR17-33" transform="translate(392.661355 36.153639) scale(0.697382)"/>
      <use xlink:href="#CMR17-29" transform="translate(425.142669 0) scale(0.996264)"/>
     </g>
    </g>
   </g>
   <g id="matplotlib.axis_6">
    <g id="ytick_15">
     <g id="line2d_31">
      <g>
       <use xlink:href="#mec806c7efb" x="497.649043" y="242.91497" style="stroke: #000000; stroke-width: 0.8"/>
      </g>
     </g>
    </g>
    <g id="ytick_16">
     <g id="line2d_32">
      <g>
       <use xlink:href="#mec806c7efb" x="497.649043" y="206.184895" style="stroke: #000000; stroke-width: 0.8"/>
      </g>
     </g>
    </g>
    <g id="ytick_17">
     <g id="line2d_33">
      <g>
       <use xlink:href="#mec806c7efb" x="497.649043" y="169.45482" style="stroke: #000000; stroke-width: 0.8"/>
      </g>
     </g>
    </g>
    <g id="ytick_18">
     <g id="line2d_34">
      <g>
       <use xlink:href="#mec806c7efb" x="497.649043" y="132.724746" style="stroke: #000000; stroke-width: 0.8"/>
      </g>
     </g>
    </g>
    <g id="ytick_19">
     <g id="line2d_35">
      <g>
       <use xlink:href="#mec806c7efb" x="497.649043" y="95.994671" style="stroke: #000000; stroke-width: 0.8"/>
      </g>
     </g>
    </g>
    <g id="ytick_20">
     <g id="line2d_36">
      <g>
       <use xlink:href="#mec806c7efb" x="497.649043" y="59.264597" style="stroke: #000000; stroke-width: 0.8"/>
      </g>
     </g>
    </g>
    <g id="ytick_21">
     <g id="line2d_37">
      <g>
       <use xlink:href="#mec806c7efb" x="497.649043" y="22.534522" style="stroke: #000000; stroke-width: 0.8"/>
      </g>
     </g>
    </g>
   </g>
   <g id="line2d_38">
    <path d="M 689.488853 22.534522 
L 682.331502 50.082078 
L 680.783876 57.060792 
L 679.629899 63.304905 
L 678.906662 68.447116 
L 678.468336 73.222025 
L 678.294692 77.629634 
L 678.36297 82.037243 
L 678.671484 86.444852 
L 679.197474 90.852461 
L 680.089298 96.361972 
L 682.130041 107.013694 
L 683.512453 114.727009 
L 684.539989 121.705724 
L 685.327289 128.684438 
L 685.892898 135.663152 
L 686.303406 143.376468 
L 686.562187 152.191685 
L 686.671769 162.843407 
L 686.62625 176.800835 
L 686.171909 238.14006 
L 686.163479 242.91497 
L 686.163479 242.91497 
" clip-path="url(#p4d9d809de6)" style="fill: none; stroke: #000000; stroke-width: 1.5; stroke-linecap: square"/>
   </g>
   <g id="line2d_39">
    <path d="M 689.489049 22.534522 
L 682.630677 32.451642 
L 670.965051 49.347477 
L 665.861588 56.326191 
L 661.307979 62.203003 
L 656.761042 67.712514 
L 652.238331 72.854724 
L 647.098298 78.364236 
L 638.854164 86.812153 
L 632.902035 93.056265 
L 629.360832 97.096574 
L 626.747772 100.40228 
L 624.685105 103.340686 
L 622.891308 106.279092 
L 621.376218 109.217498 
L 620.137593 112.155904 
L 619.163085 115.09431 
L 618.432784 118.032716 
L 617.921847 120.971122 
L 617.575093 124.276829 
L 617.426301 127.949836 
L 617.489854 131.990144 
L 617.78913 136.765054 
L 618.411692 143.009167 
L 620.027847 156.231994 
L 621.261307 167.251016 
L 622.071175 176.433535 
L 622.661844 185.616053 
L 623.075153 195.533173 
L 623.318484 206.919497 
L 623.385735 221.244226 
L 623.251286 242.91497 
L 623.251286 242.91497 
" clip-path="url(#p4d9d809de6)" style="fill: none; stroke: #1f77b4; stroke-width: 1.5; stroke-linecap: square"/>
   </g>
   <g id="line2d_40">
    <path d="M 506.784281 22.901823 
L 510.685895 32.084342 
L 516.30612 45.307169 
L 519.048225 51.18398 
L 521.697127 56.326191 
L 524.223081 60.7338 
L 526.799556 64.774108 
L 529.397659 68.447116 
L 532.268794 72.120123 
L 535.429568 75.79313 
L 538.877037 79.466138 
L 543.346908 83.873747 
L 550.065607 90.11786 
L 557.110185 96.729273 
L 560.720825 100.40228 
L 563.666697 103.707987 
L 565.996241 106.646393 
L 568.030151 109.584799 
L 569.56135 112.155904 
L 570.863954 114.727009 
L 572.085185 117.665415 
L 573.041746 120.603821 
L 573.759755 123.542227 
L 574.317857 126.847934 
L 574.651169 130.153641 
L 574.805684 133.826648 
L 574.757971 138.234257 
L 574.472682 143.376468 
L 573.847001 150.355182 
L 570.80619 181.208444 
L 570.194607 191.125564 
L 569.781969 201.409985 
L 569.536871 213.163609 
L 569.464781 227.855639 
L 569.53473 242.91497 
L 569.53473 242.91497 
" clip-path="url(#p4d9d809de6)" style="fill: none; stroke: #ff7f0e; stroke-width: 1.5; stroke-linecap: square"/>
   </g>
   <g id="patch_14">
    <path d="M 497.649043 253.933992 
L 497.649043 11.5155 
" style="fill: none; stroke: #000000; stroke-width: 0.8; stroke-linejoin: miter; stroke-linecap: square"/>
   </g>
   <g id="patch_15">
    <path d="M 698.624288 253.933992 
L 698.624288 11.5155 
" style="fill: none; stroke: #000000; stroke-width: 0.8; stroke-linejoin: miter; stroke-linecap: square"/>
   </g>
   <g id="patch_16">
    <path d="M 497.649043 253.933992 
L 698.624288 253.933992 
" style="fill: none; stroke: #000000; stroke-width: 0.8; stroke-linejoin: miter; stroke-linecap: square"/>
   </g>
   <g id="patch_17">
    <path d="M 497.649043 11.5155 
L 698.624288 11.5155 
" style="fill: none; stroke: #000000; stroke-width: 0.8; stroke-linejoin: miter; stroke-linecap: square"/>
   </g>
  </g>
  <g id="axes_4">
   <g id="patch_18">
    <path d="M 720.41562 253.933992 
L 921.390864 253.933992 
L 921.390864 11.5155 
L 720.41562 11.5155 
z
" style="fill: #ffffff"/>
   </g>
   <g id="matplotlib.axis_7">
    <g id="xtick_8">
     <g id="line2d_41">
      <g>
       <use xlink:href="#m3088f0a5fa" x="729.40329" y="253.933992" style="stroke: #000000; stroke-width: 0.8"/>
      </g>
     </g>
     <g id="text_22">
      <!-- $\mathdefault{0}$ -->
      <g transform="translate(725.989046 270.619868) scale(0.14 -0.14)">
       <use xlink:href="#CMR17-30" transform="scale(0.996264)"/>
      </g>
     </g>
    </g>
    <g id="xtick_9">
     <g id="line2d_42">
      <g>
       <use xlink:href="#m3088f0a5fa" x="789.758165" y="253.933992" style="stroke: #000000; stroke-width: 0.8"/>
      </g>
     </g>
     <g id="text_23">
      <!-- $\mathdefault{2}$ -->
      <g transform="translate(786.343921 270.619868) scale(0.14 -0.14)">
       <use xlink:href="#CMR17-32" transform="scale(0.996264)"/>
      </g>
     </g>
    </g>
    <g id="xtick_10">
     <g id="line2d_43">
      <g>
       <use xlink:href="#m3088f0a5fa" x="850.11304" y="253.933992" style="stroke: #000000; stroke-width: 0.8"/>
      </g>
     </g>
     <g id="text_24">
      <!-- $\mathdefault{4}$ -->
      <g transform="translate(846.698795 270.619868) scale(0.14 -0.14)">
       <defs>
        <path id="CMR17-34" d="M 2150 4147 
C 2150 4281 2144 4288 2029 4288 
L 128 1254 
L 128 1088 
L 1779 1088 
L 1779 460 
C 1779 230 1766 166 1318 166 
L 1197 166 
L 1197 0 
C 1402 12 1747 12 1965 12 
C 2182 12 2528 12 2733 0 
L 2733 166 
L 2611 166 
C 2163 166 2150 230 2150 460 
L 2150 1088 
L 2803 1088 
L 2803 1254 
L 2150 1254 
L 2150 4147 
z
M 1798 3723 
L 1798 1254 
L 256 1254 
L 1798 3723 
z
" transform="scale(0.015625)"/>
       </defs>
       <use xlink:href="#CMR17-34" transform="scale(0.996264)"/>
      </g>
     </g>
    </g>
    <g id="xtick_11">
     <g id="line2d_44">
      <g>
       <use xlink:href="#m3088f0a5fa" x="910.467914" y="253.933992" style="stroke: #000000; stroke-width: 0.8"/>
      </g>
     </g>
     <g id="text_25">
      <!-- $\mathdefault{6}$ -->
      <g transform="translate(907.05367 270.619868) scale(0.14 -0.14)">
       <defs>
        <path id="CMR17-36" d="M 678 2198 
C 678 3712 1395 4076 1811 4076 
C 1946 4076 2272 4049 2400 3782 
C 2298 3782 2106 3782 2106 3558 
C 2106 3385 2246 3328 2336 3328 
C 2394 3328 2566 3353 2566 3571 
C 2566 3987 2246 4224 1805 4224 
C 1043 4224 243 3411 243 2011 
C 243 257 966 -128 1478 -128 
C 2099 -128 2688 431 2688 1295 
C 2688 2101 2170 2688 1517 2688 
C 1126 2688 838 2430 678 1979 
L 678 2198 
z
M 1478 25 
C 691 25 691 1212 691 1450 
C 691 1914 909 2585 1504 2585 
C 1613 2585 1926 2585 2138 2140 
C 2253 1889 2253 1624 2253 1302 
C 2253 954 2253 696 2118 438 
C 1978 173 1773 25 1478 25 
z
" transform="scale(0.015625)"/>
       </defs>
       <use xlink:href="#CMR17-36" transform="scale(0.996264)"/>
      </g>
     </g>
    </g>
    <g id="text_26">
     <!-- R (mm/hr) -->
     <g transform="translate(780.031167 290.765317) scale(0.18 -0.18)">
      <defs>
       <path id="CMR17-52" d="M 2509 2156 
C 3117 2278 3629 2689 3629 3203 
C 3629 3806 2950 4352 2054 4352 
L 333 4352 
L 333 4185 
C 774 4185 845 4185 845 3896 
L 845 428 
C 845 140 774 140 333 140 
L 333 -26 
C 518 -13 851 -13 1050 -13 
C 1248 -13 1581 -13 1766 -26 
L 1766 140 
C 1325 140 1254 140 1254 428 
L 1254 2112 
L 2003 2112 
C 2368 2112 2573 1964 2662 1881 
C 2918 1632 2918 1459 2918 1024 
C 2918 595 2918 377 3110 160 
C 3354 -103 3680 -128 3821 -128 
C 4294 -128 4365 403 4365 512 
C 4365 550 4365 595 4307 595 
C 4256 595 4250 556 4250 531 
C 4218 115 4032 -26 3834 -26 
C 3482 -26 3443 377 3405 768 
C 3386 902 3373 998 3360 1139 
C 3322 1459 3270 1926 2509 2156 
z
M 1984 2214 
L 1254 2214 
L 1254 3935 
C 1254 4153 1267 4185 1523 4185 
L 1990 4185 
C 2522 4185 3142 3999 3142 3203 
C 3142 2374 2464 2214 1984 2214 
z
" transform="scale(0.015625)"/>
       <path id="CMR17-72" d="M 960 1517 
C 960 2134 1222 2713 1702 2713 
C 1747 2713 1792 2707 1837 2687 
C 1837 2687 1696 2642 1696 2475 
C 1696 2321 1818 2257 1914 2257 
C 1990 2257 2131 2302 2131 2482 
C 2131 2687 1926 2816 1709 2816 
C 1222 2816 1011 2340 947 2115 
L 941 2115 
L 941 2816 
L 198 2745 
L 198 2578 
C 576 2578 634 2540 634 2231 
L 634 443 
C 634 198 608 166 198 166 
L 198 0 
C 352 12 646 12 813 12 
C 998 12 1325 12 1498 0 
L 1498 166 
C 1037 166 960 166 960 455 
L 960 1517 
z
" transform="scale(0.015625)"/>
      </defs>
      <use xlink:href="#CMR17-52" transform="scale(0.996264)"/>
      <use xlink:href="#CMR17-28" transform="translate(97.867068 0) scale(0.996264)"/>
      <use xlink:href="#CMR17-6d" transform="translate(133.147836 0) scale(0.996264)"/>
      <use xlink:href="#CMR17-6d" transform="translate(210.067426 0) scale(0.996264)"/>
      <use xlink:href="#CMR17-2f" transform="translate(286.987016 0) scale(0.996264)"/>
      <use xlink:href="#CMR17-68" transform="translate(332.677493 0) scale(0.996264)"/>
      <use xlink:href="#CMR17-72" transform="translate(383.572863 0) scale(0.996264)"/>
      <use xlink:href="#CMR17-29" transform="translate(418.853631 0) scale(0.996264)"/>
     </g>
    </g>
   </g>
   <g id="matplotlib.axis_8">
    <g id="ytick_22">
     <g id="line2d_45">
      <g>
       <use xlink:href="#mec806c7efb" x="720.41562" y="242.91497" style="stroke: #000000; stroke-width: 0.8"/>
      </g>
     </g>
    </g>
    <g id="ytick_23">
     <g id="line2d_46">
      <g>
       <use xlink:href="#mec806c7efb" x="720.41562" y="206.184895" style="stroke: #000000; stroke-width: 0.8"/>
      </g>
     </g>
    </g>
    <g id="ytick_24">
     <g id="line2d_47">
      <g>
       <use xlink:href="#mec806c7efb" x="720.41562" y="169.45482" style="stroke: #000000; stroke-width: 0.8"/>
      </g>
     </g>
    </g>
    <g id="ytick_25">
     <g id="line2d_48">
      <g>
       <use xlink:href="#mec806c7efb" x="720.41562" y="132.724746" style="stroke: #000000; stroke-width: 0.8"/>
      </g>
     </g>
    </g>
    <g id="ytick_26">
     <g id="line2d_49">
      <g>
       <use xlink:href="#mec806c7efb" x="720.41562" y="95.994671" style="stroke: #000000; stroke-width: 0.8"/>
      </g>
     </g>
    </g>
    <g id="ytick_27">
     <g id="line2d_50">
      <g>
       <use xlink:href="#mec806c7efb" x="720.41562" y="59.264597" style="stroke: #000000; stroke-width: 0.8"/>
      </g>
     </g>
    </g>
    <g id="ytick_28">
     <g id="line2d_51">
      <g>
       <use xlink:href="#mec806c7efb" x="720.41562" y="22.534522" style="stroke: #000000; stroke-width: 0.8"/>
      </g>
     </g>
    </g>
   </g>
   <g id="line2d_52">
    <path d="M 912.255626 22.534522 
L 912.255626 242.91497 
L 912.255626 242.91497 
" clip-path="url(#p039c15f429)" style="fill: none; stroke: #000000; stroke-width: 1.5; stroke-linecap: square"/>
   </g>
   <g id="line2d_53">
    <path d="M 912.255626 22.534522 
L 908.532032 32.084342 
L 903.496625 44.939868 
L 900.804797 51.18398 
L 898.348957 56.326191 
L 896.007188 60.7338 
L 893.619851 64.774108 
L 890.960314 68.814416 
L 888.279048 72.487424 
L 885.333127 76.160431 
L 881.795728 80.200739 
L 877.636975 84.608348 
L 863.114989 99.667679 
L 860.387854 102.973386 
L 858.226847 105.911792 
L 856.33774 108.850198 
L 854.728679 111.788603 
L 853.396043 114.727009 
L 852.325649 117.665415 
L 851.496675 120.603821 
L 850.884677 123.542227 
L 850.421453 126.847934 
L 850.141708 130.520941 
L 850.062643 134.56125 
L 850.199649 139.336159 
L 850.628169 145.580272 
L 851.510557 154.762791 
L 853.285896 173.127828 
L 854.029769 183.412249 
L 854.550028 193.69667 
L 854.893146 205.082993 
L 855.053992 217.571218 
L 855.047353 235.201654 
L 855.001483 242.91497 
L 855.001483 242.91497 
" clip-path="url(#p039c15f429)" style="fill: none; stroke: #1f77b4; stroke-width: 1.5; stroke-linecap: square"/>
   </g>
   <g id="line2d_54">
    <path d="M 729.550858 22.901823 
L 733.548765 33.186244 
L 738.16199 44.939868 
L 740.853817 51.18398 
L 743.309657 56.326191 
L 745.651728 60.7338 
L 748.039065 64.774108 
L 750.698301 68.814416 
L 753.379868 72.487424 
L 756.325789 76.160431 
L 759.862887 80.200739 
L 764.379242 84.975649 
L 778.223443 99.300378 
L 780.982868 102.606085 
L 783.176466 105.544491 
L 785.100278 108.482897 
L 786.744043 111.421303 
L 788.110779 114.359709 
L 789.213161 117.298115 
L 790.070803 120.236521 
L 790.708754 123.174927 
L 791.196724 126.480633 
L 791.4988 130.153641 
L 791.597178 134.193949 
L 791.47677 138.968859 
L 791.091404 144.845671 
L 790.261223 153.660888 
L 788.312364 173.862429 
L 787.584786 184.14685 
L 787.094101 194.06397 
L 786.750682 205.817594 
L 786.597079 219.040421 
L 786.627256 238.14006 
L 786.657433 242.91497 
L 786.657433 242.91497 
" clip-path="url(#p039c15f429)" style="fill: none; stroke: #ff7f0e; stroke-width: 1.5; stroke-linecap: square"/>
   </g>
   <g id="patch_19">
    <path d="M 720.41562 253.933992 
L 720.41562 11.5155 
" style="fill: none; stroke: #000000; stroke-width: 0.8; stroke-linejoin: miter; stroke-linecap: square"/>
   </g>
   <g id="patch_20">
    <path d="M 921.390864 253.933992 
L 921.390864 11.5155 
" style="fill: none; stroke: #000000; stroke-width: 0.8; stroke-linejoin: miter; stroke-linecap: square"/>
   </g>
   <g id="patch_21">
    <path d="M 720.41562 253.933992 
L 921.390864 253.933992 
" style="fill: none; stroke: #000000; stroke-width: 0.8; stroke-linejoin: miter; stroke-linecap: square"/>
   </g>
   <g id="patch_22">
    <path d="M 720.41562 11.5155 
L 921.390864 11.5155 
" style="fill: none; stroke: #000000; stroke-width: 0.8; stroke-linejoin: miter; stroke-linecap: square"/>
   </g>
  </g>
  <g id="axes_5">
   <g id="patch_23">
    <path d="M 52.11589 553.144554 
L 253.091134 553.144554 
L 253.091134 310.726063 
L 52.11589 310.726063 
z
" style="fill: #ffffff"/>
   </g>
   <g id="matplotlib.axis_9">
    <g id="xtick_12">
     <g id="line2d_55">
      <g>
       <use xlink:href="#m3088f0a5fa" x="112.137972" y="553.144554" style="stroke: #000000; stroke-width: 0.8"/>
      </g>
     </g>
     <g id="text_27">
      <!-- $\mathdefault{24}$ -->
      <g transform="translate(105.309483 569.830431) scale(0.14 -0.14)">
       <use xlink:href="#CMR17-32" transform="scale(0.996264)"/>
       <use xlink:href="#CMR17-34" transform="translate(45.690477 0) scale(0.996264)"/>
      </g>
     </g>
    </g>
    <g id="xtick_13">
     <g id="line2d_56">
      <g>
       <use xlink:href="#m3088f0a5fa" x="172.538917" y="553.144554" style="stroke: #000000; stroke-width: 0.8"/>
      </g>
     </g>
     <g id="text_28">
      <!-- $\mathdefault{26}$ -->
      <g transform="translate(165.710428 569.830431) scale(0.14 -0.14)">
       <use xlink:href="#CMR17-32" transform="scale(0.996264)"/>
       <use xlink:href="#CMR17-36" transform="translate(45.690477 0) scale(0.996264)"/>
      </g>
     </g>
    </g>
    <g id="xtick_14">
     <g id="line2d_57">
      <g>
       <use xlink:href="#m3088f0a5fa" x="232.939862" y="553.144554" style="stroke: #000000; stroke-width: 0.8"/>
      </g>
     </g>
     <g id="text_29">
      <!-- $\mathdefault{28}$ -->
      <g transform="translate(226.111373 569.830431) scale(0.14 -0.14)">
       <defs>
        <path id="CMR17-38" d="M 1741 2289 
C 2144 2494 2554 2803 2554 3298 
C 2554 3884 1990 4224 1472 4224 
C 890 4224 378 3800 378 3215 
C 378 3054 416 2777 666 2533 
C 730 2469 998 2276 1171 2154 
C 883 2006 211 1652 211 945 
C 211 282 838 -128 1459 -128 
C 2144 -128 2720 366 2720 1022 
C 2720 1607 2330 1877 2074 2051 
L 1741 2289 
z
M 902 2855 
C 851 2887 595 3086 595 3388 
C 595 3781 998 4076 1459 4076 
C 1965 4076 2336 3716 2336 3298 
C 2336 2700 1670 2359 1638 2359 
C 1632 2359 1626 2359 1574 2398 
L 902 2855 
z
M 2080 1536 
C 2176 1466 2483 1253 2483 861 
C 2483 385 2010 25 1472 25 
C 890 25 448 443 448 951 
C 448 1459 838 1884 1280 2083 
L 2080 1536 
z
" transform="scale(0.015625)"/>
       </defs>
       <use xlink:href="#CMR17-32" transform="scale(0.996264)"/>
       <use xlink:href="#CMR17-38" transform="translate(45.690477 0) scale(0.996264)"/>
      </g>
     </g>
    </g>
    <g id="text_30">
     <!-- Z (dBZ) -->
     <g transform="translate(123.000557 589.975879) scale(0.18 -0.18)">
      <defs>
       <path id="CMR17-5a" d="M 3302 4223 
C 3302 4345 3296 4352 3162 4352 
L 442 4352 
L 378 2943 
L 493 2943 
C 531 3669 723 4185 1760 4185 
L 2816 4185 
L 339 204 
C 294 134 294 128 294 83 
C 294 0 307 0 435 0 
L 3245 0 
L 3334 1663 
L 3219 1663 
C 3162 828 3117 179 1894 179 
L 781 179 
L 3302 4223 
z
" transform="scale(0.015625)"/>
       <path id="CMR17-42" d="M 333 4352 
L 333 4185 
C 774 4185 845 4185 845 3897 
L 845 451 
C 845 166 774 166 333 166 
L 333 0 
L 2534 0 
C 3354 0 3885 578 3885 1155 
C 3885 1726 3360 2214 2675 2259 
C 3290 2380 3718 2790 3718 3276 
C 3718 3808 3194 4352 2368 4352 
L 333 4352 
z
M 1248 2304 
L 1248 3936 
C 1248 4153 1261 4185 1517 4185 
L 2336 4185 
C 2970 4185 3251 3673 3251 3276 
C 3251 2790 2861 2304 2170 2304 
L 1248 2304 
z
M 1517 166 
C 1261 166 1248 198 1248 413 
L 1248 2201 
L 2432 2201 
C 3091 2201 3411 1624 3411 1161 
C 3411 698 3046 166 2349 166 
L 1517 166 
z
" transform="scale(0.015625)"/>
      </defs>
      <use xlink:href="#CMR17-5a" transform="scale(0.996264)"/>
      <use xlink:href="#CMR17-28" transform="translate(86.176138 0) scale(0.996264)"/>
      <use xlink:href="#CMR17-64" transform="translate(121.456905 0) scale(0.996264)"/>
      <use xlink:href="#CMR17-42" transform="translate(172.352275 0) scale(0.996264)"/>
      <use xlink:href="#CMR17-5a" transform="translate(237.54103 0) scale(0.996264)"/>
      <use xlink:href="#CMR17-29" transform="translate(293.641201 0) scale(0.996264)"/>
     </g>
    </g>
   </g>
   <g id="matplotlib.axis_10">
    <g id="ytick_29">
     <g id="line2d_58">
      <g>
       <use xlink:href="#mec806c7efb" x="52.11589" y="542.125532" style="stroke: #000000; stroke-width: 0.8"/>
      </g>
     </g>
     <g id="text_31">
      <!-- $\mathdefault{0.0}$ -->
      <g transform="translate(27.665308 546.96847) scale(0.14 -0.14)">
       <use xlink:href="#CMR17-30" transform="scale(0.996264)"/>
       <use xlink:href="#CMMI12-3a" transform="translate(45.690477 0) scale(0.996264)"/>
       <use xlink:href="#CMR17-30" transform="translate(72.787654 0) scale(0.996264)"/>
      </g>
     </g>
    </g>
    <g id="ytick_30">
     <g id="line2d_59">
      <g>
       <use xlink:href="#mec806c7efb" x="52.11589" y="505.395458" style="stroke: #000000; stroke-width: 0.8"/>
      </g>
     </g>
     <g id="text_32">
      <!-- $\mathdefault{0.5}$ -->
      <g transform="translate(27.665308 510.238396) scale(0.14 -0.14)">
       <use xlink:href="#CMR17-30" transform="scale(0.996264)"/>
       <use xlink:href="#CMMI12-3a" transform="translate(45.690477 0) scale(0.996264)"/>
       <use xlink:href="#CMR17-35" transform="translate(72.787654 0) scale(0.996264)"/>
      </g>
     </g>
    </g>
    <g id="ytick_31">
     <g id="line2d_60">
      <g>
       <use xlink:href="#mec806c7efb" x="52.11589" y="468.665383" style="stroke: #000000; stroke-width: 0.8"/>
      </g>
     </g>
     <g id="text_33">
      <!-- $\mathdefault{1.0}$ -->
      <g transform="translate(27.665308 473.508321) scale(0.14 -0.14)">
       <use xlink:href="#CMR17-31" transform="scale(0.996264)"/>
       <use xlink:href="#CMMI12-3a" transform="translate(45.690477 0) scale(0.996264)"/>
       <use xlink:href="#CMR17-30" transform="translate(72.787654 0) scale(0.996264)"/>
      </g>
     </g>
    </g>
    <g id="ytick_32">
     <g id="line2d_61">
      <g>
       <use xlink:href="#mec806c7efb" x="52.11589" y="431.935309" style="stroke: #000000; stroke-width: 0.8"/>
      </g>
     </g>
     <g id="text_34">
      <!-- $\mathdefault{1.5}$ -->
      <g transform="translate(27.665308 436.778247) scale(0.14 -0.14)">
       <use xlink:href="#CMR17-31" transform="scale(0.996264)"/>
       <use xlink:href="#CMMI12-3a" transform="translate(45.690477 0) scale(0.996264)"/>
       <use xlink:href="#CMR17-35" transform="translate(72.787654 0) scale(0.996264)"/>
      </g>
     </g>
    </g>
    <g id="ytick_33">
     <g id="line2d_62">
      <g>
       <use xlink:href="#mec806c7efb" x="52.11589" y="395.205234" style="stroke: #000000; stroke-width: 0.8"/>
      </g>
     </g>
     <g id="text_35">
      <!-- $\mathdefault{2.0}$ -->
      <g transform="translate(27.665308 400.048172) scale(0.14 -0.14)">
       <use xlink:href="#CMR17-32" transform="scale(0.996264)"/>
       <use xlink:href="#CMMI12-3a" transform="translate(45.690477 0) scale(0.996264)"/>
       <use xlink:href="#CMR17-30" transform="translate(72.787654 0) scale(0.996264)"/>
      </g>
     </g>
    </g>
    <g id="ytick_34">
     <g id="line2d_63">
      <g>
       <use xlink:href="#mec806c7efb" x="52.11589" y="358.475159" style="stroke: #000000; stroke-width: 0.8"/>
      </g>
     </g>
     <g id="text_36">
      <!-- $\mathdefault{2.5}$ -->
      <g transform="translate(27.665308 363.318098) scale(0.14 -0.14)">
       <use xlink:href="#CMR17-32" transform="scale(0.996264)"/>
       <use xlink:href="#CMMI12-3a" transform="translate(45.690477 0) scale(0.996264)"/>
       <use xlink:href="#CMR17-35" transform="translate(72.787654 0) scale(0.996264)"/>
      </g>
     </g>
    </g>
    <g id="ytick_35">
     <g id="line2d_64">
      <g>
       <use xlink:href="#mec806c7efb" x="52.11589" y="321.745085" style="stroke: #000000; stroke-width: 0.8"/>
      </g>
     </g>
     <g id="text_37">
      <!-- $\mathdefault{3.0}$ -->
      <g transform="translate(27.665308 326.588023) scale(0.14 -0.14)">
       <use xlink:href="#CMR17-33" transform="scale(0.996264)"/>
       <use xlink:href="#CMMI12-3a" transform="translate(45.690477 0) scale(0.996264)"/>
       <use xlink:href="#CMR17-30" transform="translate(72.787654 0) scale(0.996264)"/>
      </g>
     </g>
    </g>
    <g id="text_38">
     <!-- Height (km) -->
     <g transform="translate(19.680252 473.770591) rotate(-90) scale(0.16 -0.16)">
      <use xlink:href="#CMR17-48" transform="scale(0.996264)"/>
      <use xlink:href="#CMR17-65" transform="translate(69.07243 0) scale(0.996264)"/>
      <use xlink:href="#CMR17-69" transform="translate(109.55809 0) scale(0.996264)"/>
      <use xlink:href="#CMR17-67" transform="translate(134.429149 0) scale(0.996264)"/>
      <use xlink:href="#CMR17-68" transform="translate(180.119626 0) scale(0.996264)"/>
      <use xlink:href="#CMR17-74" transform="translate(228.412542 0) scale(0.996264)"/>
      <use xlink:href="#CMR17-28" transform="translate(293.769276 0) scale(0.996264)"/>
      <use xlink:href="#CMR17-6b" transform="translate(329.050044 0) scale(0.996264)"/>
      <use xlink:href="#CMR17-6d" transform="translate(377.34296 0) scale(0.996264)"/>
      <use xlink:href="#CMR17-29" transform="translate(454.262549 0) scale(0.996264)"/>
     </g>
    </g>
   </g>
   <g id="line2d_65">
    <path d="M 61.251128 321.745085 
L 81.847226 327.621897 
L 108.43505 334.967912 
L 163.202018 350.027242 
L 179.642109 354.802152 
L 192.780339 358.84246 
L 202.827928 362.148167 
L 211.106675 365.086573 
L 217.761822 367.657678 
L 223.793808 370.228783 
L 228.416044 372.432588 
L 232.489615 374.636392 
L 235.43901 376.472896 
L 237.964801 378.3094 
L 239.671177 379.778603 
L 241.092892 381.247806 
L 242.227347 382.717009 
L 243.074334 384.186212 
L 243.636186 385.655415 
L 243.917857 387.124618 
L 243.92694 388.593821 
L 243.673591 390.063024 
L 243.170381 391.532227 
L 242.432071 393.00143 
L 241.47532 394.470632 
L 240.000068 396.307136 
L 238.250116 398.14364 
L 235.843582 400.347444 
L 232.700945 402.91855 
L 228.294291 406.224256 
L 218.483155 413.202971 
L 211.973097 417.97788 
L 207.308504 421.650888 
L 203.441587 424.956594 
L 199.922725 428.262301 
L 197.098583 431.200707 
L 194.560928 434.139113 
L 192.303575 437.077519 
L 190.315628 440.015925 
L 188.582924 442.954331 
L 187.089181 445.892737 
L 185.672518 449.198444 
L 184.510361 452.50415 
L 183.576943 455.809857 
L 182.77751 459.482864 
L 182.196422 463.155872 
L 181.772505 467.19618 
L 181.524077 471.603789 
L 181.459057 476.745999 
L 181.621352 482.990112 
L 182.058851 490.703428 
L 183.125314 504.660856 
L 184.232495 520.087487 
L 184.846783 531.841111 
L 185.198409 542.125532 
L 185.198409 542.125532 
" clip-path="url(#p9e037dc19d)" style="fill: none; stroke: #000000; stroke-width: 1.5; stroke-linecap: square"/>
   </g>
   <g id="patch_24">
    <path d="M 52.11589 553.144554 
L 52.11589 310.726063 
" style="fill: none; stroke: #000000; stroke-width: 0.8; stroke-linejoin: miter; stroke-linecap: square"/>
   </g>
   <g id="patch_25">
    <path d="M 253.091134 553.144554 
L 253.091134 310.726063 
" style="fill: none; stroke: #000000; stroke-width: 0.8; stroke-linejoin: miter; stroke-linecap: square"/>
   </g>
   <g id="patch_26">
    <path d="M 52.11589 553.144554 
L 253.091134 553.144554 
" style="fill: none; stroke: #000000; stroke-width: 0.8; stroke-linejoin: miter; stroke-linecap: square"/>
   </g>
   <g id="patch_27">
    <path d="M 52.11589 310.726063 
L 253.091134 310.726063 
" style="fill: none; stroke: #000000; stroke-width: 0.8; stroke-linejoin: miter; stroke-linecap: square"/>
   </g>
  </g>
  <g id="axes_6">
   <g id="patch_28">
    <path d="M 274.882466 553.144554 
L 475.857711 553.144554 
L 475.857711 310.726063 
L 274.882466 310.726063 
z
" style="fill: #ffffff"/>
   </g>
   <g id="matplotlib.axis_11">
    <g id="xtick_15">
     <g id="line2d_66">
      <g>
       <use xlink:href="#m3088f0a5fa" x="280.070231" y="553.144554" style="stroke: #000000; stroke-width: 0.8"/>
      </g>
     </g>
     <g id="text_39">
      <!-- $\mathdefault{0.2}$ -->
      <g transform="translate(271.34494 569.830431) scale(0.14 -0.14)">
       <use xlink:href="#CMR17-30" transform="scale(0.996264)"/>
       <use xlink:href="#CMMI12-3a" transform="translate(45.690477 0) scale(0.996264)"/>
       <use xlink:href="#CMR17-32" transform="translate(72.787654 0) scale(0.996264)"/>
      </g>
     </g>
    </g>
    <g id="xtick_16">
     <g id="line2d_67">
      <g>
       <use xlink:href="#m3088f0a5fa" x="342.441918" y="553.144554" style="stroke: #000000; stroke-width: 0.8"/>
      </g>
     </g>
     <g id="text_40">
      <!-- $\mathdefault{0.3}$ -->
      <g transform="translate(333.716627 569.830431) scale(0.14 -0.14)">
       <use xlink:href="#CMR17-30" transform="scale(0.996264)"/>
       <use xlink:href="#CMMI12-3a" transform="translate(45.690477 0) scale(0.996264)"/>
       <use xlink:href="#CMR17-33" transform="translate(72.787654 0) scale(0.996264)"/>
      </g>
     </g>
    </g>
    <g id="xtick_17">
     <g id="line2d_68">
      <g>
       <use xlink:href="#m3088f0a5fa" x="404.813604" y="553.144554" style="stroke: #000000; stroke-width: 0.8"/>
      </g>
     </g>
     <g id="text_41">
      <!-- $\mathdefault{0.4}$ -->
      <g transform="translate(396.088313 569.830431) scale(0.14 -0.14)">
       <use xlink:href="#CMR17-30" transform="scale(0.996264)"/>
       <use xlink:href="#CMMI12-3a" transform="translate(45.690477 0) scale(0.996264)"/>
       <use xlink:href="#CMR17-34" transform="translate(72.787654 0) scale(0.996264)"/>
      </g>
     </g>
    </g>
    <g id="xtick_18">
     <g id="line2d_69">
      <g>
       <use xlink:href="#m3088f0a5fa" x="467.185291" y="553.144554" style="stroke: #000000; stroke-width: 0.8"/>
      </g>
     </g>
     <g id="text_42">
      <!-- $\mathdefault{0.5}$ -->
      <g transform="translate(458.46 569.830431) scale(0.14 -0.14)">
       <use xlink:href="#CMR17-30" transform="scale(0.996264)"/>
       <use xlink:href="#CMMI12-3a" transform="translate(45.690477 0) scale(0.996264)"/>
       <use xlink:href="#CMR17-35" transform="translate(72.787654 0) scale(0.996264)"/>
      </g>
     </g>
    </g>
    <g id="text_43">
     <!-- ZDR (dB) -->
     <g transform="translate(338.379531 589.975879) scale(0.18 -0.18)">
      <use xlink:href="#CMR17-5a" transform="scale(0.996264)"/>
      <use xlink:href="#CMR17-44" transform="translate(56.100171 0) scale(0.996264)"/>
      <use xlink:href="#CMR17-52" transform="translate(126.493727 0) scale(0.996264)"/>
      <use xlink:href="#CMR17-28" transform="translate(224.360795 0) scale(0.996264)"/>
      <use xlink:href="#CMR17-64" transform="translate(259.641563 0) scale(0.996264)"/>
      <use xlink:href="#CMR17-42" transform="translate(310.536933 0) scale(0.996264)"/>
      <use xlink:href="#CMR17-29" transform="translate(375.725687 0) scale(0.996264)"/>
     </g>
    </g>
   </g>
   <g id="matplotlib.axis_12">
    <g id="ytick_36">
     <g id="line2d_70">
      <g>
       <use xlink:href="#mec806c7efb" x="274.882466" y="542.125532" style="stroke: #000000; stroke-width: 0.8"/>
      </g>
     </g>
    </g>
    <g id="ytick_37">
     <g id="line2d_71">
      <g>
       <use xlink:href="#mec806c7efb" x="274.882466" y="505.395458" style="stroke: #000000; stroke-width: 0.8"/>
      </g>
     </g>
    </g>
    <g id="ytick_38">
     <g id="line2d_72">
      <g>
       <use xlink:href="#mec806c7efb" x="274.882466" y="468.665383" style="stroke: #000000; stroke-width: 0.8"/>
      </g>
     </g>
    </g>
    <g id="ytick_39">
     <g id="line2d_73">
      <g>
       <use xlink:href="#mec806c7efb" x="274.882466" y="431.935309" style="stroke: #000000; stroke-width: 0.8"/>
      </g>
     </g>
    </g>
    <g id="ytick_40">
     <g id="line2d_74">
      <g>
       <use xlink:href="#mec806c7efb" x="274.882466" y="395.205234" style="stroke: #000000; stroke-width: 0.8"/>
      </g>
     </g>
    </g>
    <g id="ytick_41">
     <g id="line2d_75">
      <g>
       <use xlink:href="#mec806c7efb" x="274.882466" y="358.475159" style="stroke: #000000; stroke-width: 0.8"/>
      </g>
     </g>
    </g>
    <g id="ytick_42">
     <g id="line2d_76">
      <g>
       <use xlink:href="#mec806c7efb" x="274.882466" y="321.745085" style="stroke: #000000; stroke-width: 0.8"/>
      </g>
     </g>
    </g>
   </g>
   <g id="line2d_77">
    <path d="M 466.722473 321.745085 
L 444.655182 326.152694 
L 425.463185 330.193002 
L 407.338259 334.23331 
L 391.847121 337.906318 
L 377.339834 341.579325 
L 365.149997 344.885032 
L 353.798421 348.190739 
L 343.297927 351.496445 
L 334.688618 354.434851 
L 326.762451 357.373257 
L 319.521149 360.311663 
L 313.746209 362.882768 
L 308.4954 365.453874 
L 303.768657 368.024979 
L 300.13391 370.228783 
L 296.882988 372.432588 
L 294.014246 374.636392 
L 291.524834 376.840197 
L 289.410241 379.044001 
L 287.929665 380.880505 
L 286.699559 382.717009 
L 285.713254 384.553512 
L 284.962531 386.390016 
L 284.437561 388.22652 
L 284.126925 390.063024 
L 284.017705 391.899527 
L 284.132366 394.103332 
L 284.489836 396.307136 
L 285.061903 398.510941 
L 285.961867 401.082046 
L 287.240913 404.020452 
L 288.920705 407.326159 
L 291.630682 412.101068 
L 299.973548 426.425797 
L 302.414176 431.200707 
L 304.42215 435.608316 
L 306.17743 440.015925 
L 307.677435 444.423534 
L 308.929913 448.831143 
L 309.949795 453.238752 
L 310.81499 458.013661 
L 311.458644 462.788571 
L 311.965072 468.298082 
L 312.275253 474.174894 
L 312.40528 481.153608 
L 312.320787 489.601526 
L 311.958266 501.355149 
L 310.790404 535.514119 
L 310.65416 542.125532 
L 310.65416 542.125532 
" clip-path="url(#pd810cb5111)" style="fill: none; stroke: #000000; stroke-width: 1.5; stroke-linecap: square"/>
   </g>
   <g id="patch_29">
    <path d="M 274.882466 553.144554 
L 274.882466 310.726063 
" style="fill: none; stroke: #000000; stroke-width: 0.8; stroke-linejoin: miter; stroke-linecap: square"/>
   </g>
   <g id="patch_30">
    <path d="M 475.857711 553.144554 
L 475.857711 310.726063 
" style="fill: none; stroke: #000000; stroke-width: 0.8; stroke-linejoin: miter; stroke-linecap: square"/>
   </g>
   <g id="patch_31">
    <path d="M 274.882466 553.144554 
L 475.857711 553.144554 
" style="fill: none; stroke: #000000; stroke-width: 0.8; stroke-linejoin: miter; stroke-linecap: square"/>
   </g>
   <g id="patch_32">
    <path d="M 274.882466 310.726063 
L 475.857711 310.726063 
" style="fill: none; stroke: #000000; stroke-width: 0.8; stroke-linejoin: miter; stroke-linecap: square"/>
   </g>
  </g>
  <g id="axes_7">
   <g id="patch_33">
    <path d="M 497.649043 553.144554 
L 698.624288 553.144554 
L 698.624288 310.726063 
L 497.649043 310.726063 
z
" style="fill: #ffffff"/>
   </g>
   <g id="matplotlib.axis_13">
    <g id="xtick_19">
     <g id="line2d_78">
      <g>
       <use xlink:href="#m3088f0a5fa" x="499.139548" y="553.144554" style="stroke: #000000; stroke-width: 0.8"/>
      </g>
     </g>
     <g id="text_44">
      <!-- $\mathdefault{0.20}$ -->
      <g transform="translate(487.000013 569.830431) scale(0.14 -0.14)">
       <use xlink:href="#CMR17-30" transform="scale(0.996264)"/>
       <use xlink:href="#CMMI12-3a" transform="translate(45.690477 0) scale(0.996264)"/>
       <use xlink:href="#CMR17-32" transform="translate(72.787654 0) scale(0.996264)"/>
       <use xlink:href="#CMR17-30" transform="translate(118.478131 0) scale(0.996264)"/>
      </g>
     </g>
    </g>
    <g id="xtick_20">
     <g id="line2d_79">
      <g>
       <use xlink:href="#m3088f0a5fa" x="550.053685" y="553.144554" style="stroke: #000000; stroke-width: 0.8"/>
      </g>
     </g>
     <g id="text_45">
      <!-- $\mathdefault{0.25}$ -->
      <g transform="translate(537.91415 569.830431) scale(0.14 -0.14)">
       <use xlink:href="#CMR17-30" transform="scale(0.996264)"/>
       <use xlink:href="#CMMI12-3a" transform="translate(45.690477 0) scale(0.996264)"/>
       <use xlink:href="#CMR17-32" transform="translate(72.787654 0) scale(0.996264)"/>
       <use xlink:href="#CMR17-35" transform="translate(118.478131 0) scale(0.996264)"/>
      </g>
     </g>
    </g>
    <g id="xtick_21">
     <g id="line2d_80">
      <g>
       <use xlink:href="#m3088f0a5fa" x="600.967823" y="553.144554" style="stroke: #000000; stroke-width: 0.8"/>
      </g>
     </g>
     <g id="text_46">
      <!-- $\mathdefault{0.30}$ -->
      <g transform="translate(588.828287 569.830431) scale(0.14 -0.14)">
       <use xlink:href="#CMR17-30" transform="scale(0.996264)"/>
       <use xlink:href="#CMMI12-3a" transform="translate(45.690477 0) scale(0.996264)"/>
       <use xlink:href="#CMR17-33" transform="translate(72.787654 0) scale(0.996264)"/>
       <use xlink:href="#CMR17-30" transform="translate(118.478131 0) scale(0.996264)"/>
      </g>
     </g>
    </g>
    <g id="xtick_22">
     <g id="line2d_81">
      <g>
       <use xlink:href="#m3088f0a5fa" x="651.88196" y="553.144554" style="stroke: #000000; stroke-width: 0.8"/>
      </g>
     </g>
     <g id="text_47">
      <!-- $\mathdefault{0.35}$ -->
      <g transform="translate(639.742425 569.830431) scale(0.14 -0.14)">
       <use xlink:href="#CMR17-30" transform="scale(0.996264)"/>
       <use xlink:href="#CMMI12-3a" transform="translate(45.690477 0) scale(0.996264)"/>
       <use xlink:href="#CMR17-33" transform="translate(72.787654 0) scale(0.996264)"/>
       <use xlink:href="#CMR17-35" transform="translate(118.478131 0) scale(0.996264)"/>
      </g>
     </g>
    </g>
    <g id="text_48">
     <!-- Kdp (deg/km) -->
     <g transform="translate(545.749727 589.975879) scale(0.18 -0.18)">
      <defs>
       <path id="CMR17-4b" d="M 2362 2669 
L 3469 3771 
C 3699 3994 3942 4172 4301 4185 
L 4301 4352 
C 4173 4345 4013 4339 3885 4339 
C 3712 4339 3411 4339 3245 4352 
L 3245 4185 
C 3411 4172 3437 4057 3437 4013 
C 3437 3968 3411 3898 3386 3860 
L 1261 1739 
L 1261 3898 
C 1261 4185 1331 4185 1773 4185 
L 1773 4352 
C 1587 4339 1248 4339 1050 4339 
C 851 4339 512 4339 326 4352 
L 326 4185 
C 768 4185 838 4185 838 3898 
L 838 453 
C 838 166 768 166 326 166 
L 326 0 
C 512 12 851 12 1050 12 
C 1248 12 1587 12 1773 0 
L 1773 166 
C 1331 166 1261 166 1261 453 
L 1261 1580 
L 2080 2389 
L 3290 542 
C 3328 478 3373 395 3373 332 
C 3373 166 3194 166 3110 166 
L 3110 0 
C 3315 12 3610 12 3821 12 
C 3974 12 4237 12 4384 0 
L 4384 166 
C 4077 166 3981 204 3789 497 
L 2362 2669 
z
" transform="scale(0.015625)"/>
       <path id="CMR17-70" d="M 1408 -1114 
C 998 -1114 973 -1088 973 -834 
L 973 380 
C 1158 109 1427 -64 1766 -64 
C 2406 -64 3053 503 3053 1382 
C 3053 2196 2496 2816 1837 2816 
C 1453 2816 1139 2603 960 2345 
L 960 2816 
L 198 2745 
L 198 2577 
C 576 2577 634 2539 634 2228 
L 634 -834 
C 634 -1081 608 -1114 198 -1114 
L 198 -1280 
C 352 -1268 634 -1268 800 -1268 
C 966 -1268 1254 -1268 1408 -1280 
L 1408 -1114 
z
M 973 2015 
C 973 2106 973 2241 1222 2481 
C 1254 2506 1472 2700 1792 2700 
C 2259 2700 2643 2112 2643 1376 
C 2643 639 2234 38 1728 38 
C 1498 38 1248 148 1056 451 
C 973 594 973 632 973 736 
L 973 2015 
z
" transform="scale(0.015625)"/>
      </defs>
      <use xlink:href="#CMR17-4b" transform="scale(0.996264)"/>
      <use xlink:href="#CMR17-64" transform="translate(71.674777 0) scale(0.996264)"/>
      <use xlink:href="#CMR17-70" transform="translate(122.570147 0) scale(0.996264)"/>
      <use xlink:href="#CMR17-28" transform="translate(203.541483 0) scale(0.996264)"/>
      <use xlink:href="#CMR17-64" transform="translate(238.822251 0) scale(0.996264)"/>
      <use xlink:href="#CMR17-65" transform="translate(289.717621 0) scale(0.996264)"/>
      <use xlink:href="#CMR17-67" transform="translate(330.203281 0) scale(0.996264)"/>
      <use xlink:href="#CMR17-2f" transform="translate(375.893758 0) scale(0.996264)"/>
      <use xlink:href="#CMR17-6b" transform="translate(421.584236 0) scale(0.996264)"/>
      <use xlink:href="#CMR17-6d" transform="translate(469.877151 0) scale(0.996264)"/>
      <use xlink:href="#CMR17-29" transform="translate(546.796741 0) scale(0.996264)"/>
     </g>
    </g>
   </g>
   <g id="matplotlib.axis_14">
    <g id="ytick_43">
     <g id="line2d_82">
      <g>
       <use xlink:href="#mec806c7efb" x="497.649043" y="542.125532" style="stroke: #000000; stroke-width: 0.8"/>
      </g>
     </g>
    </g>
    <g id="ytick_44">
     <g id="line2d_83">
      <g>
       <use xlink:href="#mec806c7efb" x="497.649043" y="505.395458" style="stroke: #000000; stroke-width: 0.8"/>
      </g>
     </g>
    </g>
    <g id="ytick_45">
     <g id="line2d_84">
      <g>
       <use xlink:href="#mec806c7efb" x="497.649043" y="468.665383" style="stroke: #000000; stroke-width: 0.8"/>
      </g>
     </g>
    </g>
    <g id="ytick_46">
     <g id="line2d_85">
      <g>
       <use xlink:href="#mec806c7efb" x="497.649043" y="431.935309" style="stroke: #000000; stroke-width: 0.8"/>
      </g>
     </g>
    </g>
    <g id="ytick_47">
     <g id="line2d_86">
      <g>
       <use xlink:href="#mec806c7efb" x="497.649043" y="395.205234" style="stroke: #000000; stroke-width: 0.8"/>
      </g>
     </g>
    </g>
    <g id="ytick_48">
     <g id="line2d_87">
      <g>
       <use xlink:href="#mec806c7efb" x="497.649043" y="358.475159" style="stroke: #000000; stroke-width: 0.8"/>
      </g>
     </g>
    </g>
    <g id="ytick_49">
     <g id="line2d_88">
      <g>
       <use xlink:href="#mec806c7efb" x="497.649043" y="321.745085" style="stroke: #000000; stroke-width: 0.8"/>
      </g>
     </g>
    </g>
   </g>
   <g id="line2d_89">
    <path d="M 689.489049 321.745085 
L 668.723494 326.152694 
L 648.982894 330.560303 
L 630.273882 334.967912 
L 614.045866 339.00822 
L 598.725445 343.048528 
L 585.617486 346.721536 
L 573.324966 350.394543 
L 562.992389 353.70025 
L 553.38972 357.005956 
L 545.499211 359.944362 
L 538.251193 362.882768 
L 532.463364 365.453874 
L 527.21795 368.024979 
L 523.171551 370.228783 
L 519.555051 372.432588 
L 516.380796 374.636392 
L 514.080573 376.472896 
L 512.098161 378.3094 
L 510.435277 380.145903 
L 509.091147 381.982407 
L 508.062184 383.818911 
L 507.341759 385.655415 
L 506.981098 387.124618 
L 506.805252 388.593821 
L 506.83354 390.430324 
L 507.121094 392.266828 
L 507.648136 394.103332 
L 508.393045 395.939835 
L 509.542224 398.14364 
L 510.931339 400.347444 
L 512.800779 402.91855 
L 515.501992 406.224256 
L 519.42922 410.631865 
L 530.751357 423.120091 
L 534.35978 427.5277 
L 537.372126 431.568008 
L 539.840308 435.241015 
L 542.041525 438.914023 
L 543.975831 442.58703 
L 545.65016 446.260038 
L 547.07655 449.933045 
L 548.270662 453.606052 
L 549.337516 457.646361 
L 550.17119 461.686669 
L 550.846233 466.094278 
L 551.340532 470.869188 
L 551.644442 476.011398 
L 551.76304 481.88821 
L 551.673033 488.866924 
L 551.318237 498.049443 
L 549.452614 539.187126 
L 549.379197 542.125532 
L 549.379197 542.125532 
" clip-path="url(#pd5c8956be3)" style="fill: none; stroke: #000000; stroke-width: 1.5; stroke-linecap: square"/>
   </g>
   <g id="patch_34">
    <path d="M 497.649043 553.144554 
L 497.649043 310.726063 
" style="fill: none; stroke: #000000; stroke-width: 0.8; stroke-linejoin: miter; stroke-linecap: square"/>
   </g>
   <g id="patch_35">
    <path d="M 698.624288 553.144554 
L 698.624288 310.726063 
" style="fill: none; stroke: #000000; stroke-width: 0.8; stroke-linejoin: miter; stroke-linecap: square"/>
   </g>
   <g id="patch_36">
    <path d="M 497.649043 553.144554 
L 698.624288 553.144554 
" style="fill: none; stroke: #000000; stroke-width: 0.8; stroke-linejoin: miter; stroke-linecap: square"/>
   </g>
   <g id="patch_37">
    <path d="M 497.649043 310.726063 
L 698.624288 310.726063 
" style="fill: none; stroke: #000000; stroke-width: 0.8; stroke-linejoin: miter; stroke-linecap: square"/>
   </g>
  </g>
  <g id="axes_8">
   <g id="patch_38">
    <path d="M 720.41562 553.144554 
L 921.390864 553.144554 
L 921.390864 310.726063 
L 720.41562 310.726063 
z
" style="fill: #ffffff"/>
   </g>
   <g id="matplotlib.axis_15">
    <g id="xtick_23">
     <g id="line2d_90">
      <g>
       <use xlink:href="#m3088f0a5fa" x="750.033493" y="553.144554" style="stroke: #000000; stroke-width: 0.8"/>
      </g>
     </g>
     <g id="text_49">
      <!-- $\mathdefault{0.99975}$ -->
      <g transform="translate(727.651225 569.830431) scale(0.14 -0.14)">
       <defs>
        <path id="CMR17-39" d="M 2253 1871 
C 2253 448 1670 25 1190 25 
C 1043 25 685 43 538 281 
C 704 256 826 345 826 505 
C 826 678 685 736 595 736 
C 538 736 365 710 365 492 
C 365 68 742 -128 1203 -128 
C 1939 -128 2688 665 2688 2090 
C 2688 3857 1971 4224 1485 4224 
C 851 4224 243 3664 243 2800 
C 243 2000 762 1408 1414 1408 
C 1952 1408 2189 1910 2253 2122 
L 2253 1871 
z
M 1427 1510 
C 1254 1510 1011 1542 813 1929 
C 678 2181 678 2477 678 2793 
C 678 3174 678 3438 858 3722 
C 947 3857 1114 4076 1485 4076 
C 2240 4076 2240 2909 2240 2651 
C 2240 2193 2035 1510 1427 1510 
z
" transform="scale(0.015625)"/>
        <path id="CMR17-37" d="M 2886 3955 
L 2886 4096 
L 1382 4096 
C 634 4096 621 4166 595 4288 
L 480 4288 
L 294 3104 
L 410 3104 
C 429 3226 474 3552 550 3673 
C 589 3724 1062 3724 1171 3724 
L 2579 3724 
L 1869 2670 
C 1395 1961 1069 1003 1069 166 
C 1069 89 1069 -128 1299 -128 
C 1530 -128 1530 89 1530 172 
L 1530 466 
C 1530 1514 1709 2204 2003 2644 
L 2886 3955 
z
" transform="scale(0.015625)"/>
       </defs>
       <use xlink:href="#CMR17-30" transform="scale(0.996264)"/>
       <use xlink:href="#CMMI12-3a" transform="translate(45.690477 0) scale(0.996264)"/>
       <use xlink:href="#CMR17-39" transform="translate(72.787654 0) scale(0.996264)"/>
       <use xlink:href="#CMR17-39" transform="translate(118.478131 0) scale(0.996264)"/>
       <use xlink:href="#CMR17-39" transform="translate(164.168608 0) scale(0.996264)"/>
       <use xlink:href="#CMR17-37" transform="translate(209.859086 0) scale(0.996264)"/>
       <use xlink:href="#CMR17-35" transform="translate(255.549563 0) scale(0.996264)"/>
      </g>
     </g>
    </g>
    <g id="xtick_24">
     <g id="line2d_91">
      <g>
       <use xlink:href="#m3088f0a5fa" x="806.783159" y="553.144554" style="stroke: #000000; stroke-width: 0.8"/>
      </g>
     </g>
     <g id="text_50">
      <!-- $\mathdefault{0.99980}$ -->
      <g transform="translate(784.40089 569.830431) scale(0.14 -0.14)">
       <use xlink:href="#CMR17-30" transform="scale(0.996264)"/>
       <use xlink:href="#CMMI12-3a" transform="translate(45.690477 0) scale(0.996264)"/>
       <use xlink:href="#CMR17-39" transform="translate(72.787654 0) scale(0.996264)"/>
       <use xlink:href="#CMR17-39" transform="translate(118.478131 0) scale(0.996264)"/>
       <use xlink:href="#CMR17-39" transform="translate(164.168608 0) scale(0.996264)"/>
       <use xlink:href="#CMR17-38" transform="translate(209.859086 0) scale(0.996264)"/>
       <use xlink:href="#CMR17-30" transform="translate(255.549563 0) scale(0.996264)"/>
      </g>
     </g>
    </g>
    <g id="xtick_25">
     <g id="line2d_92">
      <g>
       <use xlink:href="#m3088f0a5fa" x="863.532824" y="553.144554" style="stroke: #000000; stroke-width: 0.8"/>
      </g>
     </g>
     <g id="text_51">
      <!-- $\mathdefault{0.99985}$ -->
      <g transform="translate(841.150556 569.830431) scale(0.14 -0.14)">
       <use xlink:href="#CMR17-30" transform="scale(0.996264)"/>
       <use xlink:href="#CMMI12-3a" transform="translate(45.690477 0) scale(0.996264)"/>
       <use xlink:href="#CMR17-39" transform="translate(72.787654 0) scale(0.996264)"/>
       <use xlink:href="#CMR17-39" transform="translate(118.478131 0) scale(0.996264)"/>
       <use xlink:href="#CMR17-39" transform="translate(164.168608 0) scale(0.996264)"/>
       <use xlink:href="#CMR17-38" transform="translate(209.859086 0) scale(0.996264)"/>
       <use xlink:href="#CMR17-35" transform="translate(255.549563 0) scale(0.996264)"/>
      </g>
     </g>
    </g>
    <g id="xtick_26">
     <g id="line2d_93">
      <g>
       <use xlink:href="#m3088f0a5fa" x="920.28249" y="553.144554" style="stroke: #000000; stroke-width: 0.8"/>
      </g>
     </g>
     <g id="text_52">
      <!-- $\mathdefault{0.99990}$ -->
      <g transform="translate(897.900222 569.830431) scale(0.14 -0.14)">
       <use xlink:href="#CMR17-30" transform="scale(0.996264)"/>
       <use xlink:href="#CMMI12-3a" transform="translate(45.690477 0) scale(0.996264)"/>
       <use xlink:href="#CMR17-39" transform="translate(72.787654 0) scale(0.996264)"/>
       <use xlink:href="#CMR17-39" transform="translate(118.478131 0) scale(0.996264)"/>
       <use xlink:href="#CMR17-39" transform="translate(164.168608 0) scale(0.996264)"/>
       <use xlink:href="#CMR17-39" transform="translate(209.859086 0) scale(0.996264)"/>
       <use xlink:href="#CMR17-30" transform="translate(255.549563 0) scale(0.996264)"/>
      </g>
     </g>
    </g>
    <g id="text_53">
     <!-- $\rho_{\mathrm{hv}}$ -->
     <g transform="translate(805.573119 594.530561) scale(0.26 -0.26)">
      <defs>
       <path id="CMMI12-1a" d="M 198 -1085 
C 192 -1116 179 -1154 179 -1191 
C 179 -1287 256 -1351 352 -1351 
C 448 -1351 538 -1287 576 -1198 
C 602 -1141 781 -390 986 389 
C 1114 70 1350 -64 1600 -64 
C 2323 -64 3142 830 3142 1794 
C 3142 2477 2726 2816 2285 2816 
C 1722 2816 1037 2234 826 1385 
L 198 -1085 
z
M 1594 64 
C 1158 64 1050 568 1050 645 
C 1050 683 1210 1289 1229 1385 
C 1555 2656 2182 2687 2278 2687 
C 2566 2687 2726 2426 2726 2049 
C 2726 1724 2554 1091 2445 823 
C 2253 383 1920 64 1594 64 
z
" transform="scale(0.015625)"/>
       <path id="CMR17-76" d="M 2502 2173 
C 2560 2315 2662 2572 3034 2585 
L 3034 2752 
C 2912 2745 2752 2739 2630 2739 
C 2496 2739 2285 2739 2157 2752 
L 2157 2585 
C 2317 2572 2406 2495 2406 2328 
C 2406 2270 2406 2257 2368 2167 
L 1664 379 
L 902 2308 
C 864 2392 864 2405 864 2431 
C 864 2585 1075 2585 1171 2585 
L 1171 2752 
C 1018 2739 736 2739 576 2739 
C 403 2739 205 2739 64 2752 
L 64 2585 
C 307 2585 442 2585 518 2386 
L 1446 44 
C 1485 -52 1491 -64 1549 -64 
C 1606 -64 1613 -52 1651 44 
L 2502 2173 
z
" transform="scale(0.015625)"/>
      </defs>
      <use xlink:href="#CMMI12-1a" transform="scale(0.996264)"/>
      <use xlink:href="#CMR17-68" transform="translate(50.314373 -14.943915) scale(0.697382)"/>
      <use xlink:href="#CMR17-76" transform="translate(84.11926 -14.943915) scale(0.697382)"/>
     </g>
    </g>
   </g>
   <g id="matplotlib.axis_16">
    <g id="ytick_50">
     <g id="line2d_94">
      <g>
       <use xlink:href="#mec806c7efb" x="720.41562" y="542.125532" style="stroke: #000000; stroke-width: 0.8"/>
      </g>
     </g>
    </g>
    <g id="ytick_51">
     <g id="line2d_95">
      <g>
       <use xlink:href="#mec806c7efb" x="720.41562" y="505.395458" style="stroke: #000000; stroke-width: 0.8"/>
      </g>
     </g>
    </g>
    <g id="ytick_52">
     <g id="line2d_96">
      <g>
       <use xlink:href="#mec806c7efb" x="720.41562" y="468.665383" style="stroke: #000000; stroke-width: 0.8"/>
      </g>
     </g>
    </g>
    <g id="ytick_53">
     <g id="line2d_97">
      <g>
       <use xlink:href="#mec806c7efb" x="720.41562" y="431.935309" style="stroke: #000000; stroke-width: 0.8"/>
      </g>
     </g>
    </g>
    <g id="ytick_54">
     <g id="line2d_98">
      <g>
       <use xlink:href="#mec806c7efb" x="720.41562" y="395.205234" style="stroke: #000000; stroke-width: 0.8"/>
      </g>
     </g>
    </g>
    <g id="ytick_55">
     <g id="line2d_99">
      <g>
       <use xlink:href="#mec806c7efb" x="720.41562" y="358.475159" style="stroke: #000000; stroke-width: 0.8"/>
      </g>
     </g>
    </g>
    <g id="ytick_56">
     <g id="line2d_100">
      <g>
       <use xlink:href="#mec806c7efb" x="720.41562" y="321.745085" style="stroke: #000000; stroke-width: 0.8"/>
      </g>
     </g>
    </g>
   </g>
   <g id="line2d_101">
    <path d="M 729.550858 321.745085 
L 735.62255 323.948889 
L 743.468124 326.519995 
L 753.257244 329.458401 
L 765.121713 332.764107 
L 780.494245 336.804415 
L 840.123841 352.231047 
L 852.926114 355.904054 
L 863.593167 359.209761 
L 872.300866 362.148167 
L 879.270041 364.719272 
L 885.598831 367.290377 
L 890.495582 369.494182 
L 894.893606 371.697986 
L 898.786124 373.901791 
L 902.170212 376.105595 
L 904.60252 377.942099 
L 906.685152 379.778603 
L 908.422923 381.615106 
L 909.82276 383.45161 
L 910.893736 385.288114 
L 911.521195 386.757317 
L 911.952001 388.22652 
L 912.193633 389.695723 
L 912.242218 391.532227 
L 912.025518 393.36873 
L 911.562231 395.205234 
L 910.871995 397.041738 
L 909.772651 399.245542 
L 908.411069 401.449347 
L 906.538113 404.020452 
L 904.089217 406.958858 
L 901.033661 410.264565 
L 896.635092 414.672173 
L 882.065607 428.996903 
L 878.373701 433.037211 
L 875.29731 436.710218 
L 872.518473 440.383226 
L 870.285398 443.688932 
L 868.309896 446.994639 
L 866.588913 450.300346 
L 865.114124 453.606052 
L 863.873107 456.911759 
L 862.850429 460.217466 
L 861.948887 463.890473 
L 861.269588 467.563481 
L 860.747525 471.603789 
L 860.407345 476.011398 
L 860.260123 480.786308 
L 860.311748 486.295819 
L 860.615475 493.274533 
L 861.298206 503.191653 
L 862.985414 526.698901 
L 863.539513 538.085224 
L 863.683777 542.125532 
L 863.683777 542.125532 
" clip-path="url(#p1bd4bb6458)" style="fill: none; stroke: #000000; stroke-width: 1.5; stroke-linecap: square"/>
   </g>
   <g id="patch_39">
    <path d="M 720.41562 553.144554 
L 720.41562 310.726063 
" style="fill: none; stroke: #000000; stroke-width: 0.8; stroke-linejoin: miter; stroke-linecap: square"/>
   </g>
   <g id="patch_40">
    <path d="M 921.390864 553.144554 
L 921.390864 310.726063 
" style="fill: none; stroke: #000000; stroke-width: 0.8; stroke-linejoin: miter; stroke-linecap: square"/>
   </g>
   <g id="patch_41">
    <path d="M 720.41562 553.144554 
L 921.390864 553.144554 
" style="fill: none; stroke: #000000; stroke-width: 0.8; stroke-linejoin: miter; stroke-linecap: square"/>
   </g>
   <g id="patch_42">
    <path d="M 720.41562 310.726063 
L 921.390864 310.726063 
" style="fill: none; stroke: #000000; stroke-width: 0.8; stroke-linejoin: miter; stroke-linecap: square"/>
   </g>
  </g>
 </g>
 <defs>
  <clipPath id="p91e091e2ae">
   <rect x="52.11589" y="11.5155" width="200.975245" height="242.418492"/>
  </clipPath>
  <clipPath id="pcba8108191">
   <rect x="274.882466" y="11.5155" width="200.975245" height="242.418492"/>
  </clipPath>
  <clipPath id="p4d9d809de6">
   <rect x="497.649043" y="11.5155" width="200.975245" height="242.418492"/>
  </clipPath>
  <clipPath id="p039c15f429">
   <rect x="720.41562" y="11.5155" width="200.975245" height="242.418492"/>
  </clipPath>
  <clipPath id="p9e037dc19d">
   <rect x="52.11589" y="310.726063" width="200.975245" height="242.418492"/>
  </clipPath>
  <clipPath id="pd810cb5111">
   <rect x="274.882466" y="310.726063" width="200.975245" height="242.418492"/>
  </clipPath>
  <clipPath id="pd5c8956be3">
   <rect x="497.649043" y="310.726063" width="200.975245" height="242.418492"/>
  </clipPath>
  <clipPath id="p1bd4bb6458">
   <rect x="720.41562" y="310.726063" width="200.975245" height="242.418492"/>
  </clipPath>
 </defs>
</svg>
