<?xml version="1.0" encoding="utf-8" standalone="no"?>
<!DOCTYPE svg PUBLIC "-//W3C//DTD SVG 1.1//EN"
  "http://www.w3.org/Graphics/SVG/1.1/DTD/svg11.dtd">
<svg xmlns:xlink="http://www.w3.org/1999/xlink" width="1008pt" height="576pt" viewBox="0 0 1008 576" xmlns="http://www.w3.org/2000/svg" version="1.1">
 <metadata>
  <rdf:RDF xmlns:dc="http://purl.org/dc/elements/1.1/" xmlns:cc="http://creativecommons.org/ns#" xmlns:rdf="http://www.w3.org/1999/02/22-rdf-syntax-ns#">
   <cc:Work>
    <dc:type rdf:resource="http://purl.org/dc/dcmitype/StillImage"/>
    <dc:date>2026-04-06T13:31:16.093740</dc:date>
    <dc:format>image/svg+xml</dc:format>
    <dc:creator>
     <cc:Agent>
      <dc:title>Matplotlib v3.10.3, https://matplotlib.org/</dc:title>
     </cc:Agent>
    </dc:creator>
   </cc:Work>
  </rdf:RDF>
 </metadata>
 <defs>
  <style type="text/css">*{stroke-linejoin: round; stroke-linecap: butt}</style>
 </defs>
 <g id="figure_1">
  <g id="patch_1">
   <path d="M 0 576 
L 1008 576 
L 1008 0 
L 0 0 
z
" style="fill: #ffffff"/>
  </g>
  <g id="axes_1">
   <g id="patch_2">
    <path d="M 55.190806 238.156147 
L 273.558049 238.156147 
L 273.558049 10.8 
L 55.190806 10.8 
z
" style="fill: #ffffff"/>
   </g>
   <g id="matplotlib.axis_1">
    <g id="xtick_1">
     <g id="line2d_1">
      <defs>
       <path id="mc1f376e287" d="M 0 0 
L 0 3.5 
" style="stroke: #000000; stroke-width: 0.8"/>
      </defs>
      <g>
       <use xlink:href="#mc1f376e287" x="103.917381" y="238.156147" style="stroke: #000000; stroke-width: 0.8"/>
      </g>
     </g>
     <g id="text_1">
      <!-- $\mathdefault{8}$ -->
      <g transform="translate(100.503137 254.842024) scale(0.14 -0.14)">
       <defs>
        <path id="CMR17-38" d="M 1741 2289 
C 2144 2494 2554 2803 2554 3298 
C 2554 3884 1990 4224 1472 4224 
C 890 4224 378 3800 378 3215 
C 378 3054 416 2777 666 2533 
C 730 2469 998 2276 1171 2154 
C 883 2006 211 1652 211 945 
C 211 282 838 -128 1459 -128 
C 2144 -128 2720 366 2720 1022 
C 2720 1607 2330 1877 2074 2051 
L 1741 2289 
z
M 902 2855 
C 851 2887 595 3086 595 3388 
C 595 3781 998 4076 1459 4076 
C 1965 4076 2336 3716 2336 3298 
C 2336 2700 1670 2359 1638 2359 
C 1632 2359 1626 2359 1574 2398 
L 902 2855 
z
M 2080 1536 
C 2176 1466 2483 1253 2483 861 
C 2483 385 2010 25 1472 25 
C 890 25 448 443 448 951 
C 448 1459 838 1884 1280 2083 
L 2080 1536 
z
" transform="scale(0.015625)"/>
       </defs>
       <use xlink:href="#CMR17-38" transform="scale(0.996264)"/>
      </g>
     </g>
    </g>
    <g id="xtick_2">
     <g id="line2d_2">
      <g>
       <use xlink:href="#mc1f376e287" x="156.840566" y="238.156147" style="stroke: #000000; stroke-width: 0.8"/>
      </g>
     </g>
     <g id="text_2">
      <!-- $\mathdefault{10}$ -->
      <g transform="translate(150.012078 254.842024) scale(0.14 -0.14)">
       <defs>
        <path id="CMR17-31" d="M 1702 4083 
C 1702 4217 1696 4224 1606 4224 
C 1357 3927 979 3833 621 3820 
C 602 3820 570 3820 563 3808 
C 557 3795 557 3782 557 3648 
C 755 3648 1088 3686 1344 3839 
L 1344 467 
C 1344 243 1331 166 781 166 
L 589 166 
L 589 0 
C 896 6 1216 12 1523 12 
C 1830 12 2150 6 2458 0 
L 2458 166 
L 2266 166 
C 1715 166 1702 236 1702 467 
L 1702 4083 
z
" transform="scale(0.015625)"/>
        <path id="CMR17-30" d="M 2688 2038 
C 2688 2430 2682 3099 2413 3613 
C 2176 4063 1798 4224 1466 4224 
C 1158 4224 768 4082 525 3620 
C 269 3137 243 2539 243 2038 
C 243 1671 250 1112 448 623 
C 723 -39 1216 -128 1466 -128 
C 1760 -128 2208 -7 2470 604 
C 2662 1048 2688 1568 2688 2038 
z
M 1466 -26 
C 1056 -26 813 328 723 816 
C 653 1196 653 1749 653 2109 
C 653 2604 653 3015 736 3407 
C 858 3954 1216 4121 1466 4121 
C 1728 4121 2067 3947 2189 3420 
C 2272 3054 2278 2623 2278 2109 
C 2278 1691 2278 1176 2202 797 
C 2067 96 1690 -26 1466 -26 
z
" transform="scale(0.015625)"/>
       </defs>
       <use xlink:href="#CMR17-31" transform="scale(0.996264)"/>
       <use xlink:href="#CMR17-30" transform="translate(45.690477 0) scale(0.996264)"/>
      </g>
     </g>
    </g>
    <g id="xtick_3">
     <g id="line2d_3">
      <g>
       <use xlink:href="#mc1f376e287" x="209.763752" y="238.156147" style="stroke: #000000; stroke-width: 0.8"/>
      </g>
     </g>
     <g id="text_3">
      <!-- $\mathdefault{12}$ -->
      <g transform="translate(202.935263 254.842024) scale(0.14 -0.14)">
       <defs>
        <path id="CMR17-32" d="M 2669 990 
L 2554 990 
C 2490 537 2438 460 2413 422 
C 2381 371 1920 371 1830 371 
L 602 371 
C 832 620 1280 1073 1824 1596 
C 2214 1966 2669 2400 2669 3033 
C 2669 3788 2067 4224 1395 4224 
C 691 4224 262 3603 262 3027 
C 262 2777 448 2745 525 2745 
C 589 2745 781 2783 781 3007 
C 781 3206 614 3264 525 3264 
C 486 3264 448 3257 422 3244 
C 544 3788 915 4057 1306 4057 
C 1862 4057 2227 3616 2227 3033 
C 2227 2477 1901 1998 1536 1583 
L 262 147 
L 262 0 
L 2515 0 
L 2669 990 
z
" transform="scale(0.015625)"/>
       </defs>
       <use xlink:href="#CMR17-31" transform="scale(0.996264)"/>
       <use xlink:href="#CMR17-32" transform="translate(45.690477 0) scale(0.996264)"/>
      </g>
     </g>
    </g>
    <g id="xtick_4">
     <g id="line2d_4">
      <g>
       <use xlink:href="#mc1f376e287" x="262.686938" y="238.156147" style="stroke: #000000; stroke-width: 0.8"/>
      </g>
     </g>
     <g id="text_4">
      <!-- $\mathdefault{14}$ -->
      <g transform="translate(255.858449 254.842024) scale(0.14 -0.14)">
       <defs>
        <path id="CMR17-34" d="M 2150 4147 
C 2150 4281 2144 4288 2029 4288 
L 128 1254 
L 128 1088 
L 1779 1088 
L 1779 460 
C 1779 230 1766 166 1318 166 
L 1197 166 
L 1197 0 
C 1402 12 1747 12 1965 12 
C 2182 12 2528 12 2733 0 
L 2733 166 
L 2611 166 
C 2163 166 2150 230 2150 460 
L 2150 1088 
L 2803 1088 
L 2803 1254 
L 2150 1254 
L 2150 4147 
z
M 1798 3723 
L 1798 1254 
L 256 1254 
L 1798 3723 
z
" transform="scale(0.015625)"/>
       </defs>
       <use xlink:href="#CMR17-31" transform="scale(0.996264)"/>
       <use xlink:href="#CMR17-34" transform="translate(45.690477 0) scale(0.996264)"/>
      </g>
     </g>
    </g>
    <g id="text_5">
     <!-- Nt (1/L) -->
     <g transform="translate(132.536666 274.987472) scale(0.18 -0.18)">
      <defs>
       <path id="CMR17-4e" d="M 1312 4275 
C 1267 4345 1261 4352 1139 4352 
L 326 4352 
L 326 4185 
L 448 4185 
C 704 4185 819 4153 838 4147 
L 838 624 
C 838 465 838 166 326 166 
L 326 0 
C 474 12 742 12 902 12 
C 1062 12 1331 12 1478 0 
L 1478 166 
C 966 166 966 465 966 624 
L 966 4057 
C 1011 4019 1011 4007 1056 3943 
L 3430 76 
C 3475 0 3494 0 3526 0 
C 3590 0 3590 19 3590 140 
L 3590 3726 
C 3590 3885 3590 4185 4102 4185 
L 4102 4352 
C 3955 4339 3686 4339 3526 4339 
C 3366 4339 3098 4339 2950 4352 
L 2950 4185 
C 3462 4185 3462 3885 3462 3726 
L 3462 777 
L 1312 4275 
z
" transform="scale(0.015625)"/>
       <path id="CMR17-74" d="M 966 2585 
L 1862 2585 
L 1862 2752 
L 966 2752 
L 966 3968 
L 851 3968 
C 838 3292 614 2700 70 2687 
L 70 2585 
L 627 2585 
L 627 778 
C 627 655 627 -64 1370 -64 
C 1747 -64 1965 308 1965 784 
L 1965 1151 
L 1850 1151 
L 1850 790 
C 1850 347 1677 51 1408 51 
C 1222 51 966 179 966 765 
L 966 2585 
z
" transform="scale(0.015625)"/>
       <path id="CMR17-28" d="M 1958 -1562 
C 1958 -1556 1958 -1543 1939 -1524 
C 1645 -1223 858 -403 858 1596 
C 858 3595 1632 4408 1946 4729 
C 1946 4735 1958 4748 1958 4767 
C 1958 4787 1939 4800 1914 4800 
C 1843 4800 1299 4325 986 3620 
C 666 2909 576 2218 576 1603 
C 576 1141 621 360 1005 -467 
C 1312 -1133 1837 -1600 1914 -1600 
C 1946 -1600 1958 -1588 1958 -1562 
z
" transform="scale(0.015625)"/>
       <path id="CMR17-2f" d="M 2605 4575 
C 2637 4658 2637 4671 2637 4684 
C 2637 4761 2579 4800 2528 4800 
C 2451 4800 2426 4748 2400 4671 
L 326 -1376 
C 294 -1460 294 -1472 294 -1485 
C 294 -1562 352 -1600 403 -1600 
C 480 -1600 506 -1549 531 -1472 
L 2605 4575 
z
" transform="scale(0.015625)"/>
       <path id="CMR17-4c" d="M 3469 1612 
L 3354 1612 
C 3302 981 3219 166 2125 166 
L 1530 166 
C 1274 166 1261 198 1261 414 
L 1261 3892 
C 1261 4121 1274 4185 1760 4185 
L 1901 4185 
L 1901 4352 
C 1638 4339 1331 4339 1069 4339 
C 870 4339 512 4339 326 4352 
L 326 4185 
C 768 4185 838 4185 838 3898 
L 838 453 
C 838 166 768 166 326 166 
L 326 0 
L 3315 0 
L 3469 1612 
z
" transform="scale(0.015625)"/>
       <path id="CMR17-29" d="M 1683 1596 
C 1683 2057 1638 2839 1254 3665 
C 947 4332 422 4800 346 4800 
C 326 4800 301 4793 301 4761 
C 301 4748 307 4742 314 4729 
C 621 4408 1402 3595 1402 1603 
C 1402 -396 627 -1210 314 -1530 
C 307 -1543 301 -1549 301 -1562 
C 301 -1594 326 -1600 346 -1600 
C 416 -1600 960 -1127 1274 -422 
C 1594 289 1683 981 1683 1596 
z
" transform="scale(0.015625)"/>
      </defs>
      <use xlink:href="#CMR17-4e" transform="scale(0.996264)"/>
      <use xlink:href="#CMR17-74" transform="translate(69.07243 0) scale(0.996264)"/>
      <use xlink:href="#CMR17-28" transform="translate(134.429164 0) scale(0.996264)"/>
      <use xlink:href="#CMR17-31" transform="translate(169.709932 0) scale(0.996264)"/>
      <use xlink:href="#CMR17-2f" transform="translate(215.400409 0) scale(0.996264)"/>
      <use xlink:href="#CMR17-4c" transform="translate(261.090886 0) scale(0.996264)"/>
      <use xlink:href="#CMR17-29" transform="translate(318.472294 0) scale(0.996264)"/>
     </g>
    </g>
   </g>
   <g id="matplotlib.axis_2">
    <g id="ytick_1">
     <g id="line2d_5">
      <defs>
       <path id="ma10f56a21a" d="M 0 0 
L -3.5 0 
" style="stroke: #000000; stroke-width: 0.8"/>
      </defs>
      <g>
       <use xlink:href="#ma10f56a21a" x="55.190806" y="227.821777" style="stroke: #000000; stroke-width: 0.8"/>
      </g>
     </g>
     <g id="text_6">
      <!-- $\mathdefault{0.0}$ -->
      <g transform="translate(30.740224 232.664715) scale(0.14 -0.14)">
       <defs>
        <path id="CMMI12-3a" d="M 1178 307 
C 1178 492 1024 620 870 620 
C 685 620 557 467 557 313 
C 557 128 710 0 864 0 
C 1050 0 1178 153 1178 307 
z
" transform="scale(0.015625)"/>
       </defs>
       <use xlink:href="#CMR17-30" transform="scale(0.996264)"/>
       <use xlink:href="#CMMI12-3a" transform="translate(45.690477 0) scale(0.996264)"/>
       <use xlink:href="#CMR17-30" transform="translate(72.787654 0) scale(0.996264)"/>
      </g>
     </g>
    </g>
    <g id="ytick_2">
     <g id="line2d_6">
      <g>
       <use xlink:href="#ma10f56a21a" x="55.190806" y="193.373876" style="stroke: #000000; stroke-width: 0.8"/>
      </g>
     </g>
     <g id="text_7">
      <!-- $\mathdefault{0.5}$ -->
      <g transform="translate(30.740224 198.216814) scale(0.14 -0.14)">
       <defs>
        <path id="CMR17-35" d="M 730 3750 
C 794 3724 1056 3641 1325 3641 
C 1920 3641 2246 3961 2432 4140 
C 2432 4191 2432 4224 2394 4224 
C 2387 4224 2374 4224 2323 4198 
C 2099 4102 1837 4032 1517 4032 
C 1325 4032 1037 4055 723 4191 
C 653 4224 640 4224 634 4224 
C 602 4224 595 4217 595 4090 
L 595 2231 
C 595 2113 595 2080 659 2080 
C 691 2080 704 2093 736 2139 
C 941 2435 1222 2560 1542 2560 
C 1766 2560 2246 2415 2246 1293 
C 2246 1087 2246 716 2054 422 
C 1894 159 1645 25 1370 25 
C 947 25 518 319 403 812 
C 429 806 480 793 506 793 
C 589 793 749 838 749 1036 
C 749 1209 627 1280 506 1280 
C 358 1280 262 1190 262 1011 
C 262 454 704 -128 1382 -128 
C 2042 -128 2669 441 2669 1267 
C 2669 2054 2170 2662 1549 2662 
C 1222 2662 947 2540 730 2304 
L 730 3750 
z
" transform="scale(0.015625)"/>
       </defs>
       <use xlink:href="#CMR17-30" transform="scale(0.996264)"/>
       <use xlink:href="#CMMI12-3a" transform="translate(45.690477 0) scale(0.996264)"/>
       <use xlink:href="#CMR17-35" transform="translate(72.787654 0) scale(0.996264)"/>
      </g>
     </g>
    </g>
    <g id="ytick_3">
     <g id="line2d_7">
      <g>
       <use xlink:href="#ma10f56a21a" x="55.190806" y="158.925975" style="stroke: #000000; stroke-width: 0.8"/>
      </g>
     </g>
     <g id="text_8">
      <!-- $\mathdefault{1.0}$ -->
      <g transform="translate(30.740224 163.768913) scale(0.14 -0.14)">
       <use xlink:href="#CMR17-31" transform="scale(0.996264)"/>
       <use xlink:href="#CMMI12-3a" transform="translate(45.690477 0) scale(0.996264)"/>
       <use xlink:href="#CMR17-30" transform="translate(72.787654 0) scale(0.996264)"/>
      </g>
     </g>
    </g>
    <g id="ytick_4">
     <g id="line2d_8">
      <g>
       <use xlink:href="#ma10f56a21a" x="55.190806" y="124.478074" style="stroke: #000000; stroke-width: 0.8"/>
      </g>
     </g>
     <g id="text_9">
      <!-- $\mathdefault{1.5}$ -->
      <g transform="translate(30.740224 129.321012) scale(0.14 -0.14)">
       <use xlink:href="#CMR17-31" transform="scale(0.996264)"/>
       <use xlink:href="#CMMI12-3a" transform="translate(45.690477 0) scale(0.996264)"/>
       <use xlink:href="#CMR17-35" transform="translate(72.787654 0) scale(0.996264)"/>
      </g>
     </g>
    </g>
    <g id="ytick_5">
     <g id="line2d_9">
      <g>
       <use xlink:href="#ma10f56a21a" x="55.190806" y="90.030173" style="stroke: #000000; stroke-width: 0.8"/>
      </g>
     </g>
     <g id="text_10">
      <!-- $\mathdefault{2.0}$ -->
      <g transform="translate(30.740224 94.873111) scale(0.14 -0.14)">
       <use xlink:href="#CMR17-32" transform="scale(0.996264)"/>
       <use xlink:href="#CMMI12-3a" transform="translate(45.690477 0) scale(0.996264)"/>
       <use xlink:href="#CMR17-30" transform="translate(72.787654 0) scale(0.996264)"/>
      </g>
     </g>
    </g>
    <g id="ytick_6">
     <g id="line2d_10">
      <g>
       <use xlink:href="#ma10f56a21a" x="55.190806" y="55.582271" style="stroke: #000000; stroke-width: 0.8"/>
      </g>
     </g>
     <g id="text_11">
      <!-- $\mathdefault{2.5}$ -->
      <g transform="translate(30.740224 60.42521) scale(0.14 -0.14)">
       <use xlink:href="#CMR17-32" transform="scale(0.996264)"/>
       <use xlink:href="#CMMI12-3a" transform="translate(45.690477 0) scale(0.996264)"/>
       <use xlink:href="#CMR17-35" transform="translate(72.787654 0) scale(0.996264)"/>
      </g>
     </g>
    </g>
    <g id="ytick_7">
     <g id="line2d_11">
      <g>
       <use xlink:href="#ma10f56a21a" x="55.190806" y="21.13437" style="stroke: #000000; stroke-width: 0.8"/>
      </g>
     </g>
     <g id="text_12">
      <!-- $\mathdefault{3.0}$ -->
      <g transform="translate(30.740224 25.977309) scale(0.14 -0.14)">
       <defs>
        <path id="CMR17-33" d="M 1414 2176 
C 1984 2176 2234 1673 2234 1094 
C 2234 322 1824 25 1453 25 
C 1114 25 563 193 390 691 
C 422 678 454 678 486 678 
C 640 678 755 780 755 947 
C 755 1132 614 1216 486 1216 
C 378 1216 211 1164 211 927 
C 211 335 787 -128 1466 -128 
C 2176 -128 2720 432 2720 1087 
C 2720 1718 2208 2176 1600 2246 
C 2086 2347 2554 2776 2554 3353 
C 2554 3856 2048 4224 1472 4224 
C 890 4224 378 3862 378 3347 
C 378 3123 544 3084 627 3084 
C 762 3084 877 3167 877 3334 
C 877 3500 762 3584 627 3584 
C 602 3584 570 3584 544 3571 
C 730 3999 1235 4076 1459 4076 
C 1683 4076 2106 3966 2106 3347 
C 2106 3167 2080 2851 1862 2574 
C 1670 2329 1453 2316 1242 2297 
C 1210 2297 1062 2284 1037 2284 
C 992 2278 966 2272 966 2227 
C 966 2182 973 2176 1101 2176 
L 1414 2176 
z
" transform="scale(0.015625)"/>
       </defs>
       <use xlink:href="#CMR17-33" transform="scale(0.996264)"/>
       <use xlink:href="#CMMI12-3a" transform="translate(45.690477 0) scale(0.996264)"/>
       <use xlink:href="#CMR17-30" transform="translate(72.787654 0) scale(0.996264)"/>
      </g>
     </g>
    </g>
    <g id="text_13">
     <!-- Height (km) -->
     <g transform="translate(22.755168 166.313356) rotate(-90) scale(0.16 -0.16)">
      <defs>
       <path id="CMR17-48" d="M 3590 3898 
C 3590 4185 3661 4185 4102 4185 
L 4102 4352 
C 3917 4339 3578 4339 3379 4339 
C 3181 4339 2842 4339 2656 4352 
L 2656 4185 
C 3098 4185 3168 4185 3168 3898 
L 3168 2342 
L 1261 2342 
L 1261 3898 
C 1261 4185 1331 4185 1773 4185 
L 1773 4352 
C 1587 4339 1248 4339 1050 4339 
C 851 4339 512 4339 326 4352 
L 326 4185 
C 768 4185 838 4185 838 3898 
L 838 452 
C 838 166 768 166 326 166 
L 326 0 
C 512 12 851 12 1050 12 
C 1248 12 1587 12 1773 0 
L 1773 166 
C 1331 166 1261 166 1261 452 
L 1261 2176 
L 3168 2176 
L 3168 452 
C 3168 166 3098 166 2656 166 
L 2656 0 
C 2842 12 3181 12 3379 12 
C 3578 12 3917 12 4102 0 
L 4102 166 
C 3661 166 3590 166 3590 452 
L 3590 3898 
z
" transform="scale(0.015625)"/>
       <path id="CMR17-65" d="M 2438 1503 
C 2464 1529 2464 1542 2464 1606 
C 2464 2251 2118 2816 1389 2816 
C 710 2816 173 2175 173 1394 
C 173 554 781 -64 1459 -64 
C 2176 -64 2458 619 2458 755 
C 2458 800 2419 800 2406 800 
C 2362 800 2355 787 2330 709 
C 2189 270 1837 51 1504 51 
C 1229 51 954 206 781 490 
C 582 819 582 1200 582 1503 
L 2438 1503 
z
M 589 1600 
C 634 2511 1126 2713 1382 2713 
C 1818 2713 2112 2308 2118 1600 
L 589 1600 
z
" transform="scale(0.015625)"/>
       <path id="CMR17-69" d="M 992 3961 
C 992 4102 877 4224 730 4224 
C 589 4224 467 4108 467 3961 
C 467 3820 582 3699 730 3699 
C 870 3699 992 3814 992 3961 
z
M 243 2745 
L 243 2579 
C 602 2579 653 2540 653 2231 
L 653 443 
C 653 198 627 166 218 166 
L 218 0 
C 371 12 646 12 806 12 
C 960 12 1222 12 1370 0 
L 1370 166 
C 992 166 979 205 979 436 
L 979 2816 
L 243 2745 
z
" transform="scale(0.015625)"/>
       <path id="CMR17-67" d="M 710 1165 
C 832 1068 1043 960 1299 960 
C 1805 960 2240 1359 2240 1895 
C 2240 2063 2189 2321 1997 2521 
C 2176 2713 2438 2777 2586 2777 
C 2611 2777 2650 2777 2682 2758 
C 2656 2751 2598 2726 2598 2623 
C 2598 2540 2656 2483 2739 2483 
C 2835 2483 2886 2547 2886 2630 
C 2886 2751 2790 2880 2586 2880 
C 2330 2880 2106 2758 1926 2591 
C 1734 2764 1504 2828 1299 2828 
C 794 2828 358 2431 358 1895 
C 358 1527 570 1294 634 1230 
C 442 1004 442 742 442 710 
C 442 544 506 300 723 166 
C 390 82 128 -184 128 -517 
C 128 -996 736 -1344 1466 -1344 
C 2170 -1344 2803 -1009 2803 -510 
C 2803 384 1856 384 1363 384 
C 1216 384 954 384 922 390 
C 723 422 589 601 589 825 
C 589 883 589 1024 710 1165 
z
M 1299 1068 
C 736 1068 736 1766 736 1895 
C 736 2024 736 2719 1299 2719 
C 1862 2719 1862 2024 1862 1895 
C 1862 1766 1862 1068 1299 1068 
z
M 1466 -1236 
C 826 -1236 384 -883 384 -517 
C 384 -311 493 -118 634 -11 
C 794 102 858 102 1293 102 
C 1818 102 2547 102 2547 -517 
C 2547 -883 2106 -1236 1466 -1236 
z
" transform="scale(0.015625)"/>
       <path id="CMR17-68" d="M 2656 1954 
C 2656 2282 2592 2816 1837 2816 
C 1312 2816 1056 2392 979 2179 
L 973 2179 
L 973 4416 
L 211 4345 
L 211 4179 
C 589 4179 646 4141 646 3843 
L 646 443 
C 646 198 621 166 211 166 
L 211 0 
C 365 12 646 12 813 12 
C 979 12 1267 12 1421 0 
L 1421 166 
C 1011 166 986 192 986 443 
L 986 1678 
C 986 2269 1344 2713 1792 2713 
C 2266 2713 2317 2289 2317 1980 
L 2317 443 
C 2317 198 2291 166 1882 166 
L 1882 0 
C 2035 12 2317 12 2483 12 
C 2650 12 2938 12 3091 0 
L 3091 166 
C 2682 166 2656 192 2656 443 
L 2656 1954 
z
" transform="scale(0.015625)"/>
       <path id="CMR17-6b" d="M 1670 1679 
C 1664 1692 1632 1730 1632 1749 
C 1632 1762 2086 2175 2144 2226 
C 2509 2532 2739 2563 2906 2570 
L 2906 2735 
C 2867 2735 2854 2735 2848 2729 
L 2534 2722 
C 2355 2722 2080 2722 1907 2735 
L 1907 2570 
C 1997 2563 2061 2513 2061 2423 
C 2061 2296 1933 2175 1926 2175 
L 960 1298 
L 960 4416 
L 198 4345 
L 198 4179 
C 576 4179 634 4141 634 3835 
L 634 439 
C 634 198 608 166 198 166 
L 198 0 
C 352 12 634 12 794 12 
C 954 12 1235 12 1389 0 
L 1389 166 
C 979 166 954 191 954 439 
L 954 1139 
L 1395 1540 
L 2042 586 
C 2118 471 2182 382 2182 299 
C 2182 185 2067 166 1990 166 
L 1990 0 
C 2144 12 2419 12 2579 12 
C 2694 12 2931 6 3040 0 
L 3040 166 
C 2739 166 2669 223 2477 503 
L 1670 1679 
z
" transform="scale(0.015625)"/>
       <path id="CMR17-6d" d="M 4326 1954 
C 4326 2276 4269 2816 3507 2816 
C 3072 2816 2771 2520 2656 2173 
L 2650 2173 
C 2573 2700 2195 2816 1837 2816 
C 1331 2816 1069 2424 973 2166 
L 966 2166 
L 966 2816 
L 211 2745 
L 211 2578 
C 589 2578 646 2540 646 2231 
L 646 443 
C 646 198 621 166 211 166 
L 211 0 
C 365 12 646 12 813 12 
C 979 12 1267 12 1421 0 
L 1421 166 
C 1011 166 986 192 986 443 
L 986 1678 
C 986 2269 1344 2713 1792 2713 
C 2266 2713 2317 2289 2317 1980 
L 2317 443 
C 2317 198 2291 166 1882 166 
L 1882 0 
C 2035 12 2317 12 2483 12 
C 2650 12 2938 12 3091 0 
L 3091 166 
C 2682 166 2656 192 2656 443 
L 2656 1678 
C 2656 2269 3014 2713 3462 2713 
C 3936 2713 3987 2289 3987 1980 
L 3987 443 
C 3987 198 3962 166 3552 166 
L 3552 0 
C 3706 12 3987 12 4154 12 
C 4320 12 4608 12 4762 0 
L 4762 166 
C 4352 166 4326 192 4326 443 
L 4326 1954 
z
" transform="scale(0.015625)"/>
      </defs>
      <use xlink:href="#CMR17-48" transform="scale(0.996264)"/>
      <use xlink:href="#CMR17-65" transform="translate(69.07243 0) scale(0.996264)"/>
      <use xlink:href="#CMR17-69" transform="translate(109.55809 0) scale(0.996264)"/>
      <use xlink:href="#CMR17-67" transform="translate(134.429149 0) scale(0.996264)"/>
      <use xlink:href="#CMR17-68" transform="translate(180.119626 0) scale(0.996264)"/>
      <use xlink:href="#CMR17-74" transform="translate(228.412542 0) scale(0.996264)"/>
      <use xlink:href="#CMR17-28" transform="translate(293.769276 0) scale(0.996264)"/>
      <use xlink:href="#CMR17-6b" transform="translate(329.050044 0) scale(0.996264)"/>
      <use xlink:href="#CMR17-6d" transform="translate(377.34296 0) scale(0.996264)"/>
      <use xlink:href="#CMR17-29" transform="translate(454.262549 0) scale(0.996264)"/>
     </g>
    </g>
   </g>
   <g id="line2d_12">
    <path d="M 148.506907 21.13437 
L 136.611958 22.512286 
L 127.15189 23.890202 
L 119.447796 25.268118 
L 113.044844 26.646035 
L 107.630851 28.023951 
L 102.986318 29.401867 
L 98.95326 30.779783 
L 95.415432 32.157699 
L 92.285526 33.535615 
L 89.49673 34.913531 
L 86.997045 36.291447 
L 84.745382 37.669363 
L 80.860705 40.425195 
L 77.646051 43.181027 
L 74.967256 45.936859 
L 72.72961 48.692691 
L 70.864363 51.448523 
L 69.320432 54.204355 
L 68.059107 56.960187 
L 67.050559 59.71602 
L 66.271475 62.471852 
L 65.703408 65.227684 
L 65.331616 67.983516 
L 65.144222 70.739348 
L 65.131593 73.49518 
L 65.285878 76.251012 
L 65.600663 79.006844 
L 66.070702 81.762676 
L 67.057706 85.896424 
L 68.373316 90.030173 
L 70.009377 94.163921 
L 71.960117 98.297669 
L 74.221611 102.431417 
L 76.791347 106.565165 
L 79.667867 110.698913 
L 82.850459 114.832661 
L 86.338882 118.966409 
L 90.133106 123.100158 
L 94.233064 127.233906 
L 98.638409 131.367654 
L 103.348271 135.501402 
L 108.36101 139.63515 
L 113.673972 143.768898 
L 119.283237 147.902646 
L 127.213531 153.414311 
L 135.642861 158.925975 
L 144.546813 164.437639 
L 153.893523 169.949303 
L 163.642913 175.460967 
L 176.32065 182.350547 
L 192.099012 190.618044 
L 216.407798 203.019288 
L 240.612358 215.420532 
L 253.617703 222.310113 
L 263.632265 227.821777 
L 263.632265 227.821777 
" clip-path="url(#p467d992767)" style="fill: none; stroke: #000000; stroke-width: 1.5; stroke-linecap: square"/>
   </g>
   <g id="patch_3">
    <path d="M 55.190806 238.156147 
L 55.190806 10.8 
" style="fill: none; stroke: #000000; stroke-width: 0.8; stroke-linejoin: miter; stroke-linecap: square"/>
   </g>
   <g id="patch_4">
    <path d="M 273.558049 238.156147 
L 273.558049 10.8 
" style="fill: none; stroke: #000000; stroke-width: 0.8; stroke-linejoin: miter; stroke-linecap: square"/>
   </g>
   <g id="patch_5">
    <path d="M 55.190806 238.156147 
L 273.558049 238.156147 
" style="fill: none; stroke: #000000; stroke-width: 0.8; stroke-linejoin: miter; stroke-linecap: square"/>
   </g>
   <g id="patch_6">
    <path d="M 55.190806 10.8 
L 273.558049 10.8 
" style="fill: none; stroke: #000000; stroke-width: 0.8; stroke-linejoin: miter; stroke-linecap: square"/>
   </g>
   <g id="legend_1">
    <g id="patch_7">
     <path d="M 138.135016 32.737178 
L 190.613839 32.737178 
Q 192.613839 32.737178 192.613839 30.737178 
L 192.613839 17.8 
Q 192.613839 15.8 190.613839 15.8 
L 138.135016 15.8 
Q 136.135016 15.8 136.135016 17.8 
L 136.135016 30.737178 
Q 136.135016 32.737178 138.135016 32.737178 
z
" style="fill: #ffffff; opacity: 0.8; stroke: #cccccc; stroke-linejoin: miter"/>
    </g>
    <g id="line2d_13">
     <path d="M 140.135016 23.3 
L 150.135016 23.3 
L 160.135016 23.3 
" style="fill: none; stroke: #000000; stroke-width: 1.5; stroke-linecap: square"/>
    </g>
    <g id="text_14">
     <!-- total -->
     <g transform="translate(168.135016 26.8) scale(0.1 -0.1)">
      <defs>
       <path id="CMR17-6f" d="M 2758 1356 
C 2758 2176 2163 2816 1466 2816 
C 768 2816 173 2176 173 1356 
C 173 550 768 -64 1466 -64 
C 2163 -64 2758 550 2758 1356 
z
M 1466 51 
C 1165 51 909 230 762 480 
C 602 768 582 1126 582 1408 
C 582 1676 595 2009 762 2297 
C 890 2508 1139 2713 1466 2713 
C 1754 2713 1997 2553 2150 2329 
C 2349 2028 2349 1606 2349 1408 
C 2349 1158 2336 774 2163 467 
C 1984 172 1709 51 1466 51 
z
" transform="scale(0.015625)"/>
       <path id="CMR17-61" d="M 2304 1656 
C 2304 2048 2304 2275 2035 2534 
C 1798 2751 1523 2816 1306 2816 
C 800 2816 435 2408 435 1977 
C 435 1740 627 1728 666 1728 
C 749 1728 896 1779 896 1958 
C 896 2118 774 2188 666 2188 
C 640 2188 608 2182 589 2176 
C 723 2594 1069 2713 1293 2713 
C 1613 2713 1965 2421 1965 1875 
L 1965 1632 
C 1587 1619 1133 1568 774 1373 
C 371 1147 256 822 256 576 
C 256 77 832 -64 1171 -64 
C 1523 -64 1850 135 1990 505 
C 2003 219 2182 -39 2464 -39 
C 2598 -39 2938 51 2938 563 
L 2938 926 
L 2822 926 
L 2822 557 
C 2822 161 2650 109 2566 109 
C 2304 109 2304 446 2304 732 
L 2304 1656 
z
M 1965 887 
C 1965 323 1568 38 1216 38 
C 896 38 646 278 646 576 
C 646 771 730 1114 1101 1322 
C 1408 1497 1760 1523 1965 1536 
L 1965 887 
z
" transform="scale(0.015625)"/>
       <path id="CMR17-6c" d="M 979 4416 
L 218 4345 
L 218 4179 
C 595 4179 653 4141 653 3835 
L 653 439 
C 653 198 627 166 218 166 
L 218 0 
C 371 12 653 12 813 12 
C 979 12 1261 12 1414 0 
L 1414 166 
C 1005 166 979 191 979 439 
L 979 4416 
z
" transform="scale(0.015625)"/>
      </defs>
      <use xlink:href="#CMR17-74" transform="scale(0.996264)"/>
      <use xlink:href="#CMR17-6f" transform="translate(35.280768 0) scale(0.996264)"/>
      <use xlink:href="#CMR17-74" transform="translate(80.971245 0) scale(0.996264)"/>
      <use xlink:href="#CMR17-61" transform="translate(116.252013 0) scale(0.996264)"/>
      <use xlink:href="#CMR17-6c" transform="translate(161.94249 0) scale(0.996264)"/>
     </g>
    </g>
   </g>
  </g>
  <g id="axes_2">
   <g id="patch_8">
    <path d="M 296.16309 238.156147 
L 514.530333 238.156147 
L 514.530333 10.8 
L 296.16309 10.8 
z
" style="fill: #ffffff"/>
   </g>
   <g id="matplotlib.axis_3">
    <g id="xtick_5">
     <g id="line2d_14">
      <g>
       <use xlink:href="#mc1f376e287" x="346.617231" y="238.156147" style="stroke: #000000; stroke-width: 0.8"/>
      </g>
     </g>
     <g id="text_15">
      <!-- $\mathdefault{1.3}$ -->
      <g transform="translate(337.89194 254.842024) scale(0.14 -0.14)">
       <use xlink:href="#CMR17-31" transform="scale(0.996264)"/>
       <use xlink:href="#CMMI12-3a" transform="translate(45.690477 0) scale(0.996264)"/>
       <use xlink:href="#CMR17-33" transform="translate(72.787654 0) scale(0.996264)"/>
      </g>
     </g>
    </g>
    <g id="xtick_6">
     <g id="line2d_15">
      <g>
       <use xlink:href="#mc1f376e287" x="427.533301" y="238.156147" style="stroke: #000000; stroke-width: 0.8"/>
      </g>
     </g>
     <g id="text_16">
      <!-- $\mathdefault{1.4}$ -->
      <g transform="translate(418.80801 254.842024) scale(0.14 -0.14)">
       <use xlink:href="#CMR17-31" transform="scale(0.996264)"/>
       <use xlink:href="#CMMI12-3a" transform="translate(45.690477 0) scale(0.996264)"/>
       <use xlink:href="#CMR17-34" transform="translate(72.787654 0) scale(0.996264)"/>
      </g>
     </g>
    </g>
    <g id="xtick_7">
     <g id="line2d_16">
      <g>
       <use xlink:href="#mc1f376e287" x="508.44937" y="238.156147" style="stroke: #000000; stroke-width: 0.8"/>
      </g>
     </g>
     <g id="text_17">
      <!-- $\mathdefault{1.5}$ -->
      <g transform="translate(499.724079 254.842024) scale(0.14 -0.14)">
       <use xlink:href="#CMR17-31" transform="scale(0.996264)"/>
       <use xlink:href="#CMMI12-3a" transform="translate(45.690477 0) scale(0.996264)"/>
       <use xlink:href="#CMR17-35" transform="translate(72.787654 0) scale(0.996264)"/>
      </g>
     </g>
    </g>
    <g id="text_18">
     <!-- Dm (mm) -->
     <g transform="translate(369.185639 274.987472) scale(0.18 -0.18)">
      <defs>
       <path id="CMR17-44" d="M 333 4352 
L 333 4185 
C 774 4185 845 4185 845 3898 
L 845 453 
C 845 166 774 166 333 166 
L 333 0 
L 2368 0 
C 3398 0 4224 943 4224 2140 
C 4224 3344 3411 4352 2368 4352 
L 333 4352 
z
M 1523 166 
C 1267 166 1254 198 1254 414 
L 1254 3936 
C 1254 4153 1267 4185 1523 4185 
L 2240 4185 
C 2771 4185 3750 3873 3750 2140 
C 3750 1242 3488 879 3366 707 
C 3213 510 2848 166 2240 166 
L 1523 166 
z
" transform="scale(0.015625)"/>
      </defs>
      <use xlink:href="#CMR17-44" transform="scale(0.996264)"/>
      <use xlink:href="#CMR17-6d" transform="translate(70.393556 0) scale(0.996264)"/>
      <use xlink:href="#CMR17-28" transform="translate(177.389112 0) scale(0.996264)"/>
      <use xlink:href="#CMR17-6d" transform="translate(212.66988 0) scale(0.996264)"/>
      <use xlink:href="#CMR17-6d" transform="translate(289.58947 0) scale(0.996264)"/>
      <use xlink:href="#CMR17-29" transform="translate(366.50906 0) scale(0.996264)"/>
     </g>
    </g>
   </g>
   <g id="matplotlib.axis_4">
    <g id="ytick_8">
     <g id="line2d_17">
      <g>
       <use xlink:href="#ma10f56a21a" x="296.16309" y="227.821777" style="stroke: #000000; stroke-width: 0.8"/>
      </g>
     </g>
    </g>
    <g id="ytick_9">
     <g id="line2d_18">
      <g>
       <use xlink:href="#ma10f56a21a" x="296.16309" y="193.373876" style="stroke: #000000; stroke-width: 0.8"/>
      </g>
     </g>
    </g>
    <g id="ytick_10">
     <g id="line2d_19">
      <g>
       <use xlink:href="#ma10f56a21a" x="296.16309" y="158.925975" style="stroke: #000000; stroke-width: 0.8"/>
      </g>
     </g>
    </g>
    <g id="ytick_11">
     <g id="line2d_20">
      <g>
       <use xlink:href="#ma10f56a21a" x="296.16309" y="124.478074" style="stroke: #000000; stroke-width: 0.8"/>
      </g>
     </g>
    </g>
    <g id="ytick_12">
     <g id="line2d_21">
      <g>
       <use xlink:href="#ma10f56a21a" x="296.16309" y="90.030173" style="stroke: #000000; stroke-width: 0.8"/>
      </g>
     </g>
    </g>
    <g id="ytick_13">
     <g id="line2d_22">
      <g>
       <use xlink:href="#ma10f56a21a" x="296.16309" y="55.582271" style="stroke: #000000; stroke-width: 0.8"/>
      </g>
     </g>
    </g>
    <g id="ytick_14">
     <g id="line2d_23">
      <g>
       <use xlink:href="#ma10f56a21a" x="296.16309" y="21.13437" style="stroke: #000000; stroke-width: 0.8"/>
      </g>
     </g>
    </g>
   </g>
   <g id="line2d_24">
    <path d="M 306.088874 21.13437 
L 311.733271 23.890202 
L 321.04183 28.023951 
L 337.431496 34.913531 
L 367.029131 47.314775 
L 382.872736 54.204355 
L 395.088437 59.71602 
L 406.837386 65.227684 
L 418.077265 70.739348 
L 428.77178 76.251012 
L 438.887995 81.762676 
L 446.076877 85.896424 
L 452.910156 90.030173 
L 459.375207 94.163921 
L 465.459494 98.297669 
L 471.150539 102.431417 
L 476.435941 106.565165 
L 481.303416 110.698913 
L 485.740868 114.832661 
L 489.736488 118.966409 
L 492.149119 121.722242 
L 494.357051 124.478074 
L 496.357163 127.233906 
L 498.146488 129.989738 
L 499.722236 132.74557 
L 501.08182 135.501402 
L 502.222886 138.257234 
L 503.14334 141.013066 
L 503.841377 143.768898 
L 504.315516 146.52473 
L 504.564628 149.280562 
L 504.587967 152.036394 
L 504.385204 154.792227 
L 503.956457 157.548059 
L 503.30232 160.303891 
L 502.423894 163.059723 
L 501.322812 165.815555 
L 500.001263 168.571387 
L 498.462017 171.327219 
L 496.70844 174.083051 
L 494.744515 176.838883 
L 492.574845 179.594715 
L 490.204665 182.350547 
L 486.286445 186.484296 
L 481.952865 190.618044 
L 477.229455 194.751792 
L 472.14469 198.88554 
L 466.729768 203.019288 
L 459.054767 208.530952 
L 450.938302 214.042616 
L 440.309919 220.932197 
L 429.315888 227.821777 
L 429.315888 227.821777 
" clip-path="url(#pd9136ce4fa)" style="fill: none; stroke: #000000; stroke-width: 1.5; stroke-linecap: square"/>
   </g>
   <g id="patch_9">
    <path d="M 296.16309 238.156147 
L 296.16309 10.8 
" style="fill: none; stroke: #000000; stroke-width: 0.8; stroke-linejoin: miter; stroke-linecap: square"/>
   </g>
   <g id="patch_10">
    <path d="M 514.530333 238.156147 
L 514.530333 10.8 
" style="fill: none; stroke: #000000; stroke-width: 0.8; stroke-linejoin: miter; stroke-linecap: square"/>
   </g>
   <g id="patch_11">
    <path d="M 296.16309 238.156147 
L 514.530333 238.156147 
" style="fill: none; stroke: #000000; stroke-width: 0.8; stroke-linejoin: miter; stroke-linecap: square"/>
   </g>
   <g id="patch_12">
    <path d="M 296.16309 10.8 
L 514.530333 10.8 
" style="fill: none; stroke: #000000; stroke-width: 0.8; stroke-linejoin: miter; stroke-linecap: square"/>
   </g>
  </g>
  <g id="axes_3">
   <g id="patch_13">
    <path d="M 537.135374 238.156147 
L 755.502617 238.156147 
L 755.502617 10.8 
L 537.135374 10.8 
z
" style="fill: #ffffff"/>
   </g>
   <g id="matplotlib.axis_5">
    <g id="xtick_8">
     <g id="line2d_25">
      <g>
       <use xlink:href="#mc1f376e287" x="583.394369" y="238.156147" style="stroke: #000000; stroke-width: 0.8"/>
      </g>
     </g>
     <g id="text_19">
      <!-- $\mathdefault{0.875}$ -->
      <g transform="translate(567.840589 254.842024) scale(0.14 -0.14)">
       <defs>
        <path id="CMR17-37" d="M 2886 3955 
L 2886 4096 
L 1382 4096 
C 634 4096 621 4166 595 4288 
L 480 4288 
L 294 3104 
L 410 3104 
C 429 3226 474 3552 550 3673 
C 589 3724 1062 3724 1171 3724 
L 2579 3724 
L 1869 2670 
C 1395 1961 1069 1003 1069 166 
C 1069 89 1069 -128 1299 -128 
C 1530 -128 1530 89 1530 172 
L 1530 466 
C 1530 1514 1709 2204 2003 2644 
L 2886 3955 
z
" transform="scale(0.015625)"/>
       </defs>
       <use xlink:href="#CMR17-30" transform="scale(0.996264)"/>
       <use xlink:href="#CMMI12-3a" transform="translate(45.690477 0) scale(0.996264)"/>
       <use xlink:href="#CMR17-38" transform="translate(72.787654 0) scale(0.996264)"/>
       <use xlink:href="#CMR17-37" transform="translate(118.478131 0) scale(0.996264)"/>
       <use xlink:href="#CMR17-35" transform="translate(164.168608 0) scale(0.996264)"/>
      </g>
     </g>
    </g>
    <g id="xtick_9">
     <g id="line2d_26">
      <g>
       <use xlink:href="#mc1f376e287" x="631.812826" y="238.156147" style="stroke: #000000; stroke-width: 0.8"/>
      </g>
     </g>
     <g id="text_20">
      <!-- $\mathdefault{0.900}$ -->
      <g transform="translate(616.259046 254.842024) scale(0.14 -0.14)">
       <defs>
        <path id="CMR17-39" d="M 2253 1871 
C 2253 448 1670 25 1190 25 
C 1043 25 685 43 538 281 
C 704 256 826 345 826 505 
C 826 678 685 736 595 736 
C 538 736 365 710 365 492 
C 365 68 742 -128 1203 -128 
C 1939 -128 2688 665 2688 2090 
C 2688 3857 1971 4224 1485 4224 
C 851 4224 243 3664 243 2800 
C 243 2000 762 1408 1414 1408 
C 1952 1408 2189 1910 2253 2122 
L 2253 1871 
z
M 1427 1510 
C 1254 1510 1011 1542 813 1929 
C 678 2181 678 2477 678 2793 
C 678 3174 678 3438 858 3722 
C 947 3857 1114 4076 1485 4076 
C 2240 4076 2240 2909 2240 2651 
C 2240 2193 2035 1510 1427 1510 
z
" transform="scale(0.015625)"/>
       </defs>
       <use xlink:href="#CMR17-30" transform="scale(0.996264)"/>
       <use xlink:href="#CMMI12-3a" transform="translate(45.690477 0) scale(0.996264)"/>
       <use xlink:href="#CMR17-39" transform="translate(72.787654 0) scale(0.996264)"/>
       <use xlink:href="#CMR17-30" transform="translate(118.478131 0) scale(0.996264)"/>
       <use xlink:href="#CMR17-30" transform="translate(164.168608 0) scale(0.996264)"/>
      </g>
     </g>
    </g>
    <g id="xtick_10">
     <g id="line2d_27">
      <g>
       <use xlink:href="#mc1f376e287" x="680.231283" y="238.156147" style="stroke: #000000; stroke-width: 0.8"/>
      </g>
     </g>
     <g id="text_21">
      <!-- $\mathdefault{0.925}$ -->
      <g transform="translate(664.677504 254.842024) scale(0.14 -0.14)">
       <use xlink:href="#CMR17-30" transform="scale(0.996264)"/>
       <use xlink:href="#CMMI12-3a" transform="translate(45.690477 0) scale(0.996264)"/>
       <use xlink:href="#CMR17-39" transform="translate(72.787654 0) scale(0.996264)"/>
       <use xlink:href="#CMR17-32" transform="translate(118.478131 0) scale(0.996264)"/>
       <use xlink:href="#CMR17-35" transform="translate(164.168608 0) scale(0.996264)"/>
      </g>
     </g>
    </g>
    <g id="xtick_11">
     <g id="line2d_28">
      <g>
       <use xlink:href="#mc1f376e287" x="728.649741" y="238.156147" style="stroke: #000000; stroke-width: 0.8"/>
      </g>
     </g>
     <g id="text_22">
      <!-- $\mathdefault{0.950}$ -->
      <g transform="translate(713.095961 254.842024) scale(0.14 -0.14)">
       <use xlink:href="#CMR17-30" transform="scale(0.996264)"/>
       <use xlink:href="#CMMI12-3a" transform="translate(45.690477 0) scale(0.996264)"/>
       <use xlink:href="#CMR17-39" transform="translate(72.787654 0) scale(0.996264)"/>
       <use xlink:href="#CMR17-35" transform="translate(118.478131 0) scale(0.996264)"/>
       <use xlink:href="#CMR17-30" transform="translate(164.168608 0) scale(0.996264)"/>
      </g>
     </g>
    </g>
    <g id="text_23">
     <!-- WC (g/m$^{3}$) -->
     <g transform="translate(604.482353 276.151336) scale(0.18 -0.18)">
      <defs>
       <path id="CMR17-57" d="M 5523 3775 
C 5581 3948 5677 4173 6048 4185 
L 6048 4352 
C 5939 4345 5715 4339 5600 4339 
C 5440 4339 5158 4339 5005 4352 
L 5005 4185 
C 5293 4179 5414 4019 5414 3865 
C 5414 3820 5408 3794 5382 3724 
L 4390 557 
L 3347 3890 
C 3328 3955 3322 3980 3322 4006 
C 3322 4185 3603 4185 3725 4185 
L 3725 4352 
C 3539 4339 3219 4339 3021 4339 
C 2861 4339 2573 4339 2426 4352 
L 2426 4185 
C 2720 4185 2797 4166 2861 4051 
C 2886 3993 2989 3660 2989 3640 
C 2989 3615 2976 3576 2970 3557 
L 2029 564 
L 986 3890 
C 954 3980 954 3993 954 4006 
C 954 4185 1235 4185 1363 4185 
L 1363 4352 
C 1178 4339 858 4339 659 4339 
C 493 4339 211 4339 58 4352 
L 58 4185 
C 442 4185 467 4147 531 3942 
L 1779 -20 
C 1811 -116 1811 -128 1869 -128 
C 1920 -128 1939 -116 1965 -26 
L 3053 3448 
L 4141 -26 
C 4166 -116 4186 -128 4237 -128 
C 4294 -128 4294 -116 4326 -20 
L 5523 3775 
z
" transform="scale(0.015625)"/>
       <path id="CMR17-43" d="M 3974 4351 
C 3974 4467 3968 4473 3930 4473 
C 3904 4473 3898 4467 3853 4390 
L 3571 3849 
C 3258 4249 2874 4480 2381 4480 
C 1286 4480 294 3507 294 2179 
C 294 837 1286 -128 2387 -128 
C 3366 -128 3974 741 3974 1482 
C 3974 1547 3974 1573 3917 1573 
C 3866 1573 3866 1553 3859 1495 
C 3808 592 3168 38 2477 38 
C 1824 38 781 502 781 2179 
C 781 3862 1843 4313 2464 4313 
C 3187 4313 3712 3681 3834 2785 
C 3846 2707 3846 2695 3904 2695 
C 3974 2695 3974 2707 3974 2824 
L 3974 4351 
z
" transform="scale(0.015625)"/>
      </defs>
      <use xlink:href="#CMR17-57" transform="scale(0.996264)"/>
      <use xlink:href="#CMR17-43" transform="translate(92.494196 0) scale(0.996264)"/>
      <use xlink:href="#CMR17-28" transform="translate(189.080043 0) scale(0.996264)"/>
      <use xlink:href="#CMR17-67" transform="translate(224.360811 0) scale(0.996264)"/>
      <use xlink:href="#CMR17-2f" transform="translate(270.051288 0) scale(0.996264)"/>
      <use xlink:href="#CMR17-6d" transform="translate(315.741765 0) scale(0.996264)"/>
      <use xlink:href="#CMR17-33" transform="translate(392.661355 36.153639) scale(0.697382)"/>
      <use xlink:href="#CMR17-29" transform="translate(425.142669 0) scale(0.996264)"/>
     </g>
    </g>
   </g>
   <g id="matplotlib.axis_6">
    <g id="ytick_15">
     <g id="line2d_29">
      <g>
       <use xlink:href="#ma10f56a21a" x="537.135374" y="227.821777" style="stroke: #000000; stroke-width: 0.8"/>
      </g>
     </g>
    </g>
    <g id="ytick_16">
     <g id="line2d_30">
      <g>
       <use xlink:href="#ma10f56a21a" x="537.135374" y="193.373876" style="stroke: #000000; stroke-width: 0.8"/>
      </g>
     </g>
    </g>
    <g id="ytick_17">
     <g id="line2d_31">
      <g>
       <use xlink:href="#ma10f56a21a" x="537.135374" y="158.925975" style="stroke: #000000; stroke-width: 0.8"/>
      </g>
     </g>
    </g>
    <g id="ytick_18">
     <g id="line2d_32">
      <g>
       <use xlink:href="#ma10f56a21a" x="537.135374" y="124.478074" style="stroke: #000000; stroke-width: 0.8"/>
      </g>
     </g>
    </g>
    <g id="ytick_19">
     <g id="line2d_33">
      <g>
       <use xlink:href="#ma10f56a21a" x="537.135374" y="90.030173" style="stroke: #000000; stroke-width: 0.8"/>
      </g>
     </g>
    </g>
    <g id="ytick_20">
     <g id="line2d_34">
      <g>
       <use xlink:href="#ma10f56a21a" x="537.135374" y="55.582271" style="stroke: #000000; stroke-width: 0.8"/>
      </g>
     </g>
    </g>
    <g id="ytick_21">
     <g id="line2d_35">
      <g>
       <use xlink:href="#ma10f56a21a" x="537.135374" y="21.13437" style="stroke: #000000; stroke-width: 0.8"/>
      </g>
     </g>
    </g>
   </g>
   <g id="line2d_36">
    <path d="M 745.576834 21.13437 
L 738.991923 23.890202 
L 728.068719 28.023951 
L 679.107975 45.936859 
L 665.047255 51.448523 
L 651.683761 56.960187 
L 639.075595 62.471852 
L 630.127864 66.6056 
L 618.894782 72.117264 
L 610.992889 76.251012 
L 603.536447 80.38476 
L 596.525454 84.518508 
L 589.959911 88.652256 
L 583.859186 92.786005 
L 578.20391 96.919753 
L 573.013451 101.053501 
L 568.28781 105.187249 
L 564.026986 109.320997 
L 561.451124 112.076829 
L 559.068936 114.832661 
L 555.892685 118.966409 
L 554.052783 121.722242 
L 552.425923 124.478074 
L 550.992737 127.233906 
L 549.791959 129.989738 
L 548.804223 132.74557 
L 548.048895 135.501402 
L 547.487241 138.257234 
L 547.157995 141.013066 
L 547.061158 143.768898 
L 547.177363 146.52473 
L 547.506608 149.280562 
L 548.068262 152.036394 
L 548.862325 154.792227 
L 549.869429 157.548059 
L 551.108941 160.303891 
L 552.561495 163.059723 
L 554.22709 165.815555 
L 556.125093 168.571387 
L 558.236138 171.327219 
L 560.560224 174.083051 
L 563.097351 176.838883 
L 565.828152 179.594715 
L 570.340753 183.728463 
L 573.575105 186.484296 
L 578.804299 190.618044 
L 584.459575 194.751792 
L 590.482831 198.88554 
L 596.8547 203.019288 
L 605.8799 208.530952 
L 615.408653 214.042616 
L 627.919982 220.932197 
L 640.876761 227.821777 
L 640.876761 227.821777 
" clip-path="url(#p64325147c7)" style="fill: none; stroke: #000000; stroke-width: 1.5; stroke-linecap: square"/>
   </g>
   <g id="patch_14">
    <path d="M 537.135374 238.156147 
L 537.135374 10.8 
" style="fill: none; stroke: #000000; stroke-width: 0.8; stroke-linejoin: miter; stroke-linecap: square"/>
   </g>
   <g id="patch_15">
    <path d="M 755.502617 238.156147 
L 755.502617 10.8 
" style="fill: none; stroke: #000000; stroke-width: 0.8; stroke-linejoin: miter; stroke-linecap: square"/>
   </g>
   <g id="patch_16">
    <path d="M 537.135374 238.156147 
L 755.502617 238.156147 
" style="fill: none; stroke: #000000; stroke-width: 0.8; stroke-linejoin: miter; stroke-linecap: square"/>
   </g>
   <g id="patch_17">
    <path d="M 537.135374 10.8 
L 755.502617 10.8 
" style="fill: none; stroke: #000000; stroke-width: 0.8; stroke-linejoin: miter; stroke-linecap: square"/>
   </g>
  </g>
  <g id="axes_4">
   <g id="patch_18">
    <path d="M 778.107659 238.156147 
L 996.474901 238.156147 
L 996.474901 10.8 
L 778.107659 10.8 
z
" style="fill: #ffffff"/>
   </g>
   <g id="matplotlib.axis_7">
    <g id="xtick_12">
     <g id="line2d_37">
      <g>
       <use xlink:href="#mc1f376e287" x="780.540147" y="238.156147" style="stroke: #000000; stroke-width: 0.8"/>
      </g>
     </g>
     <g id="text_24">
      <!-- $\mathdefault{14.0}$ -->
      <g transform="translate(768.400612 254.842024) scale(0.14 -0.14)">
       <use xlink:href="#CMR17-31" transform="scale(0.996264)"/>
       <use xlink:href="#CMR17-34" transform="translate(45.690477 0) scale(0.996264)"/>
       <use xlink:href="#CMMI12-3a" transform="translate(91.380954 0) scale(0.996264)"/>
       <use xlink:href="#CMR17-30" transform="translate(118.478131 0) scale(0.996264)"/>
      </g>
     </g>
    </g>
    <g id="xtick_13">
     <g id="line2d_38">
      <g>
       <use xlink:href="#mc1f376e287" x="847.626062" y="238.156147" style="stroke: #000000; stroke-width: 0.8"/>
      </g>
     </g>
     <g id="text_25">
      <!-- $\mathdefault{14.5}$ -->
      <g transform="translate(835.486527 254.842024) scale(0.14 -0.14)">
       <use xlink:href="#CMR17-31" transform="scale(0.996264)"/>
       <use xlink:href="#CMR17-34" transform="translate(45.690477 0) scale(0.996264)"/>
       <use xlink:href="#CMMI12-3a" transform="translate(91.380954 0) scale(0.996264)"/>
       <use xlink:href="#CMR17-35" transform="translate(118.478131 0) scale(0.996264)"/>
      </g>
     </g>
    </g>
    <g id="xtick_14">
     <g id="line2d_39">
      <g>
       <use xlink:href="#mc1f376e287" x="914.711977" y="238.156147" style="stroke: #000000; stroke-width: 0.8"/>
      </g>
     </g>
     <g id="text_26">
      <!-- $\mathdefault{15.0}$ -->
      <g transform="translate(902.572442 254.842024) scale(0.14 -0.14)">
       <use xlink:href="#CMR17-31" transform="scale(0.996264)"/>
       <use xlink:href="#CMR17-35" transform="translate(45.690477 0) scale(0.996264)"/>
       <use xlink:href="#CMMI12-3a" transform="translate(91.380954 0) scale(0.996264)"/>
       <use xlink:href="#CMR17-30" transform="translate(118.478131 0) scale(0.996264)"/>
      </g>
     </g>
    </g>
    <g id="xtick_15">
     <g id="line2d_40">
      <g>
       <use xlink:href="#mc1f376e287" x="981.797892" y="238.156147" style="stroke: #000000; stroke-width: 0.8"/>
      </g>
     </g>
     <g id="text_27">
      <!-- $\mathdefault{15.5}$ -->
      <g transform="translate(969.658357 254.842024) scale(0.14 -0.14)">
       <use xlink:href="#CMR17-31" transform="scale(0.996264)"/>
       <use xlink:href="#CMR17-35" transform="translate(45.690477 0) scale(0.996264)"/>
       <use xlink:href="#CMMI12-3a" transform="translate(91.380954 0) scale(0.996264)"/>
       <use xlink:href="#CMR17-35" transform="translate(118.478131 0) scale(0.996264)"/>
      </g>
     </g>
    </g>
    <g id="text_28">
     <!-- R (mm/hr) -->
     <g transform="translate(846.419205 274.987472) scale(0.18 -0.18)">
      <defs>
       <path id="CMR17-52" d="M 2509 2156 
C 3117 2278 3629 2689 3629 3203 
C 3629 3806 2950 4352 2054 4352 
L 333 4352 
L 333 4185 
C 774 4185 845 4185 845 3896 
L 845 428 
C 845 140 774 140 333 140 
L 333 -26 
C 518 -13 851 -13 1050 -13 
C 1248 -13 1581 -13 1766 -26 
L 1766 140 
C 1325 140 1254 140 1254 428 
L 1254 2112 
L 2003 2112 
C 2368 2112 2573 1964 2662 1881 
C 2918 1632 2918 1459 2918 1024 
C 2918 595 2918 377 3110 160 
C 3354 -103 3680 -128 3821 -128 
C 4294 -128 4365 403 4365 512 
C 4365 550 4365 595 4307 595 
C 4256 595 4250 556 4250 531 
C 4218 115 4032 -26 3834 -26 
C 3482 -26 3443 377 3405 768 
C 3386 902 3373 998 3360 1139 
C 3322 1459 3270 1926 2509 2156 
z
M 1984 2214 
L 1254 2214 
L 1254 3935 
C 1254 4153 1267 4185 1523 4185 
L 1990 4185 
C 2522 4185 3142 3999 3142 3203 
C 3142 2374 2464 2214 1984 2214 
z
" transform="scale(0.015625)"/>
       <path id="CMR17-72" d="M 960 1517 
C 960 2134 1222 2713 1702 2713 
C 1747 2713 1792 2707 1837 2687 
C 1837 2687 1696 2642 1696 2475 
C 1696 2321 1818 2257 1914 2257 
C 1990 2257 2131 2302 2131 2482 
C 2131 2687 1926 2816 1709 2816 
C 1222 2816 1011 2340 947 2115 
L 941 2115 
L 941 2816 
L 198 2745 
L 198 2578 
C 576 2578 634 2540 634 2231 
L 634 443 
C 634 198 608 166 198 166 
L 198 0 
C 352 12 646 12 813 12 
C 998 12 1325 12 1498 0 
L 1498 166 
C 1037 166 960 166 960 455 
L 960 1517 
z
" transform="scale(0.015625)"/>
      </defs>
      <use xlink:href="#CMR17-52" transform="scale(0.996264)"/>
      <use xlink:href="#CMR17-28" transform="translate(97.867068 0) scale(0.996264)"/>
      <use xlink:href="#CMR17-6d" transform="translate(133.147836 0) scale(0.996264)"/>
      <use xlink:href="#CMR17-6d" transform="translate(210.067426 0) scale(0.996264)"/>
      <use xlink:href="#CMR17-2f" transform="translate(286.987016 0) scale(0.996264)"/>
      <use xlink:href="#CMR17-68" transform="translate(332.677493 0) scale(0.996264)"/>
      <use xlink:href="#CMR17-72" transform="translate(383.572863 0) scale(0.996264)"/>
      <use xlink:href="#CMR17-29" transform="translate(418.853631 0) scale(0.996264)"/>
     </g>
    </g>
   </g>
   <g id="matplotlib.axis_8">
    <g id="ytick_22">
     <g id="line2d_41">
      <g>
       <use xlink:href="#ma10f56a21a" x="778.107659" y="227.821777" style="stroke: #000000; stroke-width: 0.8"/>
      </g>
     </g>
    </g>
    <g id="ytick_23">
     <g id="line2d_42">
      <g>
       <use xlink:href="#ma10f56a21a" x="778.107659" y="193.373876" style="stroke: #000000; stroke-width: 0.8"/>
      </g>
     </g>
    </g>
    <g id="ytick_24">
     <g id="line2d_43">
      <g>
       <use xlink:href="#ma10f56a21a" x="778.107659" y="158.925975" style="stroke: #000000; stroke-width: 0.8"/>
      </g>
     </g>
    </g>
    <g id="ytick_25">
     <g id="line2d_44">
      <g>
       <use xlink:href="#ma10f56a21a" x="778.107659" y="124.478074" style="stroke: #000000; stroke-width: 0.8"/>
      </g>
     </g>
    </g>
    <g id="ytick_26">
     <g id="line2d_45">
      <g>
       <use xlink:href="#ma10f56a21a" x="778.107659" y="90.030173" style="stroke: #000000; stroke-width: 0.8"/>
      </g>
     </g>
    </g>
    <g id="ytick_27">
     <g id="line2d_46">
      <g>
       <use xlink:href="#ma10f56a21a" x="778.107659" y="55.582271" style="stroke: #000000; stroke-width: 0.8"/>
      </g>
     </g>
    </g>
    <g id="ytick_28">
     <g id="line2d_47">
      <g>
       <use xlink:href="#ma10f56a21a" x="778.107659" y="21.13437" style="stroke: #000000; stroke-width: 0.8"/>
      </g>
     </g>
    </g>
   </g>
   <g id="line2d_48">
    <path d="M 887.29128 21.13437 
L 887.29128 227.821777 
L 887.29128 227.821777 
" clip-path="url(#pea22f6ea25)" style="fill: none; stroke: #000000; stroke-width: 1.5; stroke-linecap: square"/>
   </g>
   <g id="patch_19">
    <path d="M 778.107659 238.156147 
L 778.107659 10.8 
" style="fill: none; stroke: #000000; stroke-width: 0.8; stroke-linejoin: miter; stroke-linecap: square"/>
   </g>
   <g id="patch_20">
    <path d="M 996.474901 238.156147 
L 996.474901 10.8 
" style="fill: none; stroke: #000000; stroke-width: 0.8; stroke-linejoin: miter; stroke-linecap: square"/>
   </g>
   <g id="patch_21">
    <path d="M 778.107659 238.156147 
L 996.474901 238.156147 
" style="fill: none; stroke: #000000; stroke-width: 0.8; stroke-linejoin: miter; stroke-linecap: square"/>
   </g>
   <g id="patch_22">
    <path d="M 778.107659 10.8 
L 996.474901 10.8 
" style="fill: none; stroke: #000000; stroke-width: 0.8; stroke-linejoin: miter; stroke-linecap: square"/>
   </g>
  </g>
  <g id="axes_5">
   <g id="patch_23">
    <path d="M 55.190806 518.775667 
L 273.558049 518.775667 
L 273.558049 291.419519 
L 55.190806 291.419519 
z
" style="fill: #ffffff"/>
   </g>
   <g id="matplotlib.axis_9">
    <g id="xtick_16">
     <g id="line2d_49">
      <g>
       <use xlink:href="#mc1f376e287" x="62.246946" y="518.775667" style="stroke: #000000; stroke-width: 0.8"/>
      </g>
     </g>
     <g id="text_29">
      <!-- $\mathdefault{38.5}$ -->
      <g transform="translate(50.107411 535.461543) scale(0.14 -0.14)">
       <use xlink:href="#CMR17-33" transform="scale(0.996264)"/>
       <use xlink:href="#CMR17-38" transform="translate(45.690477 0) scale(0.996264)"/>
       <use xlink:href="#CMMI12-3a" transform="translate(91.380954 0) scale(0.996264)"/>
       <use xlink:href="#CMR17-35" transform="translate(118.478131 0) scale(0.996264)"/>
      </g>
     </g>
    </g>
    <g id="xtick_17">
     <g id="line2d_50">
      <g>
       <use xlink:href="#mc1f376e287" x="106.55707" y="518.775667" style="stroke: #000000; stroke-width: 0.8"/>
      </g>
     </g>
     <g id="text_30">
      <!-- $\mathdefault{39.0}$ -->
      <g transform="translate(94.417534 535.461543) scale(0.14 -0.14)">
       <use xlink:href="#CMR17-33" transform="scale(0.996264)"/>
       <use xlink:href="#CMR17-39" transform="translate(45.690477 0) scale(0.996264)"/>
       <use xlink:href="#CMMI12-3a" transform="translate(91.380954 0) scale(0.996264)"/>
       <use xlink:href="#CMR17-30" transform="translate(118.478131 0) scale(0.996264)"/>
      </g>
     </g>
    </g>
    <g id="xtick_18">
     <g id="line2d_51">
      <g>
       <use xlink:href="#mc1f376e287" x="150.867193" y="518.775667" style="stroke: #000000; stroke-width: 0.8"/>
      </g>
     </g>
     <g id="text_31">
      <!-- $\mathdefault{39.5}$ -->
      <g transform="translate(138.727658 535.461543) scale(0.14 -0.14)">
       <use xlink:href="#CMR17-33" transform="scale(0.996264)"/>
       <use xlink:href="#CMR17-39" transform="translate(45.690477 0) scale(0.996264)"/>
       <use xlink:href="#CMMI12-3a" transform="translate(91.380954 0) scale(0.996264)"/>
       <use xlink:href="#CMR17-35" transform="translate(118.478131 0) scale(0.996264)"/>
      </g>
     </g>
    </g>
    <g id="xtick_19">
     <g id="line2d_52">
      <g>
       <use xlink:href="#mc1f376e287" x="195.177317" y="518.775667" style="stroke: #000000; stroke-width: 0.8"/>
      </g>
     </g>
     <g id="text_32">
      <!-- $\mathdefault{40.0}$ -->
      <g transform="translate(183.037781 535.461543) scale(0.14 -0.14)">
       <use xlink:href="#CMR17-34" transform="scale(0.996264)"/>
       <use xlink:href="#CMR17-30" transform="translate(45.690477 0) scale(0.996264)"/>
       <use xlink:href="#CMMI12-3a" transform="translate(91.380954 0) scale(0.996264)"/>
       <use xlink:href="#CMR17-30" transform="translate(118.478131 0) scale(0.996264)"/>
      </g>
     </g>
    </g>
    <g id="xtick_20">
     <g id="line2d_53">
      <g>
       <use xlink:href="#mc1f376e287" x="239.48744" y="518.775667" style="stroke: #000000; stroke-width: 0.8"/>
      </g>
     </g>
     <g id="text_33">
      <!-- $\mathdefault{40.5}$ -->
      <g transform="translate(227.347905 535.461543) scale(0.14 -0.14)">
       <use xlink:href="#CMR17-34" transform="scale(0.996264)"/>
       <use xlink:href="#CMR17-30" transform="translate(45.690477 0) scale(0.996264)"/>
       <use xlink:href="#CMMI12-3a" transform="translate(91.380954 0) scale(0.996264)"/>
       <use xlink:href="#CMR17-35" transform="translate(118.478131 0) scale(0.996264)"/>
      </g>
     </g>
    </g>
    <g id="text_34">
     <!-- Z (dBZ) -->
     <g transform="translate(134.771472 555.606991) scale(0.18 -0.18)">
      <defs>
       <path id="CMR17-5a" d="M 3302 4223 
C 3302 4345 3296 4352 3162 4352 
L 442 4352 
L 378 2943 
L 493 2943 
C 531 3669 723 4185 1760 4185 
L 2816 4185 
L 339 204 
C 294 134 294 128 294 83 
C 294 0 307 0 435 0 
L 3245 0 
L 3334 1663 
L 3219 1663 
C 3162 828 3117 179 1894 179 
L 781 179 
L 3302 4223 
z
" transform="scale(0.015625)"/>
       <path id="CMR17-64" d="M 1869 4345 
L 1869 4179 
C 2246 4179 2304 4141 2304 3843 
L 2304 2371 
C 2278 2403 2016 2816 1498 2816 
C 845 2816 211 2228 211 1376 
C 211 529 806 -64 1434 -64 
C 1978 -64 2259 361 2291 406 
L 2291 -64 
L 3066 -13 
L 3066 154 
C 2688 154 2630 193 2630 503 
L 2630 4416 
L 1869 4345 
z
M 2291 762 
C 2291 568 2176 393 2029 264 
C 1811 70 1594 38 1472 38 
C 1286 38 621 135 621 1369 
C 621 2636 1363 2713 1530 2713 
C 1824 2713 2061 2545 2208 2313 
C 2291 2177 2291 2157 2291 2041 
L 2291 762 
z
" transform="scale(0.015625)"/>
       <path id="CMR17-42" d="M 333 4352 
L 333 4185 
C 774 4185 845 4185 845 3897 
L 845 451 
C 845 166 774 166 333 166 
L 333 0 
L 2534 0 
C 3354 0 3885 578 3885 1155 
C 3885 1726 3360 2214 2675 2259 
C 3290 2380 3718 2790 3718 3276 
C 3718 3808 3194 4352 2368 4352 
L 333 4352 
z
M 1248 2304 
L 1248 3936 
C 1248 4153 1261 4185 1517 4185 
L 2336 4185 
C 2970 4185 3251 3673 3251 3276 
C 3251 2790 2861 2304 2170 2304 
L 1248 2304 
z
M 1517 166 
C 1261 166 1248 198 1248 413 
L 1248 2201 
L 2432 2201 
C 3091 2201 3411 1624 3411 1161 
C 3411 698 3046 166 2349 166 
L 1517 166 
z
" transform="scale(0.015625)"/>
      </defs>
      <use xlink:href="#CMR17-5a" transform="scale(0.996264)"/>
      <use xlink:href="#CMR17-28" transform="translate(86.176138 0) scale(0.996264)"/>
      <use xlink:href="#CMR17-64" transform="translate(121.456905 0) scale(0.996264)"/>
      <use xlink:href="#CMR17-42" transform="translate(172.352275 0) scale(0.996264)"/>
      <use xlink:href="#CMR17-5a" transform="translate(237.54103 0) scale(0.996264)"/>
      <use xlink:href="#CMR17-29" transform="translate(293.641201 0) scale(0.996264)"/>
     </g>
    </g>
   </g>
   <g id="matplotlib.axis_10">
    <g id="ytick_29">
     <g id="line2d_54">
      <g>
       <use xlink:href="#ma10f56a21a" x="55.190806" y="508.441296" style="stroke: #000000; stroke-width: 0.8"/>
      </g>
     </g>
     <g id="text_35">
      <!-- $\mathdefault{0.0}$ -->
      <g transform="translate(30.740224 513.284234) scale(0.14 -0.14)">
       <use xlink:href="#CMR17-30" transform="scale(0.996264)"/>
       <use xlink:href="#CMMI12-3a" transform="translate(45.690477 0) scale(0.996264)"/>
       <use xlink:href="#CMR17-30" transform="translate(72.787654 0) scale(0.996264)"/>
      </g>
     </g>
    </g>
    <g id="ytick_30">
     <g id="line2d_55">
      <g>
       <use xlink:href="#ma10f56a21a" x="55.190806" y="473.993395" style="stroke: #000000; stroke-width: 0.8"/>
      </g>
     </g>
     <g id="text_36">
      <!-- $\mathdefault{0.5}$ -->
      <g transform="translate(30.740224 478.836333) scale(0.14 -0.14)">
       <use xlink:href="#CMR17-30" transform="scale(0.996264)"/>
       <use xlink:href="#CMMI12-3a" transform="translate(45.690477 0) scale(0.996264)"/>
       <use xlink:href="#CMR17-35" transform="translate(72.787654 0) scale(0.996264)"/>
      </g>
     </g>
    </g>
    <g id="ytick_31">
     <g id="line2d_56">
      <g>
       <use xlink:href="#ma10f56a21a" x="55.190806" y="439.545494" style="stroke: #000000; stroke-width: 0.8"/>
      </g>
     </g>
     <g id="text_37">
      <!-- $\mathdefault{1.0}$ -->
      <g transform="translate(30.740224 444.388432) scale(0.14 -0.14)">
       <use xlink:href="#CMR17-31" transform="scale(0.996264)"/>
       <use xlink:href="#CMMI12-3a" transform="translate(45.690477 0) scale(0.996264)"/>
       <use xlink:href="#CMR17-30" transform="translate(72.787654 0) scale(0.996264)"/>
      </g>
     </g>
    </g>
    <g id="ytick_32">
     <g id="line2d_57">
      <g>
       <use xlink:href="#ma10f56a21a" x="55.190806" y="405.097593" style="stroke: #000000; stroke-width: 0.8"/>
      </g>
     </g>
     <g id="text_38">
      <!-- $\mathdefault{1.5}$ -->
      <g transform="translate(30.740224 409.940531) scale(0.14 -0.14)">
       <use xlink:href="#CMR17-31" transform="scale(0.996264)"/>
       <use xlink:href="#CMMI12-3a" transform="translate(45.690477 0) scale(0.996264)"/>
       <use xlink:href="#CMR17-35" transform="translate(72.787654 0) scale(0.996264)"/>
      </g>
     </g>
    </g>
    <g id="ytick_33">
     <g id="line2d_58">
      <g>
       <use xlink:href="#ma10f56a21a" x="55.190806" y="370.649692" style="stroke: #000000; stroke-width: 0.8"/>
      </g>
     </g>
     <g id="text_39">
      <!-- $\mathdefault{2.0}$ -->
      <g transform="translate(30.740224 375.49263) scale(0.14 -0.14)">
       <use xlink:href="#CMR17-32" transform="scale(0.996264)"/>
       <use xlink:href="#CMMI12-3a" transform="translate(45.690477 0) scale(0.996264)"/>
       <use xlink:href="#CMR17-30" transform="translate(72.787654 0) scale(0.996264)"/>
      </g>
     </g>
    </g>
    <g id="ytick_34">
     <g id="line2d_59">
      <g>
       <use xlink:href="#ma10f56a21a" x="55.190806" y="336.201791" style="stroke: #000000; stroke-width: 0.8"/>
      </g>
     </g>
     <g id="text_40">
      <!-- $\mathdefault{2.5}$ -->
      <g transform="translate(30.740224 341.044729) scale(0.14 -0.14)">
       <use xlink:href="#CMR17-32" transform="scale(0.996264)"/>
       <use xlink:href="#CMMI12-3a" transform="translate(45.690477 0) scale(0.996264)"/>
       <use xlink:href="#CMR17-35" transform="translate(72.787654 0) scale(0.996264)"/>
      </g>
     </g>
    </g>
    <g id="ytick_35">
     <g id="line2d_60">
      <g>
       <use xlink:href="#ma10f56a21a" x="55.190806" y="301.75389" style="stroke: #000000; stroke-width: 0.8"/>
      </g>
     </g>
     <g id="text_41">
      <!-- $\mathdefault{3.0}$ -->
      <g transform="translate(30.740224 306.596828) scale(0.14 -0.14)">
       <use xlink:href="#CMR17-33" transform="scale(0.996264)"/>
       <use xlink:href="#CMMI12-3a" transform="translate(45.690477 0) scale(0.996264)"/>
       <use xlink:href="#CMR17-30" transform="translate(72.787654 0) scale(0.996264)"/>
      </g>
     </g>
    </g>
    <g id="text_42">
     <!-- Height (km) -->
     <g transform="translate(22.755168 446.932875) rotate(-90) scale(0.16 -0.16)">
      <use xlink:href="#CMR17-48" transform="scale(0.996264)"/>
      <use xlink:href="#CMR17-65" transform="translate(69.07243 0) scale(0.996264)"/>
      <use xlink:href="#CMR17-69" transform="translate(109.55809 0) scale(0.996264)"/>
      <use xlink:href="#CMR17-67" transform="translate(134.429149 0) scale(0.996264)"/>
      <use xlink:href="#CMR17-68" transform="translate(180.119626 0) scale(0.996264)"/>
      <use xlink:href="#CMR17-74" transform="translate(228.412542 0) scale(0.996264)"/>
      <use xlink:href="#CMR17-28" transform="translate(293.769276 0) scale(0.996264)"/>
      <use xlink:href="#CMR17-6b" transform="translate(329.050044 0) scale(0.996264)"/>
      <use xlink:href="#CMR17-6d" transform="translate(377.34296 0) scale(0.996264)"/>
      <use xlink:href="#CMR17-29" transform="translate(454.262549 0) scale(0.996264)"/>
     </g>
    </g>
   </g>
   <g id="line2d_61">
    <path d="M 65.11659 301.75389 
L 72.362065 305.887638 
L 85.075406 312.777218 
L 107.973841 325.178462 
L 122.727501 333.445959 
L 134.59294 340.335539 
L 146.030067 347.225119 
L 157.017227 354.114699 
L 167.539164 361.00428 
L 177.583663 367.89386 
L 185.268081 373.405524 
L 192.634305 378.917188 
L 199.676587 384.428852 
L 206.388875 389.940517 
L 212.76475 395.452181 
L 218.797403 400.963845 
L 224.479667 406.475509 
L 229.804082 411.987173 
L 234.762999 417.498837 
L 239.348725 423.010502 
L 242.538556 427.14425 
L 245.511141 431.277998 
L 248.263586 435.411746 
L 250.793232 439.545494 
L 253.097732 443.679242 
L 255.175125 447.81299 
L 257.023918 451.946738 
L 258.643169 456.080487 
L 260.03257 460.214235 
L 261.192535 464.347983 
L 262.124278 468.481731 
L 262.829889 472.615479 
L 263.312403 476.749227 
L 263.575859 480.882975 
L 263.625344 485.016724 
L 263.467026 489.150472 
L 263.108163 493.28422 
L 262.5571 497.417968 
L 261.823243 501.551716 
L 260.578566 507.06338 
L 260.222667 508.441296 
L 260.222667 508.441296 
" clip-path="url(#p1eff69e8c3)" style="fill: none; stroke: #000000; stroke-width: 1.5; stroke-linecap: square"/>
   </g>
   <g id="patch_24">
    <path d="M 55.190806 518.775667 
L 55.190806 291.419519 
" style="fill: none; stroke: #000000; stroke-width: 0.8; stroke-linejoin: miter; stroke-linecap: square"/>
   </g>
   <g id="patch_25">
    <path d="M 273.558049 518.775667 
L 273.558049 291.419519 
" style="fill: none; stroke: #000000; stroke-width: 0.8; stroke-linejoin: miter; stroke-linecap: square"/>
   </g>
   <g id="patch_26">
    <path d="M 55.190806 518.775667 
L 273.558049 518.775667 
" style="fill: none; stroke: #000000; stroke-width: 0.8; stroke-linejoin: miter; stroke-linecap: square"/>
   </g>
   <g id="patch_27">
    <path d="M 55.190806 291.419519 
L 273.558049 291.419519 
" style="fill: none; stroke: #000000; stroke-width: 0.8; stroke-linejoin: miter; stroke-linecap: square"/>
   </g>
  </g>
  <g id="axes_6">
   <g id="patch_28">
    <path d="M 296.16309 518.775667 
L 514.530333 518.775667 
L 514.530333 291.419519 
L 296.16309 291.419519 
z
" style="fill: #ffffff"/>
   </g>
   <g id="matplotlib.axis_11">
    <g id="xtick_21">
     <g id="line2d_62">
      <g>
       <use xlink:href="#mc1f376e287" x="326.24709" y="518.775667" style="stroke: #000000; stroke-width: 0.8"/>
      </g>
     </g>
     <g id="text_43">
      <!-- $\mathdefault{0.8}$ -->
      <g transform="translate(317.521798 535.461543) scale(0.14 -0.14)">
       <use xlink:href="#CMR17-30" transform="scale(0.996264)"/>
       <use xlink:href="#CMMI12-3a" transform="translate(45.690477 0) scale(0.996264)"/>
       <use xlink:href="#CMR17-38" transform="translate(72.787654 0) scale(0.996264)"/>
      </g>
     </g>
    </g>
    <g id="xtick_22">
     <g id="line2d_63">
      <g>
       <use xlink:href="#mc1f376e287" x="396.792206" y="518.775667" style="stroke: #000000; stroke-width: 0.8"/>
      </g>
     </g>
     <g id="text_44">
      <!-- $\mathdefault{0.9}$ -->
      <g transform="translate(388.066915 535.461543) scale(0.14 -0.14)">
       <use xlink:href="#CMR17-30" transform="scale(0.996264)"/>
       <use xlink:href="#CMMI12-3a" transform="translate(45.690477 0) scale(0.996264)"/>
       <use xlink:href="#CMR17-39" transform="translate(72.787654 0) scale(0.996264)"/>
      </g>
     </g>
    </g>
    <g id="xtick_23">
     <g id="line2d_64">
      <g>
       <use xlink:href="#mc1f376e287" x="467.337323" y="518.775667" style="stroke: #000000; stroke-width: 0.8"/>
      </g>
     </g>
     <g id="text_45">
      <!-- $\mathdefault{1.0}$ -->
      <g transform="translate(458.612032 535.461543) scale(0.14 -0.14)">
       <use xlink:href="#CMR17-31" transform="scale(0.996264)"/>
       <use xlink:href="#CMMI12-3a" transform="translate(45.690477 0) scale(0.996264)"/>
       <use xlink:href="#CMR17-30" transform="translate(72.787654 0) scale(0.996264)"/>
      </g>
     </g>
    </g>
    <g id="text_46">
     <!-- ZDR (dB) -->
     <g transform="translate(368.356154 555.606991) scale(0.18 -0.18)">
      <use xlink:href="#CMR17-5a" transform="scale(0.996264)"/>
      <use xlink:href="#CMR17-44" transform="translate(56.100171 0) scale(0.996264)"/>
      <use xlink:href="#CMR17-52" transform="translate(126.493727 0) scale(0.996264)"/>
      <use xlink:href="#CMR17-28" transform="translate(224.360795 0) scale(0.996264)"/>
      <use xlink:href="#CMR17-64" transform="translate(259.641563 0) scale(0.996264)"/>
      <use xlink:href="#CMR17-42" transform="translate(310.536933 0) scale(0.996264)"/>
      <use xlink:href="#CMR17-29" transform="translate(375.725687 0) scale(0.996264)"/>
     </g>
    </g>
   </g>
   <g id="matplotlib.axis_12">
    <g id="ytick_36">
     <g id="line2d_65">
      <g>
       <use xlink:href="#ma10f56a21a" x="296.16309" y="508.441296" style="stroke: #000000; stroke-width: 0.8"/>
      </g>
     </g>
    </g>
    <g id="ytick_37">
     <g id="line2d_66">
      <g>
       <use xlink:href="#ma10f56a21a" x="296.16309" y="473.993395" style="stroke: #000000; stroke-width: 0.8"/>
      </g>
     </g>
    </g>
    <g id="ytick_38">
     <g id="line2d_67">
      <g>
       <use xlink:href="#ma10f56a21a" x="296.16309" y="439.545494" style="stroke: #000000; stroke-width: 0.8"/>
      </g>
     </g>
    </g>
    <g id="ytick_39">
     <g id="line2d_68">
      <g>
       <use xlink:href="#ma10f56a21a" x="296.16309" y="405.097593" style="stroke: #000000; stroke-width: 0.8"/>
      </g>
     </g>
    </g>
    <g id="ytick_40">
     <g id="line2d_69">
      <g>
       <use xlink:href="#ma10f56a21a" x="296.16309" y="370.649692" style="stroke: #000000; stroke-width: 0.8"/>
      </g>
     </g>
    </g>
    <g id="ytick_41">
     <g id="line2d_70">
      <g>
       <use xlink:href="#ma10f56a21a" x="296.16309" y="336.201791" style="stroke: #000000; stroke-width: 0.8"/>
      </g>
     </g>
    </g>
    <g id="ytick_42">
     <g id="line2d_71">
      <g>
       <use xlink:href="#ma10f56a21a" x="296.16309" y="301.75389" style="stroke: #000000; stroke-width: 0.8"/>
      </g>
     </g>
    </g>
   </g>
   <g id="line2d_72">
    <path d="M 306.088874 301.75389 
L 308.770356 304.509722 
L 313.241049 308.64347 
L 319.687983 314.155134 
L 328.203476 321.044714 
L 338.81424 329.312211 
L 355.131199 341.713455 
L 387.849107 366.515944 
L 401.997604 377.539272 
L 414.013851 387.184684 
L 423.97255 395.452181 
L 433.559455 403.719677 
L 441.226402 410.609257 
L 448.568565 417.498837 
L 455.556796 424.388418 
L 460.873629 429.900082 
L 465.932218 435.411746 
L 470.719618 440.92341 
L 475.223864 446.435074 
L 479.434202 451.946738 
L 483.341339 457.458403 
L 486.9377 462.970067 
L 490.217692 468.481731 
L 493.177955 473.993395 
L 495.817591 479.505059 
L 498.13836 485.016724 
L 500.144824 490.528388 
L 501.844421 496.040052 
L 503.247476 501.551716 
L 504.367125 507.06338 
L 504.604549 508.441296 
L 504.604549 508.441296 
" clip-path="url(#pc4155abf86)" style="fill: none; stroke: #000000; stroke-width: 1.5; stroke-linecap: square"/>
   </g>
   <g id="patch_29">
    <path d="M 296.16309 518.775667 
L 296.16309 291.419519 
" style="fill: none; stroke: #000000; stroke-width: 0.8; stroke-linejoin: miter; stroke-linecap: square"/>
   </g>
   <g id="patch_30">
    <path d="M 514.530333 518.775667 
L 514.530333 291.419519 
" style="fill: none; stroke: #000000; stroke-width: 0.8; stroke-linejoin: miter; stroke-linecap: square"/>
   </g>
   <g id="patch_31">
    <path d="M 296.16309 518.775667 
L 514.530333 518.775667 
" style="fill: none; stroke: #000000; stroke-width: 0.8; stroke-linejoin: miter; stroke-linecap: square"/>
   </g>
   <g id="patch_32">
    <path d="M 296.16309 291.419519 
L 514.530333 291.419519 
" style="fill: none; stroke: #000000; stroke-width: 0.8; stroke-linejoin: miter; stroke-linecap: square"/>
   </g>
  </g>
  <g id="axes_7">
   <g id="patch_33">
    <path d="M 537.135374 518.775667 
L 755.502617 518.775667 
L 755.502617 291.419519 
L 537.135374 291.419519 
z
" style="fill: #ffffff"/>
   </g>
   <g id="matplotlib.axis_13">
    <g id="xtick_24">
     <g id="line2d_73">
      <g>
       <use xlink:href="#mc1f376e287" x="565.592561" y="518.775667" style="stroke: #000000; stroke-width: 0.8"/>
      </g>
     </g>
     <g id="text_47">
      <!-- $\mathdefault{0.14}$ -->
      <g transform="translate(553.453026 535.461543) scale(0.14 -0.14)">
       <use xlink:href="#CMR17-30" transform="scale(0.996264)"/>
       <use xlink:href="#CMMI12-3a" transform="translate(45.690477 0) scale(0.996264)"/>
       <use xlink:href="#CMR17-31" transform="translate(72.787654 0) scale(0.996264)"/>
       <use xlink:href="#CMR17-34" transform="translate(118.478131 0) scale(0.996264)"/>
      </g>
     </g>
    </g>
    <g id="xtick_25">
     <g id="line2d_74">
      <g>
       <use xlink:href="#mc1f376e287" x="639.681443" y="518.775667" style="stroke: #000000; stroke-width: 0.8"/>
      </g>
     </g>
     <g id="text_48">
      <!-- $\mathdefault{0.16}$ -->
      <g transform="translate(627.541907 535.461543) scale(0.14 -0.14)">
       <defs>
        <path id="CMR17-36" d="M 678 2198 
C 678 3712 1395 4076 1811 4076 
C 1946 4076 2272 4049 2400 3782 
C 2298 3782 2106 3782 2106 3558 
C 2106 3385 2246 3328 2336 3328 
C 2394 3328 2566 3353 2566 3571 
C 2566 3987 2246 4224 1805 4224 
C 1043 4224 243 3411 243 2011 
C 243 257 966 -128 1478 -128 
C 2099 -128 2688 431 2688 1295 
C 2688 2101 2170 2688 1517 2688 
C 1126 2688 838 2430 678 1979 
L 678 2198 
z
M 1478 25 
C 691 25 691 1212 691 1450 
C 691 1914 909 2585 1504 2585 
C 1613 2585 1926 2585 2138 2140 
C 2253 1889 2253 1624 2253 1302 
C 2253 954 2253 696 2118 438 
C 1978 173 1773 25 1478 25 
z
" transform="scale(0.015625)"/>
       </defs>
       <use xlink:href="#CMR17-30" transform="scale(0.996264)"/>
       <use xlink:href="#CMMI12-3a" transform="translate(45.690477 0) scale(0.996264)"/>
       <use xlink:href="#CMR17-31" transform="translate(72.787654 0) scale(0.996264)"/>
       <use xlink:href="#CMR17-36" transform="translate(118.478131 0) scale(0.996264)"/>
      </g>
     </g>
    </g>
    <g id="xtick_26">
     <g id="line2d_75">
      <g>
       <use xlink:href="#mc1f376e287" x="713.770324" y="518.775667" style="stroke: #000000; stroke-width: 0.8"/>
      </g>
     </g>
     <g id="text_49">
      <!-- $\mathdefault{0.18}$ -->
      <g transform="translate(701.630789 535.461543) scale(0.14 -0.14)">
       <use xlink:href="#CMR17-30" transform="scale(0.996264)"/>
       <use xlink:href="#CMMI12-3a" transform="translate(45.690477 0) scale(0.996264)"/>
       <use xlink:href="#CMR17-31" transform="translate(72.787654 0) scale(0.996264)"/>
       <use xlink:href="#CMR17-38" transform="translate(118.478131 0) scale(0.996264)"/>
      </g>
     </g>
    </g>
    <g id="text_50">
     <!-- Kdp (deg/km) -->
     <g transform="translate(593.932058 555.606991) scale(0.18 -0.18)">
      <defs>
       <path id="CMR17-4b" d="M 2362 2669 
L 3469 3771 
C 3699 3994 3942 4172 4301 4185 
L 4301 4352 
C 4173 4345 4013 4339 3885 4339 
C 3712 4339 3411 4339 3245 4352 
L 3245 4185 
C 3411 4172 3437 4057 3437 4013 
C 3437 3968 3411 3898 3386 3860 
L 1261 1739 
L 1261 3898 
C 1261 4185 1331 4185 1773 4185 
L 1773 4352 
C 1587 4339 1248 4339 1050 4339 
C 851 4339 512 4339 326 4352 
L 326 4185 
C 768 4185 838 4185 838 3898 
L 838 453 
C 838 166 768 166 326 166 
L 326 0 
C 512 12 851 12 1050 12 
C 1248 12 1587 12 1773 0 
L 1773 166 
C 1331 166 1261 166 1261 453 
L 1261 1580 
L 2080 2389 
L 3290 542 
C 3328 478 3373 395 3373 332 
C 3373 166 3194 166 3110 166 
L 3110 0 
C 3315 12 3610 12 3821 12 
C 3974 12 4237 12 4384 0 
L 4384 166 
C 4077 166 3981 204 3789 497 
L 2362 2669 
z
" transform="scale(0.015625)"/>
       <path id="CMR17-70" d="M 1408 -1114 
C 998 -1114 973 -1088 973 -834 
L 973 380 
C 1158 109 1427 -64 1766 -64 
C 2406 -64 3053 503 3053 1382 
C 3053 2196 2496 2816 1837 2816 
C 1453 2816 1139 2603 960 2345 
L 960 2816 
L 198 2745 
L 198 2577 
C 576 2577 634 2539 634 2228 
L 634 -834 
C 634 -1081 608 -1114 198 -1114 
L 198 -1280 
C 352 -1268 634 -1268 800 -1268 
C 966 -1268 1254 -1268 1408 -1280 
L 1408 -1114 
z
M 973 2015 
C 973 2106 973 2241 1222 2481 
C 1254 2506 1472 2700 1792 2700 
C 2259 2700 2643 2112 2643 1376 
C 2643 639 2234 38 1728 38 
C 1498 38 1248 148 1056 451 
C 973 594 973 632 973 736 
L 973 2015 
z
" transform="scale(0.015625)"/>
      </defs>
      <use xlink:href="#CMR17-4b" transform="scale(0.996264)"/>
      <use xlink:href="#CMR17-64" transform="translate(71.674777 0) scale(0.996264)"/>
      <use xlink:href="#CMR17-70" transform="translate(122.570147 0) scale(0.996264)"/>
      <use xlink:href="#CMR17-28" transform="translate(203.541483 0) scale(0.996264)"/>
      <use xlink:href="#CMR17-64" transform="translate(238.822251 0) scale(0.996264)"/>
      <use xlink:href="#CMR17-65" transform="translate(289.717621 0) scale(0.996264)"/>
      <use xlink:href="#CMR17-67" transform="translate(330.203281 0) scale(0.996264)"/>
      <use xlink:href="#CMR17-2f" transform="translate(375.893758 0) scale(0.996264)"/>
      <use xlink:href="#CMR17-6b" transform="translate(421.584236 0) scale(0.996264)"/>
      <use xlink:href="#CMR17-6d" transform="translate(469.877151 0) scale(0.996264)"/>
      <use xlink:href="#CMR17-29" transform="translate(546.796741 0) scale(0.996264)"/>
     </g>
    </g>
   </g>
   <g id="matplotlib.axis_14">
    <g id="ytick_43">
     <g id="line2d_76">
      <g>
       <use xlink:href="#ma10f56a21a" x="537.135374" y="508.441296" style="stroke: #000000; stroke-width: 0.8"/>
      </g>
     </g>
    </g>
    <g id="ytick_44">
     <g id="line2d_77">
      <g>
       <use xlink:href="#ma10f56a21a" x="537.135374" y="473.993395" style="stroke: #000000; stroke-width: 0.8"/>
      </g>
     </g>
    </g>
    <g id="ytick_45">
     <g id="line2d_78">
      <g>
       <use xlink:href="#ma10f56a21a" x="537.135374" y="439.545494" style="stroke: #000000; stroke-width: 0.8"/>
      </g>
     </g>
    </g>
    <g id="ytick_46">
     <g id="line2d_79">
      <g>
       <use xlink:href="#ma10f56a21a" x="537.135374" y="405.097593" style="stroke: #000000; stroke-width: 0.8"/>
      </g>
     </g>
    </g>
    <g id="ytick_47">
     <g id="line2d_80">
      <g>
       <use xlink:href="#ma10f56a21a" x="537.135374" y="370.649692" style="stroke: #000000; stroke-width: 0.8"/>
      </g>
     </g>
    </g>
    <g id="ytick_48">
     <g id="line2d_81">
      <g>
       <use xlink:href="#ma10f56a21a" x="537.135374" y="336.201791" style="stroke: #000000; stroke-width: 0.8"/>
      </g>
     </g>
    </g>
    <g id="ytick_49">
     <g id="line2d_82">
      <g>
       <use xlink:href="#ma10f56a21a" x="537.135374" y="301.75389" style="stroke: #000000; stroke-width: 0.8"/>
      </g>
     </g>
    </g>
   </g>
   <g id="line2d_83">
    <path d="M 547.061158 301.75389 
L 554.337271 305.887638 
L 567.182173 312.777218 
L 600.85045 330.690127 
L 615.84973 338.957623 
L 627.956046 345.847203 
L 639.658354 352.736783 
L 650.920563 359.626364 
L 661.709927 366.515944 
L 669.979848 372.027608 
L 677.911075 377.539272 
L 685.487488 383.050936 
L 692.6927 388.5626 
L 699.510008 394.074265 
L 705.922417 399.585929 
L 711.912731 405.097593 
L 716.11808 409.231341 
L 720.069049 413.365089 
L 723.758506 417.498837 
L 727.179493 421.632586 
L 730.325318 425.766334 
L 733.18964 429.900082 
L 735.766579 434.03383 
L 738.050825 438.167578 
L 740.03776 442.301326 
L 741.723586 446.435074 
L 743.105453 450.568822 
L 744.181591 454.702571 
L 744.951443 458.836319 
L 745.415782 462.970067 
L 745.576834 467.103815 
L 745.43837 471.237563 
L 745.005796 475.371311 
L 744.286209 479.505059 
L 743.28843 483.638807 
L 742.023015 487.772556 
L 740.502221 491.906304 
L 738.739951 496.040052 
L 736.751655 500.1738 
L 734.554206 504.307548 
L 732.165738 508.441296 
L 732.165738 508.441296 
" clip-path="url(#p5b26e86b6a)" style="fill: none; stroke: #000000; stroke-width: 1.5; stroke-linecap: square"/>
   </g>
   <g id="patch_34">
    <path d="M 537.135374 518.775667 
L 537.135374 291.419519 
" style="fill: none; stroke: #000000; stroke-width: 0.8; stroke-linejoin: miter; stroke-linecap: square"/>
   </g>
   <g id="patch_35">
    <path d="M 755.502617 518.775667 
L 755.502617 291.419519 
" style="fill: none; stroke: #000000; stroke-width: 0.8; stroke-linejoin: miter; stroke-linecap: square"/>
   </g>
   <g id="patch_36">
    <path d="M 537.135374 518.775667 
L 755.502617 518.775667 
" style="fill: none; stroke: #000000; stroke-width: 0.8; stroke-linejoin: miter; stroke-linecap: square"/>
   </g>
   <g id="patch_37">
    <path d="M 537.135374 291.419519 
L 755.502617 291.419519 
" style="fill: none; stroke: #000000; stroke-width: 0.8; stroke-linejoin: miter; stroke-linecap: square"/>
   </g>
  </g>
  <g id="axes_8">
   <g id="patch_38">
    <path d="M 778.107659 518.775667 
L 996.474901 518.775667 
L 996.474901 291.419519 
L 778.107659 291.419519 
z
" style="fill: #ffffff"/>
   </g>
   <g id="matplotlib.axis_15">
    <g id="xtick_27">
     <g id="line2d_84">
      <g>
       <use xlink:href="#mc1f376e287" x="791.70816" y="518.775667" style="stroke: #000000; stroke-width: 0.8"/>
      </g>
     </g>
     <g id="text_51">
      <!-- $\mathdefault{0.99770}$ -->
      <g transform="translate(769.325892 535.461543) scale(0.14 -0.14)">
       <use xlink:href="#CMR17-30" transform="scale(0.996264)"/>
       <use xlink:href="#CMMI12-3a" transform="translate(45.690477 0) scale(0.996264)"/>
       <use xlink:href="#CMR17-39" transform="translate(72.787654 0) scale(0.996264)"/>
       <use xlink:href="#CMR17-39" transform="translate(118.478131 0) scale(0.996264)"/>
       <use xlink:href="#CMR17-37" transform="translate(164.168608 0) scale(0.996264)"/>
       <use xlink:href="#CMR17-37" transform="translate(209.859086 0) scale(0.996264)"/>
       <use xlink:href="#CMR17-30" transform="translate(255.549563 0) scale(0.996264)"/>
      </g>
     </g>
    </g>
    <g id="xtick_28">
     <g id="line2d_85">
      <g>
       <use xlink:href="#mc1f376e287" x="860.789476" y="518.775667" style="stroke: #000000; stroke-width: 0.8"/>
      </g>
     </g>
     <g id="text_52">
      <!-- $\mathdefault{0.99775}$ -->
      <g transform="translate(838.407208 535.461543) scale(0.14 -0.14)">
       <use xlink:href="#CMR17-30" transform="scale(0.996264)"/>
       <use xlink:href="#CMMI12-3a" transform="translate(45.690477 0) scale(0.996264)"/>
       <use xlink:href="#CMR17-39" transform="translate(72.787654 0) scale(0.996264)"/>
       <use xlink:href="#CMR17-39" transform="translate(118.478131 0) scale(0.996264)"/>
       <use xlink:href="#CMR17-37" transform="translate(164.168608 0) scale(0.996264)"/>
       <use xlink:href="#CMR17-37" transform="translate(209.859086 0) scale(0.996264)"/>
       <use xlink:href="#CMR17-35" transform="translate(255.549563 0) scale(0.996264)"/>
      </g>
     </g>
    </g>
    <g id="xtick_29">
     <g id="line2d_86">
      <g>
       <use xlink:href="#mc1f376e287" x="929.870793" y="518.775667" style="stroke: #000000; stroke-width: 0.8"/>
      </g>
     </g>
     <g id="text_53">
      <!-- $\mathdefault{0.99780}$ -->
      <g transform="translate(907.488524 535.461543) scale(0.14 -0.14)">
       <use xlink:href="#CMR17-30" transform="scale(0.996264)"/>
       <use xlink:href="#CMMI12-3a" transform="translate(45.690477 0) scale(0.996264)"/>
       <use xlink:href="#CMR17-39" transform="translate(72.787654 0) scale(0.996264)"/>
       <use xlink:href="#CMR17-39" transform="translate(118.478131 0) scale(0.996264)"/>
       <use xlink:href="#CMR17-37" transform="translate(164.168608 0) scale(0.996264)"/>
       <use xlink:href="#CMR17-38" transform="translate(209.859086 0) scale(0.996264)"/>
       <use xlink:href="#CMR17-30" transform="translate(255.549563 0) scale(0.996264)"/>
      </g>
     </g>
    </g>
    <g id="text_54">
     <!-- $\rho_{\mathrm{hv}}$ -->
     <g transform="translate(871.961157 560.161673) scale(0.26 -0.26)">
      <defs>
       <path id="CMMI12-1a" d="M 198 -1085 
C 192 -1116 179 -1154 179 -1191 
C 179 -1287 256 -1351 352 -1351 
C 448 -1351 538 -1287 576 -1198 
C 602 -1141 781 -390 986 389 
C 1114 70 1350 -64 1600 -64 
C 2323 -64 3142 830 3142 1794 
C 3142 2477 2726 2816 2285 2816 
C 1722 2816 1037 2234 826 1385 
L 198 -1085 
z
M 1594 64 
C 1158 64 1050 568 1050 645 
C 1050 683 1210 1289 1229 1385 
C 1555 2656 2182 2687 2278 2687 
C 2566 2687 2726 2426 2726 2049 
C 2726 1724 2554 1091 2445 823 
C 2253 383 1920 64 1594 64 
z
" transform="scale(0.015625)"/>
       <path id="CMR17-76" d="M 2502 2173 
C 2560 2315 2662 2572 3034 2585 
L 3034 2752 
C 2912 2745 2752 2739 2630 2739 
C 2496 2739 2285 2739 2157 2752 
L 2157 2585 
C 2317 2572 2406 2495 2406 2328 
C 2406 2270 2406 2257 2368 2167 
L 1664 379 
L 902 2308 
C 864 2392 864 2405 864 2431 
C 864 2585 1075 2585 1171 2585 
L 1171 2752 
C 1018 2739 736 2739 576 2739 
C 403 2739 205 2739 64 2752 
L 64 2585 
C 307 2585 442 2585 518 2386 
L 1446 44 
C 1485 -52 1491 -64 1549 -64 
C 1606 -64 1613 -52 1651 44 
L 2502 2173 
z
" transform="scale(0.015625)"/>
      </defs>
      <use xlink:href="#CMMI12-1a" transform="scale(0.996264)"/>
      <use xlink:href="#CMR17-68" transform="translate(50.314373 -14.943915) scale(0.697382)"/>
      <use xlink:href="#CMR17-76" transform="translate(84.11926 -14.943915) scale(0.697382)"/>
     </g>
    </g>
   </g>
   <g id="matplotlib.axis_16">
    <g id="ytick_50">
     <g id="line2d_87">
      <g>
       <use xlink:href="#ma10f56a21a" x="778.107659" y="508.441296" style="stroke: #000000; stroke-width: 0.8"/>
      </g>
     </g>
    </g>
    <g id="ytick_51">
     <g id="line2d_88">
      <g>
       <use xlink:href="#ma10f56a21a" x="778.107659" y="473.993395" style="stroke: #000000; stroke-width: 0.8"/>
      </g>
     </g>
    </g>
    <g id="ytick_52">
     <g id="line2d_89">
      <g>
       <use xlink:href="#ma10f56a21a" x="778.107659" y="439.545494" style="stroke: #000000; stroke-width: 0.8"/>
      </g>
     </g>
    </g>
    <g id="ytick_53">
     <g id="line2d_90">
      <g>
       <use xlink:href="#ma10f56a21a" x="778.107659" y="405.097593" style="stroke: #000000; stroke-width: 0.8"/>
      </g>
     </g>
    </g>
    <g id="ytick_54">
     <g id="line2d_91">
      <g>
       <use xlink:href="#ma10f56a21a" x="778.107659" y="370.649692" style="stroke: #000000; stroke-width: 0.8"/>
      </g>
     </g>
    </g>
    <g id="ytick_55">
     <g id="line2d_92">
      <g>
       <use xlink:href="#ma10f56a21a" x="778.107659" y="336.201791" style="stroke: #000000; stroke-width: 0.8"/>
      </g>
     </g>
    </g>
    <g id="ytick_56">
     <g id="line2d_93">
      <g>
       <use xlink:href="#ma10f56a21a" x="778.107659" y="301.75389" style="stroke: #000000; stroke-width: 0.8"/>
      </g>
     </g>
    </g>
   </g>
   <g id="line2d_94">
    <path d="M 936.92992 301.75389 
L 943.70487 303.131806 
L 949.579794 304.509722 
L 954.733192 305.887638 
L 959.285577 307.265554 
L 963.324362 308.64347 
L 966.913804 310.021386 
L 970.102782 311.399302 
L 972.929945 312.777218 
L 975.426683 314.155134 
L 977.61893 315.53305 
L 979.528691 316.910966 
L 981.174992 318.288882 
L 982.574534 319.666798 
L 983.742172 321.044714 
L 984.691252 322.42263 
L 985.433885 323.800546 
L 985.981154 325.178462 
L 986.343262 326.556379 
L 986.529655 327.934295 
L 986.549118 329.312211 
L 986.409857 330.690127 
L 986.119563 332.068043 
L 985.685467 333.445959 
L 985.114385 334.823875 
L 983.5867 337.579707 
L 981.584164 340.335539 
L 979.149886 343.091371 
L 976.323144 345.847203 
L 973.139955 348.603035 
L 969.633534 351.358867 
L 965.834682 354.114699 
L 959.65036 358.248448 
L 952.961539 362.382196 
L 945.849843 366.515944 
L 935.838963 372.027608 
L 925.373047 377.539272 
L 909.145425 385.806768 
L 873.744112 403.719677 
L 860.694662 410.609257 
L 850.696118 416.120921 
L 841.190652 421.632586 
L 834.437265 425.766334 
L 828.043706 429.900082 
L 822.041491 434.03383 
L 816.459687 438.167578 
L 811.324757 442.301326 
L 806.660386 446.435074 
L 803.822587 449.190906 
L 801.208567 451.946738 
L 798.823045 454.702571 
L 796.670066 457.458403 
L 794.752975 460.214235 
L 793.074397 462.970067 
L 791.636212 465.725899 
L 790.439536 468.481731 
L 789.484704 471.237563 
L 788.771253 473.993395 
L 788.297927 476.749227 
L 788.062671 479.505059 
L 788.062574 482.260891 
L 788.293896 485.016724 
L 788.752083 487.772556 
L 789.431782 490.528388 
L 790.32685 493.28422 
L 791.430383 496.040052 
L 792.734734 498.795884 
L 794.231545 501.551716 
L 795.911785 504.307548 
L 798.754761 508.441296 
L 798.754761 508.441296 
" clip-path="url(#p7048d14fb5)" style="fill: none; stroke: #000000; stroke-width: 1.5; stroke-linecap: square"/>
   </g>
   <g id="patch_39">
    <path d="M 778.107659 518.775667 
L 778.107659 291.419519 
" style="fill: none; stroke: #000000; stroke-width: 0.8; stroke-linejoin: miter; stroke-linecap: square"/>
   </g>
   <g id="patch_40">
    <path d="M 996.474901 518.775667 
L 996.474901 291.419519 
" style="fill: none; stroke: #000000; stroke-width: 0.8; stroke-linejoin: miter; stroke-linecap: square"/>
   </g>
   <g id="patch_41">
    <path d="M 778.107659 518.775667 
L 996.474901 518.775667 
" style="fill: none; stroke: #000000; stroke-width: 0.8; stroke-linejoin: miter; stroke-linecap: square"/>
   </g>
   <g id="patch_42">
    <path d="M 778.107659 291.419519 
L 996.474901 291.419519 
" style="fill: none; stroke: #000000; stroke-width: 0.8; stroke-linejoin: miter; stroke-linecap: square"/>
   </g>
  </g>
 </g>
 <defs>
  <clipPath id="p467d992767">
   <rect x="55.190806" y="10.8" width="218.367243" height="227.356147"/>
  </clipPath>
  <clipPath id="pd9136ce4fa">
   <rect x="296.16309" y="10.8" width="218.367243" height="227.356147"/>
  </clipPath>
  <clipPath id="p64325147c7">
   <rect x="537.135374" y="10.8" width="218.367243" height="227.356147"/>
  </clipPath>
  <clipPath id="pea22f6ea25">
   <rect x="778.107659" y="10.8" width="218.367243" height="227.356147"/>
  </clipPath>
  <clipPath id="p1eff69e8c3">
   <rect x="55.190806" y="291.419519" width="218.367243" height="227.356147"/>
  </clipPath>
  <clipPath id="pc4155abf86">
   <rect x="296.16309" y="291.419519" width="218.367243" height="227.356147"/>
  </clipPath>
  <clipPath id="p5b26e86b6a">
   <rect x="537.135374" y="291.419519" width="218.367243" height="227.356147"/>
  </clipPath>
  <clipPath id="p7048d14fb5">
   <rect x="778.107659" y="291.419519" width="218.367243" height="227.356147"/>
  </clipPath>
 </defs>
</svg>
